<?xml version="1.0" encoding="utf-8"?>
<!-- Generator: Adobe Illustrator 16.0.0, SVG Export Plug-In . SVG Version: 6.00 Build 0)  -->
<!DOCTYPE svg PUBLIC "-//W3C//DTD SVG 1.1//EN" "http://www.w3.org/Graphics/SVG/1.1/DTD/svg11.dtd">
<svg version="1.1" id="レイヤー_1" xmlns="http://www.w3.org/2000/svg" xmlns:xlink="http://www.w3.org/1999/xlink" x="0px"
	 y="0px" width="240px" height="60px" viewBox="0 0 240 60" enable-background="new 0 0 240 60" xml:space="preserve">
<g>
	<path fill="#004A82" d="M196.438,12.247V3.422c0-1.33-1.09-2.422-2.424-2.422h-33.799c-1.332,0-2.416,1.092-2.416,2.422v8.825
		c0,1.329,1.084,2.421,2.416,2.421h8.896v41.918c0,1.328,1.094,2.414,2.424,2.414h11.166c1.336,0,2.42-1.086,2.42-2.414V14.668
		h8.893C195.348,14.668,196.438,13.576,196.438,12.247"/>
	<path fill="#004A82" d="M236.58,55.789L223.404,3.173C223.086,1.896,221.938,1,220.621,1h-13.422c-1.318,0-2.465,0.896-2.785,2.173
		L191.24,55.789c-0.191,0.771-0.02,1.59,0.469,2.219c0.49,0.625,1.242,0.992,2.039,0.992h9.25c1.379,0,2.566-0.982,2.82-2.342
		l1.566-8.33h13.047l1.566,8.33c0.256,1.359,1.441,2.342,2.822,2.342h9.252c0.795,0,1.547-0.367,2.035-0.992
		C236.598,57.379,236.77,56.561,236.58,55.789 M209.203,38.67l4.705-25.035l4.709,25.035H209.203z"/>
	<path fill="#004A82" d="M150.557,1h-10.107c-1.566,0-2.842,1.282-2.842,2.847v52.31c0,1.568,1.275,2.844,2.842,2.844h10.107
		c1.564,0,2.844-1.275,2.844-2.844V3.847C153.4,2.282,152.121,1,150.557,1 M148.377,51.104c0,1.58-1.291,2.871-2.871,2.871h-0.004
		c-1.578,0-2.871-1.291-2.871-2.871V8.896c0-1.578,1.293-2.871,2.871-2.871h0.004c1.58,0,2.871,1.293,2.871,2.871V51.104z"/>
	<path fill="#004A82" d="M128.051,1h-10.104c-1.561,0-2.844,1.282-2.844,2.847v23.652L103.592,3.57
		C102.914,2.159,101.082,1,99.516,1H88.199c-1.561,0-2.838,1.282-2.838,2.847v52.31c0,1.568,1.277,2.844,2.838,2.844h10.113
		c1.563,0,2.846-1.275,2.846-2.844V32.607l11.129,23.818c0.662,1.416,2.48,2.574,4.047,2.574h11.717
		c1.564,0,2.846-1.275,2.846-2.844V3.847C130.896,2.282,129.615,1,128.051,1 M125.873,51.104c0,1.584-1.287,2.871-2.871,2.871
		h-4.486c-1.109,0-2.129-0.65-2.6-1.654L97.492,14.03c-0.119-0.254-0.373-0.406-0.643-0.406c-0.055,0-0.107,0.005-0.16,0.017
		c-0.328,0.074-0.561,0.365-0.561,0.7v36.763c0,1.584-1.287,2.871-2.871,2.871s-2.873-1.287-2.873-2.871V8.896
		c0-1.584,1.287-2.871,2.869-2.871h4.137c1.098,0,2.111,0.639,2.588,1.626l18.787,37.803c0.123,0.25,0.375,0.398,0.641,0.398
		c0.057,0,0.111-0.004,0.166-0.02c0.324-0.074,0.555-0.363,0.555-0.697V8.896c0-1.584,1.287-2.871,2.871-2.871
		s2.875,1.287,2.875,2.871V51.104z"/>
	<path fill="#004A82" d="M68.951,3.173C68.633,1.896,67.484,1,66.166,1h-13.42c-1.316,0-2.465,0.896-2.785,2.173L36.787,55.789
		c-0.191,0.771-0.02,1.59,0.471,2.219C37.746,58.633,38.498,59,39.295,59h9.25c1.381,0,2.566-0.982,2.822-2.342l1.564-8.33h13.047
		l1.566,8.33C67.803,58.018,68.988,59,70.367,59h9.252c0.795,0,1.547-0.367,2.037-0.992c0.488-0.629,0.662-1.447,0.469-2.219
		L68.951,3.173z M54.748,38.67l4.709-25.035l4.707,25.035H54.748z"/>
	<path fill="#004A82" d="M41.982,12.247V3.422c0-1.33-1.086-2.422-2.422-2.422H5.764C4.432,1,3.346,2.092,3.346,3.422v8.825
		c0,1.329,1.086,2.421,2.418,2.421h8.895v41.918c0,1.328,1.094,2.414,2.424,2.414h11.166c1.336,0,2.422-1.086,2.422-2.414V14.668
		h8.891C40.896,14.668,41.982,13.576,41.982,12.247"/>
</g>
</svg>
