<?xml version="1.0" encoding="utf-8"?>
<!-- Generator: Adobe Illustrator 24.3.0, SVG Export Plug-In . SVG Version: 6.00 Build 0)  -->
<svg version="1.1" id="圖層_1" xmlns="http://www.w3.org/2000/svg" xmlns:xlink="http://www.w3.org/1999/xlink" x="0px" y="0px"
	 viewBox="0 0 336 100" style="enable-background:new 0 0 336 100;" xml:space="preserve">
<style type="text/css">
	.st0{fill:#ED6D1F;}
	.st1{fill:#FFFFFF;}
</style>
<g>
	<path d="M-198.22-290.11l6.46,18.98h0.08l6.11-18.98h8.54v27.6h-5.68v-19.56h-0.08l-6.76,19.56h-4.68l-6.76-19.37h-0.08v19.37
		h-5.68v-27.6H-198.22z"/>
	<path d="M-172.51-276.35c0.08-1.29,0.4-2.36,0.97-3.21c0.57-0.85,1.29-1.53,2.16-2.05c0.88-0.51,1.86-0.88,2.96-1.1
		c1.09-0.22,2.2-0.33,3.31-0.33c1,0,2.02,0.07,3.05,0.21c1.03,0.14,1.97,0.42,2.82,0.83s1.55,0.99,2.09,1.72
		c0.54,0.73,0.81,1.71,0.81,2.92v10.4c0,0.9,0.05,1.76,0.16,2.59c0.1,0.82,0.28,1.44,0.54,1.86h-5.57c-0.1-0.31-0.19-0.62-0.25-0.95
		c-0.06-0.32-0.11-0.65-0.13-0.99c-0.88,0.9-1.91,1.53-3.09,1.89c-1.18,0.36-2.4,0.54-3.63,0.54c-0.95,0-1.84-0.12-2.67-0.35
		c-0.83-0.23-1.55-0.59-2.16-1.08c-0.62-0.49-1.1-1.11-1.45-1.86c-0.35-0.75-0.52-1.64-0.52-2.67c0-1.13,0.2-2.07,0.6-2.8
		s0.91-1.32,1.55-1.76c0.63-0.44,1.35-0.77,2.16-0.99c0.81-0.22,1.63-0.39,2.45-0.52c0.82-0.13,1.64-0.23,2.44-0.31
		c0.8-0.08,1.51-0.19,2.13-0.35c0.62-0.15,1.11-0.38,1.47-0.68c0.36-0.3,0.53-0.73,0.5-1.29c0-0.59-0.1-1.06-0.29-1.41
		c-0.19-0.35-0.45-0.62-0.77-0.81c-0.32-0.19-0.69-0.32-1.12-0.39c-0.42-0.06-0.88-0.1-1.37-0.1c-1.08,0-1.93,0.23-2.55,0.7
		c-0.62,0.46-0.98,1.24-1.08,2.32H-172.51z M-159.83-272.29c-0.23,0.21-0.52,0.37-0.87,0.48c-0.35,0.12-0.72,0.21-1.12,0.29
		c-0.4,0.08-0.82,0.14-1.26,0.19c-0.44,0.05-0.88,0.12-1.31,0.19c-0.41,0.08-0.82,0.18-1.22,0.31c-0.4,0.13-0.75,0.3-1.04,0.52
		c-0.3,0.22-0.54,0.5-0.72,0.83c-0.18,0.34-0.27,0.76-0.27,1.28c0,0.49,0.09,0.9,0.27,1.24c0.18,0.34,0.43,0.6,0.74,0.79
		c0.31,0.19,0.67,0.33,1.08,0.41c0.41,0.08,0.84,0.12,1.27,0.12c1.08,0,1.92-0.18,2.51-0.54c0.59-0.36,1.03-0.79,1.31-1.29
		c0.28-0.5,0.46-1.01,0.52-1.53c0.06-0.52,0.1-0.93,0.1-1.24V-272.29z"/>
	<path d="M-145.47-267.47c0.25,0.43,0.56,0.77,0.95,1.04c0.39,0.27,0.83,0.47,1.33,0.6c0.5,0.13,1.02,0.19,1.57,0.19
		c0.39,0,0.79-0.05,1.22-0.14c0.43-0.09,0.81-0.23,1.16-0.43c0.35-0.19,0.64-0.45,0.87-0.77c0.23-0.32,0.35-0.73,0.35-1.22
		c0-0.82-0.55-1.44-1.64-1.86c-1.1-0.41-2.62-0.82-4.58-1.24c-0.8-0.18-1.58-0.39-2.34-0.64c-0.76-0.24-1.44-0.57-2.03-0.97
		c-0.59-0.4-1.07-0.9-1.43-1.51c-0.36-0.61-0.54-1.35-0.54-2.22c0-1.29,0.25-2.35,0.75-3.17c0.5-0.83,1.17-1.47,1.99-1.95
		c0.82-0.48,1.75-0.81,2.78-1c1.03-0.19,2.09-0.29,3.17-0.29c1.08,0,2.13,0.1,3.15,0.31c1.02,0.21,1.93,0.55,2.73,1.04
		c0.8,0.49,1.46,1.14,1.99,1.95c0.53,0.81,0.84,1.84,0.95,3.07h-5.22c-0.08-1.06-0.48-1.77-1.2-2.15c-0.72-0.37-1.57-0.56-2.55-0.56
		c-0.31,0-0.64,0.02-1,0.06c-0.36,0.04-0.69,0.12-0.99,0.25c-0.3,0.13-0.55,0.32-0.75,0.56s-0.31,0.57-0.31,0.99
		c0,0.49,0.18,0.89,0.54,1.2c0.36,0.31,0.83,0.56,1.41,0.75c0.58,0.19,1.24,0.37,1.99,0.52c0.75,0.15,1.51,0.32,2.28,0.5
		c0.8,0.18,1.58,0.4,2.34,0.66c0.76,0.26,1.44,0.6,2.03,1.03c0.59,0.42,1.07,0.95,1.43,1.58c0.36,0.63,0.54,1.41,0.54,2.34
		c0,1.31-0.27,2.42-0.79,3.3s-1.22,1.6-2.07,2.15c-0.85,0.54-1.82,0.92-2.92,1.14c-1.09,0.22-2.21,0.33-3.34,0.33
		c-1.16,0-2.29-0.12-3.4-0.35c-1.11-0.23-2.09-0.62-2.96-1.16c-0.86-0.54-1.57-1.26-2.13-2.15c-0.55-0.89-0.86-2-0.91-3.34h5.22
		C-145.84-268.41-145.72-267.9-145.47-267.47z"/>
	<path d="M-129.57-276.35c0.08-1.29,0.4-2.36,0.97-3.21c0.57-0.85,1.29-1.53,2.16-2.05c0.88-0.51,1.86-0.88,2.96-1.1
		c1.09-0.22,2.2-0.33,3.31-0.33c1,0,2.02,0.07,3.05,0.21c1.03,0.14,1.97,0.42,2.82,0.83c0.85,0.41,1.55,0.99,2.09,1.72
		c0.54,0.73,0.81,1.71,0.81,2.92v10.4c0,0.9,0.05,1.76,0.16,2.59c0.1,0.82,0.28,1.44,0.54,1.86h-5.57c-0.1-0.31-0.19-0.62-0.25-0.95
		c-0.06-0.32-0.11-0.65-0.13-0.99c-0.88,0.9-1.91,1.53-3.09,1.89c-1.18,0.36-2.4,0.54-3.63,0.54c-0.95,0-1.84-0.12-2.67-0.35
		c-0.83-0.23-1.55-0.59-2.16-1.08c-0.62-0.49-1.1-1.11-1.45-1.86c-0.35-0.75-0.52-1.64-0.52-2.67c0-1.13,0.2-2.07,0.6-2.8
		s0.91-1.32,1.55-1.76c0.63-0.44,1.35-0.77,2.16-0.99c0.81-0.22,1.63-0.39,2.45-0.52c0.82-0.13,1.64-0.23,2.44-0.31
		c0.8-0.08,1.51-0.19,2.13-0.35c0.62-0.15,1.11-0.38,1.47-0.68c0.36-0.3,0.53-0.73,0.5-1.29c0-0.59-0.1-1.06-0.29-1.41
		c-0.19-0.35-0.45-0.62-0.77-0.81c-0.32-0.19-0.69-0.32-1.12-0.39c-0.42-0.06-0.88-0.1-1.37-0.1c-1.08,0-1.93,0.23-2.55,0.7
		c-0.62,0.46-0.98,1.24-1.08,2.32H-129.57z M-116.89-272.29c-0.23,0.21-0.52,0.37-0.87,0.48c-0.35,0.12-0.72,0.21-1.12,0.29
		c-0.4,0.08-0.82,0.14-1.26,0.19c-0.44,0.05-0.88,0.12-1.31,0.19c-0.41,0.08-0.82,0.18-1.22,0.31c-0.4,0.13-0.75,0.3-1.04,0.52
		c-0.3,0.22-0.54,0.5-0.72,0.83c-0.18,0.34-0.27,0.76-0.27,1.28c0,0.49,0.09,0.9,0.27,1.24s0.43,0.6,0.74,0.79
		c0.31,0.19,0.67,0.33,1.08,0.41c0.41,0.08,0.84,0.12,1.27,0.12c1.08,0,1.92-0.18,2.51-0.54c0.59-0.36,1.03-0.79,1.31-1.29
		c0.28-0.5,0.46-1.01,0.52-1.53c0.06-0.52,0.1-0.93,0.1-1.24V-272.29z"/>
	<path d="M-92.96-265.06c-0.64,1.08-1.49,1.86-2.53,2.34c-1.04,0.48-2.22,0.71-3.54,0.71c-1.49,0-2.81-0.29-3.94-0.87
		c-1.13-0.58-2.07-1.37-2.8-2.36c-0.73-0.99-1.29-2.13-1.66-3.42c-0.37-1.29-0.56-2.63-0.56-4.02c0-1.34,0.19-2.63,0.56-3.88
		c0.37-1.25,0.93-2.35,1.66-3.31c0.73-0.95,1.66-1.72,2.76-2.3c1.11-0.58,2.4-0.87,3.86-0.87c1.19,0,2.31,0.25,3.38,0.75
		c1.07,0.5,1.91,1.24,2.53,2.22h0.08v-10.05h5.49v27.6h-5.22v-2.55H-92.96z M-93.19-274.94c-0.15-0.76-0.42-1.43-0.79-2.01
		s-0.86-1.05-1.45-1.41c-0.59-0.36-1.34-0.54-2.24-0.54c-0.9,0-1.66,0.18-2.28,0.54c-0.62,0.36-1.11,0.84-1.49,1.43
		c-0.37,0.59-0.64,1.27-0.81,2.03c-0.17,0.76-0.25,1.55-0.25,2.38c0,0.77,0.09,1.55,0.27,2.32c0.18,0.77,0.47,1.46,0.87,2.07
		c0.4,0.61,0.9,1.1,1.51,1.47c0.6,0.37,1.33,0.56,2.18,0.56c0.9,0,1.66-0.18,2.26-0.54c0.6-0.36,1.09-0.84,1.45-1.45
		c0.36-0.6,0.62-1.29,0.77-2.07c0.15-0.77,0.23-1.57,0.23-2.4C-92.96-273.38-93.04-274.17-93.19-274.94z"/>
	<path d="M-83.76-276.35c0.08-1.29,0.4-2.36,0.97-3.21c0.57-0.85,1.29-1.53,2.16-2.05c0.88-0.51,1.86-0.88,2.96-1.1
		c1.09-0.22,2.2-0.33,3.31-0.33c1,0,2.02,0.07,3.05,0.21c1.03,0.14,1.97,0.42,2.82,0.83c0.85,0.41,1.55,0.99,2.09,1.72
		c0.54,0.73,0.81,1.71,0.81,2.92v10.4c0,0.9,0.05,1.76,0.16,2.59c0.1,0.82,0.28,1.44,0.54,1.86h-5.57c-0.1-0.31-0.19-0.62-0.25-0.95
		c-0.06-0.32-0.11-0.65-0.13-0.99c-0.88,0.9-1.91,1.53-3.09,1.89c-1.18,0.36-2.4,0.54-3.63,0.54c-0.95,0-1.84-0.12-2.67-0.35
		c-0.83-0.23-1.55-0.59-2.16-1.08c-0.62-0.49-1.1-1.11-1.45-1.86c-0.35-0.75-0.52-1.64-0.52-2.67c0-1.13,0.2-2.07,0.6-2.8
		s0.91-1.32,1.55-1.76c0.63-0.44,1.35-0.77,2.16-0.99c0.81-0.22,1.63-0.39,2.45-0.52c0.82-0.13,1.64-0.23,2.44-0.31
		c0.8-0.08,1.51-0.19,2.13-0.35c0.62-0.15,1.11-0.38,1.47-0.68c0.36-0.3,0.53-0.73,0.5-1.29c0-0.59-0.1-1.06-0.29-1.41
		c-0.19-0.35-0.45-0.62-0.77-0.81c-0.32-0.19-0.69-0.32-1.12-0.39c-0.42-0.06-0.88-0.1-1.37-0.1c-1.08,0-1.93,0.23-2.55,0.7
		c-0.62,0.46-0.98,1.24-1.08,2.32H-83.76z M-71.08-272.29c-0.23,0.21-0.52,0.37-0.87,0.48c-0.35,0.12-0.72,0.21-1.12,0.29
		c-0.4,0.08-0.82,0.14-1.26,0.19c-0.44,0.05-0.88,0.12-1.31,0.19c-0.41,0.08-0.82,0.18-1.22,0.31c-0.4,0.13-0.75,0.3-1.04,0.52
		c-0.3,0.22-0.54,0.5-0.72,0.83c-0.18,0.34-0.27,0.76-0.27,1.28c0,0.49,0.09,0.9,0.27,1.24c0.18,0.34,0.43,0.6,0.74,0.79
		c0.31,0.19,0.67,0.33,1.08,0.41c0.41,0.08,0.84,0.12,1.27,0.12c1.08,0,1.92-0.18,2.51-0.54c0.59-0.36,1.03-0.79,1.31-1.29
		c0.28-0.5,0.46-1.01,0.52-1.53c0.06-0.52,0.1-0.93,0.1-1.24V-272.29z"/>
</g>
<g>
	<path d="M-558.84,76.07l8.6,25.29h0.1l8.14-25.29h11.38v36.78h-7.57V86.79h-0.1l-9.02,26.07h-6.23l-9.02-25.81h-0.1v25.81h-7.57
		V76.07H-558.84z"/>
	<path d="M-524.58,94.41c0.1-1.72,0.53-3.14,1.29-4.28c0.75-1.13,1.72-2.04,2.88-2.73c1.17-0.69,2.48-1.18,3.94-1.47
		c1.46-0.29,2.93-0.44,4.4-0.44c1.34,0,2.7,0.1,4.07,0.28c1.37,0.19,2.63,0.56,3.76,1.11c1.13,0.55,2.06,1.31,2.78,2.29
		c0.72,0.98,1.08,2.28,1.08,3.89v13.86c0,1.2,0.07,2.35,0.21,3.45c0.14,1.1,0.38,1.92,0.72,2.47h-7.42
		c-0.14-0.41-0.25-0.83-0.33-1.26c-0.09-0.43-0.15-0.87-0.18-1.31c-1.17,1.2-2.54,2.04-4.12,2.52c-1.58,0.48-3.19,0.72-4.84,0.72
		c-1.27,0-2.46-0.15-3.55-0.46c-1.1-0.31-2.06-0.79-2.88-1.44s-1.47-1.48-1.93-2.47c-0.46-1-0.7-2.18-0.7-3.55
		c0-1.51,0.27-2.76,0.8-3.74c0.53-0.98,1.22-1.76,2.06-2.34c0.84-0.58,1.8-1.02,2.88-1.31c1.08-0.29,2.17-0.52,3.27-0.7
		c1.1-0.17,2.18-0.31,3.25-0.41c1.06-0.1,2.01-0.26,2.83-0.46s1.48-0.51,1.96-0.9c0.48-0.39,0.7-0.97,0.67-1.73
		c0-0.79-0.13-1.42-0.39-1.88c-0.26-0.46-0.6-0.82-1.03-1.08c-0.43-0.26-0.93-0.43-1.49-0.51c-0.57-0.09-1.18-0.13-1.83-0.13
		c-1.44,0-2.58,0.31-3.4,0.93c-0.82,0.62-1.31,1.65-1.44,3.09H-524.58z M-507.69,99.82c-0.31,0.28-0.7,0.49-1.16,0.64
		s-0.96,0.28-1.49,0.39c-0.53,0.1-1.09,0.19-1.67,0.26c-0.58,0.07-1.17,0.16-1.75,0.26c-0.55,0.1-1.09,0.24-1.62,0.41
		c-0.53,0.17-1,0.4-1.39,0.7c-0.4,0.29-0.71,0.66-0.95,1.11c-0.24,0.45-0.36,1.01-0.36,1.7c0,0.65,0.12,1.2,0.36,1.65
		c0.24,0.45,0.57,0.8,0.98,1.06s0.89,0.44,1.44,0.54c0.55,0.1,1.12,0.15,1.7,0.15c1.44,0,2.56-0.24,3.35-0.72
		c0.79-0.48,1.37-1.06,1.75-1.73c0.38-0.67,0.61-1.35,0.7-2.03c0.09-0.69,0.13-1.24,0.13-1.65V99.82z"/>
	<path d="M-488.55,106.23c0.33,0.57,0.75,1.03,1.26,1.39c0.52,0.36,1.11,0.63,1.78,0.8c0.67,0.17,1.37,0.26,2.09,0.26
		c0.52,0,1.06-0.06,1.62-0.18c0.57-0.12,1.08-0.31,1.55-0.57c0.46-0.26,0.85-0.6,1.16-1.03c0.31-0.43,0.46-0.97,0.46-1.62
		c0-1.1-0.73-1.92-2.19-2.47c-1.46-0.55-3.5-1.1-6.1-1.65c-1.06-0.24-2.1-0.52-3.12-0.85c-1.01-0.33-1.91-0.75-2.7-1.29
		c-0.79-0.53-1.43-1.2-1.91-2.01c-0.48-0.81-0.72-1.79-0.72-2.96c0-1.72,0.33-3.12,1-4.22c0.67-1.1,1.55-1.97,2.65-2.6
		c1.1-0.64,2.33-1.08,3.71-1.34c1.37-0.26,2.78-0.39,4.22-0.39s2.84,0.14,4.2,0.41c1.36,0.28,2.57,0.74,3.63,1.39
		c1.06,0.65,1.95,1.52,2.65,2.6c0.7,1.08,1.12,2.45,1.26,4.1h-6.95c-0.1-1.41-0.64-2.36-1.6-2.86c-0.96-0.5-2.1-0.75-3.4-0.75
		c-0.41,0-0.86,0.03-1.34,0.08c-0.48,0.05-0.92,0.16-1.31,0.33c-0.4,0.17-0.73,0.42-1,0.75c-0.27,0.33-0.41,0.76-0.41,1.31
		c0,0.65,0.24,1.18,0.72,1.6s1.11,0.75,1.88,1c0.77,0.26,1.66,0.49,2.65,0.7c1,0.21,2.01,0.43,3.04,0.67
		c1.06,0.24,2.1,0.53,3.12,0.88c1.01,0.34,1.91,0.8,2.7,1.37c0.79,0.57,1.42,1.27,1.91,2.11s0.72,1.88,0.72,3.12
		c0,1.75-0.35,3.22-1.06,4.4c-0.7,1.19-1.62,2.14-2.76,2.86c-1.13,0.72-2.43,1.23-3.89,1.52c-1.46,0.29-2.95,0.44-4.46,0.44
		c-1.55,0-3.06-0.15-4.53-0.46c-1.48-0.31-2.79-0.82-3.94-1.55c-1.15-0.72-2.1-1.67-2.83-2.86c-0.74-1.19-1.14-2.67-1.21-4.46h6.95
		C-489.04,104.99-488.88,105.67-488.55,106.23z"/>
	<path d="M-467.35,94.41c0.1-1.72,0.53-3.14,1.29-4.28c0.75-1.13,1.72-2.04,2.88-2.73c1.17-0.69,2.48-1.18,3.94-1.47
		c1.46-0.29,2.93-0.44,4.4-0.44c1.34,0,2.7,0.1,4.07,0.28c1.37,0.19,2.63,0.56,3.76,1.11c1.13,0.55,2.06,1.31,2.78,2.29
		c0.72,0.98,1.08,2.28,1.08,3.89v13.86c0,1.2,0.07,2.35,0.21,3.45c0.14,1.1,0.38,1.92,0.72,2.47h-7.42
		c-0.14-0.41-0.25-0.83-0.33-1.26c-0.09-0.43-0.15-0.87-0.18-1.31c-1.17,1.2-2.54,2.04-4.12,2.52c-1.58,0.48-3.19,0.72-4.84,0.72
		c-1.27,0-2.46-0.15-3.55-0.46c-1.1-0.31-2.06-0.79-2.88-1.44s-1.47-1.48-1.93-2.47c-0.46-1-0.7-2.18-0.7-3.55
		c0-1.51,0.27-2.76,0.8-3.74c0.53-0.98,1.22-1.76,2.06-2.34c0.84-0.58,1.8-1.02,2.88-1.31c1.08-0.29,2.17-0.52,3.27-0.7
		c1.1-0.17,2.18-0.31,3.25-0.41c1.06-0.1,2.01-0.26,2.83-0.46s1.48-0.51,1.96-0.9c0.48-0.39,0.7-0.97,0.67-1.73
		c0-0.79-0.13-1.42-0.39-1.88c-0.26-0.46-0.6-0.82-1.03-1.08c-0.43-0.26-0.93-0.43-1.49-0.51c-0.57-0.09-1.18-0.13-1.83-0.13
		c-1.44,0-2.58,0.31-3.4,0.93c-0.82,0.62-1.31,1.65-1.44,3.09H-467.35z M-450.45,99.82c-0.31,0.28-0.7,0.49-1.16,0.64
		s-0.96,0.28-1.49,0.39c-0.53,0.1-1.09,0.19-1.67,0.26c-0.58,0.07-1.17,0.16-1.75,0.26c-0.55,0.1-1.09,0.24-1.62,0.41
		c-0.53,0.17-1,0.4-1.39,0.7c-0.4,0.29-0.71,0.66-0.95,1.11c-0.24,0.45-0.36,1.01-0.36,1.7c0,0.65,0.12,1.2,0.36,1.65
		c0.24,0.45,0.57,0.8,0.98,1.06s0.89,0.44,1.44,0.54c0.55,0.1,1.12,0.15,1.7,0.15c1.44,0,2.56-0.24,3.35-0.72
		c0.79-0.48,1.37-1.06,1.75-1.73c0.38-0.67,0.61-1.35,0.7-2.03c0.09-0.69,0.13-1.24,0.13-1.65V99.82z"/>
	<path d="M-418.56,109.45c-0.86,1.44-1.98,2.48-3.37,3.12s-2.96,0.95-4.71,0.95c-1.99,0-3.74-0.39-5.25-1.16
		c-1.51-0.77-2.76-1.82-3.73-3.14c-0.98-1.32-1.72-2.84-2.22-4.56c-0.5-1.72-0.75-3.5-0.75-5.36c0-1.79,0.25-3.51,0.75-5.18
		c0.5-1.67,1.24-3.13,2.22-4.4c0.98-1.27,2.21-2.29,3.68-3.07c1.48-0.77,3.19-1.16,5.15-1.16c1.58,0,3.08,0.33,4.51,1
		c1.42,0.67,2.55,1.66,3.37,2.96h0.1V76.07h7.32v36.78h-6.95v-3.4H-418.56z M-418.87,96.29c-0.21-1.01-0.56-1.91-1.06-2.68
		c-0.5-0.77-1.14-1.4-1.93-1.88c-0.79-0.48-1.79-0.72-2.99-0.72c-1.2,0-2.22,0.24-3.04,0.72c-0.82,0.48-1.49,1.12-1.98,1.91
		c-0.5,0.79-0.86,1.69-1.08,2.71c-0.22,1.01-0.33,2.07-0.33,3.17c0,1.03,0.12,2.06,0.36,3.09c0.24,1.03,0.63,1.95,1.16,2.76
		c0.53,0.81,1.2,1.46,2.01,1.96c0.81,0.5,1.78,0.75,2.91,0.75c1.2,0,2.21-0.24,3.01-0.72c0.81-0.48,1.45-1.12,1.93-1.93
		c0.48-0.81,0.82-1.73,1.03-2.76s0.31-2.09,0.31-3.19C-418.56,98.36-418.67,97.3-418.87,96.29z"/>
	<path d="M-406.3,94.41c0.1-1.72,0.53-3.14,1.29-4.28c0.75-1.13,1.72-2.04,2.88-2.73c1.17-0.69,2.48-1.18,3.94-1.47
		c1.46-0.29,2.93-0.44,4.4-0.44c1.34,0,2.7,0.1,4.07,0.28c1.37,0.19,2.63,0.56,3.76,1.11c1.13,0.55,2.06,1.31,2.78,2.29
		c0.72,0.98,1.08,2.28,1.08,3.89v13.86c0,1.2,0.07,2.35,0.21,3.45c0.14,1.1,0.38,1.92,0.72,2.47h-7.42
		c-0.14-0.41-0.25-0.83-0.33-1.26c-0.09-0.43-0.15-0.87-0.18-1.31c-1.17,1.2-2.54,2.04-4.12,2.52c-1.58,0.48-3.19,0.72-4.84,0.72
		c-1.27,0-2.46-0.15-3.55-0.46c-1.1-0.31-2.06-0.79-2.88-1.44s-1.47-1.48-1.93-2.47c-0.46-1-0.7-2.18-0.7-3.55
		c0-1.51,0.27-2.76,0.8-3.74c0.53-0.98,1.22-1.76,2.06-2.34c0.84-0.58,1.8-1.02,2.88-1.31c1.08-0.29,2.17-0.52,3.27-0.7
		c1.1-0.17,2.18-0.31,3.25-0.41c1.06-0.1,2.01-0.26,2.83-0.46s1.48-0.51,1.96-0.9c0.48-0.39,0.7-0.97,0.67-1.73
		c0-0.79-0.13-1.42-0.39-1.88c-0.26-0.46-0.6-0.82-1.03-1.08c-0.43-0.26-0.93-0.43-1.49-0.51c-0.57-0.09-1.18-0.13-1.83-0.13
		c-1.44,0-2.58,0.31-3.4,0.93c-0.82,0.62-1.31,1.65-1.44,3.09H-406.3z M-389.41,99.82c-0.31,0.28-0.7,0.49-1.16,0.64
		s-0.96,0.28-1.49,0.39c-0.53,0.1-1.09,0.19-1.67,0.26c-0.58,0.07-1.17,0.16-1.75,0.26c-0.55,0.1-1.09,0.24-1.62,0.41
		c-0.53,0.17-1,0.4-1.39,0.7c-0.4,0.29-0.71,0.66-0.95,1.11c-0.24,0.45-0.36,1.01-0.36,1.7c0,0.65,0.12,1.2,0.36,1.65
		c0.24,0.45,0.57,0.8,0.98,1.06s0.89,0.44,1.44,0.54c0.55,0.1,1.12,0.15,1.7,0.15c1.44,0,2.56-0.24,3.35-0.72
		c0.79-0.48,1.37-1.06,1.75-1.73c0.38-0.67,0.61-1.35,0.7-2.03c0.09-0.69,0.13-1.24,0.13-1.65V99.82z"/>
</g>
<g>
	<path class="st0" d="M-426.69,60.87h-15.78h-47.52c-19.54,0-35.37-15.84-35.37-35.37v-66.76h70.11c15.78,0,28.57,12.79,28.57,28.57
		V60.87z"/>
	<path class="st1" d="M-525.37,12.74c9.6,0,18.46-0.04,27.32,0.06c0.87,0.01,2,0.79,2.53,1.37c6.1,6.67,12.11,13.37,18.14,20.07
		c0.36,0.4,0.76,0.8,1.35,1.42c4.21-4.14,8.23-8.09,12.25-12.04c3.12-3.07,6.2-6.17,9.4-9.21c0.56-0.53,1.65-1.2,2.52-1.21
		c8.09-0.09,16.18-0.05,25.16-0.05c-16.61,15.57-32.73,30.68-49.09,46.01C-492.32,43.67-508.64,28.4-525.37,12.74z"/>
	<path class="st1" d="M-426.69,5.5c-9.6,0-18.46,0.04-27.32-0.06c-0.87-0.01-2-0.79-2.53-1.37c-6.1-6.67-12.11-13.37-18.14-20.07
		c-0.36-0.4-0.76-0.8-1.35-1.42c-4.21,4.14-8.23,8.09-12.25,12.04c-3.12,3.07-6.2,6.17-9.4,9.21c-0.56,0.53-1.65,1.2-2.52,1.21
		c-8.09,0.09-16.18,0.05-25.16,0.05c16.61-15.57,32.73-30.68,49.09-46.01C-459.74-25.43-443.42-10.16-426.69,5.5z"/>
</g>
<g>
	<g>
		<g>
			<path d="M-564.8,136.08c-1.09,4.69-3.44,8.2-6.21,10.06c-0.45-0.57-1.52-1.61-2.18-2.02c2.13-1.27,3.92-3.49,4.96-6.16h-4.4
				v-2.54h5.53l0.48-0.11L-564.8,136.08z M-552.52,134.54c-1.7,1.54-3.78,3.24-5.51,4.4c1.59,2.17,3.65,3.85,6.3,4.89
				c-0.63,0.52-1.47,1.63-1.88,2.36c-3.29-1.47-5.62-3.9-7.32-7v5.19c0,1.47-0.29,2.2-1.27,2.65c-0.93,0.43-2.31,0.45-4.21,0.45
				c-0.11-0.77-0.54-1.97-0.91-2.7c1.13,0.07,2.54,0.07,2.95,0.05c0.41-0.02,0.54-0.14,0.54-0.5v-10.81h-5.66v-2.58h8.41
				c-1.93-0.86-4.55-1.75-6.64-2.29l1.34-2.2c2.63,0.57,6.41,1.77,8.34,2.76l-1.45,2.51c-0.39-0.23-0.88-0.48-1.43-0.72v1.88
				c0.43,1.43,0.97,2.76,1.61,3.99c1.54-1.22,3.24-2.81,4.33-4.17L-552.52,134.54z"/>
		</g>
		<g>
			<path d="M-537.26,127.25c-0.57,1.54-1.27,3.13-2.08,4.65v15.63h-2.67v-11.42c-0.43,0.59-0.88,1.11-1.31,1.59
				c-0.25-0.63-1-2.11-1.45-2.76c1.99-2.04,3.9-5.23,4.99-8.47L-537.26,127.25z M-523.4,144.22v2.58h-15.07v-2.58h6.23v-2.72h-4.98
				v-2.56h4.98v-1.99h2.74v1.99h5.12v2.56h-5.12v2.72H-523.4z M-532.23,131.39h-4.53v-2.52h4.53v-2.51h2.74v2.51h4.67v2.52h-4.67
				v2.36h5.69v2.54h-14v-2.54h5.57V131.39z"/>
		</g>
		<g>
			<path d="M-508.88,138.28c-0.73,0.23-1.45,0.45-2.18,0.66v5.73c0,1.25-0.2,1.93-0.88,2.36c-0.7,0.43-1.65,0.52-3.15,0.5
				c-0.07-0.66-0.36-1.77-0.68-2.49c0.82,0.05,1.61,0.05,1.88,0.02c0.27,0,0.39-0.09,0.39-0.39v-5.01c-0.75,0.23-1.5,0.43-2.15,0.61
				l-0.59-2.58c0.77-0.16,1.72-0.41,2.74-0.66v-3.92h-2.38v-2.47h2.38v-4.26h2.45v4.26h2.06v2.47h-2.06v3.26l1.84-0.52
				L-508.88,138.28z M-500.98,144.92c0.61,0.07,1.25,0.09,1.9,0.09c0.7,0,3.4,0,4.33-0.04c-0.34,0.57-0.66,1.65-0.75,2.31h-3.76
				c-3.13,0-5.57-0.54-7.3-2.67c-0.52,1.2-1.18,2.22-1.99,3.01c-0.41-0.41-1.47-1.13-2.04-1.47c1.63-1.43,2.45-3.76,2.79-6.41
				l2.45,0.32c-0.11,0.72-0.23,1.43-0.41,2.11c0.59,1.02,1.36,1.68,2.29,2.11v-4.85h-4.24v-1.99h4.24v-1.16h-5.55v-2.08h5.55v-1.04
				h-4.24v-2.02h4.24v-0.95h-5.19v-2.11h5.19v-1.7h2.49v1.7h5.69v2.11h-5.69v0.95h4.8v3.06h1.4v2.08h-1.4v3.15h-4.8v1.31h4.96v2.11
				h-4.96V144.92z M-500.98,134.18h2.31v-1.04h-2.31V134.18z M-500.98,137.42h2.31v-1.16h-2.31V137.42z"/>
		</g>
		<g>
			<path d="M-478.74,137.62c-0.63-0.57-1.9-1.5-2.92-2.2c-0.82,1.16-2.13,2.31-4.17,3.26c-0.36-0.54-1.11-1.38-1.7-1.81
				c2.31-0.91,3.47-2.02,4.03-3.15h-3.76v-2.11h1.52c-0.54-0.34-1.27-0.75-1.72-0.97c1.16-1.09,2.04-2.74,2.49-4.42l2.38,0.5
				c-0.14,0.43-0.27,0.88-0.45,1.34h5.62v2.08h-2.95v1.02c0,0.16,0,0.29-0.02,0.45h3.49v2.11h-3.74c0.95,0.5,3.22,1.79,3.81,2.17
				L-478.74,137.62z M-482.96,131.62c0.02-0.18,0.02-0.34,0.02-0.5v-0.97h-1.13c-0.32,0.54-0.68,1.04-1.04,1.47H-482.96z
				 M-484.25,137.96h14.77v9.54h-2.76v-0.72h-9.36v0.75h-2.65V137.96z M-481.6,140.07v1.27h9.36v-1.27H-481.6z M-472.24,144.63
				v-1.34h-9.36v1.34H-472.24z M-467.52,128.02v8.59h-8.61v-8.59H-467.52z M-470.2,130.4h-3.44v3.83h3.44V130.4z"/>
		</g>
		<g>
			<path d="M-449.03,145.03c0,1.11-0.2,1.68-0.95,2.04c-0.73,0.34-1.75,0.38-3.13,0.38c-0.11-0.63-0.48-1.52-0.82-2.11
				c0.82,0.05,1.7,0.05,1.97,0.05c0.29,0,0.39-0.09,0.39-0.39v-2.31c-1.13,0.82-2.27,1.59-3.29,2.24l-0.57-1.59
				c-0.25,1.54-0.75,3.08-1.61,4.26c-0.39-0.52-1.4-1.5-1.88-1.81c1.2-1.77,1.29-4.26,1.29-6.23v-5.1h8.59V145.03z M-450.29,128.04
				c0.95,1.63,2.15,3.85,2.7,5.21l-2.36,0.95c-0.14-0.41-0.34-0.88-0.57-1.43c-5.73,0.57-6.66,0.7-7.32,0.97
				c-0.14-0.52-0.57-1.74-0.84-2.42c0.41-0.09,0.79-0.41,1.25-0.91c0.45-0.5,1.84-2.24,2.67-4.03l2.72,0.77
				c-0.77,1.31-1.79,2.63-2.79,3.76l3.31-0.25c-0.34-0.66-0.66-1.29-0.95-1.84L-450.29,128.04z M-455.12,139.6
				c0,0.86-0.05,1.88-0.16,2.9c1.02-0.45,2.36-1.13,3.72-1.86v-0.75l-1.09,1.07c-0.57-0.59-1.61-1.47-2.47-2.18V139.6z
				 M-455.12,136.74v1.61l1.13-0.97c0.77,0.54,1.74,1.34,2.42,1.93v-2.56H-455.12z M-443.93,136.36c-2.72,0-3.44-1-3.44-3.51v-6.44
				h2.67v2.67h5.57v2.31h-5.57v1.5c0,0.84,0.14,1.16,0.86,1.16h3.31c0.63,0,1.59-0.07,2.08-0.18c0.05,0.7,0.16,1.68,0.25,2.29
				c-0.48,0.16-1.43,0.2-2.29,0.2H-443.93z M-441.07,145.01c0.77,0,0.93-0.38,1.04-2.47c0.54,0.41,1.63,0.82,2.33,0.97
				c-0.27,2.97-0.97,3.85-3.13,3.85h-3.22c-2.67,0-3.33-0.79-3.33-3.26v-7.12h2.67v2.27h5.73v2.38h-5.73v2.47
				c0,0.79,0.16,0.91,1.06,0.91H-441.07z"/>
		</g>
		<g>
			<path d="M-427.4,134.95h-2.47v-5.1h8.56v-0.91h-7.55v-1.77h17.77v1.77h-7.59v0.91h8.75v5.1h-2.61l-0.48,1.61
				c-1.2-0.43-3.53-0.97-5.23-1.25l0.52-1.52c1.61,0.18,3.85,0.66,5.1,1.06v-3.24h-1.22l0.82,1.16c-1.2,0.5-2.86,0.86-4.03,1.09
				l-0.84-1.27c0.88-0.2,2.15-0.61,3.1-0.97h-3.88v4.71h-2.63v-4.71h-4.33c1.22,0.23,2.67,0.61,3.53,0.93l-0.73,1.45
				c-0.91-0.36-2.61-0.84-3.9-1.11l0.63-1.27h-1.22v3.1c1.38-0.16,3.29-0.43,5.23-0.73l0.09,1.54c-1.7,0.39-3.38,0.77-4.8,1.09
				L-427.4,134.95z M-412.94,145.17c1.16,0,1.36-0.34,1.52-2.24c0.52,0.36,1.54,0.7,2.24,0.84c-0.32,2.72-1.06,3.44-3.54,3.44h-4.76
				c-3.08,0-3.97-0.63-3.97-2.99v-0.07h-3.76v0.97h-2.58v-8.23h15.7v7.25h-6.78v0.07c0,0.82,0.27,0.95,1.63,0.95H-412.94z
				 M-425.2,138.71v1.02h3.76v-1.02H-425.2z M-421.44,142.34v-1.02h-3.76v1.02H-421.44z M-414.76,138.71h-4.1v1.02h4.1V138.71z
				 M-414.76,142.34v-1.02h-4.1v1.02H-414.76z"/>
		</g>
		<g>
			<path d="M-395.35,139.62c-0.23-0.61-0.63-1.52-1.06-2.4v10.29h-2.45v-8.7c-0.61,1.81-1.31,3.47-2.08,4.65
				c-0.27-0.77-0.86-1.99-1.29-2.72c1.36-1.77,2.56-4.96,3.22-7.66h-2.76v-2.49h2.92v-4.21h2.45v4.21h2.22v2.49h-2.22v0.73
				c0.63,0.86,2.27,3.4,2.63,4.03L-395.35,139.62z M-381.12,138.17c0,0-0.02,0.61-0.05,0.91c-0.14,3.6-0.29,5.3-0.77,5.89
				c-0.39,0.48-0.73,0.66-1.27,0.77c-0.45,0.09-1.18,0.14-1.99,0.11c-0.02-0.79-0.25-1.81-0.59-2.47c0.54,0.05,1,0.07,1.25,0.07
				c0.27,0,0.41-0.07,0.57-0.25c0.18-0.25,0.29-1,0.39-2.83h-2.74v7.12h-2.54v-4.71c-1.29,1.65-2.92,3.06-4.62,3.92
				c-0.39-0.59-1.16-1.5-1.68-1.99c2.06-0.88,4.01-2.51,5.32-4.33h-3.76c0.29-1.65,0.61-4.17,0.77-6.19h3.97v-1.93h-4.69v-2.22h2.56
				c-0.32-0.88-0.86-1.93-1.38-2.76l2.11-0.84c0.73,0.97,1.41,2.33,1.7,3.24l-0.82,0.36h2.95c0.57-1.09,1.2-2.56,1.52-3.65l2.61,0.7
				c-0.5,1.02-1.04,2.06-1.54,2.95h2.2v6.37h-4.67v1.77H-381.12z M-390.73,136.4c-0.07,0.61-0.14,1.2-0.23,1.77h2.08v-1.77H-390.73z
				 M-386.33,134.18h2.22v-1.93h-2.22V134.18z"/>
		</g>
	</g>
</g>
<g>
	<g>
		<g>
			<path d="M-199.37-244.34c-1.09,4.69-3.44,8.2-6.21,10.06c-0.45-0.57-1.52-1.61-2.18-2.02c2.13-1.27,3.92-3.49,4.96-6.16h-4.4
				v-2.54h5.53l0.48-0.11L-199.37-244.34z M-187.09-245.88c-1.7,1.54-3.78,3.24-5.51,4.4c1.59,2.18,3.65,3.85,6.3,4.89
				c-0.63,0.52-1.47,1.63-1.88,2.36c-3.29-1.47-5.62-3.9-7.32-7v5.19c0,1.47-0.29,2.2-1.27,2.65c-0.93,0.43-2.31,0.45-4.21,0.45
				c-0.11-0.77-0.54-1.97-0.91-2.7c1.13,0.07,2.54,0.07,2.95,0.05c0.41-0.02,0.54-0.14,0.54-0.5v-10.81h-5.66v-2.58h8.41
				c-1.93-0.86-4.55-1.74-6.64-2.29l1.34-2.2c2.63,0.57,6.41,1.77,8.34,2.76l-1.45,2.52c-0.39-0.23-0.88-0.48-1.43-0.73v1.88
				c0.43,1.43,0.97,2.76,1.61,3.99c1.54-1.22,3.24-2.81,4.33-4.17L-187.09-245.88z"/>
		</g>
		<g>
			<path d="M-170.2-253.17c-0.57,1.54-1.27,3.13-2.09,4.65v15.63h-2.67v-11.42c-0.43,0.59-0.88,1.11-1.31,1.59
				c-0.25-0.63-1-2.11-1.45-2.76c1.99-2.04,3.9-5.23,4.99-8.47L-170.2-253.17z M-156.33-236.2v2.58h-15.07v-2.58h6.23v-2.72h-4.98
				v-2.56h4.98v-1.99h2.74v1.99h5.12v2.56h-5.12v2.72H-156.33z M-165.17-249.03h-4.53v-2.52h4.53v-2.52h2.74v2.52h4.67v2.52h-4.67
				v2.36h5.69v2.54h-14v-2.54h5.57V-249.03z"/>
		</g>
		<g>
			<path d="M-140.19-242.14c-0.73,0.23-1.45,0.45-2.18,0.66v5.73c0,1.25-0.2,1.93-0.88,2.36c-0.7,0.43-1.65,0.52-3.15,0.5
				c-0.07-0.66-0.36-1.77-0.68-2.49c0.82,0.04,1.61,0.04,1.88,0.02c0.27,0,0.38-0.09,0.38-0.39v-5.01c-0.75,0.23-1.5,0.43-2.15,0.61
				l-0.59-2.58c0.77-0.16,1.72-0.41,2.74-0.66v-3.92h-2.38v-2.47h2.38v-4.26h2.45v4.26h2.06v2.47h-2.06v3.26l1.84-0.52
				L-140.19-242.14z M-132.28-235.5c0.61,0.07,1.25,0.09,1.9,0.09c0.7,0,3.4,0,4.33-0.05c-0.34,0.57-0.66,1.65-0.75,2.31h-3.76
				c-3.13,0-5.57-0.54-7.3-2.67c-0.52,1.2-1.18,2.22-1.99,3.01c-0.41-0.41-1.47-1.13-2.04-1.47c1.63-1.43,2.45-3.76,2.79-6.41
				l2.45,0.32c-0.11,0.73-0.23,1.43-0.41,2.11c0.59,1.02,1.36,1.68,2.29,2.11V-241h-4.24V-243h4.24v-1.16h-5.55v-2.08h5.55v-1.04
				h-4.24v-2.02h4.24v-0.95h-5.19v-2.11h5.19v-1.7h2.49v1.7h5.69v2.11h-5.69v0.95h4.8v3.06h1.4v2.08h-1.4v3.15h-4.8v1.31h4.96v2.11
				h-4.96V-235.5z M-132.28-246.24h2.31v-1.04h-2.31V-246.24z M-132.28-243h2.31v-1.16h-2.31V-243z"/>
		</g>
		<g>
			<path d="M-109.75-239.6c-0.27-0.63-0.82-1.59-1.36-2.49v9.2h-2.61v-8.16c-0.75,1.74-1.59,3.35-2.47,4.49
				c-0.25-0.77-0.84-1.88-1.25-2.56c1.27-1.45,2.54-3.88,3.35-6.07h-3.06v-2.52h3.42v-2.56c-0.88,0.14-1.72,0.27-2.56,0.36
				c-0.09-0.61-0.43-1.5-0.72-2.08c2.58-0.41,5.42-1.09,7.3-1.86l1.52,2.2c-0.88,0.34-1.88,0.61-2.92,0.84v3.1h2.99v2.52h-2.99v0.18
				c0.66,0.63,2.52,2.76,2.95,3.29L-109.75-239.6z M-98.57-238.63v5.71h-2.65v-5.23l-6.84,1.18l-0.43-2.56l7.27-1.25v-13.28h2.65
				v12.83l2.24-0.39l0.43,2.52L-98.57-238.63z M-104.26-241.78c-0.7-1-2.29-2.45-3.6-3.47l1.72-1.54c1.29,0.91,2.97,2.31,3.72,3.29
				L-104.26-241.78z M-103.67-247.76c-0.63-0.97-2.11-2.42-3.38-3.4l1.77-1.54c1.22,0.93,2.81,2.27,3.49,3.26L-103.67-247.76z"/>
		</g>
		<g>
			<path d="M-79.15-241.96c-0.79,0.23-1.61,0.45-2.42,0.66v5.42c0,1.31-0.25,1.95-1.02,2.38c-0.75,0.41-1.84,0.48-3.44,0.48
				c-0.09-0.68-0.43-1.74-0.75-2.45c0.88,0.02,1.81,0.02,2.11,0.02c0.32,0,0.43-0.11,0.43-0.45v-4.67l-2.2,0.54l-0.7-2.56
				c0.84-0.18,1.81-0.38,2.9-0.66v-4.01h-2.61v-2.49h2.61v-4.28h2.67v4.28h2.22v2.49h-2.22v3.35l2.08-0.52L-79.15-241.96z
				 M-66.59-245.02c-0.86,3.13-2.31,5.62-4.24,7.52c1.5,1.04,3.24,1.79,5.26,2.29c-0.57,0.54-1.34,1.63-1.72,2.33
				c-2.2-0.66-4.06-1.61-5.64-2.85c-1.77,1.22-3.76,2.13-5.98,2.79c-0.29-0.73-0.93-1.86-1.43-2.45c1.99-0.48,3.83-1.2,5.42-2.22
				c-1.31-1.52-2.38-3.31-3.22-5.39l0.68-0.2h-1.18v-2.42h4.46v-2.72h-4.87v-2.49h4.87v-3.24h2.67v3.24h5.08v2.49h-5.08v2.72h2.72
				l0.48-0.11L-66.59-245.02z M-75.52-243.2c0.63,1.5,1.54,2.85,2.67,4.01c1.18-1.11,2.18-2.47,2.86-4.01H-75.52z"/>
		</g>
	</g>
</g>
<g>
	<g>
		<g>
			<path d="M-277.78-214.06c0.11,0.05,0.17,0.1,0.17,0.16c0,0.12-0.1,0.22-0.29,0.29c-0.32,0.71-0.62,1.33-0.9,1.85v8.17h-1.09
				v-6.39c-0.3,0.44-0.63,0.9-1,1.36l-0.8-0.82c0.66-0.78,1.2-1.56,1.67-2.36c0.43-0.73,0.85-1.63,1.28-2.72L-277.78-214.06z
				 M-270.73-212.09v1h-3.09v2.42h2.71v1h-2.71v2.56h3.33v1h-7.79v-1h3.38v-2.56h-2.71v-1h2.71v-2.42h-3.04v-1H-270.73z
				 M-273.29-213.13l-0.9,0.8c-0.5-0.51-0.98-0.92-1.47-1.24l0.8-0.75C-274.33-214-273.8-213.6-273.29-213.13z"/>
		</g>
		<g>
			<path d="M-252.29-214.48c0.18,0.02,0.28,0.07,0.28,0.16c0,0.06-0.06,0.16-0.18,0.28v0.57h4.22v0.9h-1.99l-0.5,1.52h2.26v6.27
				c0,0.54-0.26,0.88-0.77,1.05c-0.4,0.12-0.79,0.19-1.18,0.19l-0.41-1.05h-3.15v0.43h-1v-3.28h4.17v2.81l0.85-0.03
				c0.26-0.01,0.39-0.16,0.39-0.45v-4.98h-2.14v1.08c0,0.29,0.11,0.44,0.33,0.44h0.39c0.1,0,0.18-0.04,0.23-0.11
				c0.05-0.05,0.1-0.26,0.15-0.61l0.95,0.28c-0.08,0.53-0.22,0.88-0.39,1.02c-0.18,0.18-0.41,0.27-0.71,0.27h-0.8
				c-0.73,0-1.09-0.26-1.09-0.77v-1.6h-0.85c-0.05,0.46-0.15,0.83-0.28,1.12c-0.19,0.4-0.43,0.72-0.68,0.96
				c-0.27,0.24-0.63,0.48-1.08,0.67l-0.72-0.56v4.32h-1.09v-7.46h2.26c-0.12-0.54-0.26-1.05-0.4-1.52h-2.09v-0.9h4.03v-1.09
				L-252.29-214.48z M-255.1-208.58c0.27-0.19,0.48-0.44,0.64-0.73c0.11-0.22,0.19-0.48,0.24-0.79H-256v1.98
				C-255.6-208.26-255.29-208.41-255.1-208.58z M-251.56-211.05l0.49-1.52h-3.1c0.16,0.53,0.28,1.05,0.38,1.52H-251.56z
				 M-251.54-205.5v-1.03h-2.17v1.03H-251.54z"/>
		</g>
		<g>
			<path d="M-234.62-203.64l-0.83-0.23l2.43-9.64l0.8,0.24L-234.62-203.64z"/>
		</g>
		<g>
			<path d="M-214.52-214v3.9h-2.89c-0.02,0.41-0.06,0.79-0.1,1.13h3.37c0,2.04-0.1,3.33-0.28,3.85c-0.11,0.51-0.35,0.88-0.72,1.07
				c-0.39,0.19-1.06,0.3-1.99,0.3l-0.52-1.09c1,0,1.59-0.05,1.79-0.17c0.17-0.07,0.32-0.28,0.43-0.61c0.13-0.32,0.22-1.09,0.24-2.36
				h-2.46c-0.12,0.68-0.28,1.28-0.45,1.81c-0.32,0.92-0.79,1.74-1.45,2.47l-0.96-0.67c0.64-0.67,1.12-1.42,1.42-2.25
				c0.3-0.79,0.51-1.96,0.63-3.49h-1.29v-3.9H-214.52z M-215.56-213h-3.14v1.91h3.14V-213z M-212.23-212.72
				c0.18,0.01,0.28,0.06,0.28,0.15c0,0.06-0.07,0.15-0.19,0.24v5.93h-1.05v-6.4L-212.23-212.72z M-209.74-214.19
				c0.13,0.03,0.21,0.07,0.21,0.15c0,0.1-0.1,0.22-0.29,0.34v8.69c0,0.47-0.16,0.83-0.47,1.06c-0.27,0.24-0.92,0.37-1.99,0.37
				l-0.42-1.09h1.15c0.4,0,0.62-0.17,0.64-0.52v-9.12L-209.74-214.19z"/>
		</g>
		<g>
			<path d="M-192.29-206.73v-1.14l1,0.08c0.18,0.01,0.28,0.06,0.28,0.16c0,0.06-0.07,0.16-0.19,0.28v0.62h3.85v1h-3.85v0.95h4.9v1
				h-10.88v-1h4.9v-0.95h-3.76v-1H-192.29z M-192.01-214.28v3.51h-1.94v0.62h1.94v0.8h-1.94v0.68c0.66-0.06,1.31-0.13,1.94-0.21
				v0.85c-0.94,0.15-2.41,0.32-4.41,0.52c-0.08,0.14-0.17,0.2-0.24,0.2c-0.07,0-0.11-0.05-0.11-0.16l-0.22-0.98
				c0.69-0.02,1.37-0.07,2.04-0.13v-0.77h-1.86v-0.8h1.86v-0.62h-1.94v-3.51H-192.01z M-194.95-212.9v-0.62h-0.95v0.62H-194.95z
				 M-194.95-212.19h-0.95v0.66h0.95V-212.19z M-193.95-212.9h0.95v-0.62h-0.95V-212.9z M-193-212.19h-0.95v0.66h0.95V-212.19z
				 M-187.35-214.19l0.51,0.34c0.07,0.05,0.11,0.1,0.11,0.15c0,0.1-0.08,0.18-0.24,0.28l-1.75,1.63c0.07,0.08,0.16,0.16,0.23,0.22
				h1.33l0.24-0.09c0.09,0,0.17,0.04,0.24,0.09l0.51,0.34c0.06,0.05,0.1,0.1,0.1,0.15c0,0.1-0.09,0.18-0.23,0.28l-1.09,1.57
				l-0.82-0.29l0.72-1.18h-1.33v2.17c0,0.41-0.12,0.71-0.34,0.9c-0.18,0.19-0.64,0.29-1.37,0.29l-0.43-1.05h0.69
				c0.24,0,0.38-0.11,0.4-0.33v-1.99h-1.9v-0.86h1.82c-0.29-0.27-0.58-0.52-0.88-0.75l0.71-0.57c0.27,0.17,0.52,0.37,0.77,0.57
				l0.9-1h-3.09v-0.85h3.71l0.23-0.1C-187.51-214.28-187.42-214.24-187.35-214.19z"/>
		</g>
		<g>
			<path d="M-173.71-203.64l-0.83-0.23l2.43-9.64l0.8,0.24L-173.71-203.64z"/>
		</g>
		<g>
			<path d="M-157.13-209.96l-0.72,0.77c-0.57-0.52-1.19-1-1.85-1.42l0.75-0.77C-158.23-210.93-157.63-210.46-157.13-209.96z
				 M-156.33-207.25c-0.64,1.12-1.32,2.16-2.04,3.14c0,0.28-0.1,0.42-0.28,0.42l-0.96-0.8c0.97-1.07,1.83-2.27,2.61-3.61
				L-156.33-207.25z M-156.33-213.18l-0.72,0.75c-0.58-0.46-1.22-0.89-1.9-1.28l0.77-0.77
				C-157.44-214.06-156.84-213.63-156.33-213.18z M-153.59-211.71c0.04-0.78,0.06-1.71,0.06-2.81l1.11,0.13
				c0.15,0.01,0.23,0.05,0.23,0.11s-0.1,0.16-0.29,0.28c-0.01,0.86-0.03,1.63-0.05,2.28h3.51v1.05h-3.27
				c0.29,1.4,0.71,2.51,1.25,3.34c0.51,0.92,1.4,1.87,2.64,2.83l-1.05,0.8c-0.74-0.78-1.35-1.47-1.83-2.13
				c-0.52-0.76-0.92-1.52-1.2-2.27c-0.12-0.27-0.23-0.57-0.33-0.91c-0.02,0.1-0.04,0.17-0.05,0.23c-0.24,0.96-0.58,1.8-1.02,2.52
				c0.62,0.45,1.22,0.96,1.79,1.52l-0.86,0.75c-0.52-0.56-1.03-1.03-1.52-1.42c-0.51,0.63-1.12,1.2-1.8,1.71l-0.95-0.8
				c0.97-0.58,1.76-1.31,2.37-2.2c0.51-0.75,0.86-1.69,1.07-2.82c0.05-0.3,0.1-0.69,0.14-1.15h-2.97v-1.05H-153.59z"/>
		</g>
		<g>
			<path d="M-131.72-213.52v3.55c0.58-0.67,1.02-1.37,1.33-2.1c0.23-0.51,0.45-1.35,0.67-2.49l1.18,0.19
				c0.13,0.05,0.21,0.11,0.21,0.19c0,0.1-0.12,0.19-0.34,0.28c-0.1,0.39-0.18,0.74-0.26,1.05h3.63v1.05h-0.72
				c-0.02,1.65-0.17,2.89-0.42,3.71c-0.19,0.74-0.48,1.41-0.86,1.99c0.55,0.58,1.24,1.14,2.09,1.7l-0.85,0.91
				c-0.78-0.57-1.41-1.14-1.92-1.73c-0.62,0.66-1.45,1.24-2.49,1.76l-1-1c1.11-0.36,1.94-0.83,2.5-1.41
				c0.1-0.09,0.19-0.17,0.27-0.27c-0.11-0.15-0.21-0.3-0.28-0.46c-0.51-0.85-0.88-2.05-1.09-3.63c-0.23,0.37-0.49,0.72-0.78,1.08
				l-0.86-0.73v0.58h-3.18v3.71c0,0.32,0.12,0.47,0.39,0.47h1.75c0.17,0,0.29-0.07,0.39-0.23c0.07-0.12,0.16-0.57,0.23-1.34
				l1.09,0.33c-0.11,0.92-0.28,1.52-0.51,1.79c-0.24,0.29-0.55,0.45-0.91,0.45h-2.28c-0.83,0-1.23-0.3-1.23-0.9v-5.28h3.17v-2.24
				h-3.32v-1H-131.72z M-129.16-210.53c0.16,1.47,0.51,2.61,1.06,3.43c0.01,0.03,0.03,0.05,0.04,0.06c0.12-0.22,0.23-0.46,0.33-0.7
				c0.38-0.9,0.58-2.26,0.62-4.06h-2.15c-0.06,0.16-0.12,0.29-0.17,0.41c-0.15,0.32-0.3,0.63-0.5,0.95L-129.16-210.53z"/>
		</g>
		<g>
			<path d="M-112.81-203.64l-0.83-0.23l2.43-9.64l0.8,0.24L-112.81-203.64z"/>
		</g>
		<g>
			<path d="M-95.74-214.11c0.11,0.06,0.17,0.11,0.17,0.16c0,0.1-0.06,0.17-0.18,0.24l-1.31,1.63c0.24,0.18,0.49,0.36,0.73,0.53
				l0.82-1.26l0.78,0.51c0.07,0.05,0.12,0.12,0.12,0.21c0,0.07-0.09,0.11-0.23,0.13l-2.01,2.89c0.46-0.05,0.92-0.11,1.37-0.18
				c-0.1-0.24-0.21-0.49-0.32-0.72l0.74-0.15c1.01-1.39,1.76-2.86,2.25-4.41l1.05,0.24c0.15,0.02,0.23,0.07,0.23,0.15
				c0,0.11-0.11,0.21-0.33,0.28c-0.19,0.5-0.4,0.99-0.62,1.46v0.11h1.69l0.83-1.9l0.94,0.19c0.17,0.03,0.26,0.09,0.26,0.18
				c0,0.1-0.1,0.18-0.29,0.28l-0.58,1.24h1.92v0.95h-2.04v1.42h1.8v0.9h-1.8v1.43h1.8v0.9h-1.8v1.42h2.04v0.95h-4.75v0.72h-1.05
				v-6.84c-0.2,0.32-0.38,0.61-0.57,0.9l-0.68-0.35c0.32,0.66,0.53,1.29,0.68,1.87l-0.9,0.19c-0.06-0.19-0.12-0.4-0.18-0.61
				c-0.18,0.04-0.38,0.07-0.57,0.1v4.74h-1.05v-4.56c-0.44,0.07-0.91,0.16-1.43,0.23c-0.07,0.13-0.16,0.19-0.23,0.19
				s-0.11-0.05-0.11-0.16l-0.22-0.98c0.27-0.02,0.52-0.05,0.78-0.07l1.18-1.83c-0.66-0.52-1.26-0.97-1.82-1.36l0.52-0.67
				c0.12,0.07,0.23,0.15,0.33,0.21l1.29-1.92L-95.74-214.11z M-97.07-207.09c0.08,0.01,0.13,0.05,0.13,0.12
				c0,0.1-0.07,0.19-0.19,0.29c-0.17,0.97-0.39,1.81-0.66,2.52l-0.96-0.33c0.17-0.34,0.3-0.71,0.42-1.12
				c0.15-0.51,0.26-1.09,0.34-1.74L-97.07-207.09z M-93.85-204.59l-0.95,0.18c-0.19-1-0.44-1.91-0.72-2.75l0.95-0.19
				C-94.24-206.39-94-205.46-93.85-204.59z M-90.77-211.34h-1.71v1.42h1.71V-211.34z M-90.77-209.01h-1.71v1.43h1.71V-209.01z
				 M-90.77-205.26v-1.42h-1.71v1.42H-90.77z"/>
		</g>
		<g>
			<path d="M-71.94-213.96c0.11,0.05,0.17,0.1,0.17,0.16c0,0.12-0.1,0.22-0.28,0.28c-0.31,0.79-0.6,1.47-0.86,2.05v7.88h-1.05v-5.93
				c-0.26,0.41-0.52,0.84-0.8,1.28l-0.8-0.8c0.58-0.83,1.08-1.66,1.49-2.5c0.39-0.77,0.77-1.73,1.15-2.87L-71.94-213.96z
				 M-65.74-213.9v3.8h-2.42v1.05h3.37v0.95h-2.95c0.47,0.71,0.94,1.25,1.39,1.65c0.51,0.44,1.17,0.89,1.99,1.34l-0.9,0.95
				c-0.75-0.51-1.4-1.07-1.91-1.68c-0.37-0.41-0.69-0.86-0.99-1.36v3.61h-1.05v-3.48c-0.31,0.49-0.61,0.89-0.87,1.23
				c-0.41,0.53-1.01,1.08-1.79,1.63l-0.85-0.95c0.73-0.35,1.34-0.78,1.82-1.29c0.37-0.34,0.79-0.9,1.29-1.65h-2.88v-0.95h3.28v-1.05
				h-2.37v-3.8H-65.74z M-66.83-212.95h-3.65v1.9h3.65V-212.95z"/>
		</g>
	</g>
</g>
<g>
	<path d="M105.61-275.15l6.46,18.98h0.08l6.11-18.98h8.54v27.6h-5.68v-19.56h-0.08l-6.76,19.56h-4.68l-6.76-19.37h-0.08v19.37h-5.68
		v-27.6H105.61z"/>
	<path d="M131.31-261.39c0.08-1.29,0.4-2.36,0.97-3.21c0.57-0.85,1.29-1.53,2.16-2.05c0.88-0.51,1.86-0.88,2.96-1.1
		c1.09-0.22,2.2-0.33,3.31-0.33c1,0,2.02,0.07,3.05,0.21c1.03,0.14,1.97,0.42,2.82,0.83c0.85,0.41,1.55,0.99,2.09,1.72
		s0.81,1.71,0.81,2.92v10.4c0,0.9,0.05,1.76,0.16,2.59c0.1,0.82,0.28,1.44,0.54,1.86h-5.57c-0.1-0.31-0.19-0.62-0.25-0.95
		c-0.06-0.32-0.11-0.65-0.13-0.99c-0.88,0.9-1.91,1.53-3.09,1.89c-1.18,0.36-2.4,0.54-3.63,0.54c-0.95,0-1.84-0.12-2.67-0.35
		c-0.83-0.23-1.55-0.59-2.16-1.08c-0.62-0.49-1.1-1.11-1.45-1.86c-0.35-0.75-0.52-1.64-0.52-2.67c0-1.13,0.2-2.07,0.6-2.8
		c0.4-0.73,0.91-1.32,1.55-1.76c0.63-0.44,1.35-0.77,2.16-0.99c0.81-0.22,1.63-0.39,2.45-0.52c0.82-0.13,1.64-0.23,2.44-0.31
		c0.8-0.08,1.51-0.19,2.13-0.35c0.62-0.15,1.11-0.38,1.47-0.68c0.36-0.3,0.53-0.73,0.5-1.29c0-0.59-0.1-1.06-0.29-1.41
		c-0.19-0.35-0.45-0.62-0.77-0.81c-0.32-0.19-0.69-0.32-1.12-0.39c-0.42-0.06-0.88-0.1-1.37-0.1c-1.08,0-1.93,0.23-2.55,0.7
		c-0.62,0.46-0.98,1.24-1.08,2.32H131.31z M143.99-257.33c-0.23,0.21-0.52,0.37-0.87,0.48c-0.35,0.12-0.72,0.21-1.12,0.29
		s-0.82,0.14-1.26,0.19c-0.44,0.05-0.88,0.12-1.31,0.19c-0.41,0.08-0.82,0.18-1.22,0.31c-0.4,0.13-0.75,0.3-1.04,0.52
		c-0.3,0.22-0.54,0.5-0.72,0.83c-0.18,0.34-0.27,0.76-0.27,1.28c0,0.49,0.09,0.9,0.27,1.24s0.43,0.6,0.74,0.79
		c0.31,0.19,0.67,0.33,1.08,0.41c0.41,0.08,0.84,0.12,1.27,0.12c1.08,0,1.92-0.18,2.51-0.54c0.59-0.36,1.03-0.79,1.31-1.29
		c0.28-0.5,0.46-1.01,0.52-1.53c0.06-0.52,0.1-0.93,0.1-1.24V-257.33z"/>
	<path d="M158.35-252.51c0.25,0.43,0.56,0.77,0.95,1.04c0.39,0.27,0.83,0.47,1.33,0.6c0.5,0.13,1.02,0.19,1.57,0.19
		c0.39,0,0.79-0.05,1.22-0.14c0.43-0.09,0.81-0.23,1.16-0.43c0.35-0.19,0.64-0.45,0.87-0.77c0.23-0.32,0.35-0.73,0.35-1.22
		c0-0.82-0.55-1.44-1.64-1.86c-1.1-0.41-2.62-0.82-4.58-1.24c-0.8-0.18-1.58-0.39-2.34-0.64c-0.76-0.24-1.44-0.57-2.03-0.97
		c-0.59-0.4-1.07-0.9-1.43-1.51c-0.36-0.61-0.54-1.35-0.54-2.22c0-1.29,0.25-2.35,0.75-3.17c0.5-0.83,1.17-1.47,1.99-1.95
		c0.82-0.48,1.75-0.81,2.78-1s2.09-0.29,3.17-0.29c1.08,0,2.13,0.1,3.15,0.31c1.02,0.21,1.93,0.55,2.73,1.04
		c0.8,0.49,1.46,1.14,1.99,1.95c0.53,0.81,0.84,1.84,0.95,3.07h-5.22c-0.08-1.06-0.48-1.77-1.2-2.15c-0.72-0.37-1.57-0.56-2.55-0.56
		c-0.31,0-0.64,0.02-1,0.06c-0.36,0.04-0.69,0.12-0.99,0.25c-0.3,0.13-0.55,0.32-0.75,0.56s-0.31,0.57-0.31,0.99
		c0,0.49,0.18,0.89,0.54,1.2c0.36,0.31,0.83,0.56,1.41,0.75c0.58,0.19,1.24,0.37,1.99,0.52c0.75,0.15,1.51,0.32,2.28,0.5
		c0.8,0.18,1.58,0.4,2.34,0.66c0.76,0.26,1.44,0.6,2.03,1.03c0.59,0.42,1.07,0.95,1.43,1.58c0.36,0.63,0.54,1.41,0.54,2.34
		c0,1.31-0.27,2.42-0.79,3.3s-1.22,1.6-2.07,2.15c-0.85,0.54-1.82,0.92-2.92,1.14c-1.09,0.22-2.21,0.33-3.34,0.33
		c-1.16,0-2.29-0.12-3.4-0.35c-1.11-0.23-2.09-0.62-2.96-1.16c-0.86-0.54-1.57-1.26-2.13-2.15s-0.86-2-0.91-3.34h5.22
		C157.98-253.45,158.1-252.94,158.35-252.51z"/>
	<path d="M174.25-261.39c0.08-1.29,0.4-2.36,0.97-3.21c0.57-0.85,1.29-1.53,2.16-2.05c0.88-0.51,1.86-0.88,2.96-1.1
		c1.09-0.22,2.2-0.33,3.31-0.33c1,0,2.02,0.07,3.05,0.21c1.03,0.14,1.97,0.42,2.82,0.83c0.85,0.41,1.55,0.99,2.09,1.72
		s0.81,1.71,0.81,2.92v10.4c0,0.9,0.05,1.76,0.16,2.59c0.1,0.82,0.28,1.44,0.54,1.86h-5.57c-0.1-0.31-0.19-0.62-0.25-0.95
		c-0.06-0.32-0.11-0.65-0.13-0.99c-0.88,0.9-1.91,1.53-3.09,1.89c-1.18,0.36-2.4,0.54-3.63,0.54c-0.95,0-1.84-0.12-2.67-0.35
		c-0.83-0.23-1.55-0.59-2.16-1.08c-0.62-0.49-1.1-1.11-1.45-1.86c-0.35-0.75-0.52-1.64-0.52-2.67c0-1.13,0.2-2.07,0.6-2.8
		c0.4-0.73,0.91-1.32,1.55-1.76c0.63-0.44,1.35-0.77,2.16-0.99c0.81-0.22,1.63-0.39,2.45-0.52c0.82-0.13,1.64-0.23,2.44-0.31
		c0.8-0.08,1.51-0.19,2.13-0.35c0.62-0.15,1.11-0.38,1.47-0.68c0.36-0.3,0.53-0.73,0.5-1.29c0-0.59-0.1-1.06-0.29-1.41
		c-0.19-0.35-0.45-0.62-0.77-0.81c-0.32-0.19-0.69-0.32-1.12-0.39c-0.42-0.06-0.88-0.1-1.37-0.1c-1.08,0-1.93,0.23-2.55,0.7
		c-0.62,0.46-0.98,1.24-1.08,2.32H174.25z M186.93-257.33c-0.23,0.21-0.52,0.37-0.87,0.48c-0.35,0.12-0.72,0.21-1.12,0.29
		s-0.82,0.14-1.26,0.19c-0.44,0.05-0.88,0.12-1.31,0.19c-0.41,0.08-0.82,0.18-1.22,0.31c-0.4,0.13-0.75,0.3-1.04,0.52
		c-0.3,0.22-0.54,0.5-0.72,0.83c-0.18,0.34-0.27,0.76-0.27,1.28c0,0.49,0.09,0.9,0.27,1.24s0.43,0.6,0.74,0.79
		c0.31,0.19,0.67,0.33,1.08,0.41c0.41,0.08,0.84,0.12,1.27,0.12c1.08,0,1.92-0.18,2.51-0.54c0.59-0.36,1.03-0.79,1.31-1.29
		c0.28-0.5,0.46-1.01,0.52-1.53c0.06-0.52,0.1-0.93,0.1-1.24V-257.33z"/>
	<path d="M210.86-250.1c-0.64,1.08-1.49,1.86-2.53,2.34c-1.04,0.48-2.22,0.71-3.54,0.71c-1.49,0-2.81-0.29-3.94-0.87
		c-1.13-0.58-2.07-1.37-2.8-2.36c-0.73-0.99-1.29-2.13-1.66-3.42c-0.37-1.29-0.56-2.63-0.56-4.02c0-1.34,0.19-2.63,0.56-3.88
		c0.37-1.25,0.93-2.35,1.66-3.31c0.73-0.95,1.66-1.72,2.76-2.3c1.11-0.58,2.4-0.87,3.86-0.87c1.19,0,2.31,0.25,3.38,0.75
		c1.07,0.5,1.91,1.24,2.53,2.22h0.08v-10.05h5.49v27.6h-5.22v-2.55H210.86z M210.63-259.97c-0.15-0.76-0.42-1.43-0.79-2.01
		c-0.37-0.58-0.86-1.05-1.45-1.41c-0.59-0.36-1.34-0.54-2.24-0.54c-0.9,0-1.66,0.18-2.28,0.54c-0.62,0.36-1.11,0.84-1.49,1.43
		c-0.37,0.59-0.64,1.27-0.81,2.03c-0.17,0.76-0.25,1.55-0.25,2.38c0,0.77,0.09,1.55,0.27,2.32c0.18,0.77,0.47,1.46,0.87,2.07
		c0.4,0.61,0.9,1.1,1.51,1.47c0.6,0.37,1.33,0.56,2.18,0.56c0.9,0,1.66-0.18,2.26-0.54c0.6-0.36,1.09-0.84,1.45-1.45
		c0.36-0.6,0.62-1.29,0.77-2.07c0.15-0.77,0.23-1.57,0.23-2.4C210.86-258.42,210.78-259.21,210.63-259.97z"/>
	<path d="M220.06-261.39c0.08-1.29,0.4-2.36,0.97-3.21c0.57-0.85,1.29-1.53,2.16-2.05c0.88-0.51,1.86-0.88,2.96-1.1
		c1.09-0.22,2.2-0.33,3.31-0.33c1,0,2.02,0.07,3.05,0.21c1.03,0.14,1.97,0.42,2.82,0.83c0.85,0.41,1.55,0.99,2.09,1.72
		s0.81,1.71,0.81,2.92v10.4c0,0.9,0.05,1.76,0.16,2.59c0.1,0.82,0.28,1.44,0.54,1.86h-5.57c-0.1-0.31-0.19-0.62-0.25-0.95
		c-0.06-0.32-0.11-0.65-0.13-0.99c-0.88,0.9-1.91,1.53-3.09,1.89c-1.18,0.36-2.4,0.54-3.63,0.54c-0.95,0-1.84-0.12-2.67-0.35
		c-0.83-0.23-1.55-0.59-2.16-1.08c-0.62-0.49-1.1-1.11-1.45-1.86c-0.35-0.75-0.52-1.64-0.52-2.67c0-1.13,0.2-2.07,0.6-2.8
		c0.4-0.73,0.91-1.32,1.55-1.76c0.63-0.44,1.35-0.77,2.16-0.99c0.81-0.22,1.63-0.39,2.45-0.52c0.82-0.13,1.64-0.23,2.44-0.31
		c0.8-0.08,1.51-0.19,2.13-0.35c0.62-0.15,1.11-0.38,1.47-0.68c0.36-0.3,0.53-0.73,0.5-1.29c0-0.59-0.1-1.06-0.29-1.41
		c-0.19-0.35-0.45-0.62-0.77-0.81c-0.32-0.19-0.69-0.32-1.12-0.39c-0.42-0.06-0.88-0.1-1.37-0.1c-1.08,0-1.93,0.23-2.55,0.7
		c-0.62,0.46-0.98,1.24-1.08,2.32H220.06z M232.74-257.33c-0.23,0.21-0.52,0.37-0.87,0.48c-0.35,0.12-0.72,0.21-1.12,0.29
		s-0.82,0.14-1.26,0.19c-0.44,0.05-0.88,0.12-1.31,0.19c-0.41,0.08-0.82,0.18-1.22,0.31c-0.4,0.13-0.75,0.3-1.04,0.52
		c-0.3,0.22-0.54,0.5-0.72,0.83c-0.18,0.34-0.27,0.76-0.27,1.28c0,0.49,0.09,0.9,0.27,1.24s0.43,0.6,0.74,0.79
		c0.31,0.19,0.67,0.33,1.08,0.41c0.41,0.08,0.84,0.12,1.27,0.12c1.08,0,1.92-0.18,2.51-0.54c0.59-0.36,1.03-0.79,1.31-1.29
		c0.28-0.5,0.46-1.01,0.52-1.53c0.06-0.52,0.1-0.93,0.1-1.24V-257.33z"/>
</g>
<g>
	<g>
		<g>
			<path d="M104.45-229.38c-1.09,4.69-3.44,8.2-6.21,10.06c-0.45-0.57-1.52-1.61-2.17-2.02c2.13-1.27,3.92-3.49,4.96-6.16h-4.4
				v-2.54h5.53l0.48-0.11L104.45-229.38z M116.74-230.92c-1.7,1.54-3.78,3.24-5.51,4.4c1.59,2.18,3.65,3.85,6.3,4.89
				c-0.63,0.52-1.47,1.63-1.88,2.36c-3.29-1.47-5.62-3.9-7.32-7v5.19c0,1.47-0.29,2.2-1.27,2.65c-0.93,0.43-2.31,0.45-4.21,0.45
				c-0.11-0.77-0.54-1.97-0.91-2.7c1.13,0.07,2.54,0.07,2.95,0.05s0.54-0.14,0.54-0.5v-10.81h-5.67v-2.58h8.41
				c-1.93-0.86-4.55-1.74-6.64-2.29l1.34-2.2c2.63,0.57,6.41,1.77,8.34,2.76l-1.45,2.52c-0.39-0.23-0.88-0.48-1.43-0.73v1.88
				c0.43,1.43,0.97,2.76,1.61,3.99c1.54-1.22,3.24-2.81,4.33-4.17L116.74-230.92z"/>
		</g>
		<g>
			<path d="M133.63-238.21c-0.57,1.54-1.27,3.13-2.08,4.65v15.63h-2.67v-11.42c-0.43,0.59-0.88,1.11-1.31,1.59
				c-0.25-0.63-1-2.11-1.45-2.76c1.99-2.04,3.9-5.23,4.99-8.47L133.63-238.21z M147.49-221.24v2.58h-15.07v-2.58h6.23v-2.72h-4.98
				v-2.56h4.98v-1.99h2.74v1.99h5.12v2.56h-5.12v2.72H147.49z M138.66-234.07h-4.53v-2.52h4.53v-2.52h2.74v2.52h4.67v2.52h-4.67
				v2.36h5.69v2.54h-14v-2.54h5.57V-234.07z"/>
		</g>
		<g>
			<path d="M163.64-227.18c-0.73,0.23-1.45,0.45-2.18,0.66v5.73c0,1.25-0.2,1.93-0.88,2.36c-0.7,0.43-1.65,0.52-3.15,0.5
				c-0.07-0.66-0.36-1.77-0.68-2.49c0.82,0.04,1.61,0.04,1.88,0.02c0.27,0,0.38-0.09,0.38-0.39v-5.01c-0.75,0.23-1.5,0.43-2.15,0.61
				l-0.59-2.58c0.77-0.16,1.72-0.41,2.74-0.66v-3.92h-2.38v-2.47h2.38v-4.26h2.45v4.26h2.06v2.47h-2.06v3.26l1.84-0.52
				L163.64-227.18z M171.54-220.54c0.61,0.07,1.25,0.09,1.9,0.09c0.7,0,3.4,0,4.33-0.05c-0.34,0.57-0.66,1.65-0.75,2.31h-3.76
				c-3.13,0-5.57-0.54-7.3-2.67c-0.52,1.2-1.18,2.22-1.99,3.01c-0.41-0.41-1.47-1.13-2.04-1.47c1.63-1.43,2.45-3.76,2.79-6.41
				l2.45,0.32c-0.11,0.73-0.23,1.43-0.41,2.11c0.59,1.02,1.36,1.68,2.29,2.11v-4.85h-4.24v-1.99h4.24v-1.16h-5.55v-2.08h5.55v-1.04
				h-4.24v-2.02h4.24v-0.95h-5.19v-2.11h5.19v-1.7h2.49v1.7h5.69v2.11h-5.69v0.95h4.8v3.06h1.4v2.08h-1.4v3.15h-4.8v1.31h4.96v2.11
				h-4.96V-220.54z M171.54-231.28h2.31v-1.04h-2.31V-231.28z M171.54-228.04h2.31v-1.16h-2.31V-228.04z"/>
		</g>
		<g>
			<path d="M194.08-224.64c-0.27-0.63-0.82-1.59-1.36-2.49v9.2h-2.61v-8.16c-0.75,1.74-1.59,3.35-2.47,4.49
				c-0.25-0.77-0.84-1.88-1.25-2.56c1.27-1.45,2.54-3.88,3.35-6.07h-3.06v-2.52h3.42v-2.56c-0.88,0.14-1.72,0.27-2.56,0.36
				c-0.09-0.61-0.43-1.5-0.72-2.08c2.58-0.41,5.42-1.09,7.3-1.86l1.52,2.2c-0.88,0.34-1.88,0.61-2.92,0.84v3.1h2.99v2.52h-2.99v0.18
				c0.66,0.63,2.52,2.76,2.95,3.29L194.08-224.64z M205.25-223.66v5.71h-2.65v-5.23l-6.84,1.18l-0.43-2.56l7.27-1.25v-13.28h2.65
				v12.83l2.24-0.39l0.43,2.52L205.25-223.66z M199.56-226.81c-0.7-1-2.29-2.45-3.6-3.47l1.72-1.54c1.29,0.91,2.97,2.31,3.72,3.29
				L199.56-226.81z M200.15-232.8c-0.63-0.97-2.11-2.42-3.38-3.4l1.77-1.54c1.22,0.93,2.81,2.27,3.49,3.26L200.15-232.8z"/>
		</g>
		<g>
			<path d="M224.67-227c-0.79,0.23-1.61,0.45-2.42,0.66v5.42c0,1.31-0.25,1.95-1.02,2.38c-0.75,0.41-1.84,0.48-3.44,0.48
				c-0.09-0.68-0.43-1.74-0.75-2.45c0.88,0.02,1.81,0.02,2.11,0.02c0.32,0,0.43-0.11,0.43-0.45v-4.67l-2.2,0.54l-0.7-2.56
				c0.84-0.18,1.81-0.38,2.9-0.66v-4.01h-2.61v-2.49h2.61v-4.28h2.67v4.28h2.22v2.49h-2.22v3.35l2.08-0.52L224.67-227z
				 M237.23-230.05c-0.86,3.13-2.31,5.62-4.24,7.52c1.5,1.04,3.24,1.79,5.26,2.29c-0.57,0.54-1.34,1.63-1.72,2.33
				c-2.2-0.66-4.06-1.61-5.64-2.85c-1.77,1.22-3.76,2.13-5.98,2.79c-0.29-0.73-0.93-1.86-1.43-2.45c1.99-0.48,3.83-1.2,5.42-2.22
				c-1.31-1.52-2.38-3.31-3.22-5.39l0.68-0.2h-1.18v-2.42h4.46v-2.72h-4.87v-2.49h4.87v-3.24h2.67v3.24h5.08v2.49h-5.08v2.72h2.72
				l0.48-0.11L237.23-230.05z M228.3-228.24c0.63,1.5,1.54,2.85,2.67,4.01c1.18-1.11,2.18-2.47,2.86-4.01H228.3z"/>
		</g>
	</g>
</g>
<g>
	<g>
		<g>
			<path d="M-277.78,89.41c0.11,0.05,0.17,0.1,0.17,0.16c0,0.12-0.1,0.22-0.29,0.29c-0.32,0.71-0.62,1.33-0.9,1.85v8.17h-1.09v-6.39
				c-0.3,0.44-0.63,0.9-1,1.36l-0.8-0.82c0.66-0.78,1.2-1.56,1.67-2.36c0.43-0.73,0.85-1.63,1.28-2.72L-277.78,89.41z
				 M-270.73,91.38v1h-3.09v2.42h2.71v1h-2.71v2.56h3.33v1h-7.79v-1h3.38v-2.56h-2.71v-1h2.71v-2.42h-3.04v-1H-270.73z
				 M-273.29,90.33l-0.9,0.8c-0.5-0.51-0.98-0.92-1.47-1.24l0.8-0.75C-274.33,89.47-273.8,89.87-273.29,90.33z"/>
		</g>
		<g>
			<path d="M-252.29,88.98c0.18,0.02,0.28,0.07,0.28,0.16c0,0.06-0.06,0.16-0.18,0.28v0.57h4.22v0.9h-1.99l-0.5,1.52h2.26v6.27
				c0,0.54-0.26,0.88-0.77,1.05c-0.4,0.12-0.79,0.19-1.18,0.19l-0.41-1.05h-3.15v0.43h-1v-3.28h4.17v2.81l0.85-0.03
				c0.26-0.01,0.39-0.16,0.39-0.45v-4.98h-2.14v1.08c0,0.29,0.11,0.44,0.33,0.44h0.39c0.1,0,0.18-0.04,0.23-0.11
				c0.05-0.05,0.1-0.26,0.15-0.61l0.95,0.28c-0.08,0.53-0.22,0.88-0.39,1.02c-0.18,0.18-0.41,0.27-0.71,0.27h-0.8
				c-0.73,0-1.09-0.26-1.09-0.77v-1.6h-0.85c-0.05,0.46-0.15,0.83-0.28,1.12c-0.19,0.4-0.43,0.72-0.68,0.96
				c-0.27,0.24-0.63,0.48-1.08,0.67l-0.72-0.56v4.32h-1.09v-7.46h2.26c-0.12-0.54-0.26-1.05-0.4-1.52h-2.09v-0.9h4.03V88.9
				L-252.29,88.98z M-255.1,94.89c0.27-0.19,0.48-0.44,0.64-0.73c0.11-0.22,0.19-0.48,0.24-0.79H-256v1.98
				C-255.6,95.21-255.29,95.06-255.1,94.89z M-251.56,92.41l0.49-1.52h-3.1c0.16,0.53,0.28,1.05,0.38,1.52H-251.56z M-251.54,97.96
				v-1.03h-2.17v1.03H-251.54z"/>
		</g>
		<g>
			<path d="M-234.62,99.82l-0.83-0.23l2.43-9.64l0.8,0.24L-234.62,99.82z"/>
		</g>
		<g>
			<path d="M-214.52,89.47v3.9h-2.89c-0.02,0.41-0.06,0.79-0.1,1.13h3.37c0,2.04-0.1,3.33-0.28,3.85c-0.11,0.51-0.35,0.88-0.72,1.07
				c-0.39,0.19-1.06,0.3-1.99,0.3l-0.52-1.09c1,0,1.59-0.05,1.79-0.17c0.17-0.07,0.32-0.28,0.43-0.61c0.13-0.32,0.22-1.09,0.24-2.36
				h-2.46c-0.12,0.68-0.28,1.28-0.45,1.81c-0.32,0.92-0.79,1.74-1.45,2.47l-0.96-0.67c0.64-0.67,1.12-1.42,1.42-2.25
				c0.3-0.79,0.51-1.96,0.63-3.49h-1.29v-3.9H-214.52z M-215.56,90.47h-3.14v1.91h3.14V90.47z M-212.23,90.74
				c0.18,0.01,0.28,0.06,0.28,0.15c0,0.06-0.07,0.15-0.19,0.24v5.93h-1.05v-6.4L-212.23,90.74z M-209.74,89.27
				c0.13,0.03,0.21,0.07,0.21,0.15c0,0.1-0.1,0.22-0.29,0.34v8.69c0,0.47-0.16,0.83-0.47,1.06c-0.27,0.24-0.92,0.37-1.99,0.37
				l-0.42-1.09h1.15c0.4,0,0.62-0.17,0.64-0.52v-9.12L-209.74,89.27z"/>
		</g>
		<g>
			<path d="M-192.29,96.74v-1.14l1,0.08c0.18,0.01,0.28,0.06,0.28,0.16c0,0.06-0.07,0.16-0.19,0.28v0.62h3.85v1h-3.85v0.95h4.9v1
				h-10.88v-1h4.9v-0.95h-3.76v-1H-192.29z M-192.01,89.19v3.51h-1.94v0.62h1.94v0.8h-1.94v0.68c0.66-0.06,1.31-0.13,1.94-0.21v0.85
				c-0.94,0.15-2.41,0.32-4.41,0.52c-0.08,0.14-0.17,0.2-0.24,0.2c-0.07,0-0.11-0.05-0.11-0.16l-0.22-0.98
				c0.69-0.02,1.37-0.07,2.04-0.13v-0.77h-1.86v-0.8h1.86V92.7h-1.94v-3.51H-192.01z M-194.95,90.56v-0.62h-0.95v0.62H-194.95z
				 M-194.95,91.28h-0.95v0.66h0.95V91.28z M-193.95,90.56h0.95v-0.62h-0.95V90.56z M-193,91.28h-0.95v0.66h0.95V91.28z
				 M-187.35,89.27l0.51,0.34c0.07,0.05,0.11,0.1,0.11,0.15c0,0.1-0.08,0.18-0.24,0.28l-1.75,1.63c0.07,0.08,0.16,0.16,0.23,0.22
				h1.33l0.24-0.09c0.09,0,0.17,0.04,0.24,0.09l0.51,0.34c0.06,0.05,0.1,0.1,0.1,0.15c0,0.1-0.09,0.18-0.23,0.28l-1.09,1.57
				l-0.82-0.29l0.72-1.18h-1.33v2.17c0,0.41-0.12,0.71-0.34,0.9c-0.18,0.19-0.64,0.29-1.37,0.29l-0.43-1.05h0.69
				c0.24,0,0.38-0.11,0.4-0.33v-1.99h-1.9v-0.86h1.82c-0.29-0.27-0.58-0.52-0.88-0.75l0.71-0.57c0.27,0.17,0.52,0.37,0.77,0.57
				l0.9-1h-3.09v-0.85h3.71l0.23-0.1C-187.51,89.19-187.42,89.22-187.35,89.27z"/>
		</g>
		<g>
			<path d="M-173.71,99.82l-0.83-0.23l2.43-9.64l0.8,0.24L-173.71,99.82z"/>
		</g>
		<g>
			<path d="M-157.13,93.5l-0.72,0.77c-0.57-0.52-1.19-1-1.85-1.42l0.75-0.77C-158.23,92.53-157.63,93.01-157.13,93.5z
				 M-156.33,96.21c-0.64,1.12-1.32,2.16-2.04,3.14c0,0.28-0.1,0.42-0.28,0.42l-0.96-0.8c0.97-1.07,1.83-2.27,2.61-3.61
				L-156.33,96.21z M-156.33,90.28l-0.72,0.75c-0.58-0.46-1.22-0.89-1.9-1.28l0.77-0.77C-157.44,89.41-156.84,89.83-156.33,90.28z
				 M-153.59,91.75c0.04-0.78,0.06-1.71,0.06-2.81l1.11,0.13c0.15,0.01,0.23,0.05,0.23,0.11s-0.1,0.16-0.29,0.28
				c-0.01,0.86-0.03,1.63-0.05,2.28h3.51v1.05h-3.27c0.29,1.4,0.71,2.51,1.25,3.34c0.51,0.92,1.4,1.87,2.64,2.83l-1.05,0.8
				c-0.74-0.78-1.35-1.47-1.83-2.13c-0.52-0.76-0.92-1.52-1.2-2.27c-0.12-0.27-0.23-0.57-0.33-0.91c-0.02,0.1-0.04,0.17-0.05,0.23
				c-0.24,0.96-0.58,1.8-1.02,2.52c0.62,0.45,1.22,0.96,1.79,1.52l-0.86,0.75c-0.52-0.56-1.03-1.03-1.52-1.42
				c-0.51,0.63-1.12,1.2-1.8,1.71l-0.95-0.8c0.97-0.58,1.76-1.31,2.37-2.2c0.51-0.75,0.86-1.69,1.07-2.82
				c0.05-0.3,0.1-0.69,0.14-1.15h-2.97v-1.05H-153.59z"/>
		</g>
		<g>
			<path d="M-131.72,89.94v3.55c0.58-0.67,1.02-1.37,1.33-2.1c0.23-0.51,0.45-1.35,0.67-2.49l1.18,0.19
				c0.13,0.05,0.21,0.11,0.21,0.19c0,0.1-0.12,0.19-0.34,0.28c-0.1,0.39-0.18,0.74-0.26,1.05h3.63v1.05h-0.72
				c-0.02,1.65-0.17,2.89-0.42,3.71c-0.19,0.74-0.48,1.41-0.86,1.99c0.55,0.58,1.24,1.14,2.09,1.7l-0.85,0.91
				c-0.78-0.57-1.41-1.14-1.92-1.73c-0.62,0.66-1.45,1.24-2.49,1.76l-1-1c1.11-0.36,1.94-0.83,2.5-1.41
				c0.1-0.09,0.19-0.17,0.27-0.27c-0.11-0.15-0.21-0.3-0.28-0.46c-0.51-0.85-0.88-2.05-1.09-3.63c-0.23,0.37-0.49,0.72-0.78,1.08
				l-0.86-0.73v0.58h-3.18v3.71c0,0.32,0.12,0.47,0.39,0.47h1.75c0.17,0,0.29-0.07,0.39-0.23c0.07-0.12,0.16-0.57,0.23-1.34
				l1.09,0.33c-0.11,0.92-0.28,1.52-0.51,1.79c-0.24,0.29-0.55,0.45-0.91,0.45h-2.28c-0.83,0-1.23-0.3-1.23-0.9v-5.28h3.17v-2.24
				h-3.32v-1H-131.72z M-129.16,92.93c0.16,1.47,0.51,2.61,1.06,3.43c0.01,0.03,0.03,0.05,0.04,0.06c0.12-0.22,0.23-0.46,0.33-0.7
				c0.38-0.9,0.58-2.26,0.62-4.06h-2.15c-0.06,0.16-0.12,0.29-0.17,0.41c-0.15,0.32-0.3,0.63-0.5,0.95L-129.16,92.93z"/>
		</g>
		<g>
			<path d="M-112.81,99.82l-0.83-0.23l2.43-9.64l0.8,0.24L-112.81,99.82z"/>
		</g>
		<g>
			<path d="M-95.74,89.36c0.11,0.06,0.17,0.11,0.17,0.16c0,0.1-0.06,0.17-0.18,0.24l-1.31,1.63c0.24,0.18,0.49,0.36,0.73,0.53
				l0.82-1.26l0.78,0.51c0.07,0.05,0.12,0.12,0.12,0.21c0,0.07-0.09,0.11-0.23,0.13l-2.01,2.89c0.46-0.05,0.92-0.11,1.37-0.18
				c-0.1-0.24-0.21-0.49-0.32-0.72l0.74-0.15c1.01-1.39,1.76-2.86,2.25-4.41l1.05,0.24c0.15,0.02,0.23,0.07,0.23,0.15
				c0,0.11-0.11,0.21-0.33,0.28c-0.19,0.5-0.4,0.99-0.62,1.46v0.11h1.69l0.83-1.9l0.94,0.19c0.17,0.03,0.26,0.09,0.26,0.18
				c0,0.1-0.1,0.18-0.29,0.28l-0.58,1.24h1.92v0.95h-2.04v1.42h1.8v0.9h-1.8v1.43h1.8v0.9h-1.8v1.42h2.04v0.95h-4.75v0.72h-1.05
				v-6.84c-0.2,0.32-0.38,0.61-0.57,0.9l-0.68-0.35c0.32,0.66,0.53,1.29,0.68,1.87l-0.9,0.19c-0.06-0.19-0.12-0.4-0.18-0.61
				c-0.18,0.04-0.38,0.07-0.57,0.1v4.74h-1.05v-4.56c-0.44,0.07-0.91,0.16-1.43,0.23c-0.07,0.13-0.16,0.19-0.23,0.19
				s-0.11-0.05-0.11-0.16l-0.22-0.98c0.27-0.02,0.52-0.05,0.78-0.07l1.18-1.83c-0.66-0.52-1.26-0.97-1.82-1.36l0.52-0.67
				c0.12,0.07,0.23,0.15,0.33,0.21l1.29-1.92L-95.74,89.36z M-97.07,96.37c0.08,0.01,0.13,0.05,0.13,0.12c0,0.1-0.07,0.19-0.19,0.29
				c-0.17,0.97-0.39,1.81-0.66,2.52l-0.96-0.33c0.17-0.34,0.3-0.71,0.42-1.12c0.15-0.51,0.26-1.09,0.34-1.74L-97.07,96.37z
				 M-93.85,98.88l-0.95,0.18c-0.19-1-0.44-1.91-0.72-2.75l0.95-0.19C-94.24,97.08-94,98-93.85,98.88z M-90.77,92.13h-1.71v1.42
				h1.71V92.13z M-90.77,94.45h-1.71v1.43h1.71V94.45z M-90.77,98.21v-1.42h-1.71v1.42H-90.77z"/>
		</g>
		<g>
			<path d="M-71.94,89.5c0.11,0.05,0.17,0.1,0.17,0.16c0,0.12-0.1,0.22-0.28,0.28c-0.31,0.79-0.6,1.47-0.86,2.05v7.88h-1.05v-5.93
				c-0.26,0.41-0.52,0.84-0.8,1.28l-0.8-0.8c0.58-0.83,1.08-1.66,1.49-2.5c0.39-0.77,0.77-1.73,1.15-2.87L-71.94,89.5z
				 M-65.74,89.57v3.8h-2.42v1.05h3.37v0.95h-2.95c0.47,0.71,0.94,1.25,1.39,1.65c0.51,0.44,1.17,0.89,1.99,1.34l-0.9,0.95
				c-0.75-0.51-1.4-1.07-1.91-1.68c-0.37-0.41-0.69-0.86-0.99-1.36v3.61h-1.05V96.4c-0.31,0.49-0.61,0.89-0.87,1.23
				c-0.41,0.53-1.01,1.08-1.79,1.63l-0.85-0.95c0.73-0.35,1.34-0.78,1.82-1.29c0.37-0.34,0.79-0.9,1.29-1.65h-2.88v-0.95h3.28v-1.05
				h-2.37v-3.8H-65.74z M-66.83,90.51h-3.65v1.9h3.65V90.51z"/>
		</g>
	</g>
</g>
<g>
	<path d="M-198.22,16.21l6.46,18.98h0.08l6.11-18.98h8.54v27.6h-5.68V24.25h-0.08l-6.76,19.56h-4.68L-201,24.45h-0.08v19.37h-5.68
		v-27.6H-198.22z"/>
	<path d="M-172.51,29.97c0.08-1.29,0.4-2.36,0.97-3.21c0.57-0.85,1.29-1.53,2.16-2.05c0.88-0.51,1.86-0.88,2.96-1.1
		c1.09-0.22,2.2-0.33,3.31-0.33c1,0,2.02,0.07,3.05,0.21c1.03,0.14,1.97,0.42,2.82,0.83c0.85,0.41,1.55,0.99,2.09,1.72
		c0.54,0.73,0.81,1.71,0.81,2.92v10.4c0,0.9,0.05,1.76,0.16,2.59c0.1,0.82,0.28,1.44,0.54,1.86h-5.57c-0.1-0.31-0.19-0.62-0.25-0.95
		c-0.06-0.32-0.11-0.65-0.13-0.99c-0.88,0.9-1.91,1.53-3.09,1.89c-1.18,0.36-2.4,0.54-3.63,0.54c-0.95,0-1.84-0.12-2.67-0.35
		c-0.83-0.23-1.55-0.59-2.16-1.08c-0.62-0.49-1.1-1.11-1.45-1.86c-0.35-0.75-0.52-1.64-0.52-2.67c0-1.13,0.2-2.07,0.6-2.8
		c0.4-0.73,0.91-1.32,1.55-1.76c0.63-0.44,1.35-0.77,2.16-0.99c0.81-0.22,1.63-0.39,2.45-0.52c0.82-0.13,1.64-0.23,2.44-0.31
		c0.8-0.08,1.51-0.19,2.13-0.35c0.62-0.15,1.11-0.38,1.47-0.68c0.36-0.3,0.53-0.73,0.5-1.29c0-0.59-0.1-1.06-0.29-1.41
		c-0.19-0.35-0.45-0.62-0.77-0.81c-0.32-0.19-0.69-0.32-1.12-0.39c-0.42-0.06-0.88-0.1-1.37-0.1c-1.08,0-1.93,0.23-2.55,0.7
		c-0.62,0.46-0.98,1.24-1.08,2.32H-172.51z M-159.83,34.03c-0.23,0.21-0.52,0.37-0.87,0.48c-0.35,0.12-0.72,0.21-1.12,0.29
		s-0.82,0.14-1.26,0.19c-0.44,0.05-0.88,0.12-1.31,0.19c-0.41,0.08-0.82,0.18-1.22,0.31c-0.4,0.13-0.75,0.3-1.04,0.52
		c-0.3,0.22-0.54,0.5-0.72,0.83c-0.18,0.34-0.27,0.76-0.27,1.28c0,0.49,0.09,0.9,0.27,1.24c0.18,0.34,0.43,0.6,0.74,0.79
		c0.31,0.19,0.67,0.33,1.08,0.41c0.41,0.08,0.84,0.12,1.27,0.12c1.08,0,1.92-0.18,2.51-0.54c0.59-0.36,1.03-0.79,1.31-1.29
		c0.28-0.5,0.46-1.01,0.52-1.53c0.06-0.52,0.1-0.93,0.1-1.24V34.03z"/>
	<path d="M-145.47,38.85c0.25,0.43,0.56,0.77,0.95,1.04c0.39,0.27,0.83,0.47,1.33,0.6c0.5,0.13,1.02,0.19,1.57,0.19
		c0.39,0,0.79-0.05,1.22-0.14c0.43-0.09,0.81-0.23,1.16-0.43c0.35-0.19,0.64-0.45,0.87-0.77c0.23-0.32,0.35-0.73,0.35-1.22
		c0-0.82-0.55-1.44-1.64-1.86c-1.1-0.41-2.62-0.82-4.58-1.24c-0.8-0.18-1.58-0.39-2.34-0.64c-0.76-0.24-1.44-0.57-2.03-0.97
		c-0.59-0.4-1.07-0.9-1.43-1.51c-0.36-0.61-0.54-1.35-0.54-2.22c0-1.29,0.25-2.35,0.75-3.17c0.5-0.83,1.17-1.47,1.99-1.95
		c0.82-0.48,1.75-0.81,2.78-1c1.03-0.19,2.09-0.29,3.17-0.29c1.08,0,2.13,0.1,3.15,0.31c1.02,0.21,1.93,0.55,2.73,1.04
		c0.8,0.49,1.46,1.14,1.99,1.95c0.53,0.81,0.84,1.84,0.95,3.07h-5.22c-0.08-1.06-0.48-1.77-1.2-2.15c-0.72-0.37-1.57-0.56-2.55-0.56
		c-0.31,0-0.64,0.02-1,0.06c-0.36,0.04-0.69,0.12-0.99,0.25c-0.3,0.13-0.55,0.32-0.75,0.56c-0.21,0.24-0.31,0.57-0.31,0.99
		c0,0.49,0.18,0.89,0.54,1.2c0.36,0.31,0.83,0.56,1.41,0.75s1.24,0.37,1.99,0.52c0.75,0.15,1.51,0.32,2.28,0.5
		c0.8,0.18,1.58,0.4,2.34,0.66c0.76,0.26,1.44,0.6,2.03,1.03c0.59,0.42,1.07,0.95,1.43,1.58c0.36,0.63,0.54,1.41,0.54,2.34
		c0,1.31-0.27,2.42-0.79,3.3c-0.53,0.89-1.22,1.6-2.07,2.15c-0.85,0.54-1.82,0.92-2.92,1.14c-1.09,0.22-2.21,0.33-3.34,0.33
		c-1.16,0-2.29-0.12-3.4-0.35c-1.11-0.23-2.09-0.62-2.96-1.16c-0.86-0.54-1.57-1.26-2.13-2.15c-0.55-0.89-0.86-2-0.91-3.34h5.22
		C-145.84,37.91-145.72,38.42-145.47,38.85z"/>
	<path d="M-129.57,29.97c0.08-1.29,0.4-2.36,0.97-3.21c0.57-0.85,1.29-1.53,2.16-2.05c0.88-0.51,1.86-0.88,2.96-1.1
		c1.09-0.22,2.2-0.33,3.31-0.33c1,0,2.02,0.07,3.05,0.21c1.03,0.14,1.97,0.42,2.82,0.83c0.85,0.41,1.55,0.99,2.09,1.72
		c0.54,0.73,0.81,1.71,0.81,2.92v10.4c0,0.9,0.05,1.76,0.16,2.59c0.1,0.82,0.28,1.44,0.54,1.86h-5.57c-0.1-0.31-0.19-0.62-0.25-0.95
		c-0.06-0.32-0.11-0.65-0.13-0.99c-0.88,0.9-1.91,1.53-3.09,1.89c-1.18,0.36-2.4,0.54-3.63,0.54c-0.95,0-1.84-0.12-2.67-0.35
		c-0.83-0.23-1.55-0.59-2.16-1.08c-0.62-0.49-1.1-1.11-1.45-1.86c-0.35-0.75-0.52-1.64-0.52-2.67c0-1.13,0.2-2.07,0.6-2.8
		c0.4-0.73,0.91-1.32,1.55-1.76c0.63-0.44,1.35-0.77,2.16-0.99c0.81-0.22,1.63-0.39,2.45-0.52c0.82-0.13,1.64-0.23,2.44-0.31
		c0.8-0.08,1.51-0.19,2.13-0.35c0.62-0.15,1.11-0.38,1.47-0.68c0.36-0.3,0.53-0.73,0.5-1.29c0-0.59-0.1-1.06-0.29-1.41
		c-0.19-0.35-0.45-0.62-0.77-0.81c-0.32-0.19-0.69-0.32-1.12-0.39c-0.42-0.06-0.88-0.1-1.37-0.1c-1.08,0-1.93,0.23-2.55,0.7
		c-0.62,0.46-0.98,1.24-1.08,2.32H-129.57z M-116.89,34.03c-0.23,0.21-0.52,0.37-0.87,0.48c-0.35,0.12-0.72,0.21-1.12,0.29
		s-0.82,0.14-1.26,0.19c-0.44,0.05-0.88,0.12-1.31,0.19c-0.41,0.08-0.82,0.18-1.22,0.31c-0.4,0.13-0.75,0.3-1.04,0.52
		c-0.3,0.22-0.54,0.5-0.72,0.83c-0.18,0.34-0.27,0.76-0.27,1.28c0,0.49,0.09,0.9,0.27,1.24s0.43,0.6,0.74,0.79
		c0.31,0.19,0.67,0.33,1.08,0.41c0.41,0.08,0.84,0.12,1.27,0.12c1.08,0,1.92-0.18,2.51-0.54c0.59-0.36,1.03-0.79,1.31-1.29
		c0.28-0.5,0.46-1.01,0.52-1.53s0.1-0.93,0.1-1.24V34.03z"/>
	<path d="M-92.96,41.26c-0.64,1.08-1.49,1.86-2.53,2.34c-1.04,0.48-2.22,0.71-3.54,0.71c-1.49,0-2.81-0.29-3.94-0.87
		c-1.13-0.58-2.07-1.37-2.8-2.36c-0.73-0.99-1.29-2.13-1.66-3.42c-0.37-1.29-0.56-2.63-0.56-4.02c0-1.34,0.19-2.63,0.56-3.88
		c0.37-1.25,0.93-2.35,1.66-3.31c0.73-0.95,1.66-1.72,2.76-2.3c1.11-0.58,2.4-0.87,3.86-0.87c1.19,0,2.31,0.25,3.38,0.75
		c1.07,0.5,1.91,1.24,2.53,2.22h0.08V16.21h5.49v27.6h-5.22v-2.55H-92.96z M-93.19,31.39c-0.15-0.76-0.42-1.43-0.79-2.01
		s-0.86-1.05-1.45-1.41c-0.59-0.36-1.34-0.54-2.24-0.54c-0.9,0-1.66,0.18-2.28,0.54c-0.62,0.36-1.11,0.84-1.49,1.43
		c-0.37,0.59-0.64,1.27-0.81,2.03c-0.17,0.76-0.25,1.55-0.25,2.38c0,0.77,0.09,1.55,0.27,2.32c0.18,0.77,0.47,1.46,0.87,2.07
		c0.4,0.61,0.9,1.1,1.51,1.47c0.6,0.37,1.33,0.56,2.18,0.56c0.9,0,1.66-0.18,2.26-0.54c0.6-0.36,1.09-0.84,1.45-1.45
		c0.36-0.6,0.62-1.29,0.77-2.07c0.15-0.77,0.23-1.57,0.23-2.4C-92.96,32.94-93.04,32.15-93.19,31.39z"/>
	<path d="M-83.76,29.97c0.08-1.29,0.4-2.36,0.97-3.21c0.57-0.85,1.29-1.53,2.16-2.05c0.88-0.51,1.86-0.88,2.96-1.1
		c1.09-0.22,2.2-0.33,3.31-0.33c1,0,2.02,0.07,3.05,0.21c1.03,0.14,1.97,0.42,2.82,0.83c0.85,0.41,1.55,0.99,2.09,1.72
		c0.54,0.73,0.81,1.71,0.81,2.92v10.4c0,0.9,0.05,1.76,0.16,2.59c0.1,0.82,0.28,1.44,0.54,1.86h-5.57c-0.1-0.31-0.19-0.62-0.25-0.95
		c-0.06-0.32-0.11-0.65-0.13-0.99c-0.88,0.9-1.91,1.53-3.09,1.89c-1.18,0.36-2.4,0.54-3.63,0.54c-0.95,0-1.84-0.12-2.67-0.35
		c-0.83-0.23-1.55-0.59-2.16-1.08c-0.62-0.49-1.1-1.11-1.45-1.86c-0.35-0.75-0.52-1.64-0.52-2.67c0-1.13,0.2-2.07,0.6-2.8
		c0.4-0.73,0.91-1.32,1.55-1.76c0.63-0.44,1.35-0.77,2.16-0.99c0.81-0.22,1.63-0.39,2.45-0.52c0.82-0.13,1.64-0.23,2.44-0.31
		c0.8-0.08,1.51-0.19,2.13-0.35c0.62-0.15,1.11-0.38,1.47-0.68c0.36-0.3,0.53-0.73,0.5-1.29c0-0.59-0.1-1.06-0.29-1.41
		c-0.19-0.35-0.45-0.62-0.77-0.81c-0.32-0.19-0.69-0.32-1.12-0.39c-0.42-0.06-0.88-0.1-1.37-0.1c-1.08,0-1.93,0.23-2.55,0.7
		c-0.62,0.46-0.98,1.24-1.08,2.32H-83.76z M-71.08,34.03c-0.23,0.21-0.52,0.37-0.87,0.48c-0.35,0.12-0.72,0.21-1.12,0.29
		s-0.82,0.14-1.26,0.19c-0.44,0.05-0.88,0.12-1.31,0.19c-0.41,0.08-0.82,0.18-1.22,0.31c-0.4,0.13-0.75,0.3-1.04,0.52
		c-0.3,0.22-0.54,0.5-0.72,0.83c-0.18,0.34-0.27,0.76-0.27,1.28c0,0.49,0.09,0.9,0.27,1.24c0.18,0.34,0.43,0.6,0.74,0.79
		c0.31,0.19,0.67,0.33,1.08,0.41c0.41,0.08,0.84,0.12,1.27,0.12c1.08,0,1.92-0.18,2.51-0.54c0.59-0.36,1.03-0.79,1.31-1.29
		c0.28-0.5,0.46-1.01,0.52-1.53s0.1-0.93,0.1-1.24V34.03z"/>
</g>
<g>
	<g>
		<g>
			<path d="M-201.26,60.42c-0.84,3.63-2.67,6.35-4.8,7.78c-0.35-0.44-1.17-1.25-1.68-1.56c1.65-0.98,3.03-2.7,3.84-4.77h-3.4v-1.96
				h4.28l0.37-0.09L-201.26,60.42z M-191.76,59.23c-1.31,1.19-2.93,2.51-4.26,3.4c1.23,1.68,2.82,2.98,4.87,3.79
				c-0.49,0.4-1.14,1.26-1.46,1.82c-2.54-1.14-4.35-3.02-5.66-5.42v4.01c0,1.14-0.23,1.7-0.98,2.05c-0.72,0.33-1.79,0.35-3.26,0.35
				c-0.09-0.6-0.42-1.53-0.7-2.09c0.88,0.05,1.96,0.05,2.28,0.03c0.32-0.02,0.42-0.1,0.42-0.38v-8.36h-4.38v-2h6.5
				c-1.49-0.67-3.52-1.35-5.14-1.77l1.03-1.7c2.03,0.44,4.96,1.37,6.45,2.14l-1.12,1.95c-0.3-0.18-0.68-0.37-1.1-0.56v1.46
				c0.33,1.1,0.75,2.14,1.24,3.09c1.19-0.95,2.51-2.17,3.35-3.23L-191.76,59.23z"/>
		</g>
		<g>
			<path d="M-180.98,53.58c-0.44,1.19-0.98,2.42-1.61,3.59v12.1h-2.07v-8.84c-0.33,0.46-0.68,0.86-1.02,1.23
				c-0.19-0.49-0.77-1.63-1.12-2.14c1.54-1.58,3.02-4.05,3.86-6.56L-180.98,53.58z M-170.25,66.71v2h-11.66v-2h4.82v-2.1h-3.86
				v-1.98h3.86v-1.54h2.12v1.54h3.96v1.98h-3.96v2.1H-170.25z M-177.08,56.79h-3.51v-1.95h3.51V52.9h2.12v1.95h3.61v1.95h-3.61v1.82
				h4.4v1.96h-10.84v-1.96h4.31V56.79z"/>
		</g>
		<g>
			<path d="M-160.04,62.12c-0.56,0.18-1.12,0.35-1.68,0.51v4.44c0,0.96-0.16,1.49-0.68,1.82c-0.54,0.33-1.28,0.4-2.44,0.39
				c-0.05-0.51-0.28-1.37-0.53-1.93c0.63,0.04,1.25,0.04,1.46,0.02c0.21,0,0.3-0.07,0.3-0.3v-3.88c-0.58,0.18-1.16,0.33-1.67,0.47
				l-0.46-2c0.6-0.12,1.33-0.32,2.12-0.51v-3.03h-1.84v-1.91h1.84v-3.3h1.89v3.3h1.6v1.91h-1.6v2.52l1.42-0.4L-160.04,62.12z
				 M-153.92,67.26c0.47,0.05,0.96,0.07,1.47,0.07c0.54,0,2.63,0,3.35-0.04c-0.26,0.44-0.51,1.28-0.58,1.79h-2.91
				c-2.42,0-4.31-0.42-5.65-2.07c-0.4,0.93-0.91,1.72-1.54,2.33c-0.32-0.32-1.14-0.88-1.58-1.14c1.26-1.1,1.89-2.91,2.16-4.96
				l1.89,0.25c-0.09,0.56-0.17,1.1-0.32,1.63c0.46,0.79,1.05,1.3,1.77,1.63V63h-3.28v-1.54h3.28v-0.89h-4.29v-1.61h4.29v-0.81h-3.28
				v-1.56h3.28v-0.74h-4.01v-1.63h4.01V52.9h1.93v1.31h4.4v1.63h-4.4v0.74h3.72v2.37h1.09v1.61h-1.09V63h-3.72v1.02h3.84v1.63h-3.84
				V67.26z M-153.92,58.95h1.79v-0.81h-1.79V58.95z M-153.92,61.45h1.79v-0.89h-1.79V61.45z"/>
		</g>
		<g>
			<path d="M-137.73,61.61c-0.49-0.44-1.47-1.16-2.26-1.7c-0.63,0.89-1.65,1.79-3.23,2.52c-0.28-0.42-0.86-1.07-1.32-1.4
				c1.79-0.7,2.68-1.56,3.12-2.44h-2.91v-1.63h1.17c-0.42-0.26-0.98-0.58-1.33-0.75c0.89-0.84,1.58-2.12,1.93-3.42l1.84,0.39
				c-0.1,0.33-0.21,0.68-0.35,1.03h4.35v1.61H-139v0.79c0,0.12,0,0.23-0.02,0.35h2.7v1.63h-2.89c0.74,0.39,2.49,1.39,2.95,1.68
				L-137.73,61.61z M-140.99,56.96c0.02-0.14,0.02-0.26,0.02-0.39v-0.75h-0.88c-0.25,0.42-0.53,0.81-0.81,1.14H-140.99z
				 M-141.99,61.87h11.43v7.38h-2.14v-0.56h-7.24v0.58h-2.05V61.87z M-139.94,63.5v0.98h7.24V63.5H-139.94z M-132.7,67.03v-1.03
				h-7.24v1.03H-132.7z M-129.05,54.18v6.65h-6.66v-6.65H-129.05z M-131.12,56.02h-2.67v2.96h2.67V56.02z"/>
		</g>
		<g>
			<path d="M-115.76,67.34c0,0.86-0.16,1.3-0.74,1.58c-0.56,0.26-1.35,0.3-2.42,0.3c-0.09-0.49-0.37-1.17-0.63-1.63
				c0.63,0.04,1.31,0.04,1.53,0.04c0.23,0,0.3-0.07,0.3-0.3v-1.79c-0.88,0.63-1.75,1.23-2.54,1.74l-0.44-1.23
				c-0.19,1.19-0.58,2.38-1.25,3.3c-0.3-0.4-1.09-1.16-1.46-1.4c0.93-1.37,1-3.3,1-4.82v-3.94h6.64V67.34z M-116.74,54.19
				c0.74,1.26,1.67,2.98,2.09,4.03l-1.82,0.74c-0.11-0.32-0.26-0.68-0.44-1.1c-4.44,0.44-5.15,0.54-5.66,0.75
				c-0.11-0.4-0.44-1.35-0.65-1.88c0.32-0.07,0.61-0.32,0.96-0.7s1.42-1.74,2.07-3.12l2.1,0.6c-0.6,1.02-1.38,2.03-2.16,2.91
				l2.56-0.19c-0.26-0.51-0.51-1-0.74-1.42L-116.74,54.19z M-120.48,63.14c0,0.67-0.04,1.46-0.12,2.24
				c0.79-0.35,1.82-0.88,2.88-1.44v-0.58l-0.84,0.82c-0.44-0.46-1.24-1.14-1.91-1.68V63.14z M-120.48,60.93v1.25l0.88-0.75
				c0.6,0.42,1.35,1.03,1.88,1.49v-1.98H-120.48z M-111.82,60.63c-2.1,0-2.67-0.77-2.67-2.72v-4.98h2.07V55h4.31v1.79h-4.31v1.16
				c0,0.65,0.11,0.89,0.67,0.89h2.56c0.49,0,1.23-0.05,1.61-0.14c0.04,0.54,0.12,1.3,0.19,1.77c-0.37,0.12-1.1,0.16-1.77,0.16
				H-111.82z M-109.61,67.33c0.6,0,0.72-0.3,0.81-1.91c0.42,0.32,1.26,0.63,1.81,0.75c-0.21,2.3-0.75,2.98-2.42,2.98h-2.49
				c-2.07,0-2.58-0.61-2.58-2.52v-5.5h2.07v1.75h4.44v1.84h-4.44v1.91c0,0.61,0.12,0.7,0.82,0.7H-109.61z"/>
		</g>
		<g>
			<path d="M-100.05,59.54h-1.91V55.6h6.63v-0.7h-5.84v-1.37h13.75v1.37h-5.87v0.7h6.77v3.95h-2.02l-0.37,1.25
				c-0.93-0.33-2.73-0.75-4.05-0.96l0.4-1.17c1.25,0.14,2.98,0.51,3.94,0.82v-2.51h-0.95l0.63,0.89c-0.93,0.39-2.21,0.67-3.12,0.84
				l-0.65-0.98c0.68-0.16,1.67-0.47,2.4-0.75h-3v3.65h-2.03v-3.65h-3.35c0.95,0.17,2.07,0.47,2.74,0.72l-0.56,1.12
				c-0.7-0.28-2.02-0.65-3.02-0.86l0.49-0.98h-0.95v2.4c1.07-0.12,2.54-0.33,4.05-0.56l0.07,1.19c-1.32,0.3-2.61,0.6-3.72,0.84
				L-100.05,59.54z M-88.86,67.45c0.89,0,1.05-0.26,1.17-1.74c0.4,0.28,1.19,0.54,1.74,0.65c-0.25,2.1-0.82,2.67-2.73,2.67h-3.68
				c-2.38,0-3.07-0.49-3.07-2.31v-0.05h-2.91v0.75h-2v-6.36h12.15v5.61h-5.24v0.05c0,0.63,0.21,0.74,1.26,0.74H-88.86z
				 M-98.35,62.45v0.79h2.91v-0.79H-98.35z M-95.44,65.26v-0.79h-2.91v0.79H-95.44z M-90.27,62.45h-3.17v0.79h3.17V62.45z
				 M-90.27,65.26v-0.79h-3.17v0.79H-90.27z"/>
		</g>
		<g>
			<path d="M-76.27,63.15c-0.18-0.47-0.49-1.17-0.82-1.86v7.96h-1.89v-6.73c-0.47,1.4-1.02,2.68-1.61,3.59
				c-0.21-0.6-0.67-1.54-1-2.1c1.05-1.37,1.98-3.84,2.49-5.93h-2.14v-1.93h2.26V52.9h1.89v3.26h1.72v1.93h-1.72v0.56
				c0.49,0.67,1.75,2.63,2.03,3.12L-76.27,63.15z M-65.26,62.03c0,0-0.02,0.47-0.04,0.7c-0.1,2.79-0.23,4.1-0.6,4.56
				c-0.3,0.37-0.56,0.51-0.98,0.6c-0.35,0.07-0.91,0.1-1.54,0.09c-0.02-0.61-0.19-1.4-0.46-1.91c0.42,0.03,0.77,0.05,0.96,0.05
				c0.21,0,0.32-0.05,0.44-0.19c0.14-0.19,0.23-0.77,0.3-2.19h-2.12v5.5h-1.96v-3.65c-1,1.28-2.26,2.37-3.58,3.03
				c-0.3-0.46-0.89-1.16-1.3-1.54c1.6-0.68,3.1-1.95,4.12-3.35h-2.91c0.23-1.28,0.47-3.23,0.6-4.79h3.07v-1.49h-3.63v-1.72h1.98
				c-0.25-0.68-0.67-1.49-1.07-2.14l1.63-0.65c0.56,0.75,1.09,1.81,1.32,2.51l-0.63,0.28h2.28c0.44-0.84,0.93-1.98,1.17-2.82
				l2.02,0.54c-0.39,0.79-0.81,1.6-1.19,2.28h1.7v4.93h-3.61v1.37H-65.26z M-72.69,60.66c-0.05,0.47-0.11,0.93-0.17,1.37h1.61v-1.37
				H-72.69z M-69.29,58.95h1.72v-1.49h-1.72V58.95z"/>
		</g>
	</g>
</g>
<g>
	<g>
		<path class="st1" d="M128.39,17.29l9.94,29.2h0.12l9.4-29.2h13.15v42.47h-8.74v-30.1h-0.12l-10.41,30.1h-7.2l-10.41-29.8h-0.12
			v29.8h-8.74V17.29H128.39z"/>
		<path class="st1" d="M167.95,38.46c0.12-1.98,0.62-3.63,1.49-4.94c0.87-1.31,1.98-2.36,3.33-3.15c1.35-0.79,2.86-1.36,4.55-1.69
			c1.68-0.34,3.38-0.51,5.09-0.51c1.55,0,3.11,0.11,4.7,0.33c1.59,0.22,3.03,0.65,4.34,1.28c1.31,0.63,2.38,1.52,3.21,2.65
			c0.83,1.13,1.25,2.63,1.25,4.49v16c0,1.39,0.08,2.72,0.24,3.99c0.16,1.27,0.44,2.22,0.83,2.85h-8.57
			c-0.16-0.48-0.29-0.96-0.39-1.46c-0.1-0.5-0.17-1-0.21-1.52c-1.35,1.39-2.94,2.36-4.76,2.91c-1.82,0.55-3.69,0.83-5.59,0.83
			c-1.47,0-2.83-0.18-4.1-0.53c-1.27-0.36-2.38-0.91-3.33-1.67c-0.95-0.75-1.69-1.7-2.23-2.86c-0.53-1.15-0.8-2.52-0.8-4.1
			c0-1.74,0.31-3.18,0.92-4.31s1.41-2.03,2.38-2.71c0.97-0.67,2.08-1.18,3.33-1.52c1.25-0.34,2.51-0.61,3.78-0.8
			c1.27-0.2,2.52-0.36,3.75-0.48c1.23-0.12,2.32-0.3,3.27-0.53c0.95-0.24,1.7-0.59,2.26-1.04c0.55-0.46,0.81-1.12,0.77-1.99
			c0-0.91-0.15-1.64-0.45-2.17c-0.3-0.54-0.69-0.95-1.19-1.25c-0.49-0.3-1.07-0.5-1.72-0.6c-0.65-0.1-1.36-0.15-2.11-0.15
			c-1.67,0-2.97,0.36-3.93,1.07c-0.95,0.71-1.51,1.9-1.66,3.57H167.95z M187.46,44.71c-0.36,0.32-0.8,0.56-1.34,0.74
			c-0.53,0.18-1.11,0.33-1.72,0.45c-0.62,0.12-1.26,0.22-1.93,0.3c-0.68,0.08-1.35,0.18-2.02,0.3c-0.64,0.12-1.26,0.28-1.87,0.48
			c-0.62,0.2-1.15,0.47-1.61,0.8c-0.46,0.34-0.82,0.76-1.1,1.28c-0.28,0.52-0.42,1.17-0.42,1.96c0,0.75,0.14,1.39,0.42,1.9
			c0.28,0.52,0.66,0.92,1.13,1.22c0.47,0.3,1.03,0.51,1.66,0.62c0.63,0.12,1.29,0.18,1.96,0.18c1.67,0,2.96-0.28,3.87-0.83
			c0.91-0.55,1.58-1.22,2.02-1.99c0.43-0.77,0.7-1.56,0.8-2.35s0.15-1.43,0.15-1.9V44.71z"/>
		<path class="st1" d="M209.55,52.11c0.38,0.65,0.86,1.19,1.46,1.61c0.6,0.42,1.28,0.72,2.05,0.92c0.77,0.2,1.58,0.3,2.41,0.3
			c0.6,0,1.22-0.07,1.87-0.21c0.66-0.14,1.25-0.36,1.79-0.65c0.53-0.3,0.98-0.69,1.34-1.19c0.36-0.5,0.53-1.12,0.53-1.87
			c0-1.27-0.84-2.22-2.53-2.85c-1.69-0.63-4.04-1.27-7.05-1.9c-1.23-0.28-2.43-0.6-3.6-0.98s-2.21-0.87-3.12-1.49
			c-0.91-0.61-1.65-1.39-2.2-2.32c-0.55-0.93-0.83-2.07-0.83-3.42c0-1.98,0.39-3.61,1.16-4.88c0.77-1.27,1.79-2.27,3.06-3
			c1.27-0.73,2.7-1.25,4.28-1.55c1.59-0.3,3.21-0.45,4.88-0.45c1.67,0,3.28,0.16,4.85,0.48c1.57,0.32,2.96,0.85,4.19,1.61
			c1.23,0.75,2.25,1.76,3.06,3c0.81,1.25,1.3,2.83,1.46,4.73h-8.03c-0.12-1.63-0.73-2.73-1.84-3.3c-1.11-0.57-2.42-0.86-3.93-0.86
			c-0.48,0-0.99,0.03-1.55,0.09c-0.56,0.06-1.06,0.19-1.52,0.39c-0.46,0.2-0.84,0.49-1.16,0.86c-0.32,0.38-0.47,0.88-0.47,1.52
			c0,0.75,0.27,1.37,0.83,1.84c0.55,0.48,1.28,0.86,2.17,1.16s1.91,0.56,3.06,0.8c1.15,0.24,2.32,0.5,3.51,0.77
			c1.23,0.28,2.43,0.62,3.6,1.01c1.17,0.4,2.21,0.92,3.12,1.58c0.91,0.65,1.64,1.47,2.2,2.44c0.55,0.97,0.83,2.17,0.83,3.6
			c0,2.02-0.41,3.72-1.22,5.08s-1.87,2.47-3.18,3.3c-1.31,0.83-2.81,1.42-4.49,1.75c-1.68,0.34-3.4,0.51-5.14,0.51
			c-1.79,0-3.53-0.18-5.23-0.53c-1.7-0.36-3.22-0.95-4.55-1.79c-1.33-0.83-2.42-1.93-3.27-3.3s-1.32-3.08-1.4-5.14h8.03
			C208.99,50.68,209.17,51.46,209.55,52.11z"/>
		<path class="st1" d="M234.03,38.46c0.12-1.98,0.62-3.63,1.49-4.94c0.87-1.31,1.98-2.36,3.33-3.15c1.35-0.79,2.86-1.36,4.55-1.69
			c1.68-0.34,3.38-0.51,5.09-0.51c1.55,0,3.11,0.11,4.7,0.33c1.59,0.22,3.03,0.65,4.34,1.28c1.31,0.63,2.38,1.52,3.21,2.65
			c0.83,1.13,1.25,2.63,1.25,4.49v16c0,1.39,0.08,2.72,0.24,3.99c0.16,1.27,0.44,2.22,0.83,2.85h-8.57
			c-0.16-0.48-0.29-0.96-0.39-1.46c-0.1-0.5-0.17-1-0.21-1.52c-1.35,1.39-2.94,2.36-4.76,2.91c-1.82,0.55-3.69,0.83-5.59,0.83
			c-1.47,0-2.83-0.18-4.1-0.53c-1.27-0.36-2.38-0.91-3.33-1.67c-0.95-0.75-1.69-1.7-2.23-2.86c-0.53-1.15-0.8-2.52-0.8-4.1
			c0-1.74,0.31-3.18,0.92-4.31s1.41-2.03,2.38-2.71c0.97-0.67,2.08-1.18,3.33-1.52c1.25-0.34,2.51-0.61,3.78-0.8
			c1.27-0.2,2.52-0.36,3.75-0.48c1.23-0.12,2.32-0.3,3.27-0.53c0.95-0.24,1.7-0.59,2.26-1.04c0.55-0.46,0.81-1.12,0.77-1.99
			c0-0.91-0.15-1.64-0.45-2.17c-0.3-0.54-0.69-0.95-1.19-1.25c-0.49-0.3-1.07-0.5-1.72-0.6c-0.65-0.1-1.36-0.15-2.11-0.15
			c-1.67,0-2.97,0.36-3.93,1.07c-0.95,0.71-1.51,1.9-1.66,3.57H234.03z M253.53,44.71c-0.36,0.32-0.8,0.56-1.34,0.74
			c-0.53,0.18-1.11,0.33-1.72,0.45c-0.62,0.12-1.26,0.22-1.93,0.3c-0.68,0.08-1.35,0.18-2.02,0.3c-0.64,0.12-1.26,0.28-1.87,0.48
			c-0.62,0.2-1.15,0.47-1.61,0.8c-0.46,0.34-0.82,0.76-1.1,1.28c-0.28,0.52-0.42,1.17-0.42,1.96c0,0.75,0.14,1.39,0.42,1.9
			s0.66,0.92,1.13,1.22c0.47,0.3,1.03,0.51,1.66,0.62c0.63,0.12,1.29,0.18,1.96,0.18c1.67,0,2.96-0.28,3.87-0.83
			c0.91-0.55,1.58-1.22,2.02-1.99c0.43-0.77,0.7-1.56,0.8-2.35s0.15-1.43,0.15-1.9V44.71z"/>
		<path class="st1" d="M290.35,55.83c-0.99,1.67-2.29,2.87-3.9,3.6c-1.6,0.73-3.42,1.1-5.44,1.1c-2.3,0-4.32-0.45-6.07-1.34
			c-1.74-0.89-3.18-2.1-4.31-3.63c-1.13-1.53-1.98-3.28-2.56-5.26c-0.57-1.98-0.86-4.04-0.86-6.19c0-2.06,0.29-4.05,0.86-5.98
			c0.57-1.92,1.43-3.62,2.56-5.09c1.13-1.47,2.55-2.65,4.25-3.54c1.7-0.89,3.69-1.34,5.95-1.34c1.83,0,3.56,0.39,5.2,1.16
			c1.65,0.77,2.95,1.91,3.9,3.42h0.12V17.29h8.45v42.47h-8.03v-3.93H290.35z M289.99,40.63c-0.24-1.17-0.65-2.2-1.22-3.09
			c-0.57-0.89-1.32-1.62-2.23-2.17c-0.91-0.55-2.06-0.83-3.45-0.83c-1.39,0-2.56,0.28-3.51,0.83c-0.95,0.56-1.71,1.29-2.29,2.2
			c-0.57,0.91-0.99,1.95-1.25,3.12c-0.26,1.17-0.39,2.39-0.39,3.66c0,1.19,0.14,2.38,0.42,3.57c0.28,1.19,0.72,2.25,1.34,3.18
			c0.62,0.93,1.39,1.69,2.32,2.26c0.93,0.57,2.05,0.86,3.36,0.86c1.39,0,2.55-0.28,3.48-0.83c0.93-0.55,1.67-1.3,2.23-2.23
			c0.55-0.93,0.95-1.99,1.19-3.18c0.24-1.19,0.36-2.42,0.36-3.69C290.35,43.02,290.23,41.8,289.99,40.63z"/>
		<path class="st1" d="M304.51,38.46c0.12-1.98,0.62-3.63,1.49-4.94c0.87-1.31,1.98-2.36,3.33-3.15c1.35-0.79,2.86-1.36,4.55-1.69
			c1.68-0.34,3.38-0.51,5.09-0.51c1.55,0,3.11,0.11,4.7,0.33c1.59,0.22,3.03,0.65,4.34,1.28s2.38,1.52,3.21,2.65
			c0.83,1.13,1.25,2.63,1.25,4.49v16c0,1.39,0.08,2.72,0.24,3.99c0.16,1.27,0.44,2.22,0.83,2.85h-8.57
			c-0.16-0.48-0.29-0.96-0.39-1.46c-0.1-0.5-0.17-1-0.21-1.52c-1.35,1.39-2.94,2.36-4.76,2.91c-1.82,0.55-3.69,0.83-5.59,0.83
			c-1.47,0-2.83-0.18-4.1-0.53c-1.27-0.36-2.38-0.91-3.33-1.67c-0.95-0.75-1.69-1.7-2.23-2.86c-0.53-1.15-0.8-2.52-0.8-4.1
			c0-1.74,0.31-3.18,0.92-4.31c0.62-1.13,1.41-2.03,2.38-2.71c0.97-0.67,2.08-1.18,3.33-1.52c1.25-0.34,2.51-0.61,3.78-0.8
			c1.27-0.2,2.52-0.36,3.75-0.48c1.23-0.12,2.32-0.3,3.27-0.53c0.95-0.24,1.7-0.59,2.26-1.04c0.55-0.46,0.81-1.12,0.77-1.99
			c0-0.91-0.15-1.64-0.45-2.17c-0.3-0.54-0.69-0.95-1.19-1.25c-0.49-0.3-1.07-0.5-1.72-0.6c-0.65-0.1-1.36-0.15-2.11-0.15
			c-1.67,0-2.97,0.36-3.93,1.07c-0.95,0.71-1.51,1.9-1.66,3.57H304.51z M324.02,44.71c-0.36,0.32-0.8,0.56-1.34,0.74
			c-0.53,0.18-1.11,0.33-1.72,0.45c-0.62,0.12-1.26,0.22-1.93,0.3c-0.68,0.08-1.35,0.18-2.02,0.3c-0.64,0.12-1.26,0.28-1.87,0.48
			c-0.62,0.2-1.15,0.47-1.61,0.8c-0.46,0.34-0.82,0.76-1.1,1.28c-0.28,0.52-0.42,1.17-0.42,1.96c0,0.75,0.14,1.39,0.42,1.9
			s0.66,0.92,1.13,1.22c0.47,0.3,1.03,0.51,1.66,0.62c0.63,0.12,1.29,0.18,1.96,0.18c1.67,0,2.96-0.28,3.87-0.83
			c0.91-0.55,1.58-1.22,2.02-1.99c0.43-0.77,0.7-1.56,0.8-2.35c0.1-0.79,0.15-1.43,0.15-1.9V44.71z"/>
	</g>
	<g>
		<path class="st0" d="M95.65,99.5h-15.3H34.29C15.35,99.5,0,84.15,0,65.21V0.5h67.96c15.29,0,27.69,12.4,27.69,27.69V99.5z"/>
		<path class="st1" d="M0,52.85c9.31,0,17.9-0.04,26.48,0.06c0.84,0.01,1.94,0.77,2.45,1.33c5.91,6.47,11.73,12.96,17.58,19.45
			c0.35,0.39,0.73,0.77,1.31,1.38c4.08-4.01,7.98-7.84,11.87-11.67c3.03-2.98,6.01-5.98,9.11-8.92c0.54-0.51,1.6-1.16,2.44-1.17
			c7.84-0.09,15.68-0.05,24.39-0.05c-16.1,15.09-31.73,29.74-47.58,44.6C32.03,82.83,16.22,68.03,0,52.85z"/>
		<path class="st1" d="M95.65,45.83c-9.31,0-17.9,0.04-26.48-0.06c-0.84-0.01-1.94-0.77-2.45-1.33
			c-5.91-6.47-11.73-12.96-17.58-19.45c-0.35-0.39-0.73-0.77-1.31-1.38c-4.08,4.01-7.98,7.84-11.87,11.67
			c-3.03,2.98-6.01,5.98-9.11,8.92c-0.54,0.51-1.6,1.16-2.44,1.17C16.55,45.47,8.71,45.44,0,45.44C16.1,30.35,31.73,15.7,47.58,0.84
			C63.62,15.85,79.43,30.66,95.65,45.83z"/>
	</g>
	<g>
		<g>
			<g>
				<path class="st1" d="M123.7,85.31c-1.3,5.58-4.1,9.77-7.39,11.98c-0.54-0.67-1.81-1.92-2.59-2.4c2.54-1.51,4.67-4.15,5.91-7.34
					h-5.23v-3.02h6.58l0.57-0.14L123.7,85.31z M138.32,83.48c-2.02,1.83-4.51,3.86-6.56,5.23c1.89,2.59,4.34,4.59,7.5,5.83
					c-0.76,0.62-1.75,1.94-2.24,2.81c-3.91-1.75-6.69-4.64-8.71-8.34v6.18c0,1.75-0.35,2.62-1.51,3.16
					c-1.11,0.51-2.75,0.54-5.02,0.54c-0.13-0.92-0.65-2.35-1.08-3.21c1.35,0.08,3.02,0.08,3.51,0.05c0.49-0.03,0.65-0.16,0.65-0.59
					V82.26h-6.74v-3.08h10.01c-2.29-1.02-5.42-2.08-7.9-2.72l1.59-2.62c3.13,0.67,7.64,2.1,9.93,3.29l-1.73,2.99
					c-0.46-0.27-1.05-0.57-1.7-0.86v2.24c0.51,1.7,1.16,3.29,1.92,4.75c1.83-1.46,3.86-3.34,5.15-4.96L138.32,83.48z"/>
			</g>
			<g>
				<path class="st1" d="M154.92,74.79c-0.67,1.83-1.51,3.72-2.48,5.53v18.62h-3.18v-13.6c-0.51,0.7-1.05,1.32-1.56,1.89
					c-0.3-0.75-1.19-2.51-1.73-3.29c2.37-2.43,4.64-6.23,5.94-10.09L154.92,74.79z M171.43,94.99v3.07h-17.94v-3.07h7.42v-3.24
					h-5.93v-3.05h5.93v-2.37h3.27v2.37h6.1v3.05h-6.1v3.24H171.43z M160.91,79.72h-5.39v-2.99h5.39v-2.99h3.27v2.99h5.56v2.99h-5.56
					v2.81h6.77v3.02h-16.67v-3.02h6.64V79.72z"/>
			</g>
			<g>
				<path class="st1" d="M187.14,87.93c-0.86,0.27-1.73,0.54-2.59,0.78v6.83c0,1.48-0.24,2.29-1.05,2.81
					c-0.84,0.51-1.97,0.62-3.75,0.59c-0.08-0.78-0.43-2.1-0.81-2.97c0.97,0.05,1.92,0.05,2.24,0.03c0.32,0,0.46-0.11,0.46-0.46
					v-5.96c-0.89,0.27-1.78,0.51-2.56,0.73l-0.7-3.08c0.92-0.19,2.05-0.49,3.26-0.78v-4.67h-2.83v-2.94h2.83v-5.07h2.91v5.07H187
					v2.94h-2.46v3.88l2.18-0.62L187.14,87.93z M196.55,95.83c0.73,0.08,1.48,0.11,2.27,0.11c0.84,0,4.05,0,5.15-0.05
					c-0.4,0.67-0.78,1.97-0.89,2.75h-4.48c-3.72,0-6.64-0.65-8.69-3.18c-0.62,1.43-1.4,2.64-2.37,3.59
					c-0.49-0.49-1.75-1.35-2.43-1.75c1.94-1.7,2.91-4.48,3.32-7.64l2.91,0.38c-0.13,0.86-0.27,1.7-0.49,2.51
					c0.7,1.21,1.62,2,2.72,2.51v-5.77h-5.04V86.9h5.04v-1.38h-6.61v-2.48h6.61V81.8h-5.04v-2.4h5.04v-1.13h-6.18v-2.51h6.18v-2.02
					h2.97v2.02h6.77v2.51h-6.77v1.13h5.72v3.64h1.67v2.48h-1.67v3.75h-5.72v1.56h5.91v2.51h-5.91V95.83z M196.55,83.04h2.75V81.8
					h-2.75V83.04z M196.55,86.9h2.75v-1.38h-2.75V86.9z"/>
			</g>
			<g>
				<path class="st1" d="M221.46,87.14c-0.75-0.67-2.27-1.78-3.48-2.62c-0.97,1.38-2.54,2.75-4.96,3.88
					c-0.43-0.65-1.32-1.65-2.02-2.16c2.75-1.08,4.13-2.4,4.8-3.75h-4.48V80h1.81c-0.65-0.4-1.51-0.89-2.05-1.16
					c1.38-1.3,2.43-3.26,2.97-5.26l2.83,0.59c-0.16,0.51-0.32,1.05-0.54,1.59h6.69v2.48h-3.51v1.21c0,0.19,0,0.35-0.03,0.54h4.15
					v2.51h-4.45c1.13,0.59,3.83,2.13,4.53,2.59L221.46,87.14z M216.44,80c0.03-0.22,0.03-0.4,0.03-0.59v-1.16h-1.35
					c-0.38,0.65-0.81,1.24-1.24,1.75H216.44z M214.9,87.55h17.59v11.36h-3.29v-0.86h-11.14v0.89h-3.16V87.55z M218.06,90.06v1.51
					h11.14v-1.51H218.06z M229.2,95.48v-1.59h-11.14v1.59H229.2z M234.81,75.7v10.23h-10.25V75.7H234.81z M231.63,78.54h-4.1v4.56
					h4.1V78.54z"/>
			</g>
			<g>
				<path class="st1" d="M255.27,95.97c0,1.32-0.24,2-1.13,2.43c-0.86,0.4-2.08,0.46-3.72,0.46c-0.14-0.76-0.57-1.81-0.97-2.51
					c0.97,0.05,2.02,0.05,2.35,0.05c0.35,0,0.46-0.11,0.46-0.46v-2.75c-1.35,0.97-2.7,1.89-3.91,2.67l-0.67-1.89
					c-0.3,1.83-0.89,3.67-1.92,5.07c-0.46-0.62-1.67-1.78-2.24-2.16c1.43-2.1,1.54-5.07,1.54-7.42v-6.07h10.22V95.97z M253.76,75.73
					c1.13,1.94,2.56,4.59,3.21,6.2l-2.81,1.13c-0.16-0.49-0.41-1.05-0.67-1.7c-6.83,0.67-7.93,0.84-8.71,1.16
					c-0.16-0.62-0.67-2.08-1-2.89c0.49-0.11,0.94-0.49,1.48-1.08c0.54-0.59,2.18-2.67,3.18-4.8l3.24,0.92
					c-0.92,1.56-2.13,3.13-3.32,4.48l3.94-0.3c-0.4-0.78-0.78-1.54-1.13-2.18L253.76,75.73z M248.01,89.49
					c0,1.03-0.05,2.24-0.19,3.45c1.21-0.54,2.81-1.35,4.42-2.21v-0.89l-1.3,1.27c-0.67-0.7-1.91-1.75-2.94-2.59V89.49z
					 M248.01,86.09v1.92l1.35-1.16c0.92,0.65,2.08,1.59,2.89,2.29v-3.05H248.01z M261.34,85.63c-3.24,0-4.1-1.19-4.1-4.18v-7.66
					h3.18v3.18h6.64v2.75h-6.64v1.78c0,1,0.16,1.38,1.02,1.38h3.94c0.76,0,1.89-0.08,2.48-0.22c0.05,0.84,0.19,2,0.3,2.72
					c-0.57,0.19-1.7,0.24-2.72,0.24H261.34z M264.74,95.94c0.92,0,1.11-0.46,1.24-2.94c0.65,0.49,1.94,0.97,2.78,1.16
					c-0.32,3.53-1.16,4.59-3.72,4.59h-3.83c-3.18,0-3.97-0.94-3.97-3.88v-8.47h3.18v2.7h6.83v2.83h-6.83v2.94
					c0,0.94,0.19,1.08,1.27,1.08H264.74z"/>
			</g>
			<g>
				<path class="st1" d="M279.45,83.96h-2.94v-6.07h10.2v-1.08h-8.98v-2.1h21.15v2.1h-9.04v1.08h10.41v6.07h-3.1l-0.57,1.92
					c-1.43-0.51-4.21-1.16-6.23-1.48l0.62-1.81c1.92,0.22,4.59,0.78,6.07,1.27V80h-1.46l0.97,1.37c-1.43,0.59-3.4,1.03-4.8,1.3
					l-1-1.51c1.05-0.24,2.56-0.73,3.7-1.16h-4.61v5.61h-3.13V80h-5.15c1.46,0.27,3.18,0.73,4.21,1.11l-0.86,1.73
					c-1.08-0.43-3.1-1-4.64-1.32l0.75-1.51h-1.46v3.7c1.65-0.19,3.91-0.51,6.23-0.86l0.11,1.83c-2.02,0.46-4.02,0.92-5.72,1.29
					L279.45,83.96z M296.66,96.13c1.38,0,1.62-0.41,1.81-2.67c0.62,0.43,1.83,0.84,2.67,1c-0.38,3.24-1.27,4.1-4.21,4.1h-5.67
					c-3.67,0-4.72-0.76-4.72-3.56v-0.08h-4.48v1.16h-3.07v-9.79h18.69v8.63h-8.07v0.08c0,0.97,0.32,1.13,1.94,1.13H296.66z
					 M282.06,88.44v1.21h4.48v-1.21H282.06z M286.54,92.76v-1.21h-4.48v1.21H286.54z M294.5,88.44h-4.88v1.21h4.88V88.44z
					 M294.5,92.76v-1.21h-4.88v1.21H294.5z"/>
			</g>
			<g>
				<path class="st1" d="M316.03,89.52c-0.27-0.73-0.76-1.81-1.27-2.86v12.25h-2.91V88.55c-0.73,2.16-1.56,4.13-2.48,5.53
					c-0.32-0.92-1.02-2.37-1.54-3.24c1.62-2.1,3.05-5.91,3.83-9.12h-3.29v-2.97h3.48v-5.02h2.91v5.02h2.64v2.97h-2.64v0.86
					c0.76,1.03,2.7,4.05,3.13,4.8L316.03,89.52z M332.98,87.79c0,0-0.03,0.73-0.05,1.08c-0.16,4.29-0.35,6.31-0.92,7.01
					c-0.46,0.57-0.86,0.78-1.51,0.92c-0.54,0.11-1.4,0.16-2.37,0.13c-0.03-0.94-0.3-2.16-0.7-2.94c0.65,0.05,1.19,0.08,1.48,0.08
					c0.32,0,0.49-0.08,0.67-0.3c0.22-0.3,0.35-1.19,0.46-3.37h-3.26v8.47h-3.02v-5.61c-1.54,1.97-3.48,3.64-5.5,4.67
					c-0.46-0.7-1.38-1.78-2-2.37c2.46-1.05,4.78-2.99,6.34-5.15h-4.48c0.35-1.97,0.73-4.96,0.92-7.36h4.72v-2.29h-5.58v-2.64h3.05
					c-0.38-1.05-1.02-2.29-1.65-3.29l2.51-1c0.86,1.16,1.67,2.78,2.02,3.86l-0.97,0.43h3.51c0.67-1.3,1.43-3.05,1.81-4.34l3.1,0.84
					c-0.59,1.21-1.24,2.46-1.83,3.51h2.62v7.58h-5.56v2.1H332.98z M321.54,85.69c-0.08,0.73-0.16,1.43-0.27,2.1h2.48v-2.1H321.54z
					 M326.77,83.04h2.64v-2.29h-2.64V83.04z"/>
			</g>
		</g>
	</g>
</g>
<g>
	<g>
		<path d="M-541.87-231.44l6.76,19.89h0.08l6.4-19.89h8.95v28.92h-5.95v-20.49h-0.08l-7.09,20.49h-4.9l-7.09-20.29h-0.08v20.29
			h-5.95v-28.92H-541.87z"/>
		<path d="M-514.93-217.02c0.08-1.35,0.42-2.47,1.01-3.36c0.59-0.89,1.35-1.61,2.27-2.15c0.92-0.54,1.95-0.92,3.1-1.15
			c1.15-0.23,2.3-0.34,3.46-0.34c1.05,0,2.12,0.08,3.2,0.22c1.08,0.15,2.07,0.44,2.96,0.87c0.89,0.43,1.62,1.03,2.19,1.8
			c0.57,0.77,0.85,1.79,0.85,3.06v10.9c0,0.95,0.05,1.85,0.16,2.71c0.11,0.86,0.3,1.51,0.57,1.94H-501
			c-0.11-0.32-0.2-0.65-0.26-0.99c-0.07-0.34-0.12-0.68-0.14-1.03c-0.92,0.95-2,1.61-3.24,1.98c-1.24,0.38-2.51,0.57-3.81,0.57
			c-1,0-1.93-0.12-2.79-0.36c-0.86-0.24-1.62-0.62-2.27-1.13c-0.65-0.51-1.15-1.16-1.52-1.94c-0.36-0.78-0.55-1.71-0.55-2.79
			c0-1.19,0.21-2.17,0.63-2.94c0.42-0.77,0.96-1.38,1.62-1.84c0.66-0.46,1.42-0.8,2.27-1.03c0.85-0.23,1.71-0.41,2.57-0.55
			c0.86-0.14,1.71-0.24,2.55-0.32c0.84-0.08,1.58-0.2,2.23-0.36c0.65-0.16,1.16-0.4,1.54-0.71c0.38-0.31,0.55-0.76,0.53-1.36
			c0-0.62-0.1-1.11-0.3-1.48c-0.2-0.36-0.47-0.65-0.81-0.85c-0.34-0.2-0.73-0.34-1.17-0.4c-0.45-0.07-0.93-0.1-1.44-0.1
			c-1.13,0-2.03,0.24-2.67,0.73c-0.65,0.49-1.03,1.3-1.13,2.43H-514.93z M-501.65-212.76c-0.24,0.22-0.55,0.38-0.91,0.51
			c-0.36,0.12-0.76,0.22-1.17,0.3c-0.42,0.08-0.86,0.15-1.32,0.2c-0.46,0.05-0.92,0.12-1.38,0.2c-0.43,0.08-0.86,0.19-1.28,0.32
			c-0.42,0.14-0.78,0.32-1.09,0.55c-0.31,0.23-0.56,0.52-0.75,0.87c-0.19,0.35-0.28,0.8-0.28,1.34c0,0.51,0.09,0.95,0.28,1.3
			c0.19,0.35,0.45,0.63,0.77,0.83s0.7,0.34,1.13,0.43c0.43,0.08,0.88,0.12,1.34,0.12c1.13,0,2.01-0.19,2.63-0.57
			c0.62-0.38,1.08-0.83,1.38-1.36c0.3-0.53,0.48-1.06,0.55-1.6c0.07-0.54,0.1-0.97,0.1-1.3V-212.76z"/>
		<path d="M-486.6-207.72c0.26,0.45,0.59,0.81,0.99,1.09c0.41,0.28,0.87,0.49,1.4,0.63c0.53,0.14,1.07,0.2,1.64,0.2
			c0.4,0,0.83-0.05,1.28-0.14c0.45-0.09,0.85-0.24,1.22-0.45c0.36-0.2,0.67-0.47,0.91-0.81c0.24-0.34,0.36-0.76,0.36-1.28
			c0-0.86-0.57-1.51-1.72-1.94c-1.15-0.43-2.75-0.86-4.8-1.3c-0.84-0.19-1.65-0.41-2.45-0.67c-0.8-0.26-1.51-0.59-2.13-1.01
			c-0.62-0.42-1.12-0.95-1.5-1.58c-0.38-0.63-0.57-1.41-0.57-2.33c0-1.35,0.26-2.46,0.79-3.32c0.53-0.86,1.22-1.55,2.09-2.05
			c0.86-0.5,1.84-0.85,2.92-1.05c1.08-0.2,2.19-0.3,3.32-0.3s2.23,0.11,3.3,0.32c1.07,0.22,2.02,0.58,2.86,1.09
			c0.84,0.51,1.53,1.19,2.09,2.05c0.55,0.85,0.88,1.92,0.99,3.22h-5.47c-0.08-1.11-0.5-1.86-1.26-2.25
			c-0.76-0.39-1.65-0.59-2.67-0.59c-0.32,0-0.68,0.02-1.05,0.06c-0.38,0.04-0.72,0.13-1.03,0.26c-0.31,0.14-0.57,0.33-0.79,0.59
			c-0.22,0.26-0.32,0.6-0.32,1.03c0,0.51,0.19,0.93,0.57,1.26c0.38,0.32,0.87,0.59,1.48,0.79c0.61,0.2,1.3,0.38,2.09,0.55
			c0.78,0.16,1.58,0.34,2.39,0.53c0.84,0.19,1.65,0.42,2.45,0.69c0.8,0.27,1.5,0.63,2.13,1.07c0.62,0.45,1.12,1,1.5,1.66
			c0.38,0.66,0.57,1.48,0.57,2.45c0,1.38-0.28,2.53-0.83,3.46c-0.55,0.93-1.28,1.68-2.17,2.25c-0.89,0.57-1.91,0.97-3.06,1.19
			c-1.15,0.23-2.32,0.34-3.5,0.34c-1.22,0-2.4-0.12-3.56-0.36c-1.16-0.24-2.19-0.65-3.1-1.22c-0.91-0.57-1.65-1.32-2.23-2.25
			c-0.58-0.93-0.9-2.1-0.95-3.5h5.47C-486.98-208.7-486.86-208.17-486.6-207.72z"/>
		<path d="M-469.93-217.02c0.08-1.35,0.42-2.47,1.01-3.36c0.59-0.89,1.35-1.61,2.27-2.15c0.92-0.54,1.95-0.92,3.1-1.15
			c1.15-0.23,2.3-0.34,3.46-0.34c1.05,0,2.12,0.08,3.2,0.22c1.08,0.15,2.07,0.44,2.96,0.87c0.89,0.43,1.62,1.03,2.19,1.8
			c0.57,0.77,0.85,1.79,0.85,3.06v10.9c0,0.95,0.05,1.85,0.16,2.71c0.11,0.86,0.3,1.51,0.57,1.94H-456
			c-0.11-0.32-0.2-0.65-0.26-0.99c-0.07-0.34-0.12-0.68-0.14-1.03c-0.92,0.95-2,1.61-3.24,1.98c-1.24,0.38-2.51,0.57-3.81,0.57
			c-1,0-1.93-0.12-2.79-0.36c-0.86-0.24-1.62-0.62-2.27-1.13c-0.65-0.51-1.15-1.16-1.52-1.94c-0.36-0.78-0.55-1.71-0.55-2.79
			c0-1.19,0.21-2.17,0.63-2.94c0.42-0.77,0.96-1.38,1.62-1.84c0.66-0.46,1.42-0.8,2.27-1.03c0.85-0.23,1.71-0.41,2.57-0.55
			c0.86-0.14,1.71-0.24,2.55-0.32c0.84-0.08,1.58-0.2,2.23-0.36c0.65-0.16,1.16-0.4,1.54-0.71c0.38-0.31,0.55-0.76,0.53-1.36
			c0-0.62-0.1-1.11-0.3-1.48c-0.2-0.36-0.47-0.65-0.81-0.85c-0.34-0.2-0.73-0.34-1.17-0.4c-0.45-0.07-0.93-0.1-1.44-0.1
			c-1.13,0-2.03,0.24-2.67,0.73c-0.65,0.49-1.03,1.3-1.13,2.43H-469.93z M-456.65-212.76c-0.24,0.22-0.55,0.38-0.91,0.51
			c-0.36,0.12-0.76,0.22-1.17,0.3c-0.42,0.08-0.86,0.15-1.32,0.2c-0.46,0.05-0.92,0.12-1.38,0.2c-0.43,0.08-0.86,0.19-1.28,0.32
			c-0.42,0.14-0.78,0.32-1.09,0.55c-0.31,0.23-0.56,0.52-0.75,0.87c-0.19,0.35-0.28,0.8-0.28,1.34c0,0.51,0.09,0.95,0.28,1.3
			c0.19,0.35,0.45,0.63,0.77,0.83s0.7,0.34,1.13,0.43c0.43,0.08,0.88,0.12,1.34,0.12c1.13,0,2.01-0.19,2.63-0.57
			c0.62-0.38,1.08-0.83,1.38-1.36c0.3-0.53,0.48-1.06,0.55-1.6c0.07-0.54,0.1-0.97,0.1-1.3V-212.76z"/>
		<path d="M-431.58-205.19c-0.68,1.13-1.56,1.95-2.65,2.45s-2.33,0.75-3.71,0.75c-1.57,0-2.94-0.3-4.13-0.91
			c-1.19-0.61-2.17-1.43-2.94-2.47c-0.77-1.04-1.35-2.23-1.74-3.58c-0.39-1.35-0.59-2.75-0.59-4.21c0-1.4,0.2-2.76,0.59-4.07
			c0.39-1.31,0.97-2.46,1.74-3.46c0.77-1,1.73-1.8,2.9-2.41c1.16-0.61,2.51-0.91,4.05-0.91c1.24,0,2.42,0.26,3.54,0.79
			c1.12,0.53,2.01,1.3,2.65,2.33h0.08v-10.53h5.75v28.92h-5.47v-2.67H-431.58z M-431.82-215.54c-0.16-0.8-0.44-1.5-0.83-2.11
			c-0.39-0.61-0.9-1.1-1.52-1.48c-0.62-0.38-1.4-0.57-2.35-0.57c-0.95,0-1.74,0.19-2.39,0.57c-0.65,0.38-1.17,0.88-1.56,1.5
			c-0.39,0.62-0.68,1.33-0.85,2.13c-0.18,0.8-0.26,1.63-0.26,2.49c0,0.81,0.09,1.62,0.28,2.43c0.19,0.81,0.49,1.53,0.91,2.17
			c0.42,0.63,0.94,1.15,1.58,1.54c0.63,0.39,1.4,0.59,2.29,0.59c0.94,0,1.73-0.19,2.37-0.57c0.63-0.38,1.14-0.88,1.52-1.52
			c0.38-0.63,0.65-1.36,0.81-2.17c0.16-0.81,0.24-1.65,0.24-2.51C-431.58-213.91-431.66-214.74-431.82-215.54z"/>
		<path d="M-421.94-217.02c0.08-1.35,0.42-2.47,1.01-3.36c0.59-0.89,1.35-1.61,2.27-2.15c0.92-0.54,1.95-0.92,3.1-1.15
			c1.15-0.23,2.3-0.34,3.46-0.34c1.05,0,2.12,0.08,3.2,0.22c1.08,0.15,2.07,0.44,2.96,0.87c0.89,0.43,1.62,1.03,2.19,1.8
			c0.57,0.77,0.85,1.79,0.85,3.06v10.9c0,0.95,0.05,1.85,0.16,2.71c0.11,0.86,0.3,1.51,0.57,1.94H-408
			c-0.11-0.32-0.2-0.65-0.26-0.99c-0.07-0.34-0.12-0.68-0.14-1.03c-0.92,0.95-2,1.61-3.24,1.98c-1.24,0.38-2.51,0.57-3.81,0.57
			c-1,0-1.93-0.12-2.79-0.36c-0.86-0.24-1.62-0.62-2.27-1.13c-0.65-0.51-1.15-1.16-1.52-1.94c-0.36-0.78-0.55-1.71-0.55-2.79
			c0-1.19,0.21-2.17,0.63-2.94c0.42-0.77,0.96-1.38,1.62-1.84c0.66-0.46,1.42-0.8,2.27-1.03c0.85-0.23,1.71-0.41,2.57-0.55
			c0.86-0.14,1.71-0.24,2.55-0.32c0.84-0.08,1.58-0.2,2.23-0.36s1.16-0.4,1.54-0.71c0.38-0.31,0.55-0.76,0.53-1.36
			c0-0.62-0.1-1.11-0.3-1.48c-0.2-0.36-0.47-0.65-0.81-0.85c-0.34-0.2-0.73-0.34-1.17-0.4c-0.45-0.07-0.93-0.1-1.44-0.1
			c-1.13,0-2.03,0.24-2.67,0.73c-0.65,0.49-1.03,1.3-1.13,2.43H-421.94z M-408.65-212.76c-0.24,0.22-0.55,0.38-0.91,0.51
			c-0.36,0.12-0.76,0.22-1.17,0.3c-0.42,0.08-0.86,0.15-1.32,0.2c-0.46,0.05-0.92,0.12-1.38,0.2c-0.43,0.08-0.86,0.19-1.28,0.32
			c-0.42,0.14-0.78,0.32-1.09,0.55c-0.31,0.23-0.56,0.52-0.75,0.87c-0.19,0.35-0.28,0.8-0.28,1.34c0,0.51,0.09,0.95,0.28,1.3
			c0.19,0.35,0.45,0.63,0.77,0.83s0.7,0.34,1.13,0.43c0.43,0.08,0.88,0.12,1.34,0.12c1.13,0,2.01-0.19,2.63-0.57
			c0.62-0.38,1.08-0.83,1.38-1.36c0.3-0.53,0.48-1.06,0.55-1.6c0.07-0.54,0.1-0.97,0.1-1.3V-212.76z"/>
	</g>
	<g>
		<g>
			<g>
				<path d="M-531.95-185.18c-0.96,4.15-3.05,7.26-5.49,8.9c-0.4-0.5-1.34-1.42-1.92-1.78c1.88-1.12,3.47-3.09,4.39-5.45h-3.89
					v-2.25h4.89l0.42-0.1L-531.95-185.18z M-521.09-186.55c-1.5,1.36-3.35,2.87-4.87,3.89c1.4,1.92,3.23,3.41,5.57,4.33
					c-0.56,0.46-1.3,1.44-1.66,2.08c-2.91-1.3-4.97-3.45-6.48-6.19v4.59c0,1.3-0.26,1.94-1.12,2.35c-0.82,0.38-2.04,0.4-3.73,0.4
					c-0.1-0.68-0.48-1.74-0.8-2.39c1,0.06,2.25,0.06,2.61,0.04c0.36-0.02,0.48-0.12,0.48-0.44v-9.56h-5.01v-2.29h7.44
					c-1.7-0.76-4.03-1.54-5.87-2.02l1.18-1.94c2.33,0.5,5.67,1.56,7.38,2.45l-1.28,2.23c-0.34-0.2-0.78-0.42-1.26-0.64v1.66
					c0.38,1.26,0.86,2.45,1.42,3.53c1.36-1.08,2.87-2.49,3.83-3.69L-521.09-186.55z"/>
			</g>
			<g>
				<path d="M-506.15-193c-0.5,1.36-1.12,2.77-1.84,4.11v13.83h-2.37v-10.1c-0.38,0.52-0.78,0.98-1.16,1.4
					c-0.22-0.56-0.88-1.86-1.28-2.45c1.76-1.8,3.45-4.63,4.41-7.5L-506.15-193z M-493.89-177.99v2.28h-13.33v-2.28h5.51v-2.41h-4.41
					v-2.26h4.41v-1.76h2.43v1.76h4.53v2.26h-4.53v2.41H-493.89z M-501.7-189.33h-4.01v-2.23h4.01v-2.23h2.43v2.23h4.13v2.23h-4.13
					v2.08h5.03v2.25h-12.39v-2.25h4.93V-189.33z"/>
			</g>
			<g>
				<path d="M-479.61-183.24c-0.64,0.2-1.28,0.4-1.92,0.58v5.07c0,1.1-0.18,1.7-0.78,2.08c-0.62,0.38-1.46,0.46-2.79,0.44
					c-0.06-0.58-0.32-1.56-0.6-2.21c0.72,0.04,1.42,0.04,1.66,0.02c0.24,0,0.34-0.08,0.34-0.34v-4.43c-0.66,0.2-1.32,0.38-1.9,0.54
					l-0.52-2.29c0.68-0.14,1.52-0.36,2.43-0.58v-3.47h-2.1V-190h2.1v-3.77h2.16v3.77h1.82v2.19h-1.82v2.89l1.62-0.46L-479.61-183.24
					z M-472.62-177.37c0.54,0.06,1.1,0.08,1.68,0.08c0.62,0,3.01,0,3.83-0.04c-0.3,0.5-0.58,1.46-0.66,2.04h-3.33
					c-2.77,0-4.93-0.48-6.45-2.37c-0.46,1.06-1.04,1.96-1.76,2.67c-0.36-0.36-1.3-1-1.8-1.3c1.44-1.26,2.17-3.33,2.47-5.67
					l2.16,0.28c-0.1,0.64-0.2,1.26-0.36,1.86c0.52,0.9,1.2,1.48,2.02,1.86v-4.29h-3.75V-184h3.75v-1.02h-4.91v-1.84h4.91v-0.92
					h-3.75v-1.78h3.75v-0.84h-4.59v-1.86h4.59v-1.5h2.21v1.5h5.03v1.86h-5.03v0.84h4.25v2.71h1.24v1.84h-1.24v2.79h-4.25v1.16h4.39
					v1.86h-4.39V-177.37z M-472.62-186.87h2.04v-0.92h-2.04V-186.87z M-472.62-184h2.04v-1.02h-2.04V-184z"/>
			</g>
			<g>
				<path d="M-452.69-181c-0.24-0.56-0.72-1.4-1.2-2.21v8.14h-2.31v-7.22c-0.66,1.54-1.4,2.97-2.19,3.97
					c-0.22-0.68-0.74-1.66-1.1-2.27c1.12-1.28,2.25-3.43,2.97-5.37h-2.71v-2.23h3.03v-2.27c-0.78,0.12-1.52,0.24-2.27,0.32
					c-0.08-0.54-0.38-1.32-0.64-1.84c2.29-0.36,4.79-0.96,6.46-1.64l1.34,1.94c-0.78,0.3-1.66,0.54-2.59,0.74v2.75h2.65v2.23h-2.65
					v0.16c0.58,0.56,2.23,2.45,2.61,2.91L-452.69-181z M-442.81-180.13v5.05h-2.35v-4.63l-6.05,1.04l-0.38-2.27l6.43-1.1v-11.75
					h2.35v11.35l1.98-0.34l0.38,2.23L-442.81-180.13z M-447.84-182.92c-0.62-0.88-2.02-2.17-3.19-3.07l1.52-1.36
					c1.14,0.8,2.63,2.05,3.29,2.91L-447.84-182.92z M-447.32-188.21c-0.56-0.86-1.86-2.15-2.99-3.01l1.56-1.36
					c1.08,0.82,2.49,2,3.09,2.89L-447.32-188.21z"/>
			</g>
			<g>
				<path d="M-425.63-183.08c-0.7,0.2-1.42,0.4-2.15,0.58v4.79c0,1.16-0.22,1.72-0.9,2.11c-0.66,0.36-1.62,0.42-3.05,0.42
					c-0.08-0.6-0.38-1.54-0.66-2.17c0.78,0.02,1.6,0.02,1.86,0.02c0.28,0,0.38-0.1,0.38-0.4v-4.13l-1.94,0.48l-0.62-2.26
					c0.74-0.16,1.6-0.34,2.57-0.58v-3.55h-2.31v-2.21h2.31v-3.79h2.37v3.79h1.96v2.21h-1.96v2.97l1.84-0.46L-425.63-183.08z
					 M-414.52-185.79c-0.76,2.77-2.05,4.97-3.75,6.66c1.32,0.92,2.87,1.58,4.65,2.02c-0.5,0.48-1.18,1.44-1.52,2.07
					c-1.94-0.58-3.59-1.42-4.99-2.53c-1.56,1.08-3.33,1.88-5.29,2.47c-0.26-0.64-0.82-1.64-1.26-2.17c1.76-0.42,3.39-1.06,4.79-1.96
					c-1.16-1.34-2.1-2.93-2.85-4.77l0.6-0.18h-1.04v-2.15h3.95v-2.41h-4.31v-2.21h4.31v-2.87h2.37v2.87h4.49v2.21h-4.49v2.41h2.41
					l0.42-0.1L-414.52-185.79z M-422.42-184.18c0.56,1.32,1.36,2.53,2.37,3.55c1.04-0.98,1.92-2.19,2.53-3.55H-422.42z"/>
			</g>
		</g>
	</g>
	<g>
		<path class="st0" d="M-437.7-243.39h-12.41h-37.36c-15.36,0-27.81-12.45-27.81-27.81v-52.49h55.12c12.4,0,22.46,10.06,22.46,22.46
			V-243.39z"/>
		<path class="st1" d="M-515.29-281.23c7.55,0,14.52-0.03,21.48,0.05c0.68,0.01,1.57,0.62,1.99,1.08
			c4.8,5.24,9.52,10.51,14.26,15.78c0.29,0.32,0.6,0.63,1.06,1.12c3.31-3.25,6.47-6.36,9.63-9.46c2.46-2.42,4.87-4.85,7.39-7.24
			c0.44-0.42,1.3-0.94,1.98-0.95c6.36-0.07,12.72-0.04,19.78-0.04c-13.06,12.24-25.74,24.12-38.59,36.17
			C-489.3-256.91-502.13-268.92-515.29-281.23z"/>
		<path class="st1" d="M-437.7-286.92c-7.55,0-14.52,0.03-21.48-0.05c-0.68-0.01-1.57-0.62-1.99-1.08
			c-4.8-5.24-9.52-10.51-14.26-15.78c-0.29-0.32-0.6-0.63-1.06-1.12c-3.31,3.25-6.47,6.36-9.63,9.46c-2.46,2.42-4.87,4.85-7.39,7.24
			c-0.44,0.42-1.3,0.94-1.98,0.95c-6.36,0.07-12.72,0.04-19.78,0.04c13.06-12.24,25.74-24.12,38.59-36.17
			C-463.69-311.24-450.86-299.23-437.7-286.92z"/>
	</g>
</g>
<g>
	<path class="st0" d="M-219.72,69.91h-9.94h-29.93c-12.31,0-22.28-9.98-22.28-22.28V5.57h44.17c9.94,0,18,8.06,18,18V69.91z"/>
	<path class="st1" d="M-281.88,39.59c6.05,0,11.63-0.02,17.21,0.04c0.55,0.01,1.26,0.5,1.59,0.86c3.84,4.2,7.63,8.42,11.43,12.64
		c0.23,0.25,0.48,0.5,0.85,0.89c2.65-2.61,5.18-5.09,7.71-7.58c1.97-1.94,3.9-3.88,5.92-5.8c0.35-0.33,1.04-0.76,1.59-0.76
		c5.09-0.06,10.19-0.03,15.85-0.03c-10.46,9.81-20.62,19.33-30.92,28.98C-261.06,59.07-271.34,49.45-281.88,39.59z"/>
	<path class="st1" d="M-219.72,35.03c-6.05,0-11.63,0.02-17.21-0.04c-0.55-0.01-1.26-0.5-1.59-0.86c-3.84-4.2-7.63-8.42-11.43-12.64
		c-0.23-0.25-0.48-0.5-0.85-0.89c-2.65,2.61-5.18,5.09-7.71,7.58c-1.97,1.94-3.9,3.88-5.92,5.8c-0.35,0.33-1.04,0.76-1.59,0.76
		c-5.09,0.06-10.19,0.03-15.85,0.03c10.46-9.81,20.62-19.33,30.92-28.98C-240.54,15.54-230.26,25.16-219.72,35.03z"/>
</g>
<g>
	<path class="st0" d="M-219.72-233.56h-9.94h-29.93c-12.31,0-22.28-9.98-22.28-22.28v-42.05h44.17c9.94,0,18,8.06,18,18V-233.56z"/>
	<path class="st1" d="M-281.88-263.88c6.05,0,11.63-0.02,17.21,0.04c0.55,0.01,1.26,0.5,1.59,0.86c3.84,4.2,7.63,8.42,11.43,12.64
		c0.23,0.25,0.48,0.5,0.85,0.89c2.65-2.61,5.18-5.09,7.71-7.58c1.97-1.94,3.9-3.88,5.92-5.8c0.35-0.33,1.04-0.76,1.59-0.76
		c5.09-0.06,10.19-0.03,15.85-0.03c-10.46,9.81-20.62,19.33-30.92,28.98C-261.06-244.39-271.34-254.01-281.88-263.88z"/>
	<path class="st1" d="M-219.72-268.44c-6.05,0-11.63,0.02-17.21-0.04c-0.55-0.01-1.26-0.5-1.59-0.86
		c-3.84-4.2-7.63-8.42-11.43-12.64c-0.23-0.25-0.48-0.5-0.85-0.89c-2.65,2.61-5.18,5.09-7.71,7.58c-1.97,1.94-3.9,3.88-5.92,5.8
		c-0.35,0.33-1.04,0.76-1.59,0.76c-5.09,0.06-10.19,0.03-15.85,0.03c10.46-9.81,20.62-19.33,30.92-28.98
		C-240.54-287.92-230.26-278.3-219.72-268.44z"/>
</g>
<g>
	<path class="st0" d="M84.33-218.54h-9.94H44.45c-12.31,0-22.28-9.98-22.28-22.28v-42.05h44.17c9.94,0,18,8.06,18,18V-218.54z"/>
	<path class="st1" d="M22.17-248.86c6.05,0,11.63-0.02,17.21,0.04c0.55,0.01,1.26,0.5,1.59,0.86c3.84,4.2,7.63,8.42,11.43,12.64
		c0.23,0.25,0.48,0.5,0.85,0.89c2.65-2.61,5.18-5.09,7.71-7.58c1.97-1.94,3.9-3.88,5.92-5.8c0.35-0.33,1.04-0.76,1.59-0.76
		c5.09-0.06,10.19-0.03,15.85-0.03c-10.46,9.81-20.62,19.33-30.92,28.98C42.98-229.37,32.7-238.99,22.17-248.86z"/>
	<path class="st1" d="M84.33-253.42c-6.05,0-11.63,0.02-17.21-0.04c-0.55-0.01-1.26-0.5-1.59-0.86c-3.84-4.2-7.63-8.42-11.43-12.64
		c-0.23-0.25-0.48-0.5-0.85-0.89c-2.65,2.61-5.18,5.09-7.71,7.58c-1.97,1.94-3.9,3.88-5.92,5.8c-0.35,0.33-1.04,0.76-1.59,0.76
		c-5.09,0.06-10.19,0.03-15.85,0.03c10.46-9.81,20.62-19.33,30.92-28.98C63.51-272.9,73.79-263.28,84.33-253.42z"/>
</g>
</svg>
