<?xml version="1.0" encoding="utf-8"?>
<!-- Generator: Adobe Illustrator 24.0.0, SVG Export Plug-In . SVG Version: 6.00 Build 0)  -->
<svg version="1.1" id="圖層_1" xmlns="http://www.w3.org/2000/svg" xmlns:xlink="http://www.w3.org/1999/xlink" x="0px" y="0px"
	 viewBox="0 0 100 100" style="enable-background:new 0 0 100 100;" xml:space="preserve">
<style type="text/css">
	.st0{fill:#FFFFFF;}
</style>
<g>
	<g>
		<path class="st0" d="M50,23.95c7.35,0,13.04,5.93,13.04,13.27c0,7.11-5.69,13.04-13.04,13.04s-13.04-5.93-13.04-13.04
			C36.96,29.87,42.65,23.95,50,23.95z M50,28.69c-4.75,0-8.29,3.8-8.29,8.53c0,4.51,3.56,8.29,8.29,8.29c4.75,0,8.29-3.8,8.29-8.29
			C58.29,32.47,54.75,28.69,50,28.69z"/>
		<path class="st0" d="M40.29,51.67h19.44c6.64,0,12.09,5.45,12.09,12.33v12.09h-43.6V64C28.2,57.13,33.65,51.67,40.29,51.67z
			 M59.71,56.4H40.27c-4.04,0-7.35,3.31-7.35,7.58v7.35h34.13v-7.35C67.05,59.73,63.75,56.4,59.71,56.4z"/>
		<path class="st0" d="M31.98,8.55c-2.84,1.18-4.75-3.31-1.65-4.51C36.49,1.44,43.13,0,50,0c27.49,0,50,22.51,50,50
			c0,27.73-22.27,50-50,50C22.51,100,0,77.49,0,50c0-9.95,3.07-19.67,8.53-27.96c1.65-2.6,5.69,0,4.04,2.6
			C7.35,32.22,4.75,40.98,4.75,50c0,25.13,20.15,45.25,45.25,45.25c25.13,0,45.25-20.15,45.25-45.25C95.25,24.87,75.11,4.75,50,4.75
			C43.84,4.75,37.67,5.93,31.98,8.55z M20.85,15.42c-2.36,2.13-5.45-1.65-3.07-3.55c0.95-0.71,1.89-1.42,2.84-2.13
			c2.36-1.89,5.22,1.89,2.6,3.8C22.51,14,21.56,14.71,20.85,15.42z"/>
	</g>
</g>
</svg>
