<?xml version="1.0" encoding="utf-8"?>
<!-- Generator: Adobe Illustrator 24.0.0, SVG Export Plug-In . SVG Version: 6.00 Build 0)  -->
<svg version="1.1" id="圖層_1" xmlns="http://www.w3.org/2000/svg" xmlns:xlink="http://www.w3.org/1999/xlink" x="0px" y="0px"
	 viewBox="0 0 100 100" style="enable-background:new 0 0 100 100;" xml:space="preserve">
<style type="text/css">
	.st0{fill:#FFFFFF;}
</style>
<title>Artboard 478</title>
<g>
	<path class="st0" d="M82,48.28h-5V36.53c0-1.65-1.35-3-3-3H6c-1.65,0-3,1.35-3,3v24.76C3.02,82.27,19.97,100,40,100
		c12.91-0.01,25.7-8.37,32.62-21.29l0.37-0.7l0.77,0.21c0.12,0.03,0.23,0.05,0.35,0.07l7.9,0c8.27,0,15-6.73,15-15
		S90.27,48.28,82,48.28z M71,61.28c0,17.75-14.2,32.75-31,32.75s-31-15-31-32.75V39.53h62V61.28z M82,72.28h-6.69l0.35-1.27
		c0.88-3.17,1.33-6.45,1.34-9.74v-7h5c4.96,0,9,4.04,9,9S86.96,72.28,82,72.28z"/>
	<g>
		<path class="st0" d="M23.97,3c0-1.65-1.35-3-3-3s-3,1.35-3,3v21.36c0,1.65,1.35,3,3,3s3-1.35,3-3V3z"/>
		<path class="st0" d="M42.97,3c0-1.65-1.35-3-3-3s-3,1.35-3,3v21.36c0,1.65,1.35,3,3,3s3-1.35,3-3V3z"/>
		<path class="st0" d="M61.97,3c0-1.65-1.35-3-3-3s-3,1.35-3,3v21.36c0,1.65,1.35,3,3,3s3-1.35,3-3V3z"/>
	</g>
</g>
</svg>
