<?xml version="1.0" encoding="utf-8"?>
<!-- Generator: Adobe Illustrator 24.0.0, SVG Export Plug-In . SVG Version: 6.00 Build 0)  -->
<svg version="1.1" id="圖層_1" xmlns="http://www.w3.org/2000/svg" xmlns:xlink="http://www.w3.org/1999/xlink" x="0px" y="0px"
	 viewBox="0 0 100 100" style="enable-background:new 0 0 100 100;" xml:space="preserve">
<style type="text/css">
	.st0{fill:#FFFFFF;}
</style>
<g>
	<path class="st0" d="M38.7,99.25H3c-1,0-1.9-0.8-1.9-1.9V2.65c0-1,0.8-1.9,1.9-1.9h60c0.5,0,1,0.2,1.3,0.5l17.3,17
		c0.4,0.4,0.6,0.8,0.6,1.4v17.3c0,1-0.8,1.9-1.9,1.9c-1,0-1.9-0.8-1.9-1.9v-16.5L62.2,4.55H4.9v90.8h33.8c1,0,1.9,0.8,1.9,1.9
		C40.6,98.35,39.8,99.25,38.7,99.25z"/>
	<path class="st0" d="M16.1,33.25h40.1c1.2,0,2.2-1,2.2-2.2c0-1.2-1-2.2-2.2-2.2H16.1c-1.2,0-2.2,1-2.2,2.2
		C13.9,32.35,14.9,33.25,16.1,33.25z"/>
	<path class="st0" d="M16.3,21.15h40.1c1.2,0,2.2-1,2.2-2.2s-1-2.2-2.2-2.2H16.3c-1.2,0-2.2,1-2.2,2.2S15.1,21.15,16.3,21.15z"/>
	<path class="st0" d="M16.3,45.65h23.4c1.2,0,2.2-1,2.2-2.2s-1-2.2-2.2-2.2H16.3c-1.2,0-2.2,1-2.2,2.2S15.1,45.65,16.3,45.65z"/>
	<path class="st0" d="M30.8,58.45H16.2c-1.2,0-2.2-1-2.2-2.2s1-2.2,2.2-2.2h14.6c1.2,0,2.2,1,2.2,2.2S32,58.45,30.8,58.45z"/>
	<path class="st0" d="M98.1,67.95l-32.9-26c-0.8-0.6-1.9-0.6-2.7,0l-32.6,26c-0.9,0.7-1.1,2.1-0.3,3c0.7,0.9,2.1,1.1,3,0.3l6.2-5
		v24.5c0,1,0.8,1.9,1.9,1.9h15.5c1,0,1.9-0.8,1.9-1.9v-15.2c0-3.6,2.3-6.5,5.1-6.5c0.1,0,0.5,0,0.6,0c2.8,0,5.1,2.9,5.1,6.5v15.3
		c0,1,0.8,1.9,1.9,1.9H87c1,0,1.9-0.8,1.9-1.9v-24.7l6.5,5.2c0.4,0.3,0.9,0.5,1.3,0.5c0.6,0,1.3-0.3,1.7-0.8
		C99.2,69.95,99,68.65,98.1,67.95z M85.2,88.95H72.7v-13.4c0-5.7-4-10.2-8.9-10.2c-0.1,0-0.5,0-0.6,0c-4.9,0-8.9,4.6-8.9,10.2v13.4
		H42.6v-25.7l21.3-17l21.3,16.8V88.95z"/>
	<circle class="st0" cx="65.3" cy="78.95" r="2.1"/>
</g>
</svg>
