<?xml version="1.0" encoding="utf-8"?>
<!-- Generator: Adobe Illustrator 24.0.0, SVG Export Plug-In . SVG Version: 6.00 Build 0)  -->
<svg version="1.1" id="圖層_1" xmlns="http://www.w3.org/2000/svg" xmlns:xlink="http://www.w3.org/1999/xlink" x="0px" y="0px"
	 viewBox="0 0 100 100" style="enable-background:new 0 0 100 100;" xml:space="preserve">
<style type="text/css">
	.st0{fill:#FFFFFF;}
</style>
<path class="st0" d="M59.4,24.75c0-3.38-2.76-6.14-6.14-6.14H24.94c-3.38,0-6.14,2.76-6.14,6.14v14.79c0,3.38,2.76,6.14,6.14,6.14
	h28.32c3.38,0,6.14-2.76,6.14-6.14C59.4,39.54,59.4,24.75,59.4,24.75z M54.76,39.28c0,0.75-0.63,1.38-1.38,1.38H24.94
	c-0.75,0-1.38-0.63-1.38-1.38V24.62c0-0.75,0.63-1.38,1.38-1.38h28.45c0.75,0,1.38,0.63,1.38,1.38V39.28z M59.65,56.45
	c0,1.25-1,2.38-2.38,2.38H20.93c-1.25,0-2.38-1-2.38-2.38c0-1.25,1-2.38,2.38-2.38h36.34C58.65,54.07,59.65,55.2,59.65,56.45z
	 M59.77,68.73c0,1.25-1,2.38-2.38,2.38H20.93c-1.25,0-2.38-1-2.38-2.38l0,0c0-1.25,1-2.38,2.38-2.38h36.47
	C58.65,66.35,59.77,67.48,59.77,68.73L59.77,68.73z M85.59,34.02h-1.13c-1.25,0-2.38,1-2.38,2.26l0,0c0,1.25,1,2.38,2.38,2.38h1.13
	c5.26,0,9.77,4.14,9.77,9.52V86.4c0,4.64-3.76,8.4-8.52,8.52l0,0h-0.88c-4.51-0.38-8.02-4.26-8.02-8.77V33.27v-1.75l0,0V15.35
	c0-8.27-6.64-15.04-14.79-15.04H14.79C6.52,0.31,0,7.08,0,15.35v69.42c0,8.27,6.52,14.91,14.79,14.91h71.05c0.25,0,0.38,0,0.63,0
	C93.86,99.81,100,93.67,100,86.15V48.18C100,40.29,93.48,34.02,85.59,34.02z M4.76,84.77V15.35c0-5.64,4.51-10.28,10.03-10.28h48.37
	c5.64,0,10.15,4.64,10.15,10.28v13.16v3.01V86.4c0,3.26,1.25,6.02,3.13,8.52H14.79C9.15,95.05,4.76,90.41,4.76,84.77z M59.65,80.64
	c0,1.25-1,2.38-2.38,2.38H20.93c-1.25,0-2.38-1-2.38-2.38c0-1.38,1-2.38,2.38-2.38h36.34C58.65,78.38,59.65,79.39,59.65,80.64z"/>
</svg>
