<?xml version="1.0" encoding="utf-8"?>
<!-- Generator: Adobe Illustrator 24.0.0, SVG Export Plug-In . SVG Version: 6.00 Build 0)  -->
<svg version="1.1" id="圖層_1" xmlns="http://www.w3.org/2000/svg" xmlns:xlink="http://www.w3.org/1999/xlink" x="0px" y="0px"
	 viewBox="0 0 100 100" style="enable-background:new 0 0 100 100;" xml:space="preserve">
<style type="text/css">
	.st0{fill:#D77743;}
</style>
<g>
	<path class="st0" d="M60.7,77.9v-3.14c0-5.51,2.24-10.81,6.14-14.53c4.88-4.65,7.57-10.93,7.57-17.68
		c0-13.47-10.95-24.42-24.42-24.42c-0.92,0-1.85,0.05-2.77,0.15c-11.67,1.29-20.96,11.13-21.61,22.88
		c-0.39,7.09,2.3,13.98,7.38,18.91c4,3.88,6.3,9.23,6.3,14.68v3.14c0,3.33,2.71,6.04,6.04,6.04h9.32
		C57.99,83.94,60.7,81.23,60.7,77.9z M56.26,77.9c0,0.88-0.72,1.6-1.6,1.6h-9.32c-0.88,0-1.6-0.72-1.6-1.6v-3.14
		c0-6.64-2.79-13.15-7.65-17.87c-4.16-4.03-6.36-9.67-6.03-15.47c0.53-9.61,8.12-17.65,17.66-18.71c0.76-0.08,1.53-0.13,2.29-0.13
		c11.01,0,19.98,8.96,19.98,19.98c0,5.52-2.2,10.65-6.2,14.46c-4.78,4.55-7.52,11.02-7.52,17.74L56.26,77.9L56.26,77.9z"/>
	<path class="st0" d="M57.23,86.13H42.77c-0.92,0-1.67,0.75-1.67,1.67s0.75,1.67,1.67,1.67h14.47c0.92,0,1.67-0.75,1.67-1.67
		S58.15,86.13,57.23,86.13z"/>
	<path class="st0" d="M58.9,93.07c0-0.92-0.75-1.67-1.67-1.67H42.77c-0.92,0-1.67,0.75-1.67,1.67s0.75,1.67,1.67,1.67h14.47
		C58.15,94.73,58.9,93.99,58.9,93.07z"/>
	<path class="st0" d="M10.81,42.52h9.6c0.92,0,1.67-0.75,1.67-1.67c0-0.92-0.75-1.67-1.67-1.67h-9.6c-0.92,0-1.67,0.75-1.67,1.67
		C9.15,41.77,9.89,42.52,10.81,42.52z"/>
	<path class="st0" d="M90.85,40.85c0-0.92-0.75-1.67-1.67-1.67h-9.6c-0.92,0-1.67,0.75-1.67,1.67c0,0.92,0.75,1.67,1.67,1.67h9.6
		C90.11,42.52,90.85,41.77,90.85,40.85z"/>
	<path class="st0" d="M48.33,1.67v9.6c0,0.92,0.75,1.67,1.67,1.67c0.92,0,1.67-0.75,1.67-1.67v-9.6C51.67,0.75,50.92,0,50,0
		C49.08,0,48.33,0.75,48.33,1.67z"/>
	<path class="st0" d="M76.53,11.97l-6.79,6.79c-0.65,0.65-0.65,1.71,0,2.36c0.33,0.33,0.75,0.49,1.18,0.49s0.85-0.16,1.18-0.49
		l6.79-6.79c0.65-0.65,0.65-1.71,0-2.36C78.24,11.31,77.18,11.31,76.53,11.97z"/>
	<path class="st0" d="M30.26,60.59c-0.65-0.65-1.71-0.65-2.36,0l-6.79,6.79c-0.65,0.65-0.65,1.71,0,2.36
		c0.33,0.33,0.75,0.49,1.18,0.49s0.85-0.16,1.18-0.49l6.79-6.79C30.91,62.3,30.91,61.24,30.26,60.59z"/>
	<path class="st0" d="M27.9,21.11c0.33,0.33,0.75,0.49,1.18,0.49c0.43,0,0.85-0.16,1.18-0.49c0.65-0.65,0.65-1.71,0-2.36l-6.79-6.79
		c-0.65-0.65-1.71-0.65-2.36,0c-0.65,0.65-0.65,1.71,0,2.36L27.9,21.11z"/>
	<path class="st0" d="M76.53,69.74c0.33,0.33,0.75,0.49,1.18,0.49s0.85-0.16,1.18-0.49c0.65-0.65,0.65-1.71,0-2.36l-6.79-6.79
		c-0.65-0.65-1.71-0.65-2.36,0c-0.65,0.65-0.65,1.71,0,2.36L76.53,69.74z"/>
	<path class="st0" d="M55.28,98.33c0-0.92-0.75-1.67-1.67-1.67h-7.23c-0.92,0-1.67,0.75-1.67,1.67c0,0.92,0.75,1.67,1.67,1.67h7.23
		C54.54,100,55.28,99.25,55.28,98.33z"/>
</g>
</svg>
