<?xml version="1.0" encoding="utf-8"?>
<!-- Generator: Adobe Illustrator 25.0.1, SVG Export Plug-In . SVG Version: 6.00 Build 0)  -->
<svg version="1.1" xmlns="http://www.w3.org/2000/svg" xmlns:xlink="http://www.w3.org/1999/xlink" x="0px" y="0px"
	 viewBox="0 0 187.4 30" style="enable-background:new 0 0 187.4 30;" xml:space="preserve">
<style type="text/css">
	.st0{fill:#EFEFEF;}
	.st1{fill:#3E3A39;}
	.st2{display:none;fill:none;stroke:#E4007F;stroke-width:0.5;stroke-miterlimit:10;}
	.st3{fill:#FFFFFF;}
	.st4{fill:#B5B5B6;}
</style>
<g id="底色">
	<rect x="-1822.4" y="-75.1" class="st0" width="1758.2" height="745.7"/>
	<rect x="-1822.4" y="297.8" class="st1" width="1758.2" height="372.9"/>
</g>
<g id="圖層_1">
	<rect x="-1575.5" y="160.7" class="st2" width="41.7" height="57.7"/>
	<rect x="-1526.2" y="160.7" class="st2" width="41.7" height="57.7"/>
	<rect x="-1476.1" y="160.7" class="st2" width="41.7" height="57.7"/>
	<rect x="-1418.4" y="160.7" class="st2" width="41.7" height="57.7"/>
	<rect x="-1362.6" y="160.7" class="st2" width="41.7" height="57.7"/>
	<rect x="-1308.8" y="160.7" class="st2" width="41.7" height="57.7"/>
	<rect x="-1252.3" y="160.7" class="st2" width="41.7" height="57.7"/>
	<rect x="-1575.5" y="70.2" class="st2" width="41.7" height="57.7"/>
	<rect x="-1521.6" y="70.2" class="st2" width="41.7" height="57.7"/>
	<rect x="-1467.7" y="70.2" class="st2" width="41.7" height="57.7"/>
	<rect x="-1360" y="70.2" class="st2" width="41.7" height="57.7"/>
	<rect x="-1306.1" y="70.2" class="st2" width="41.7" height="57.7"/>
	<rect x="-1252.3" y="70.2" class="st2" width="41.7" height="57.7"/>
	<rect x="-1413.9" y="70.2" class="st2" width="41.7" height="57.7"/>
	<g>
		<path d="M-1516.9,117.1c-8.5-2-10.6-3.6-10.6-7V110c0-2.9,2.7-5.3,7.3-5.3c4.1,0,9.9,2.4,13.9,5.3l0.3-9
			c-3.4-2.3-8.7-3.3-14.1-3.3c-8.8,0-15.2,5.3-15.2,12.9v0.1c0,8.2,5.3,11,14.8,13.3c8.3,1.9,10.1,3.6,10.1,6.8v0.1
			c0,3.4-3.1,5.6-7.9,5.6c-5.5,0-11.3-3-17.4-6.9v9.9c4.7,3.1,12,4,17.2,4c9.4,0,15.9-5,15.9-13.3v-0.1
			C-1502.6,122.8-1507.5,119.4-1516.9,117.1z"/>
		<polygon points="-1261.8,119.2 -1243,98.4 -1253.8,98.4 -1268.3,115.7 -1272.4,115.7 -1272.4,98.4 -1272.4,98.4 -1272.4,98.4 
			-1280.3,98.4 -1280.3,98.4 -1281.1,98.4 -1281.1,142.9 -1280.3,142.9 -1280.3,143 -1272.4,143 -1272.4,142.9 -1272.4,142.9 
			-1272.4,122.7 -1267.9,122.7 -1253,143 -1242.2,143 		"/>
		<polygon points="-1461.4,122.8 -1461.4,115.8 -1475.1,115.8 -1475.1,98.4 -1475.4,98.4 -1483.3,98.4 -1483.8,98.4 -1483.8,115.7 
			-1497.5,115.7 -1497.5,122.8 -1483.8,122.8 -1483.8,142.9 -1483.3,142.9 -1475.4,142.9 -1475.1,142.9 -1475.1,122.8 		"/>
		<polygon points="-1428.2,115.7 -1436,98.1 -1443.2,98.1 -1450.9,115.7 -1454,122.7 -1462.8,143 -1452.5,143 -1440.1,108.6 
			-1439.3,108.6 -1426.9,143 -1416.4,143 -1425.2,122.7 		"/>
		<path d="M-1374.3,110.6c0-6.7-5.4-12.2-12.2-12.2h-24.4v0v44.5v0h7.8v0h0.9v-20.2h8.8l12.7,20.2h10.6l-14.4-20.4
			C-1378.7,121.5-1374.3,116.6-1374.3,110.6z M-1387.6,115.8h-14.6v-10.5h15.7c2.9,0,5.2,2.4,5.2,5.2c0,2.9-2.4,5.2-5.2,5.2
			L-1387.6,115.8z"/>
		<polygon points="-1345.8,98.4 -1346.2,98.4 -1354.1,98.4 -1354.5,98.4 -1354.5,115.7 -1368.2,115.7 -1368.2,122.7 -1354.5,122.7 
			-1354.5,142.9 -1354.1,142.9 -1346.2,142.9 -1345.8,142.9 -1345.8,122.8 -1332.1,122.8 -1332.1,115.8 -1345.8,115.8 		"/>
		<polygon points="-1315.1,122.7 -1293.6,122.7 -1293.6,115.7 -1293.6,115.7 -1315.1,115.7 -1315.1,105.4 -1290.8,105.4 
			-1290.8,98.4 -1323.8,98.4 -1323.8,98.4 -1323.8,115.7 -1323.8,122.7 -1323.8,142.9 -1323.8,143 -1290.4,143 -1290.4,136 
			-1315.1,136 		"/>
	</g>
	<g>
		<g>
			<g>
				<path class="st3" d="M-497.5,187.8c-37,0-67.1-30.1-67.1-67.1c0-37,30.1-67.1,67.1-67.1s67.1,30.1,67.1,67.1
					C-430.4,157.7-460.5,187.8-497.5,187.8z M-497.5,55c-36.2,0-65.7,29.5-65.7,65.7c0,36.2,29.5,65.7,65.7,65.7
					s65.7-29.5,65.7-65.7C-431.9,84.5-461.3,55-497.5,55z"/>
			</g>
			<g>
				<g>
					<path class="st3" d="M-351.5,162.7c-0.4,0-0.7-0.3-0.7-0.7V79.3c0-0.4,0.3-0.7,0.7-0.7c0.4,0,0.7,0.3,0.7,0.7V162
						C-350.8,162.4-351.1,162.7-351.5,162.7z"/>
				</g>
				<g>
					<path class="st3" d="M-643.6,162.7c-0.4,0-0.7-0.3-0.7-0.7V79.3c0-0.4,0.3-0.7,0.7-0.7c0.4,0,0.7,0.3,0.7,0.7V162
						C-642.9,162.4-643.2,162.7-643.6,162.7z"/>
				</g>
			</g>
		</g>
		<g>
			<path d="M-584.9,109.2c-5.8-1.4-7.2-2.4-7.2-4.8v-0.1c0-2,1.8-3.6,5-3.6c2.8,0,6.7,1.6,9.5,3.7l0.2-6.2c-2.3-1.6-6-2.2-9.6-2.2
				c-6,0-10.4,3.6-10.4,8.8v0.1c0,5.6,3.7,7.5,10.1,9.1c5.7,1.3,6.9,2.5,6.9,4.7v0.1c0,2.3-2.1,3.8-5.4,3.8c-3.8,0-7.7-2.1-11.9-4.7
				v6.8c3.2,2.1,8.2,2.7,11.8,2.7c6.4,0,10.9-3.4,10.9-9.1v-0.1C-575.1,113.1-578.5,110.8-584.9,109.2z"/>
			<polygon points="-410.7,110.7 -397.9,96.5 -405.2,96.5 -415.1,108.3 -417.9,108.3 -417.9,96.5 -418,96.5 -418,96.5 -423.3,96.5 
				-423.3,96.5 -423.9,96.5 -423.9,126.9 -423.3,126.9 -423.3,126.9 -418,126.9 -418,126.9 -417.9,126.9 -417.9,113.1 -414.9,113.1 
				-404.7,126.9 -397.3,126.9 			"/>
			<polygon points="-547,113.1 -547,108.3 -556.4,108.3 -556.4,96.5 -556.6,96.5 -562,96.5 -562.3,96.5 -562.3,108.3 -571.7,108.3 
				-571.7,113.1 -562.3,113.1 -562.3,126.9 -562,126.9 -556.6,126.9 -556.4,126.9 -556.4,113.1 			"/>
			<polygon points="-524.4,108.3 -529.6,96.2 -534.6,96.2 -539.9,108.3 -541.9,113.1 -548,126.9 -540.8,126.9 -532.5,103.4 
				-531.9,103.4 -523.4,126.9 -516.3,126.9 -522.3,113.1 			"/>
			<path d="M-487.6,104.8c0-4.6-3.7-8.3-8.3-8.3h-16.6v0v30.4v0h5.3v0h0.6v-13.8h6l8.7,13.8h7.3l-9.8-14
				C-490.5,112.3-487.6,108.9-487.6,104.8z M-496.6,108.3h-9.9v-7.2h10.7c2,0,3.6,1.6,3.6,3.6c0,2-1.6,3.6-3.6,3.6L-496.6,108.3z"/>
			<polygon points="-468.1,96.5 -468.3,96.5 -473.7,96.5 -474,96.5 -474,108.3 -483.4,108.3 -483.4,113.1 -474,113.1 -474,126.9 
				-473.7,126.9 -468.3,126.9 -468.1,126.9 -468.1,113.1 -458.7,113.1 -458.7,108.3 -468.1,108.3 			"/>
			<polygon points="-447.1,113.1 -432.4,113.1 -432.4,108.3 -432.4,108.3 -447.1,108.3 -447.1,101.2 -430.5,101.2 -430.5,96.5 
				-453,96.5 -453,96.5 -453,108.3 -453,113.1 -453,126.9 -453,126.9 -430.2,126.9 -430.2,122.1 -447.1,122.1 			"/>
		</g>
		<g>
			<g>
				<path d="M-563.1,157.9c2.1-1.6,3.4-3.9,4-7h6.4v4.8c0,0.3-0.2,0.5-0.6,0.5c-1.6,0-1.4,0-1.9,0l0.6,1.6c1.9,0,1.9-0.1,2.5-0.3
					c0.1,0,0.2-0.1,0.3-0.1c0.4-0.3,0.6-0.8,0.6-1.7v-16.7h-9.1v7.6c0,0.9,0,1.7-0.1,2.5c-0.3,3.4-1.6,6-3.9,7.7L-563.1,157.9z
					 M-552.7,149.4h-6.1c0.1-0.8,0.1-1.7,0.1-2.8v-1h6V149.4z M-552.7,144.1h-6v-3.7h6V144.1z"/>
				<path d="M-569.3,138.9v14.3h7v-14.3H-569.3z M-563.8,151.8h-4v-6.2h4V151.8z M-563.8,144.1h-4v-3.7h4V144.1z"/>
			</g>
			<path d="M-527.6,151.1c1.5-1.3,2.2-2.1,3.1-3.9c0.1-0.2,0.3-0.7,0.4-0.9l1.8,0c-0.2,0.4-0.9,1.6-1.3,2.4h4.3v-2.4h1.6v2.4h6.3
				v1.4h-6.3v2h6.3v1.3h-6.3v2.3h7.6v1.4h-16.9v-1.4h7.6v-2.3h-6v-1.3h6v-2h-5.3c-0.7,0.9-1.5,1.7-2.2,2.4L-527.6,151.1z
				 M-511.2,138.9v7.6h-14.3v-7.6H-511.2z M-512.8,142.1v-1.9h-11.1v1.9H-512.8z M-512.8,145.2v-1.9h-11.1v1.9H-512.8z"/>
			<path d="M-444.6,156.3c1.1,0,1.2,0,1.5,0c0.2-0.1,0.3-0.2,0.4-0.4v-6.1c-0.9,0.3-1.8,0.6-2.6,0.9l-0.4-1.6
				c0.3-0.1,0.8-0.3,1.6-0.5c0.6-0.2,1.1-0.4,1.4-0.5V143h-2.7v-1.5h2.7v-3.1h1.5v3.1h2.2v1.5h-2.2v4.7c0.2-0.1,0.9-0.3,1.6-0.6
				l0.3,1.4l-1.9,0.7v6.7c0,0.8-0.2,1.3-0.6,1.5c0,0-0.1,0-0.1,0.1c-0.5,0.2-0.7,0.3-2,0.3L-444.6,156.3z M-431.7,155.7h6v1.5H-439
				v-1.5h5.7v-4.5h-4.7v-1.5h11.2v1.5h-5V155.7z M-438.7,147.3c1.6-0.4,2.6-1.2,3.1-2.2c0.4-0.7,0.6-1.9,0.7-3.4h-2v2.3h-1.4v-3.7
				h5.1v-1.9h1.5v1.9h5.5v3.5h-1.5v-2.1h-2.2v4.2c0,0.3,0.1,0.5,0.2,0.5c0.1,0,0.2,0,0.3,0h2.8l-0.5,1.4h-2.4
				c-0.9,0-1.4-0.2-1.6-0.6c-0.1-0.3-0.2-0.7-0.2-1.3v-4.2h-2c-0.1,2.1-0.5,3.6-1.1,4.6c-0.7,1-1.8,1.7-3.4,2.2L-438.7,147.3z"/>
			<g>
				<path d="M-478.1,148.4v-5.7h-6.8v3h-1.5v-4.2h8.2v-1.3h-5.7v-1.2h13v1.2h-5.8v1.3h8.4v4.2h-1.5v-3h-6.9v5.7H-478.1z
					 M-470.1,157.5h-5c-1.4,0-2.3-0.2-2.7-0.6c-0.3-0.3-0.4-0.8-0.4-1.5v-0.7h-4.8l0,0h-1.5v-6.4h14.6v6.4h-6.7v0.7
					c0,0.4,0.1,0.7,0.4,0.8c0.2,0.1,0.6,0.1,1.2,0.1h5.4L-470.1,157.5z M-483.8,147v-1h5.9v1H-483.8z M-477.9,143.8v1h-5.9v-1
					H-477.9z M-478.2,151v-1.5h-4.8v4h4.8v-1.5 M-476.6,152.1v1.5h5.1v-4h-5.1v1.5 M-476.6,143.8h5.8v1h-5.8V143.8z M-476.6,147v-1
					h5.8v1H-476.6z"/>
				<rect x="-481.9" y="151" width="3.7" height="1.1"/>
				<rect x="-476.6" y="151" width="4" height="1.1"/>
			</g>
		</g>
	</g>
	<g>
		<path class="st3" d="M-1516.9,488c-8.5-2-10.6-3.6-10.6-7v-0.1c0-2.9,2.7-5.3,7.3-5.3c4.1,0,9.9,2.4,13.9,5.3l0.3-9
			c-3.4-2.3-8.7-3.3-14.1-3.3c-8.8,0-15.2,5.3-15.2,12.9v0.1c0,8.2,5.3,11,14.8,13.3c8.3,1.9,10.1,3.6,10.1,6.8v0.1
			c0,3.4-3.1,5.6-7.9,5.6c-5.5,0-11.3-3-17.4-6.9v9.9c4.7,3.1,12,4,17.2,4c9.4,0,15.9-5,15.9-13.3v-0.1
			C-1502.6,493.7-1507.5,490.3-1516.9,488z"/>
		<polygon class="st3" points="-1261.8,490.1 -1243,469.3 -1253.8,469.3 -1268.3,486.7 -1272.4,486.7 -1272.4,469.3 -1272.4,469.3 
			-1272.4,469.3 -1280.3,469.3 -1280.3,469.3 -1281.1,469.3 -1281.1,513.9 -1280.3,513.9 -1280.3,513.9 -1272.4,513.9 
			-1272.4,513.9 -1272.4,513.9 -1272.4,493.6 -1267.9,493.6 -1253,513.9 -1242.2,513.9 		"/>
		<polygon class="st3" points="-1461.4,493.7 -1461.4,486.7 -1475.1,486.7 -1475.1,469.3 -1475.4,469.3 -1483.3,469.3 
			-1483.8,469.3 -1483.8,486.6 -1497.5,486.6 -1497.5,493.7 -1483.8,493.7 -1483.8,513.9 -1483.3,513.9 -1475.4,513.9 
			-1475.1,513.9 -1475.1,493.7 		"/>
		<polygon class="st3" points="-1428.2,486.7 -1436,469 -1443.2,469 -1450.9,486.7 -1454,493.6 -1462.8,513.9 -1452.5,513.9 
			-1440.1,479.5 -1439.3,479.5 -1426.9,513.9 -1416.4,513.9 -1425.2,493.6 		"/>
		<path class="st3" d="M-1374.3,481.5c0-6.7-5.4-12.2-12.2-12.2h-24.4v0v44.5v0h7.8v0h0.9v-20.2h8.8l12.7,20.2h10.6l-14.4-20.4
			C-1378.7,492.5-1374.3,487.5-1374.3,481.5z M-1387.6,486.7h-14.6v-10.5h15.7c2.9,0,5.2,2.4,5.2,5.2c0,2.9-2.4,5.2-5.2,5.2
			L-1387.6,486.7z"/>
		<polygon class="st3" points="-1345.8,469.3 -1346.2,469.3 -1354.1,469.3 -1354.5,469.3 -1354.5,486.6 -1368.2,486.6 
			-1368.2,493.6 -1354.5,493.6 -1354.5,513.9 -1354.1,513.9 -1346.2,513.9 -1345.8,513.9 -1345.8,493.7 -1332.1,493.7 
			-1332.1,486.7 -1345.8,486.7 		"/>
		<polygon class="st3" points="-1315.1,493.6 -1293.6,493.6 -1293.6,486.7 -1293.6,486.6 -1315.1,486.6 -1315.1,476.3 
			-1290.8,476.3 -1290.8,469.3 -1323.8,469.3 -1323.8,469.3 -1323.8,486.7 -1323.8,493.6 -1323.8,513.9 -1323.8,513.9 
			-1290.4,513.9 -1290.4,506.9 -1315.1,506.9 		"/>
	</g>
	<g>
		<g>
			<g>
				<path class="st4" d="M-497.5,558.7c-37,0-67.1-30.1-67.1-67.1c0-37,30.1-67.1,67.1-67.1s67.1,30.1,67.1,67.1
					C-430.4,528.6-460.5,558.7-497.5,558.7z M-497.5,425.9c-36.2,0-65.7,29.5-65.7,65.7c0,36.2,29.5,65.7,65.7,65.7
					s65.7-29.5,65.7-65.7C-431.9,455.4-461.3,425.9-497.5,425.9z"/>
			</g>
			<g>
				<g>
					<path class="st4" d="M-351.5,533.7c-0.4,0-0.7-0.3-0.7-0.7v-82.7c0-0.4,0.3-0.7,0.7-0.7c0.4,0,0.7,0.3,0.7,0.7v82.7
						C-350.8,533.3-351.1,533.7-351.5,533.7z"/>
				</g>
				<g>
					<path class="st4" d="M-643.6,533.7c-0.4,0-0.7-0.3-0.7-0.7v-82.7c0-0.4,0.3-0.7,0.7-0.7c0.4,0,0.7,0.3,0.7,0.7v82.7
						C-642.9,533.3-643.2,533.7-643.6,533.7z"/>
				</g>
			</g>
		</g>
		<g>
			<path class="st3" d="M-584.9,480.2c-5.8-1.4-7.2-2.4-7.2-4.8v-0.1c0-2,1.8-3.6,5-3.6c2.8,0,6.7,1.6,9.5,3.7l0.2-6.2
				c-2.3-1.6-6-2.2-9.6-2.2c-6,0-10.4,3.6-10.4,8.8v0.1c0,5.6,3.7,7.5,10.1,9.1c5.7,1.3,6.9,2.5,6.9,4.7v0.1c0,2.3-2.1,3.8-5.4,3.8
				c-3.8,0-7.7-2.1-11.9-4.7v6.8c3.2,2.1,8.2,2.7,11.8,2.7c6.4,0,10.9-3.4,10.9-9.1v-0.1C-575.1,484-578.5,481.7-584.9,480.2z"/>
			<polygon class="st3" points="-410.7,481.6 -397.9,467.4 -405.2,467.4 -415.1,479.2 -417.9,479.2 -417.9,467.4 -418,467.4 
				-418,467.4 -423.3,467.4 -423.3,467.4 -423.9,467.4 -423.9,497.8 -423.3,497.8 -423.3,497.8 -418,497.8 -418,497.8 -417.9,497.8 
				-417.9,484 -414.9,484 -404.7,497.8 -397.3,497.8 			"/>
			<polygon class="st3" points="-547,484 -547,479.3 -556.4,479.3 -556.4,467.4 -556.6,467.4 -562,467.4 -562.3,467.4 -562.3,479.2 
				-571.7,479.2 -571.7,484 -562.3,484 -562.3,497.8 -562,497.8 -556.6,497.8 -556.4,497.8 -556.4,484 			"/>
			<polygon class="st3" points="-524.4,479.2 -529.6,467.2 -534.6,467.2 -539.9,479.2 -541.9,484 -548,497.8 -540.8,497.8 
				-532.5,474.4 -531.9,474.4 -523.4,497.8 -516.3,497.8 -522.3,484 			"/>
			<path class="st3" d="M-487.6,475.7c0-4.6-3.7-8.3-8.3-8.3h-16.6v0v30.4v0h5.3v0h0.6V484h6l8.7,13.8h7.3l-9.8-14
				C-490.5,483.2-487.6,479.8-487.6,475.7z M-496.6,479.3h-9.9v-7.2h10.7c2,0,3.6,1.6,3.6,3.6c0,2-1.6,3.6-3.6,3.6L-496.6,479.3z"/>
			<polygon class="st3" points="-468.1,467.4 -468.3,467.4 -473.7,467.4 -474,467.4 -474,479.2 -483.4,479.2 -483.4,484 -474,484 
				-474,497.8 -473.7,497.8 -468.3,497.8 -468.1,497.8 -468.1,484 -458.7,484 -458.7,479.3 -468.1,479.3 			"/>
			<polygon class="st3" points="-447.1,484 -432.4,484 -432.4,479.2 -432.4,479.2 -447.1,479.2 -447.1,472.2 -430.5,472.2 
				-430.5,467.4 -453,467.4 -453,467.4 -453,479.2 -453,484 -453,497.8 -453,497.8 -430.2,497.8 -430.2,493 -447.1,493 			"/>
		</g>
		<g>
			<g>
				<path class="st3" d="M-563.1,528.8c2.1-1.6,3.4-3.9,4-7h6.4v4.8c0,0.3-0.2,0.5-0.6,0.5c-1.6,0-1.4,0-1.9,0l0.6,1.6
					c1.9,0,1.9-0.1,2.5-0.3c0.1,0,0.2-0.1,0.3-0.1c0.4-0.3,0.6-0.8,0.6-1.7v-16.7h-9.1v7.6c0,0.9,0,1.7-0.1,2.5
					c-0.3,3.4-1.6,6-3.9,7.7L-563.1,528.8z M-552.7,520.3h-6.1c0.1-0.8,0.1-1.7,0.1-2.8v-1h6V520.3z M-552.7,515.1h-6v-3.7h6V515.1z
					"/>
				<path class="st3" d="M-569.3,509.9v14.3h7v-14.3H-569.3z M-563.8,522.7h-4v-6.2h4V522.7z M-563.8,515.1h-4v-3.7h4V515.1z"/>
			</g>
			<path class="st3" d="M-527.6,522c1.5-1.3,2.2-2.1,3.1-3.9c0.1-0.2,0.3-0.7,0.4-0.9l1.8,0c-0.2,0.4-0.9,1.6-1.3,2.4h4.3v-2.4h1.6
				v2.4h6.3v1.4h-6.3v2h6.3v1.3h-6.3v2.3h7.6v1.4h-16.9v-1.4h7.6v-2.3h-6v-1.3h6v-2h-5.3c-0.7,0.9-1.5,1.7-2.2,2.4L-527.6,522z
				 M-511.2,509.8v7.6h-14.3v-7.6H-511.2z M-512.8,513v-1.9h-11.1v1.9H-512.8z M-512.8,516.1v-1.9h-11.1v1.9H-512.8z"/>
			<path class="st3" d="M-444.6,527.2c1.1,0,1.2,0,1.5,0c0.2-0.1,0.3-0.2,0.4-0.4v-6.1c-0.9,0.3-1.8,0.6-2.6,0.9l-0.4-1.6
				c0.3-0.1,0.8-0.3,1.6-0.5c0.6-0.2,1.1-0.4,1.4-0.5v-5.2h-2.7v-1.5h2.7v-3.1h1.5v3.1h2.2v1.5h-2.2v4.7c0.2-0.1,0.9-0.3,1.6-0.6
				l0.3,1.4l-1.9,0.7v6.7c0,0.8-0.2,1.3-0.6,1.5c0,0-0.1,0-0.1,0.1c-0.5,0.2-0.7,0.3-2,0.3L-444.6,527.2z M-431.7,526.6h6v1.5H-439
				v-1.5h5.7v-4.5h-4.7v-1.5h11.2v1.5h-5V526.6z M-438.7,518.2c1.6-0.4,2.6-1.2,3.1-2.2c0.4-0.7,0.6-1.9,0.7-3.4h-2v2.3h-1.4v-3.7
				h5.1v-1.9h1.5v1.9h5.5v3.5h-1.5v-2.1h-2.2v4.2c0,0.3,0.1,0.5,0.2,0.5c0.1,0,0.2,0,0.3,0h2.8l-0.5,1.4h-2.4
				c-0.9,0-1.4-0.2-1.6-0.6c-0.1-0.3-0.2-0.7-0.2-1.3v-4.2h-2c-0.1,2.1-0.5,3.6-1.1,4.6c-0.7,1-1.8,1.7-3.4,2.2L-438.7,518.2z"/>
			<g>
				<path class="st3" d="M-478.1,519.3v-5.7h-6.8v3h-1.5v-4.2h8.2v-1.3h-5.7v-1.2h13v1.2h-5.8v1.3h8.4v4.2h-1.5v-3h-6.9v5.7H-478.1z
					 M-470.1,528.5h-5c-1.4,0-2.3-0.2-2.7-0.6c-0.3-0.3-0.4-0.8-0.4-1.5v-0.7h-4.8l0,0h-1.5v-6.4h14.6v6.4h-6.7v0.7
					c0,0.4,0.1,0.7,0.4,0.8c0.2,0.1,0.6,0.1,1.2,0.1h5.4L-470.1,528.5z M-483.8,518v-1h5.9v1H-483.8z M-477.9,514.7v1h-5.9v-1
					H-477.9z M-478.2,521.9v-1.5h-4.8v4h4.8V523 M-476.6,523v1.5h5.1v-4h-5.1v1.5 M-476.6,514.7h5.8v1h-5.8V514.7z M-476.6,518v-1
					h5.8v1H-476.6z"/>
				<rect x="-481.9" y="521.9" class="st3" width="3.7" height="1.1"/>
				<rect x="-476.6" y="521.9" class="st3" width="4" height="1.1"/>
			</g>
		</g>
	</g>
	<g>
		<g>
			<path class="st3" d="M-1071.2,465.7c-8.5-2-10.6-3.6-10.6-7v-0.1c0-2.9,2.7-5.3,7.3-5.3c4.1,0,9.9,2.4,13.9,5.3l0.3-9
				c-3.4-2.3-8.7-3.3-14.1-3.3c-8.8,0-15.2,5.3-15.2,12.9v0.1c0,8.2,5.3,11,14.8,13.3c8.3,1.9,10.1,3.6,10.1,6.8v0.1
				c0,3.4-3.1,5.6-7.9,5.6c-5.5,0-11.3-3-17.4-6.9v9.9c4.7,3.1,12,4,17.2,4c9.4,0,15.9-5,15.9-13.3v-0.1
				C-1056.9,471.3-1061.8,468-1071.2,465.7z"/>
			<polygon class="st3" points="-816,467.8 -797.3,447 -808.1,447 -822.5,464.3 -826.7,464.3 -826.7,447 -826.7,447 -826.7,447 
				-834.6,447 -834.6,447 -835.4,447 -835.4,491.5 -834.6,491.5 -834.6,491.5 -826.7,491.5 -826.7,491.5 -826.7,491.5 -826.7,471.3 
				-822.2,471.3 -807.3,491.5 -796.5,491.5 			"/>
			<polygon class="st3" points="-1015.7,471.3 -1015.7,464.4 -1029.4,464.4 -1029.4,447 -1029.7,447 -1037.6,447 -1038.1,447 
				-1038.1,464.3 -1051.8,464.3 -1051.8,471.3 -1038.1,471.3 -1038.1,491.5 -1037.6,491.5 -1029.7,491.5 -1029.4,491.5 
				-1029.4,471.3 			"/>
			<polygon class="st3" points="-982.5,464.3 -990.3,446.6 -997.5,446.6 -1005.2,464.3 -1008.3,471.3 -1017.1,491.5 -1006.6,491.5 
				-994.4,457.2 -993.6,457.2 -981.2,491.5 -970.6,491.5 -979.5,471.3 			"/>
			<path class="st3" d="M-928.6,459.1c0-6.7-5.4-12.2-12.2-12.2h-24.4v0v44.5v0h7.8v0h0.9v-20.2h8.8l12.7,20.2h10.6l-14.4-20.4
				C-933,470.1-928.6,465.1-928.6,459.1z M-941.9,464.4h-14.6v-10.5h15.7c2.9,0,5.2,2.4,5.2,5.2c0,2.9-2.4,5.2-5.2,5.2L-941.9,464.4
				z"/>
			<polygon class="st3" points="-900.1,447 -900.5,447 -908.4,447 -908.8,447 -908.8,464.3 -922.5,464.3 -922.5,471.3 -908.8,471.3 
				-908.8,491.5 -908.4,491.5 -900.5,491.5 -900.1,491.5 -900.1,471.3 -886.4,471.3 -886.4,464.4 -900.1,464.4 			"/>
			<polygon class="st3" points="-869.4,471.3 -847.9,471.3 -847.9,464.3 -847.9,464.3 -869.4,464.3 -869.4,454 -845,454 -845,447 
				-878.1,447 -878.1,447 -878.1,464.3 -878.1,471.3 -878.1,491.5 -878.1,491.5 -844.7,491.5 -844.7,484.5 -869.4,484.5 			"/>
		</g>
		<g>
			<g>
				<path class="st3" d="M-1039.3,536.9c3.1-2.3,5-5.8,5.9-10.3h9.3v7c0,0.4-0.3,0.7-0.8,0.8c-2.3,0-2,0-2.7,0l0.9,2.3
					c2.7,0,2.7-0.2,3.6-0.5c0.1,0,0.2-0.1,0.4-0.2c0.6-0.4,0.9-1.2,0.9-2.4v-24.4h-13.4v11.2c0,1.4,0,2.6-0.2,3.6
					c-0.5,5-2.3,8.8-5.7,11.3L-1039.3,536.9z M-1024.1,524.5h-9c0.1-1.1,0.2-2.5,0.2-4.1v-1.4h8.8V524.5z M-1024.1,516.8h-8.8v-5.4
					h8.8V516.8z"/>
				<path class="st3" d="M-1048.4,509.1v21h10.3v-21H-1048.4z M-1040.2,527.9h-5.9v-9h5.9V527.9z M-1040.2,516.8h-5.9v-5.4h5.9
					V516.8z"/>
			</g>
			<path class="st3" d="M-987.2,526.9c2.1-2,3.2-3.1,4.6-5.7c0.2-0.3,0.5-1,0.6-1.3l2.7,0c-0.2,0.5-1.3,2.4-2,3.5h6.3V520h2.4v3.5
				h9.3v2h-9.3v3h9.2v1.9h-9.2v3.4h11.2v2.1h-24.7v-2.1h11.1v-3.4h-8.8v-1.9h8.8v-3h-7.8c-1.1,1.3-2.2,2.5-3.2,3.5L-987.2,526.9z
				 M-963.3,509.1v11.1h-20.9v-11.1H-963.3z M-965.7,513.7V511h-16.2v2.7H-965.7z M-965.7,518.3v-2.8h-16.2v2.8H-965.7z"/>
			<path class="st3" d="M-865.8,534.5c1.5,0,1.8,0,2.2,0c0.3-0.1,0.5-0.3,0.5-0.6v-9c-1.3,0.5-2.6,0.9-3.8,1.4l-0.6-2.3
				c0.5-0.1,1.2-0.4,2.3-0.7c0.9-0.3,1.6-0.5,2.1-0.7V515h-4v-2.1h4v-4.6h2.2v4.6h3.3v2.1h-3.3v6.9c0.3-0.1,1.4-0.5,2.4-0.8l0.4,2.1
				l-2.8,1v9.8c0,1.2-0.3,1.9-0.9,2.2c-0.1,0-0.1,0.1-0.2,0.1c-0.7,0.3-1,0.4-2.9,0.4L-865.8,534.5z M-846.9,533.6h8.8v2.1h-19.4
				v-2.1h8.4V527h-6.8v-2.2h16.3v2.2h-7.3V533.6z M-857.2,521.3c2.3-0.7,3.8-1.7,4.6-3.2c0.5-1.1,0.9-2.8,1-5h-2.9v3.4h-2.1v-5.4
				h7.5v-2.8h2.2v2.8h8v5.1h-2.2v-3.1h-3.3v6.2c0,0.4,0.1,0.7,0.3,0.7c0.1,0,0.3,0,0.5,0h4.1l-0.8,2h-3.6c-1.3,0-2.1-0.3-2.4-0.9
				c-0.2-0.4-0.3-1-0.3-1.9v-6.2h-3c-0.2,3.1-0.7,5.3-1.6,6.7c-1,1.4-2.6,2.5-4.9,3.2L-857.2,521.3z"/>
			<g>
				<path class="st3" d="M-914.8,523v-8.4h-9.9v4.4h-2.1v-6.1h12V511h-8.3v-1.8h19v1.8h-8.4v1.9h12.3v6.1h-2.2v-4.4h-10.1v8.4
					H-914.8z M-903.1,536.4h-7.3c-2.1,0-3.4-0.3-3.9-0.9c-0.4-0.5-0.6-1.2-0.6-2.3v-1h-7l0,0h-2.3v-9.3h21.3v9.3h-9.8v1
					c0,0.6,0.2,1,0.6,1.1c0.3,0.1,0.9,0.2,1.8,0.2h7.9L-903.1,536.4z M-923.1,521v-1.5h8.6v1.5H-923.1z M-914.5,516.3v1.5h-8.6v-1.5
					H-914.5z M-914.9,526.8v-2.2h-7v5.9h7v-2.1 M-912.6,528.4v2.1h7.5v-5.9h-7.5v2.2 M-912.6,516.3h8.6v1.5h-8.6V516.3z M-912.6,521
					v-1.5h8.6v1.5H-912.6z"/>
				<rect x="-920.3" y="526.8" class="st3" width="5.4" height="1.6"/>
				<rect x="-912.6" y="526.8" class="st3" width="5.8" height="1.6"/>
			</g>
		</g>
	</g>
	<g>
		<path class="st3" d="M12.8,12.7c-5.4-1.3-6.7-2.3-6.7-4.4V8.2c0-1.9,1.7-3.3,4.6-3.3c2.6,0,6.2,1.5,8.8,3.4l0.2-5.7
			c-2.2-1.4-5.5-2.1-8.9-2.1c-5.6,0-9.6,3.3-9.6,8.2v0.1c0,5.2,3.4,7,9.4,8.4c5.2,1.2,6.4,2.3,6.4,4.3v0.1c0,2.1-1.9,3.5-5,3.5
			c-3.5,0-7.2-1.9-11-4.4V27c3,2,7.6,2.5,10.9,2.5c5.9,0,10.1-3.1,10.1-8.4V21C21.8,16.3,18.7,14.2,12.8,12.7z"/>
		<polygon class="st3" points="174.2,14.1 186,0.9 179.2,0.9 170.1,11.9 167.5,11.9 167.5,0.9 167.4,0.9 167.4,0.9 162.5,0.9 
			162.5,0.9 162,0.9 162,29.1 162.5,29.1 162.5,29.1 167.4,29.1 167.4,29.1 167.5,29.1 167.5,16.3 170.3,16.3 179.7,29.1 
			186.6,29.1 		"/>
		<polygon class="st3" points="47.9,16.3 47.9,11.9 39.2,11.9 39.2,0.9 39,0.9 34,0.9 33.7,0.9 33.7,11.9 25,11.9 25,16.3 
			33.7,16.3 33.7,29.1 34,29.1 39,29.1 39.2,29.1 39.2,16.3 		"/>
		<polygon class="st3" points="68.8,11.9 64,0.7 59.4,0.7 54.5,11.9 52.6,16.3 47,29.1 53.5,29.1 61.3,7.4 61.9,7.4 69.7,29.1 
			76.4,29.1 70.8,16.3 		"/>
		<path class="st3" d="M102.9,8.6c0-4.3-3.4-7.7-7.7-7.7H79.8v0v28.2v0h5v0h0.6V16.3h5.6l8,12.8h6.7l-9.1-12.9
			C100.2,15.6,102.9,12.4,102.9,8.6z M94.6,11.9h-9.2V5.3h9.9c1.8,0,3.3,1.5,3.3,3.3c0,1.8-1.5,3.3-3.3,3.3L94.6,11.9z"/>
		<polygon class="st3" points="121,0.9 120.8,0.9 115.8,0.9 115.5,0.9 115.5,11.9 106.8,11.9 106.8,16.3 115.5,16.3 115.5,29.1 
			115.8,29.1 120.8,29.1 121,29.1 121,16.3 129.7,16.3 129.7,11.9 121,11.9 		"/>
		<polygon class="st3" points="140.4,16.3 154,16.3 154,11.9 154,11.9 140.4,11.9 140.4,5.3 155.8,5.3 155.8,0.9 134.9,0.9 
			134.9,0.9 134.9,11.9 134.9,16.3 134.9,29.1 134.9,29.1 156,29.1 156,24.7 140.4,24.7 		"/>
	</g>
</g>
</svg>
