<?xml version="1.0" encoding="utf-8"?>
<!-- Generator: Adobe Illustrator 24.3.0, SVG Export Plug-In . SVG Version: 6.00 Build 0)  -->
<svg version="1.1" id="圖層_1" xmlns="http://www.w3.org/2000/svg" xmlns:xlink="http://www.w3.org/1999/xlink" x="0px" y="0px"
	 viewBox="0 0 150 148.87" style="enable-background:new 0 0 150 148.87;" xml:space="preserve">
<style type="text/css">
	.st0{fill:#ED6D1F;}
	.st1{fill:#FFFFFF;}
</style>
<g>
	<path d="M353.28,33.67l6.46,18.98h0.08l6.11-18.98h8.54v27.6h-5.68V41.71h-0.08l-6.76,19.56h-4.68L350.5,41.9h-0.08v19.37h-5.68
		v-27.6H353.28z"/>
	<path d="M378.98,47.43c0.08-1.29,0.4-2.36,0.97-3.21c0.57-0.85,1.29-1.53,2.16-2.05c0.88-0.51,1.86-0.88,2.96-1.1
		s2.2-0.33,3.31-0.33c1,0,2.02,0.07,3.05,0.21c1.03,0.14,1.97,0.42,2.82,0.83c0.85,0.41,1.55,0.99,2.09,1.72
		c0.54,0.73,0.81,1.71,0.81,2.92v10.4c0,0.9,0.05,1.76,0.16,2.59c0.1,0.82,0.28,1.44,0.54,1.86h-5.57c-0.1-0.31-0.19-0.62-0.25-0.95
		c-0.06-0.32-0.11-0.65-0.13-0.99c-0.88,0.9-1.91,1.53-3.09,1.89c-1.18,0.36-2.4,0.54-3.63,0.54c-0.95,0-1.84-0.12-2.67-0.35
		c-0.83-0.23-1.55-0.59-2.16-1.08c-0.62-0.49-1.1-1.11-1.45-1.86c-0.35-0.75-0.52-1.64-0.52-2.67c0-1.13,0.2-2.07,0.6-2.8
		c0.4-0.73,0.91-1.32,1.55-1.76c0.63-0.44,1.35-0.77,2.16-0.99c0.81-0.22,1.63-0.39,2.45-0.52c0.82-0.13,1.64-0.23,2.44-0.31
		c0.8-0.08,1.51-0.19,2.13-0.35c0.62-0.15,1.11-0.38,1.47-0.68c0.36-0.3,0.53-0.73,0.5-1.29c0-0.59-0.1-1.06-0.29-1.41
		c-0.19-0.35-0.45-0.62-0.77-0.81c-0.32-0.19-0.69-0.32-1.12-0.39c-0.42-0.06-0.88-0.1-1.37-0.1c-1.08,0-1.93,0.23-2.55,0.7
		c-0.62,0.46-0.98,1.24-1.08,2.32H378.98z M391.66,51.49c-0.23,0.21-0.52,0.37-0.87,0.48c-0.35,0.12-0.72,0.21-1.12,0.29
		c-0.4,0.08-0.82,0.14-1.26,0.19c-0.44,0.05-0.88,0.12-1.31,0.19c-0.41,0.08-0.82,0.18-1.22,0.31c-0.4,0.13-0.75,0.3-1.04,0.52
		c-0.3,0.22-0.54,0.5-0.72,0.83c-0.18,0.34-0.27,0.76-0.27,1.28c0,0.49,0.09,0.9,0.27,1.24s0.43,0.6,0.74,0.79
		c0.31,0.19,0.67,0.33,1.08,0.41c0.41,0.08,0.84,0.12,1.27,0.12c1.08,0,1.92-0.18,2.51-0.54c0.59-0.36,1.03-0.79,1.31-1.29
		c0.28-0.5,0.46-1.01,0.52-1.53s0.1-0.93,0.1-1.24V51.49z"/>
	<path d="M406.02,56.3c0.25,0.43,0.56,0.77,0.95,1.04c0.39,0.27,0.83,0.47,1.33,0.6c0.5,0.13,1.02,0.19,1.57,0.19
		c0.39,0,0.79-0.05,1.22-0.14c0.43-0.09,0.81-0.23,1.16-0.43c0.35-0.19,0.64-0.45,0.87-0.77c0.23-0.32,0.35-0.73,0.35-1.22
		c0-0.82-0.55-1.44-1.64-1.86c-1.1-0.41-2.62-0.82-4.58-1.24c-0.8-0.18-1.58-0.39-2.34-0.64c-0.76-0.24-1.44-0.57-2.03-0.97
		c-0.59-0.4-1.07-0.9-1.43-1.51c-0.36-0.61-0.54-1.35-0.54-2.22c0-1.29,0.25-2.35,0.75-3.17c0.5-0.83,1.17-1.47,1.99-1.95
		c0.82-0.48,1.75-0.81,2.78-1c1.03-0.19,2.09-0.29,3.17-0.29c1.08,0,2.13,0.1,3.15,0.31c1.02,0.21,1.93,0.55,2.73,1.04
		c0.8,0.49,1.46,1.14,1.99,1.95c0.53,0.81,0.84,1.84,0.95,3.07h-5.22c-0.08-1.06-0.48-1.77-1.2-2.15c-0.72-0.37-1.57-0.56-2.55-0.56
		c-0.31,0-0.64,0.02-1,0.06c-0.36,0.04-0.69,0.12-0.99,0.25c-0.3,0.13-0.55,0.32-0.75,0.56s-0.31,0.57-0.31,0.99
		c0,0.49,0.18,0.89,0.54,1.2c0.36,0.31,0.83,0.56,1.41,0.75c0.58,0.19,1.24,0.37,1.99,0.52c0.75,0.15,1.51,0.32,2.28,0.5
		c0.8,0.18,1.58,0.4,2.34,0.66c0.76,0.26,1.44,0.6,2.03,1.03c0.59,0.42,1.07,0.95,1.43,1.58c0.36,0.63,0.54,1.41,0.54,2.34
		c0,1.31-0.27,2.42-0.79,3.3c-0.53,0.89-1.22,1.6-2.07,2.15c-0.85,0.54-1.82,0.92-2.92,1.14c-1.09,0.22-2.21,0.33-3.34,0.33
		c-1.16,0-2.29-0.12-3.4-0.35c-1.11-0.23-2.09-0.62-2.96-1.16c-0.86-0.54-1.57-1.26-2.13-2.15s-0.86-2-0.91-3.34h5.22
		C405.65,55.36,405.78,55.87,406.02,56.3z"/>
	<path d="M421.93,47.43c0.08-1.29,0.4-2.36,0.97-3.21c0.57-0.85,1.29-1.53,2.16-2.05c0.88-0.51,1.86-0.88,2.96-1.1
		s2.2-0.33,3.31-0.33c1,0,2.02,0.07,3.05,0.21c1.03,0.14,1.97,0.42,2.82,0.83c0.85,0.41,1.55,0.99,2.09,1.72
		c0.54,0.73,0.81,1.71,0.81,2.92v10.4c0,0.9,0.05,1.76,0.16,2.59c0.1,0.82,0.28,1.44,0.54,1.86h-5.57c-0.1-0.31-0.19-0.62-0.25-0.95
		c-0.06-0.32-0.11-0.65-0.13-0.99c-0.88,0.9-1.91,1.53-3.09,1.89c-1.18,0.36-2.4,0.54-3.63,0.54c-0.95,0-1.84-0.12-2.67-0.35
		c-0.83-0.23-1.55-0.59-2.16-1.08c-0.62-0.49-1.1-1.11-1.45-1.86c-0.35-0.75-0.52-1.64-0.52-2.67c0-1.13,0.2-2.07,0.6-2.8
		c0.4-0.73,0.91-1.32,1.55-1.76c0.63-0.44,1.35-0.77,2.16-0.99c0.81-0.22,1.63-0.39,2.45-0.52c0.82-0.13,1.64-0.23,2.44-0.31
		c0.8-0.08,1.51-0.19,2.13-0.35c0.62-0.15,1.11-0.38,1.47-0.68c0.36-0.3,0.53-0.73,0.5-1.29c0-0.59-0.1-1.06-0.29-1.41
		c-0.19-0.35-0.45-0.62-0.77-0.81c-0.32-0.19-0.69-0.32-1.12-0.39c-0.42-0.06-0.88-0.1-1.37-0.1c-1.08,0-1.93,0.23-2.55,0.7
		c-0.62,0.46-0.98,1.24-1.08,2.32H421.93z M434.61,51.49c-0.23,0.21-0.52,0.37-0.87,0.48c-0.35,0.12-0.72,0.21-1.12,0.29
		c-0.4,0.08-0.82,0.14-1.26,0.19c-0.44,0.05-0.88,0.12-1.31,0.19c-0.41,0.08-0.82,0.18-1.22,0.31c-0.4,0.13-0.75,0.3-1.04,0.52
		c-0.3,0.22-0.54,0.5-0.72,0.83c-0.18,0.34-0.27,0.76-0.27,1.28c0,0.49,0.09,0.9,0.27,1.24s0.43,0.6,0.74,0.79
		c0.31,0.19,0.67,0.33,1.08,0.41c0.41,0.08,0.84,0.12,1.27,0.12c1.08,0,1.92-0.18,2.51-0.54c0.59-0.36,1.03-0.79,1.31-1.29
		c0.28-0.5,0.46-1.01,0.52-1.53s0.1-0.93,0.1-1.24V51.49z"/>
	<path d="M458.53,58.71c-0.64,1.08-1.49,1.86-2.53,2.34c-1.04,0.48-2.22,0.71-3.54,0.71c-1.49,0-2.81-0.29-3.94-0.87
		c-1.13-0.58-2.07-1.37-2.8-2.36c-0.73-0.99-1.29-2.13-1.66-3.42c-0.37-1.29-0.56-2.63-0.56-4.02c0-1.34,0.19-2.63,0.56-3.88
		c0.37-1.25,0.93-2.35,1.66-3.31c0.73-0.95,1.66-1.72,2.76-2.3c1.11-0.58,2.4-0.87,3.86-0.87c1.19,0,2.31,0.25,3.38,0.75
		c1.07,0.5,1.91,1.24,2.53,2.22h0.08V33.67h5.49v27.6h-5.22v-2.55H458.53z M458.3,48.84c-0.15-0.76-0.42-1.43-0.79-2.01
		c-0.37-0.58-0.86-1.05-1.45-1.41c-0.59-0.36-1.34-0.54-2.24-0.54c-0.9,0-1.66,0.18-2.28,0.54c-0.62,0.36-1.11,0.84-1.49,1.43
		c-0.37,0.59-0.64,1.27-0.81,2.03c-0.17,0.76-0.25,1.55-0.25,2.38c0,0.77,0.09,1.55,0.27,2.32c0.18,0.77,0.47,1.46,0.87,2.07
		c0.4,0.61,0.9,1.1,1.51,1.47c0.6,0.37,1.33,0.56,2.18,0.56c0.9,0,1.66-0.18,2.26-0.54c0.6-0.36,1.09-0.84,1.45-1.45
		c0.36-0.6,0.62-1.29,0.77-2.07c0.15-0.77,0.23-1.57,0.23-2.4C458.53,50.39,458.45,49.6,458.3,48.84z"/>
	<path d="M467.73,47.43c0.08-1.29,0.4-2.36,0.97-3.21c0.57-0.85,1.29-1.53,2.16-2.05c0.88-0.51,1.86-0.88,2.96-1.1
		s2.2-0.33,3.31-0.33c1,0,2.02,0.07,3.05,0.21c1.03,0.14,1.97,0.42,2.82,0.83c0.85,0.41,1.55,0.99,2.09,1.72
		c0.54,0.73,0.81,1.71,0.81,2.92v10.4c0,0.9,0.05,1.76,0.16,2.59c0.1,0.82,0.28,1.44,0.54,1.86h-5.57c-0.1-0.31-0.19-0.62-0.25-0.95
		c-0.06-0.32-0.11-0.65-0.13-0.99c-0.88,0.9-1.91,1.53-3.09,1.89c-1.18,0.36-2.4,0.54-3.63,0.54c-0.95,0-1.84-0.12-2.67-0.35
		c-0.83-0.23-1.55-0.59-2.16-1.08c-0.62-0.49-1.1-1.11-1.45-1.86c-0.35-0.75-0.52-1.64-0.52-2.67c0-1.13,0.2-2.07,0.6-2.8
		c0.4-0.73,0.91-1.32,1.55-1.76c0.63-0.44,1.35-0.77,2.16-0.99c0.81-0.22,1.63-0.39,2.45-0.52c0.82-0.13,1.64-0.23,2.44-0.31
		c0.8-0.08,1.51-0.19,2.13-0.35c0.62-0.15,1.11-0.38,1.47-0.68c0.36-0.3,0.53-0.73,0.5-1.29c0-0.59-0.1-1.06-0.29-1.41
		c-0.19-0.35-0.45-0.62-0.77-0.81c-0.32-0.19-0.69-0.32-1.12-0.39c-0.42-0.06-0.88-0.1-1.37-0.1c-1.08,0-1.93,0.23-2.55,0.7
		c-0.62,0.46-0.98,1.24-1.08,2.32H467.73z M480.41,51.49c-0.23,0.21-0.52,0.37-0.87,0.48c-0.35,0.12-0.72,0.21-1.12,0.29
		c-0.4,0.08-0.82,0.14-1.26,0.19c-0.44,0.05-0.88,0.12-1.31,0.19c-0.41,0.08-0.82,0.18-1.22,0.31c-0.4,0.13-0.75,0.3-1.04,0.52
		c-0.3,0.22-0.54,0.5-0.72,0.83c-0.18,0.34-0.27,0.76-0.27,1.28c0,0.49,0.09,0.9,0.27,1.24s0.43,0.6,0.74,0.79
		c0.31,0.19,0.67,0.33,1.08,0.41c0.41,0.08,0.84,0.12,1.27,0.12c1.08,0,1.92-0.18,2.51-0.54c0.59-0.36,1.03-0.79,1.31-1.29
		c0.28-0.5,0.46-1.01,0.52-1.53s0.1-0.93,0.1-1.24V51.49z"/>
</g>
<g>
	<path d="M-7.35,399.84l8.6,25.29h0.1l8.14-25.29h11.38v36.78h-7.57v-26.07h-0.1l-9.02,26.07h-6.23l-9.02-25.81h-0.1v25.81h-7.57
		v-36.78H-7.35z"/>
	<path d="M26.91,418.18c0.1-1.72,0.53-3.14,1.29-4.28c0.75-1.13,1.72-2.04,2.88-2.73c1.17-0.69,2.48-1.18,3.94-1.47
		c1.46-0.29,2.93-0.44,4.4-0.44c1.34,0,2.7,0.1,4.07,0.28c1.37,0.19,2.63,0.56,3.76,1.11c1.13,0.55,2.06,1.31,2.78,2.29
		c0.72,0.98,1.08,2.28,1.08,3.89v13.86c0,1.2,0.07,2.35,0.21,3.45c0.14,1.1,0.38,1.92,0.72,2.47h-7.42
		c-0.14-0.41-0.25-0.83-0.33-1.26c-0.09-0.43-0.15-0.87-0.18-1.31c-1.17,1.2-2.54,2.04-4.12,2.52c-1.58,0.48-3.19,0.72-4.84,0.72
		c-1.27,0-2.46-0.15-3.55-0.46c-1.1-0.31-2.06-0.79-2.88-1.44s-1.47-1.48-1.93-2.47c-0.46-1-0.7-2.18-0.7-3.55
		c0-1.51,0.27-2.76,0.8-3.74c0.53-0.98,1.22-1.76,2.06-2.34c0.84-0.58,1.8-1.02,2.88-1.31c1.08-0.29,2.17-0.52,3.27-0.7
		c1.1-0.17,2.18-0.31,3.25-0.41c1.06-0.1,2.01-0.26,2.83-0.46s1.48-0.51,1.96-0.9c0.48-0.39,0.7-0.97,0.67-1.73
		c0-0.79-0.13-1.42-0.39-1.88c-0.26-0.46-0.6-0.82-1.03-1.08c-0.43-0.26-0.93-0.43-1.49-0.51c-0.57-0.09-1.18-0.13-1.83-0.13
		c-1.44,0-2.58,0.31-3.4,0.93c-0.82,0.62-1.31,1.65-1.44,3.09H26.91z M43.81,423.59c-0.31,0.28-0.7,0.49-1.16,0.64
		s-0.96,0.28-1.49,0.39c-0.53,0.1-1.09,0.19-1.67,0.26c-0.58,0.07-1.17,0.16-1.75,0.26c-0.55,0.1-1.09,0.24-1.62,0.41
		c-0.53,0.17-1,0.4-1.39,0.7c-0.4,0.29-0.71,0.66-0.95,1.11c-0.24,0.45-0.36,1.01-0.36,1.7c0,0.65,0.12,1.2,0.36,1.65
		c0.24,0.45,0.57,0.8,0.98,1.06s0.89,0.44,1.44,0.54c0.55,0.1,1.12,0.15,1.7,0.15c1.44,0,2.56-0.24,3.35-0.72
		c0.79-0.48,1.37-1.06,1.75-1.73c0.38-0.67,0.61-1.35,0.7-2.03c0.09-0.69,0.13-1.24,0.13-1.65V423.59z"/>
	<path d="M62.95,430.01c0.33,0.57,0.75,1.03,1.26,1.39c0.52,0.36,1.11,0.63,1.78,0.8c0.67,0.17,1.37,0.26,2.09,0.26
		c0.52,0,1.06-0.06,1.62-0.18c0.57-0.12,1.08-0.31,1.55-0.57c0.46-0.26,0.85-0.6,1.16-1.03c0.31-0.43,0.46-0.97,0.46-1.62
		c0-1.1-0.73-1.92-2.19-2.47c-1.46-0.55-3.5-1.1-6.1-1.65c-1.06-0.24-2.1-0.52-3.12-0.85c-1.01-0.33-1.91-0.75-2.7-1.29
		c-0.79-0.53-1.43-1.2-1.91-2.01c-0.48-0.81-0.72-1.79-0.72-2.96c0-1.72,0.33-3.12,1-4.22c0.67-1.1,1.55-1.97,2.65-2.6
		c1.1-0.64,2.33-1.08,3.71-1.34c1.37-0.26,2.78-0.39,4.22-0.39s2.84,0.14,4.2,0.41c1.36,0.28,2.57,0.74,3.63,1.39
		c1.06,0.65,1.95,1.52,2.65,2.6c0.7,1.08,1.12,2.45,1.26,4.1H72.5c-0.1-1.41-0.64-2.36-1.6-2.86c-0.96-0.5-2.1-0.75-3.4-0.75
		c-0.41,0-0.86,0.03-1.34,0.08c-0.48,0.05-0.92,0.16-1.31,0.33c-0.4,0.17-0.73,0.42-1,0.75c-0.27,0.33-0.41,0.76-0.41,1.31
		c0,0.65,0.24,1.18,0.72,1.6s1.11,0.75,1.88,1c0.77,0.26,1.66,0.49,2.65,0.7c1,0.21,2.01,0.43,3.04,0.67
		c1.06,0.24,2.1,0.53,3.12,0.88c1.01,0.34,1.91,0.8,2.7,1.37c0.79,0.57,1.42,1.27,1.91,2.11s0.72,1.88,0.72,3.12
		c0,1.75-0.35,3.22-1.06,4.4c-0.7,1.19-1.62,2.14-2.76,2.86c-1.13,0.72-2.43,1.23-3.89,1.52c-1.46,0.29-2.95,0.44-4.46,0.44
		c-1.55,0-3.06-0.15-4.53-0.46c-1.48-0.31-2.79-0.82-3.94-1.55c-1.15-0.72-2.1-1.67-2.83-2.86c-0.74-1.19-1.14-2.67-1.21-4.46h6.95
		C62.46,428.76,62.62,429.44,62.95,430.01z"/>
	<path d="M84.14,418.18c0.1-1.72,0.53-3.14,1.29-4.28c0.75-1.13,1.72-2.04,2.88-2.73c1.17-0.69,2.48-1.18,3.94-1.47
		c1.46-0.29,2.93-0.44,4.4-0.44c1.34,0,2.7,0.1,4.07,0.28c1.37,0.19,2.63,0.56,3.76,1.11c1.13,0.55,2.06,1.31,2.78,2.29
		c0.72,0.98,1.08,2.28,1.08,3.89v13.86c0,1.2,0.07,2.35,0.21,3.45c0.14,1.1,0.38,1.92,0.72,2.47h-7.42
		c-0.14-0.41-0.25-0.83-0.33-1.26c-0.09-0.43-0.15-0.87-0.18-1.31c-1.17,1.2-2.54,2.04-4.12,2.52c-1.58,0.48-3.19,0.72-4.84,0.72
		c-1.27,0-2.46-0.15-3.55-0.46c-1.1-0.31-2.06-0.79-2.88-1.44s-1.47-1.48-1.93-2.47c-0.46-1-0.7-2.18-0.7-3.55
		c0-1.51,0.27-2.76,0.8-3.74c0.53-0.98,1.22-1.76,2.06-2.34c0.84-0.58,1.8-1.02,2.88-1.31c1.08-0.29,2.17-0.52,3.27-0.7
		c1.1-0.17,2.18-0.31,3.25-0.41c1.06-0.1,2.01-0.26,2.83-0.46s1.48-0.51,1.96-0.9c0.48-0.39,0.7-0.97,0.67-1.73
		c0-0.79-0.13-1.42-0.39-1.88c-0.26-0.46-0.6-0.82-1.03-1.08c-0.43-0.26-0.93-0.43-1.49-0.51c-0.57-0.09-1.18-0.13-1.83-0.13
		c-1.44,0-2.58,0.31-3.4,0.93c-0.82,0.62-1.31,1.65-1.44,3.09H84.14z M101.04,423.59c-0.31,0.28-0.7,0.49-1.16,0.64
		s-0.96,0.28-1.49,0.39c-0.53,0.1-1.09,0.19-1.67,0.26c-0.58,0.07-1.17,0.16-1.75,0.26c-0.55,0.1-1.09,0.24-1.62,0.41
		c-0.53,0.17-1,0.4-1.39,0.7c-0.4,0.29-0.71,0.66-0.95,1.11c-0.24,0.45-0.36,1.01-0.36,1.7c0,0.65,0.12,1.2,0.36,1.65
		c0.24,0.45,0.57,0.8,0.98,1.06s0.89,0.44,1.44,0.54c0.55,0.1,1.12,0.15,1.7,0.15c1.44,0,2.56-0.24,3.35-0.72
		c0.79-0.48,1.37-1.06,1.75-1.73c0.38-0.67,0.61-1.35,0.7-2.03c0.09-0.69,0.13-1.24,0.13-1.65V423.59z"/>
	<path d="M132.93,433.22c-0.86,1.44-1.98,2.48-3.37,3.12s-2.96,0.95-4.71,0.95c-1.99,0-3.74-0.39-5.25-1.16
		c-1.51-0.77-2.76-1.82-3.73-3.14c-0.98-1.32-1.72-2.84-2.22-4.56c-0.5-1.72-0.75-3.5-0.75-5.36c0-1.79,0.25-3.51,0.75-5.18
		c0.5-1.67,1.24-3.13,2.22-4.4c0.98-1.27,2.21-2.29,3.68-3.07c1.48-0.77,3.19-1.16,5.15-1.16c1.58,0,3.08,0.33,4.51,1
		c1.42,0.67,2.55,1.66,3.37,2.96h0.1v-13.39h7.32v36.78h-6.95v-3.4H132.93z M132.62,420.06c-0.21-1.01-0.56-1.91-1.06-2.68
		c-0.5-0.77-1.14-1.4-1.93-1.88c-0.79-0.48-1.79-0.72-2.99-0.72c-1.2,0-2.22,0.24-3.04,0.72c-0.82,0.48-1.49,1.12-1.98,1.91
		c-0.5,0.79-0.86,1.69-1.08,2.71c-0.22,1.01-0.33,2.07-0.33,3.17c0,1.03,0.12,2.06,0.36,3.09c0.24,1.03,0.63,1.95,1.16,2.76
		c0.53,0.81,1.2,1.46,2.01,1.96c0.81,0.5,1.78,0.75,2.91,0.75c1.2,0,2.21-0.24,3.01-0.72c0.81-0.48,1.45-1.12,1.93-1.93
		c0.48-0.81,0.82-1.73,1.03-2.76s0.31-2.09,0.31-3.19C132.93,422.13,132.83,421.08,132.62,420.06z"/>
	<path d="M145.19,418.18c0.1-1.72,0.53-3.14,1.29-4.28c0.75-1.13,1.72-2.04,2.88-2.73c1.17-0.69,2.48-1.18,3.94-1.47
		c1.46-0.29,2.93-0.44,4.4-0.44c1.34,0,2.7,0.1,4.07,0.28c1.37,0.19,2.63,0.56,3.76,1.11c1.13,0.55,2.06,1.31,2.78,2.29
		c0.72,0.98,1.08,2.28,1.08,3.89v13.86c0,1.2,0.07,2.35,0.21,3.45c0.14,1.1,0.38,1.92,0.72,2.47h-7.42
		c-0.14-0.41-0.25-0.83-0.33-1.26c-0.09-0.43-0.15-0.87-0.18-1.31c-1.17,1.2-2.54,2.04-4.12,2.52c-1.58,0.48-3.19,0.72-4.84,0.72
		c-1.27,0-2.46-0.15-3.55-0.46c-1.1-0.31-2.06-0.79-2.88-1.44s-1.47-1.48-1.93-2.47c-0.46-1-0.7-2.18-0.7-3.55
		c0-1.51,0.27-2.76,0.8-3.74c0.53-0.98,1.22-1.76,2.06-2.34c0.84-0.58,1.8-1.02,2.88-1.31c1.08-0.29,2.17-0.52,3.27-0.7
		c1.1-0.17,2.18-0.31,3.25-0.41c1.06-0.1,2.01-0.26,2.83-0.46s1.48-0.51,1.96-0.9c0.48-0.39,0.7-0.97,0.67-1.73
		c0-0.79-0.13-1.42-0.39-1.88c-0.26-0.46-0.6-0.82-1.03-1.08c-0.43-0.26-0.93-0.43-1.49-0.51c-0.57-0.09-1.18-0.13-1.83-0.13
		c-1.44,0-2.58,0.31-3.4,0.93c-0.82,0.62-1.31,1.65-1.44,3.09H145.19z M162.09,423.59c-0.31,0.28-0.7,0.49-1.16,0.64
		s-0.96,0.28-1.49,0.39c-0.53,0.1-1.09,0.19-1.67,0.26c-0.58,0.07-1.17,0.16-1.75,0.26c-0.55,0.1-1.09,0.24-1.62,0.41
		c-0.53,0.17-1,0.4-1.39,0.7c-0.4,0.29-0.71,0.66-0.95,1.11c-0.24,0.45-0.36,1.01-0.36,1.7c0,0.65,0.12,1.2,0.36,1.65
		c0.24,0.45,0.57,0.8,0.98,1.06s0.89,0.44,1.44,0.54c0.55,0.1,1.12,0.15,1.7,0.15c1.44,0,2.56-0.24,3.35-0.72
		c0.79-0.48,1.37-1.06,1.75-1.73c0.38-0.67,0.61-1.35,0.7-2.03c0.09-0.69,0.13-1.24,0.13-1.65V423.59z"/>
</g>
<g>
	<path class="st0" d="M124.8,384.64h-15.78H61.5c-19.54,0-35.37-15.84-35.37-35.37v-66.76h70.11c15.78,0,28.57,12.79,28.57,28.57
		V384.64z"/>
	<path class="st1" d="M26.13,336.51c9.6,0,18.46-0.04,27.32,0.06c0.87,0.01,2,0.79,2.53,1.37c6.1,6.67,12.11,13.37,18.14,20.07
		c0.36,0.4,0.76,0.8,1.35,1.42c4.21-4.14,8.23-8.09,12.25-12.04c3.12-3.07,6.2-6.17,9.4-9.21c0.56-0.53,1.65-1.2,2.52-1.21
		c8.09-0.09,16.18-0.05,25.16-0.05c-16.61,15.57-32.73,30.68-49.09,46.01C59.17,367.45,42.85,352.17,26.13,336.51z"/>
	<path class="st1" d="M124.8,329.27c-9.6,0-18.46,0.04-27.32-0.06c-0.87-0.01-2-0.79-2.53-1.37c-6.1-6.67-12.11-13.37-18.14-20.07
		c-0.36-0.4-0.76-0.8-1.35-1.42c-4.21,4.14-8.23,8.09-12.25,12.04c-3.12,3.07-6.2,6.17-9.4,9.21c-0.56,0.53-1.65,1.2-2.52,1.21
		c-8.09,0.09-16.18,0.05-25.16,0.05c16.61-15.57,32.73-30.68,49.09-46.01C91.76,298.34,108.07,313.61,124.8,329.27z"/>
</g>
<g>
	<g>
		<g>
			<path d="M-13.31,459.86c-1.09,4.69-3.44,8.2-6.21,10.06c-0.45-0.57-1.52-1.61-2.18-2.02c2.13-1.27,3.92-3.49,4.96-6.16h-4.4
				v-2.54h5.53l0.48-0.11L-13.31,459.86z M-1.03,458.32c-1.7,1.54-3.78,3.24-5.51,4.4c1.59,2.17,3.65,3.85,6.3,4.89
				c-0.63,0.52-1.47,1.63-1.88,2.36c-3.29-1.47-5.62-3.9-7.32-7v5.19c0,1.47-0.29,2.2-1.27,2.65c-0.93,0.43-2.31,0.45-4.21,0.45
				c-0.11-0.77-0.54-1.97-0.91-2.7c1.13,0.07,2.54,0.07,2.95,0.05c0.41-0.02,0.54-0.14,0.54-0.5V457.3H-18v-2.58h8.41
				c-1.93-0.86-4.55-1.75-6.64-2.29l1.34-2.2c2.63,0.57,6.41,1.77,8.34,2.76L-8,455.51c-0.39-0.23-0.88-0.48-1.43-0.72v1.88
				c0.43,1.43,0.97,2.76,1.61,3.99c1.54-1.22,3.24-2.81,4.33-4.17L-1.03,458.32z"/>
		</g>
		<g>
			<path d="M14.23,451.02c-0.57,1.54-1.27,3.13-2.08,4.65v15.63H9.47v-11.42c-0.43,0.59-0.88,1.11-1.31,1.59
				c-0.25-0.63-1-2.11-1.45-2.76c1.99-2.04,3.9-5.23,4.99-8.47L14.23,451.02z M28.1,467.99v2.58H13.03v-2.58h6.23v-2.72h-4.98v-2.56
				h4.98v-1.99H22v1.99h5.12v2.56H22v2.72H28.1z M19.26,455.17h-4.53v-2.52h4.53v-2.51H22v2.51h4.67v2.52H22v2.36h5.69v2.54h-14
				v-2.54h5.57V455.17z"/>
		</g>
		<g>
			<path d="M42.61,462.05c-0.73,0.23-1.45,0.45-2.18,0.66v5.73c0,1.25-0.2,1.93-0.88,2.36c-0.7,0.43-1.65,0.52-3.15,0.5
				c-0.07-0.66-0.36-1.77-0.68-2.49c0.82,0.05,1.61,0.05,1.88,0.02c0.27,0,0.39-0.09,0.39-0.39v-5.01c-0.75,0.23-1.5,0.43-2.15,0.61
				l-0.59-2.58c0.77-0.16,1.72-0.41,2.74-0.66v-3.92h-2.38v-2.47h2.38v-4.26h2.45v4.26h2.06v2.47h-2.06v3.26l1.84-0.52L42.61,462.05
				z M50.52,468.69c0.61,0.07,1.25,0.09,1.9,0.09c0.7,0,3.4,0,4.33-0.04c-0.34,0.57-0.66,1.65-0.75,2.31h-3.76
				c-3.13,0-5.57-0.54-7.3-2.67c-0.52,1.2-1.18,2.22-1.99,3.01c-0.41-0.41-1.47-1.13-2.04-1.47c1.63-1.43,2.45-3.76,2.79-6.41
				l2.45,0.32c-0.11,0.72-0.23,1.43-0.41,2.11c0.59,1.02,1.36,1.68,2.29,2.11v-4.85h-4.24v-1.99h4.24v-1.16h-5.55v-2.08h5.55v-1.04
				h-4.24v-2.02h4.24v-0.95h-5.19v-2.11h5.19v-1.7h2.49v1.7h5.69v2.11h-5.69v0.95h4.8v3.06h1.4v2.08h-1.4v3.15h-4.8v1.31h4.96v2.11
				h-4.96V468.69z M50.52,457.95h2.31v-1.04h-2.31V457.95z M50.52,461.19h2.31v-1.16h-2.31V461.19z"/>
		</g>
		<g>
			<path d="M72.75,461.4c-0.63-0.57-1.9-1.5-2.92-2.2c-0.82,1.16-2.13,2.31-4.17,3.26c-0.36-0.54-1.11-1.38-1.7-1.81
				c2.31-0.91,3.47-2.02,4.03-3.15h-3.76v-2.11h1.52c-0.54-0.34-1.27-0.75-1.72-0.97c1.16-1.09,2.04-2.74,2.49-4.42l2.38,0.5
				c-0.14,0.43-0.27,0.88-0.45,1.34h5.62v2.08h-2.95v1.02c0,0.16,0,0.29-0.02,0.45h3.49v2.11h-3.74c0.95,0.5,3.22,1.79,3.81,2.17
				L72.75,461.4z M68.54,455.39c0.02-0.18,0.02-0.34,0.02-0.5v-0.97h-1.13c-0.32,0.54-0.68,1.04-1.04,1.47H68.54z M67.25,461.74
				h14.77v9.54h-2.76v-0.72H69.9v0.75h-2.65V461.74z M69.9,463.85v1.27h9.36v-1.27H69.9z M79.26,468.4v-1.34H69.9v1.34H79.26z
				 M83.97,451.79v8.59h-8.61v-8.59H83.97z M81.3,454.17h-3.44V458h3.44V454.17z"/>
		</g>
		<g>
			<path d="M102.47,468.81c0,1.11-0.2,1.68-0.95,2.04c-0.73,0.34-1.75,0.38-3.13,0.38c-0.11-0.63-0.48-1.52-0.82-2.11
				c0.82,0.05,1.7,0.05,1.97,0.05c0.29,0,0.39-0.09,0.39-0.39v-2.31c-1.13,0.82-2.27,1.59-3.29,2.24l-0.57-1.59
				c-0.25,1.54-0.75,3.08-1.61,4.26c-0.39-0.52-1.4-1.5-1.88-1.81c1.2-1.77,1.29-4.26,1.29-6.23v-5.1h8.59V468.81z M101.2,451.81
				c0.95,1.63,2.15,3.85,2.7,5.21l-2.36,0.95c-0.14-0.41-0.34-0.88-0.57-1.43c-5.73,0.57-6.66,0.7-7.32,0.97
				c-0.14-0.52-0.57-1.74-0.84-2.42c0.41-0.09,0.79-0.41,1.25-0.91c0.45-0.5,1.84-2.24,2.67-4.03l2.72,0.77
				c-0.77,1.31-1.79,2.63-2.79,3.76l3.31-0.25c-0.34-0.66-0.66-1.29-0.95-1.84L101.2,451.81z M96.37,463.37
				c0,0.86-0.05,1.88-0.16,2.9c1.02-0.45,2.36-1.13,3.72-1.86v-0.75l-1.09,1.07c-0.57-0.59-1.61-1.47-2.47-2.18V463.37z
				 M96.37,460.51v1.61l1.13-0.97c0.77,0.54,1.74,1.34,2.42,1.93v-2.56H96.37z M107.57,460.13c-2.72,0-3.44-1-3.44-3.51v-6.44h2.67
				v2.67h5.57v2.31h-5.57v1.5c0,0.84,0.14,1.16,0.86,1.16h3.31c0.63,0,1.59-0.07,2.08-0.18c0.05,0.7,0.16,1.68,0.25,2.29
				c-0.48,0.16-1.43,0.2-2.29,0.2H107.57z M110.42,468.78c0.77,0,0.93-0.38,1.04-2.47c0.54,0.41,1.63,0.82,2.33,0.97
				c-0.27,2.97-0.97,3.85-3.13,3.85h-3.22c-2.67,0-3.33-0.79-3.33-3.26v-7.12h2.67v2.27h5.73v2.38h-5.73v2.47
				c0,0.79,0.16,0.91,1.06,0.91H110.42z"/>
		</g>
		<g>
			<path d="M124.09,458.72h-2.47v-5.1h8.56v-0.91h-7.55v-1.77h17.77v1.77h-7.59v0.91h8.75v5.1h-2.61l-0.48,1.61
				c-1.2-0.43-3.53-0.97-5.23-1.25l0.52-1.52c1.61,0.18,3.85,0.66,5.1,1.06v-3.24h-1.22l0.82,1.16c-1.2,0.5-2.86,0.86-4.03,1.09
				l-0.84-1.27c0.88-0.2,2.15-0.61,3.1-0.97h-3.88v4.71h-2.63v-4.71h-4.33c1.22,0.23,2.67,0.61,3.53,0.93l-0.73,1.45
				c-0.91-0.36-2.61-0.84-3.9-1.11l0.63-1.27h-1.22v3.1c1.38-0.16,3.29-0.43,5.23-0.73l0.09,1.54c-1.7,0.39-3.38,0.77-4.8,1.09
				L124.09,458.72z M138.55,468.94c1.16,0,1.36-0.34,1.52-2.24c0.52,0.36,1.54,0.7,2.24,0.84c-0.32,2.72-1.06,3.44-3.54,3.44h-4.76
				c-3.08,0-3.97-0.63-3.97-2.99v-0.07h-3.76v0.97h-2.58v-8.23h15.7v7.25h-6.78v0.07c0,0.82,0.27,0.95,1.63,0.95H138.55z
				 M126.29,462.49v1.02h3.76v-1.02H126.29z M130.05,466.11v-1.02h-3.76v1.02H130.05z M136.74,462.49h-4.1v1.02h4.1V462.49z
				 M136.74,466.11v-1.02h-4.1v1.02H136.74z"/>
		</g>
		<g>
			<path d="M156.14,463.39c-0.23-0.61-0.63-1.52-1.06-2.4v10.29h-2.45v-8.7c-0.61,1.81-1.31,3.47-2.08,4.65
				c-0.27-0.77-0.86-1.99-1.29-2.72c1.36-1.77,2.56-4.96,3.22-7.66h-2.76v-2.49h2.92v-4.21h2.45v4.21h2.22v2.49h-2.22v0.73
				c0.63,0.86,2.27,3.4,2.63,4.03L156.14,463.39z M170.37,461.94c0,0-0.02,0.61-0.05,0.91c-0.14,3.6-0.29,5.3-0.77,5.89
				c-0.39,0.48-0.73,0.66-1.27,0.77c-0.45,0.09-1.18,0.14-1.99,0.11c-0.02-0.79-0.25-1.81-0.59-2.47c0.54,0.05,1,0.07,1.25,0.07
				c0.27,0,0.41-0.07,0.57-0.25c0.18-0.25,0.29-1,0.39-2.83h-2.74v7.12h-2.54v-4.71c-1.29,1.65-2.92,3.06-4.62,3.92
				c-0.39-0.59-1.16-1.5-1.68-1.99c2.06-0.88,4.01-2.51,5.32-4.33h-3.76c0.29-1.65,0.61-4.17,0.77-6.19h3.97v-1.93h-4.69v-2.22h2.56
				c-0.32-0.88-0.86-1.93-1.38-2.76l2.11-0.84c0.73,0.97,1.41,2.33,1.7,3.24l-0.82,0.36h2.95c0.57-1.09,1.2-2.56,1.52-3.65l2.61,0.7
				c-0.5,1.02-1.04,2.06-1.54,2.95h2.2v6.37h-4.67v1.77H170.37z M160.76,460.17c-0.07,0.61-0.14,1.2-0.23,1.77h2.08v-1.77H160.76z
				 M165.16,457.95h2.22v-1.93h-2.22V457.95z"/>
		</g>
	</g>
</g>
<g>
	<g>
		<g>
			<path d="M352.13,79.44c-1.09,4.69-3.44,8.2-6.21,10.06c-0.45-0.57-1.52-1.61-2.18-2.02c2.13-1.27,3.92-3.49,4.96-6.16h-4.4v-2.54
				h5.53l0.48-0.11L352.13,79.44z M364.41,77.9c-1.7,1.54-3.78,3.24-5.51,4.4c1.59,2.18,3.65,3.85,6.3,4.89
				c-0.63,0.52-1.47,1.63-1.88,2.36c-3.29-1.47-5.62-3.9-7.32-7v5.19c0,1.47-0.29,2.2-1.27,2.65c-0.93,0.43-2.31,0.45-4.21,0.45
				c-0.11-0.77-0.54-1.97-0.91-2.7c1.13,0.07,2.54,0.07,2.95,0.05c0.41-0.02,0.54-0.14,0.54-0.5V76.88h-5.66v-2.58h8.41
				c-1.93-0.86-4.55-1.74-6.64-2.29l1.34-2.2c2.63,0.57,6.41,1.77,8.34,2.76l-1.45,2.52c-0.39-0.23-0.88-0.48-1.43-0.73v1.88
				c0.43,1.43,0.97,2.76,1.61,3.99c1.54-1.22,3.24-2.81,4.33-4.17L364.41,77.9z"/>
		</g>
		<g>
			<path d="M381.3,70.6c-0.57,1.54-1.27,3.13-2.09,4.65v15.63h-2.67V79.46c-0.43,0.59-0.88,1.11-1.31,1.59
				c-0.25-0.63-1-2.11-1.45-2.76c1.99-2.04,3.9-5.23,4.99-8.47L381.3,70.6z M395.17,87.57v2.58H380.1v-2.58h6.23v-2.72h-4.98v-2.56
				h4.98V80.3h2.74v1.99h5.12v2.56h-5.12v2.72H395.17z M386.33,74.75h-4.53v-2.52h4.53v-2.52h2.74v2.52h4.67v2.52h-4.67v2.36h5.69
				v2.54h-14V77.1h5.57V74.75z"/>
		</g>
		<g>
			<path d="M411.31,81.64c-0.73,0.23-1.45,0.45-2.18,0.66v5.73c0,1.25-0.2,1.93-0.88,2.36c-0.7,0.43-1.65,0.52-3.15,0.5
				c-0.07-0.66-0.36-1.77-0.68-2.49c0.82,0.04,1.61,0.04,1.88,0.02c0.27,0,0.38-0.09,0.38-0.39v-5.01c-0.75,0.23-1.5,0.43-2.15,0.61
				l-0.59-2.58c0.77-0.16,1.72-0.41,2.74-0.66v-3.92h-2.38V74h2.38v-4.26h2.45V74h2.06v2.47h-2.06v3.26l1.84-0.52L411.31,81.64z
				 M419.22,88.27c0.61,0.07,1.25,0.09,1.9,0.09c0.7,0,3.4,0,4.33-0.05c-0.34,0.57-0.66,1.65-0.75,2.31h-3.76
				c-3.13,0-5.57-0.54-7.3-2.67c-0.52,1.2-1.18,2.22-1.99,3.01c-0.41-0.41-1.47-1.13-2.04-1.47c1.63-1.43,2.45-3.76,2.79-6.41
				l2.45,0.32c-0.11,0.73-0.23,1.43-0.41,2.11c0.59,1.02,1.36,1.68,2.29,2.11v-4.85h-4.24v-1.99h4.24v-1.16h-5.55v-2.08h5.55v-1.04
				h-4.24v-2.02h4.24v-0.95h-5.19v-2.11h5.19v-1.7h2.49v1.7h5.69v2.11h-5.69v0.95h4.8v3.06h1.4v2.08h-1.4v3.15h-4.8v1.31h4.96v2.11
				h-4.96V88.27z M419.22,77.53h2.31v-1.04h-2.31V77.53z M419.22,80.77h2.31v-1.16h-2.31V80.77z"/>
		</g>
		<g>
			<path d="M441.75,84.17c-0.27-0.63-0.82-1.59-1.36-2.49v9.2h-2.61v-8.16c-0.75,1.74-1.59,3.35-2.47,4.49
				c-0.25-0.77-0.84-1.88-1.25-2.56c1.27-1.45,2.54-3.88,3.35-6.07h-3.06v-2.52h3.42V73.5c-0.88,0.14-1.72,0.27-2.56,0.36
				c-0.09-0.61-0.43-1.5-0.72-2.08c2.58-0.41,5.42-1.09,7.3-1.86l1.52,2.2c-0.88,0.34-1.88,0.61-2.92,0.84v3.1h2.99v2.52h-2.99v0.18
				c0.66,0.63,2.52,2.76,2.95,3.29L441.75,84.17z M452.92,85.15v5.71h-2.65v-5.23l-6.84,1.18L443,84.24l7.27-1.25V69.72h2.65v12.83
				l2.24-0.39l0.43,2.52L452.92,85.15z M447.23,82c-0.7-1-2.29-2.45-3.6-3.47l1.72-1.54c1.29,0.91,2.97,2.31,3.72,3.29L447.23,82z
				 M447.82,76.02c-0.63-0.97-2.11-2.42-3.38-3.4l1.77-1.54c1.22,0.93,2.81,2.27,3.49,3.26L447.82,76.02z"/>
		</g>
		<g>
			<path d="M472.35,81.82c-0.79,0.23-1.61,0.45-2.42,0.66v5.42c0,1.31-0.25,1.95-1.02,2.38c-0.75,0.41-1.84,0.48-3.44,0.48
				c-0.09-0.68-0.43-1.74-0.75-2.45c0.88,0.02,1.81,0.02,2.11,0.02c0.32,0,0.43-0.11,0.43-0.45V83.2l-2.2,0.54l-0.7-2.56
				c0.84-0.18,1.81-0.38,2.9-0.66v-4.01h-2.61v-2.49h2.61v-4.28h2.67v4.28h2.22v2.49h-2.22v3.35l2.08-0.52L472.35,81.82z
				 M484.9,78.76c-0.86,3.13-2.31,5.62-4.24,7.52c1.5,1.04,3.24,1.79,5.26,2.29c-0.57,0.54-1.34,1.63-1.72,2.33
				c-2.2-0.66-4.06-1.61-5.64-2.85c-1.77,1.22-3.76,2.13-5.98,2.79c-0.29-0.73-0.93-1.86-1.43-2.45c1.99-0.48,3.83-1.2,5.42-2.22
				c-1.31-1.52-2.38-3.31-3.22-5.39l0.68-0.2h-1.18v-2.42h4.46v-2.72h-4.87v-2.49h4.87v-3.24h2.67v3.24h5.08v2.49h-5.08v2.72h2.72
				l0.48-0.11L484.9,78.76z M475.97,80.57c0.63,1.5,1.54,2.85,2.67,4.01c1.18-1.11,2.18-2.47,2.86-4.01H475.97z"/>
		</g>
	</g>
</g>
<g>
	<g>
		<g>
			<path d="M273.72,109.72c0.11,0.05,0.17,0.1,0.17,0.16c0,0.12-0.1,0.22-0.29,0.29c-0.32,0.71-0.62,1.33-0.9,1.85v8.17h-1.09v-6.39
				c-0.3,0.44-0.63,0.9-1,1.36l-0.8-0.82c0.66-0.78,1.2-1.56,1.67-2.36c0.43-0.73,0.85-1.63,1.28-2.72L273.72,109.72z
				 M280.76,111.69v1h-3.09v2.42h2.71v1h-2.71v2.56h3.33v1h-7.79v-1h3.38v-2.56h-2.71v-1h2.71v-2.42h-3.04v-1H280.76z M278.2,110.64
				l-0.9,0.8c-0.5-0.51-0.98-0.92-1.47-1.24l0.8-0.75C277.17,109.78,277.69,110.18,278.2,110.64z"/>
		</g>
		<g>
			<path d="M299.2,109.29c0.18,0.02,0.28,0.07,0.28,0.16c0,0.06-0.06,0.16-0.18,0.28v0.57h4.22v0.9h-1.99l-0.5,1.52h2.26v6.27
				c0,0.54-0.26,0.88-0.77,1.05c-0.4,0.12-0.79,0.19-1.18,0.19l-0.41-1.05h-3.15v0.43h-1v-3.28h4.17v2.81l0.85-0.03
				c0.26-0.01,0.39-0.16,0.39-0.45v-4.98h-2.14v1.08c0,0.29,0.11,0.44,0.33,0.44h0.39c0.1,0,0.18-0.04,0.23-0.11
				c0.05-0.05,0.1-0.26,0.15-0.61l0.95,0.28c-0.08,0.53-0.22,0.88-0.39,1.02c-0.18,0.18-0.41,0.27-0.71,0.27h-0.8
				c-0.73,0-1.09-0.26-1.09-0.77v-1.6h-0.85c-0.05,0.46-0.15,0.83-0.28,1.12c-0.19,0.4-0.43,0.72-0.68,0.96
				c-0.27,0.24-0.63,0.48-1.08,0.67l-0.72-0.56v4.32h-1.09v-7.46h2.26c-0.12-0.54-0.26-1.05-0.4-1.52h-2.09v-0.9h4.03v-1.09
				L299.2,109.29z M296.4,115.2c0.27-0.19,0.48-0.44,0.64-0.73c0.11-0.22,0.19-0.48,0.24-0.79h-1.79v1.98
				C295.9,115.51,296.2,115.37,296.4,115.2z M299.93,112.72l0.49-1.52h-3.1c0.16,0.53,0.28,1.05,0.38,1.52H299.93z M299.96,118.27
				v-1.03h-2.17v1.03H299.96z"/>
		</g>
		<g>
			<path d="M316.88,120.13l-0.83-0.23l2.43-9.64l0.8,0.24L316.88,120.13z"/>
		</g>
		<g>
			<path d="M336.98,109.78v3.9h-2.89c-0.02,0.41-0.06,0.79-0.1,1.13h3.37c0,2.04-0.1,3.33-0.28,3.85c-0.11,0.51-0.35,0.88-0.72,1.07
				c-0.39,0.19-1.06,0.3-1.99,0.3l-0.52-1.09c1,0,1.59-0.05,1.79-0.17c0.17-0.07,0.32-0.28,0.43-0.61c0.13-0.32,0.22-1.09,0.24-2.36
				h-2.46c-0.12,0.68-0.28,1.28-0.45,1.81c-0.32,0.92-0.79,1.74-1.45,2.47l-0.96-0.67c0.64-0.67,1.12-1.42,1.42-2.25
				c0.3-0.79,0.51-1.96,0.63-3.49h-1.29v-3.9H336.98z M335.93,110.77h-3.14v1.91h3.14V110.77z M339.26,111.05
				c0.18,0.01,0.28,0.06,0.28,0.15c0,0.06-0.07,0.15-0.19,0.24v5.93h-1.05v-6.4L339.26,111.05z M341.75,109.58
				c0.13,0.03,0.21,0.07,0.21,0.15c0,0.1-0.1,0.22-0.29,0.34v8.69c0,0.47-0.16,0.83-0.47,1.06c-0.27,0.24-0.92,0.37-1.99,0.37
				l-0.42-1.09h1.15c0.4,0,0.62-0.17,0.64-0.52v-9.12L341.75,109.58z"/>
		</g>
		<g>
			<path d="M359.21,117.04v-1.14l1,0.08c0.18,0.01,0.28,0.06,0.28,0.16c0,0.06-0.07,0.16-0.19,0.28v0.62h3.85v1h-3.85v0.95h4.9v1
				h-10.88v-1h4.9v-0.95h-3.76v-1H359.21z M359.49,109.5v3.51h-1.94v0.62h1.94v0.8h-1.94v0.68c0.66-0.06,1.31-0.13,1.94-0.21v0.85
				c-0.94,0.15-2.41,0.32-4.41,0.52c-0.08,0.14-0.17,0.2-0.24,0.2c-0.07,0-0.11-0.05-0.11-0.16l-0.22-0.98
				c0.69-0.02,1.37-0.07,2.04-0.13v-0.77h-1.86v-0.8h1.86v-0.62h-1.94v-3.51H359.49z M356.55,110.87v-0.62h-0.95v0.62H356.55z
				 M356.55,111.59h-0.95v0.66h0.95V111.59z M357.54,110.87h0.95v-0.62h-0.95V110.87z M358.49,111.59h-0.95v0.66h0.95V111.59z
				 M364.14,109.58l0.51,0.34c0.07,0.05,0.11,0.1,0.11,0.15c0,0.1-0.08,0.18-0.24,0.28l-1.75,1.63c0.07,0.08,0.16,0.16,0.23,0.22
				h1.33l0.24-0.09c0.09,0,0.17,0.04,0.24,0.09l0.51,0.34c0.06,0.05,0.1,0.1,0.1,0.15c0,0.1-0.09,0.18-0.23,0.28l-1.09,1.57
				l-0.82-0.29l0.72-1.18h-1.33v2.17c0,0.41-0.12,0.71-0.34,0.9c-0.18,0.19-0.64,0.29-1.37,0.29l-0.43-1.05h0.69
				c0.24,0,0.38-0.11,0.4-0.33v-1.99h-1.9v-0.86h1.82c-0.29-0.27-0.58-0.52-0.88-0.75l0.71-0.57c0.27,0.17,0.52,0.37,0.77,0.57
				l0.9-1h-3.09v-0.85h3.71l0.23-0.1C363.98,109.5,364.07,109.53,364.14,109.58z"/>
		</g>
		<g>
			<path d="M377.78,120.13l-0.83-0.23l2.43-9.64l0.8,0.24L377.78,120.13z"/>
		</g>
		<g>
			<path d="M394.37,113.81l-0.72,0.77c-0.57-0.52-1.19-1-1.85-1.42l0.75-0.77C393.26,112.84,393.87,113.31,394.37,113.81z
				 M395.17,116.52c-0.64,1.12-1.32,2.16-2.04,3.14c0,0.28-0.1,0.42-0.28,0.42l-0.96-0.8c0.97-1.07,1.83-2.27,2.61-3.61
				L395.17,116.52z M395.17,110.59l-0.72,0.75c-0.58-0.46-1.22-0.89-1.9-1.28l0.77-0.77C394.05,109.72,394.66,110.14,395.17,110.59z
				 M397.9,112.06c0.04-0.78,0.06-1.71,0.06-2.81l1.11,0.13c0.15,0.01,0.23,0.05,0.23,0.11s-0.1,0.16-0.29,0.28
				c-0.01,0.86-0.03,1.63-0.05,2.28h3.51v1.05h-3.27c0.29,1.4,0.71,2.51,1.25,3.34c0.51,0.92,1.4,1.87,2.64,2.83l-1.05,0.8
				c-0.74-0.78-1.35-1.47-1.83-2.13c-0.52-0.76-0.92-1.52-1.2-2.27c-0.12-0.27-0.23-0.57-0.33-0.91c-0.02,0.1-0.04,0.17-0.05,0.23
				c-0.24,0.96-0.58,1.8-1.02,2.52c0.62,0.45,1.22,0.96,1.79,1.52l-0.86,0.75c-0.52-0.56-1.03-1.03-1.52-1.42
				c-0.51,0.63-1.12,1.2-1.8,1.71l-0.95-0.8c0.97-0.58,1.76-1.31,2.37-2.2c0.51-0.75,0.86-1.69,1.07-2.82
				c0.05-0.3,0.1-0.69,0.14-1.15h-2.97v-1.05H397.9z"/>
		</g>
		<g>
			<path d="M419.77,110.25v3.55c0.58-0.67,1.02-1.37,1.33-2.1c0.23-0.51,0.45-1.35,0.67-2.49l1.18,0.19
				c0.13,0.05,0.21,0.11,0.21,0.19c0,0.1-0.12,0.19-0.34,0.28c-0.1,0.39-0.18,0.74-0.26,1.05h3.63v1.05h-0.72
				c-0.02,1.65-0.17,2.89-0.42,3.71c-0.19,0.74-0.48,1.41-0.86,1.99c0.55,0.58,1.24,1.14,2.09,1.7l-0.85,0.91
				c-0.78-0.57-1.41-1.14-1.92-1.73c-0.62,0.66-1.45,1.24-2.49,1.76l-1-1c1.11-0.36,1.94-0.83,2.5-1.41
				c0.1-0.09,0.19-0.17,0.27-0.27c-0.11-0.15-0.21-0.3-0.28-0.46c-0.51-0.85-0.88-2.05-1.09-3.63c-0.23,0.37-0.49,0.72-0.78,1.08
				l-0.86-0.73v0.58h-3.18v3.71c0,0.32,0.12,0.47,0.39,0.47h1.75c0.17,0,0.29-0.07,0.39-0.23c0.07-0.12,0.16-0.57,0.23-1.34
				l1.09,0.33c-0.11,0.92-0.28,1.52-0.51,1.79c-0.24,0.29-0.55,0.45-0.91,0.45h-2.28c-0.83,0-1.23-0.3-1.23-0.9v-5.28h3.17v-2.24
				h-3.32v-1H419.77z M422.34,113.24c0.16,1.47,0.51,2.61,1.06,3.43c0.01,0.03,0.03,0.05,0.04,0.06c0.12-0.22,0.23-0.46,0.33-0.7
				c0.38-0.9,0.58-2.26,0.62-4.06h-2.15c-0.06,0.16-0.12,0.29-0.17,0.41c-0.15,0.32-0.3,0.63-0.5,0.95L422.34,113.24z"/>
		</g>
		<g>
			<path d="M438.69,120.13l-0.83-0.23l2.43-9.64l0.8,0.24L438.69,120.13z"/>
		</g>
		<g>
			<path d="M455.76,109.67c0.11,0.06,0.17,0.11,0.17,0.16c0,0.1-0.06,0.17-0.18,0.24l-1.31,1.63c0.24,0.18,0.49,0.36,0.73,0.53
				l0.82-1.26l0.78,0.51c0.07,0.05,0.12,0.12,0.12,0.21c0,0.07-0.09,0.11-0.23,0.13l-2.01,2.89c0.46-0.05,0.92-0.11,1.37-0.18
				c-0.1-0.24-0.21-0.49-0.32-0.72l0.74-0.15c1.01-1.39,1.76-2.86,2.25-4.41l1.05,0.24c0.15,0.02,0.23,0.07,0.23,0.15
				c0,0.11-0.11,0.21-0.33,0.28c-0.19,0.5-0.4,0.99-0.62,1.46v0.11h1.69l0.83-1.9l0.94,0.19c0.17,0.03,0.26,0.09,0.26,0.18
				c0,0.1-0.1,0.18-0.29,0.28l-0.58,1.24h1.92v0.95h-2.04v1.42h1.8v0.9h-1.8v1.43h1.8v0.9h-1.8v1.42h2.04v0.95h-4.75v0.72h-1.05
				v-6.84c-0.2,0.32-0.38,0.61-0.57,0.9l-0.68-0.35c0.32,0.66,0.53,1.29,0.68,1.87l-0.9,0.19c-0.06-0.19-0.12-0.4-0.18-0.61
				c-0.18,0.04-0.38,0.07-0.57,0.1v4.74h-1.05v-4.56c-0.44,0.07-0.91,0.16-1.43,0.23c-0.07,0.13-0.16,0.19-0.23,0.19
				c-0.07,0-0.11-0.05-0.11-0.16l-0.22-0.98c0.27-0.02,0.52-0.05,0.78-0.07l1.18-1.83c-0.66-0.52-1.26-0.97-1.82-1.36l0.52-0.67
				c0.12,0.07,0.23,0.15,0.33,0.21l1.29-1.92L455.76,109.67z M454.42,116.68c0.08,0.01,0.13,0.05,0.13,0.12
				c0,0.1-0.07,0.19-0.19,0.29c-0.17,0.97-0.39,1.81-0.66,2.52l-0.96-0.33c0.17-0.34,0.3-0.71,0.42-1.12
				c0.15-0.51,0.26-1.09,0.34-1.74L454.42,116.68z M457.64,119.18l-0.95,0.18c-0.19-1-0.44-1.91-0.72-2.75l0.95-0.19
				C457.25,117.39,457.5,118.31,457.64,119.18z M460.73,112.44h-1.71v1.42h1.71V112.44z M460.73,114.76h-1.71v1.43h1.71V114.76z
				 M460.73,118.52v-1.42h-1.71v1.42H460.73z"/>
		</g>
		<g>
			<path d="M479.56,109.81c0.11,0.05,0.17,0.1,0.17,0.16c0,0.12-0.1,0.22-0.28,0.28c-0.31,0.79-0.6,1.47-0.86,2.05v7.88h-1.05v-5.93
				c-0.26,0.41-0.52,0.84-0.8,1.28l-0.8-0.8c0.58-0.83,1.08-1.66,1.49-2.5c0.39-0.77,0.77-1.73,1.15-2.87L479.56,109.81z
				 M485.76,109.87v3.8h-2.42v1.05h3.37v0.95h-2.95c0.47,0.71,0.94,1.25,1.39,1.65c0.51,0.44,1.17,0.89,1.99,1.34l-0.9,0.95
				c-0.75-0.51-1.4-1.07-1.91-1.68c-0.37-0.41-0.69-0.86-0.99-1.36v3.61h-1.05v-3.48c-0.31,0.49-0.61,0.89-0.87,1.23
				c-0.41,0.53-1.01,1.08-1.79,1.63l-0.85-0.95c0.73-0.35,1.34-0.78,1.82-1.29c0.37-0.34,0.79-0.9,1.29-1.65h-2.88v-0.95h3.28v-1.05
				h-2.37v-3.8H485.76z M484.66,110.82h-3.65v1.9h3.65V110.82z"/>
		</g>
	</g>
</g>
<g>
	<path d="M657.1,48.63l6.46,18.98h0.08l6.11-18.98h8.54v27.6h-5.68V56.67h-0.08l-6.76,19.56h-4.68l-6.76-19.37h-0.08v19.37h-5.68
		v-27.6H657.1z"/>
	<path d="M682.8,62.39c0.08-1.29,0.4-2.36,0.97-3.21c0.57-0.85,1.29-1.53,2.16-2.05c0.88-0.51,1.86-0.88,2.96-1.1
		s2.2-0.33,3.31-0.33c1,0,2.02,0.07,3.05,0.21c1.03,0.14,1.97,0.42,2.82,0.83s1.55,0.99,2.09,1.72c0.54,0.73,0.81,1.71,0.81,2.92
		v10.4c0,0.9,0.05,1.76,0.16,2.59c0.1,0.82,0.28,1.44,0.54,1.86h-5.57c-0.1-0.31-0.19-0.62-0.25-0.95
		c-0.06-0.32-0.11-0.65-0.13-0.99c-0.88,0.9-1.91,1.53-3.09,1.89c-1.18,0.36-2.4,0.54-3.63,0.54c-0.95,0-1.84-0.12-2.67-0.35
		c-0.83-0.23-1.55-0.59-2.16-1.08c-0.62-0.49-1.1-1.11-1.45-1.86c-0.35-0.75-0.52-1.64-0.52-2.67c0-1.13,0.2-2.07,0.6-2.8
		s0.91-1.32,1.55-1.76c0.63-0.44,1.35-0.77,2.16-0.99c0.81-0.22,1.63-0.39,2.45-0.52c0.82-0.13,1.64-0.23,2.44-0.31
		c0.8-0.08,1.51-0.19,2.13-0.35c0.62-0.15,1.11-0.38,1.47-0.68c0.36-0.3,0.53-0.73,0.5-1.29c0-0.59-0.1-1.06-0.29-1.41
		c-0.19-0.35-0.45-0.62-0.77-0.81c-0.32-0.19-0.69-0.32-1.12-0.39c-0.42-0.06-0.88-0.1-1.37-0.1c-1.08,0-1.93,0.23-2.55,0.7
		c-0.62,0.46-0.98,1.24-1.08,2.32H682.8z M695.48,66.45c-0.23,0.21-0.52,0.37-0.87,0.48c-0.35,0.12-0.72,0.21-1.12,0.29
		c-0.4,0.08-0.82,0.14-1.26,0.19c-0.44,0.05-0.88,0.12-1.31,0.19c-0.41,0.08-0.82,0.18-1.22,0.31c-0.4,0.13-0.75,0.3-1.04,0.52
		c-0.3,0.22-0.54,0.5-0.72,0.83c-0.18,0.34-0.27,0.76-0.27,1.28c0,0.49,0.09,0.9,0.27,1.24c0.18,0.34,0.43,0.6,0.74,0.79
		c0.31,0.19,0.67,0.33,1.08,0.41c0.41,0.08,0.84,0.12,1.27,0.12c1.08,0,1.92-0.18,2.51-0.54c0.59-0.36,1.03-0.79,1.31-1.29
		c0.28-0.5,0.46-1.01,0.52-1.53c0.06-0.52,0.1-0.93,0.1-1.24V66.45z"/>
	<path d="M709.84,71.26c0.25,0.43,0.56,0.77,0.95,1.04c0.39,0.27,0.83,0.47,1.33,0.6c0.5,0.13,1.02,0.19,1.57,0.19
		c0.39,0,0.79-0.05,1.22-0.14c0.43-0.09,0.81-0.23,1.16-0.43s0.64-0.45,0.87-0.77c0.23-0.32,0.35-0.73,0.35-1.22
		c0-0.82-0.55-1.44-1.64-1.86c-1.1-0.41-2.62-0.82-4.58-1.24c-0.8-0.18-1.58-0.39-2.34-0.64c-0.76-0.24-1.44-0.57-2.03-0.97
		c-0.59-0.4-1.07-0.9-1.43-1.51c-0.36-0.61-0.54-1.35-0.54-2.22c0-1.29,0.25-2.35,0.75-3.17c0.5-0.83,1.17-1.47,1.99-1.95
		c0.82-0.48,1.75-0.81,2.78-1c1.03-0.19,2.09-0.29,3.17-0.29c1.08,0,2.13,0.1,3.15,0.31c1.02,0.21,1.93,0.55,2.73,1.04
		c0.8,0.49,1.46,1.14,1.99,1.95c0.53,0.81,0.84,1.84,0.95,3.07h-5.22c-0.08-1.06-0.48-1.77-1.2-2.15c-0.72-0.37-1.57-0.56-2.55-0.56
		c-0.31,0-0.64,0.02-1,0.06c-0.36,0.04-0.69,0.12-0.99,0.25c-0.3,0.13-0.55,0.32-0.75,0.56s-0.31,0.57-0.31,0.99
		c0,0.49,0.18,0.89,0.54,1.2c0.36,0.31,0.83,0.56,1.41,0.75s1.24,0.37,1.99,0.52c0.75,0.15,1.51,0.32,2.28,0.5
		c0.8,0.18,1.58,0.4,2.34,0.66c0.76,0.26,1.44,0.6,2.03,1.03c0.59,0.42,1.07,0.95,1.43,1.58c0.36,0.63,0.54,1.41,0.54,2.34
		c0,1.31-0.27,2.42-0.79,3.3c-0.53,0.89-1.22,1.6-2.07,2.15c-0.85,0.54-1.82,0.92-2.92,1.14s-2.21,0.33-3.34,0.33
		c-1.16,0-2.29-0.12-3.4-0.35c-1.11-0.23-2.09-0.62-2.96-1.16c-0.86-0.54-1.57-1.26-2.13-2.15c-0.55-0.89-0.86-2-0.91-3.34h5.22
		C709.48,70.32,709.6,70.83,709.84,71.26z"/>
	<path d="M725.75,62.39c0.08-1.29,0.4-2.36,0.97-3.21c0.57-0.85,1.29-1.53,2.16-2.05c0.88-0.51,1.86-0.88,2.96-1.1
		c1.09-0.22,2.2-0.33,3.31-0.33c1,0,2.02,0.07,3.05,0.21c1.03,0.14,1.97,0.42,2.82,0.83s1.55,0.99,2.09,1.72
		c0.54,0.73,0.81,1.71,0.81,2.92v10.4c0,0.9,0.05,1.76,0.16,2.59c0.1,0.82,0.28,1.44,0.54,1.86h-5.57c-0.1-0.31-0.19-0.62-0.25-0.95
		c-0.06-0.32-0.11-0.65-0.13-0.99c-0.88,0.9-1.91,1.53-3.09,1.89c-1.18,0.36-2.4,0.54-3.63,0.54c-0.95,0-1.84-0.12-2.67-0.35
		c-0.83-0.23-1.55-0.59-2.16-1.08c-0.62-0.49-1.1-1.11-1.45-1.86c-0.35-0.75-0.52-1.64-0.52-2.67c0-1.13,0.2-2.07,0.6-2.8
		s0.91-1.32,1.55-1.76c0.63-0.44,1.35-0.77,2.16-0.99c0.81-0.22,1.63-0.39,2.45-0.52c0.82-0.13,1.64-0.23,2.44-0.31
		c0.8-0.08,1.51-0.19,2.13-0.35c0.62-0.15,1.11-0.38,1.47-0.68c0.36-0.3,0.53-0.73,0.5-1.29c0-0.59-0.1-1.06-0.29-1.41
		c-0.19-0.35-0.45-0.62-0.77-0.81c-0.32-0.19-0.69-0.32-1.12-0.39c-0.42-0.06-0.88-0.1-1.37-0.1c-1.08,0-1.93,0.23-2.55,0.7
		c-0.62,0.46-0.98,1.24-1.08,2.32H725.75z M738.43,66.45c-0.23,0.21-0.52,0.37-0.87,0.48c-0.35,0.12-0.72,0.21-1.12,0.29
		c-0.4,0.08-0.82,0.14-1.26,0.19c-0.44,0.05-0.88,0.12-1.31,0.19c-0.41,0.08-0.82,0.18-1.22,0.31c-0.4,0.13-0.75,0.3-1.04,0.52
		c-0.3,0.22-0.54,0.5-0.72,0.83c-0.18,0.34-0.27,0.76-0.27,1.28c0,0.49,0.09,0.9,0.27,1.24c0.18,0.34,0.43,0.6,0.74,0.79
		c0.31,0.19,0.67,0.33,1.08,0.41c0.41,0.08,0.84,0.12,1.27,0.12c1.08,0,1.92-0.18,2.51-0.54c0.59-0.36,1.03-0.79,1.31-1.29
		c0.28-0.5,0.46-1.01,0.52-1.53c0.06-0.52,0.1-0.93,0.1-1.24V66.45z"/>
	<path d="M762.35,73.67c-0.64,1.08-1.49,1.86-2.53,2.34c-1.04,0.48-2.22,0.71-3.54,0.71c-1.49,0-2.81-0.29-3.94-0.87
		c-1.13-0.58-2.07-1.37-2.8-2.36c-0.73-0.99-1.29-2.13-1.66-3.42c-0.37-1.29-0.56-2.63-0.56-4.02c0-1.34,0.19-2.63,0.56-3.88
		c0.37-1.25,0.93-2.35,1.66-3.31c0.73-0.95,1.66-1.72,2.76-2.3c1.11-0.58,2.4-0.87,3.86-0.87c1.19,0,2.31,0.25,3.38,0.75
		c1.07,0.5,1.91,1.24,2.53,2.22h0.08V48.63h5.49v27.6h-5.22v-2.55H762.35z M762.12,63.8c-0.15-0.76-0.42-1.43-0.79-2.01
		c-0.37-0.58-0.86-1.05-1.45-1.41c-0.59-0.36-1.34-0.54-2.24-0.54c-0.9,0-1.66,0.18-2.28,0.54c-0.62,0.36-1.11,0.84-1.49,1.43
		c-0.37,0.59-0.64,1.27-0.81,2.03c-0.17,0.76-0.25,1.55-0.25,2.38c0,0.77,0.09,1.55,0.27,2.32c0.18,0.77,0.47,1.46,0.87,2.07
		c0.4,0.61,0.9,1.1,1.51,1.47c0.6,0.37,1.33,0.56,2.18,0.56c0.9,0,1.66-0.18,2.26-0.54c0.6-0.36,1.09-0.84,1.45-1.45
		c0.36-0.6,0.62-1.29,0.77-2.07c0.15-0.77,0.23-1.57,0.23-2.4C762.35,65.35,762.28,64.56,762.12,63.8z"/>
	<path d="M771.55,62.39c0.08-1.29,0.4-2.36,0.97-3.21c0.57-0.85,1.29-1.53,2.16-2.05c0.88-0.51,1.86-0.88,2.96-1.1
		s2.2-0.33,3.31-0.33c1,0,2.02,0.07,3.05,0.21c1.03,0.14,1.97,0.42,2.82,0.83s1.55,0.99,2.09,1.72c0.54,0.73,0.81,1.71,0.81,2.92
		v10.4c0,0.9,0.05,1.76,0.16,2.59c0.1,0.82,0.28,1.44,0.54,1.86h-5.57c-0.1-0.31-0.19-0.62-0.25-0.95
		c-0.06-0.32-0.11-0.65-0.13-0.99c-0.88,0.9-1.91,1.53-3.09,1.89c-1.18,0.36-2.4,0.54-3.63,0.54c-0.95,0-1.84-0.12-2.67-0.35
		c-0.83-0.23-1.55-0.59-2.16-1.08c-0.62-0.49-1.1-1.11-1.45-1.86c-0.35-0.75-0.52-1.64-0.52-2.67c0-1.13,0.2-2.07,0.6-2.8
		s0.91-1.32,1.55-1.76c0.63-0.44,1.35-0.77,2.16-0.99c0.81-0.22,1.63-0.39,2.45-0.52c0.82-0.13,1.64-0.23,2.44-0.31
		c0.8-0.08,1.51-0.19,2.13-0.35c0.62-0.15,1.11-0.38,1.47-0.68c0.36-0.3,0.53-0.73,0.5-1.29c0-0.59-0.1-1.06-0.29-1.41
		c-0.19-0.35-0.45-0.62-0.77-0.81c-0.32-0.19-0.69-0.32-1.12-0.39c-0.42-0.06-0.88-0.1-1.37-0.1c-1.08,0-1.93,0.23-2.55,0.7
		c-0.62,0.46-0.98,1.24-1.08,2.32H771.55z M784.23,66.45c-0.23,0.21-0.52,0.37-0.87,0.48c-0.35,0.12-0.72,0.21-1.12,0.29
		c-0.4,0.08-0.82,0.14-1.26,0.19c-0.44,0.05-0.88,0.12-1.31,0.19c-0.41,0.08-0.82,0.18-1.22,0.31c-0.4,0.13-0.75,0.3-1.04,0.52
		c-0.3,0.22-0.54,0.5-0.72,0.83c-0.18,0.34-0.27,0.76-0.27,1.28c0,0.49,0.09,0.9,0.27,1.24c0.18,0.34,0.43,0.6,0.74,0.79
		c0.31,0.19,0.67,0.33,1.08,0.41c0.41,0.08,0.84,0.12,1.27,0.12c1.08,0,1.92-0.18,2.51-0.54c0.59-0.36,1.03-0.79,1.31-1.29
		c0.28-0.5,0.46-1.01,0.52-1.53c0.06-0.52,0.1-0.93,0.1-1.24V66.45z"/>
</g>
<g>
	<g>
		<g>
			<path d="M655.95,94.4c-1.09,4.69-3.44,8.2-6.21,10.06c-0.45-0.57-1.52-1.61-2.17-2.02c2.13-1.27,3.92-3.49,4.96-6.16h-4.4v-2.54
				h5.53l0.48-0.11L655.95,94.4z M668.23,92.86c-1.7,1.54-3.78,3.24-5.51,4.4c1.59,2.18,3.65,3.85,6.3,4.89
				c-0.63,0.52-1.47,1.63-1.88,2.36c-3.29-1.47-5.62-3.9-7.32-7v5.19c0,1.47-0.29,2.2-1.27,2.65c-0.93,0.43-2.31,0.45-4.21,0.45
				c-0.11-0.77-0.54-1.97-0.91-2.7c1.13,0.07,2.54,0.07,2.95,0.05s0.54-0.14,0.54-0.5V91.84h-5.67v-2.58h8.41
				c-1.93-0.86-4.55-1.74-6.64-2.29l1.34-2.2c2.63,0.57,6.41,1.77,8.34,2.76l-1.45,2.52c-0.39-0.23-0.88-0.48-1.43-0.73v1.88
				c0.43,1.43,0.97,2.76,1.61,3.99c1.54-1.22,3.24-2.81,4.33-4.17L668.23,92.86z"/>
		</g>
		<g>
			<path d="M685.12,85.56c-0.57,1.54-1.27,3.13-2.08,4.65v15.63h-2.67V94.42c-0.43,0.59-0.88,1.11-1.31,1.59
				c-0.25-0.63-1-2.11-1.45-2.76c1.99-2.04,3.9-5.23,4.99-8.47L685.12,85.56z M698.99,102.53v2.58h-15.07v-2.58h6.23v-2.72h-4.98
				v-2.56h4.98v-1.99h2.74v1.99h5.12v2.56h-5.12v2.72H698.99z M690.15,89.71h-4.53v-2.52h4.53v-2.52h2.74v2.52h4.67v2.52h-4.67v2.36
				h5.69v2.54h-14v-2.54h5.57V89.71z"/>
		</g>
		<g>
			<path d="M715.13,96.6c-0.73,0.23-1.45,0.45-2.18,0.66v5.73c0,1.25-0.2,1.93-0.88,2.36c-0.7,0.43-1.65,0.52-3.15,0.5
				c-0.07-0.66-0.36-1.77-0.68-2.49c0.82,0.04,1.61,0.04,1.88,0.02c0.27,0,0.38-0.09,0.38-0.39v-5.01c-0.75,0.23-1.5,0.43-2.15,0.61
				l-0.59-2.58c0.77-0.16,1.72-0.41,2.74-0.66v-3.92h-2.38v-2.47h2.38V84.7h2.45v4.26h2.06v2.47h-2.06v3.26l1.84-0.52L715.13,96.6z
				 M723.04,103.24c0.61,0.07,1.25,0.09,1.9,0.09c0.7,0,3.4,0,4.33-0.05c-0.34,0.57-0.66,1.65-0.75,2.31h-3.76
				c-3.13,0-5.57-0.54-7.3-2.67c-0.52,1.2-1.18,2.22-1.99,3.01c-0.41-0.41-1.47-1.13-2.04-1.47c1.63-1.43,2.45-3.76,2.79-6.41
				l2.45,0.32c-0.11,0.73-0.23,1.43-0.41,2.11c0.59,1.02,1.36,1.68,2.29,2.11v-4.85h-4.24v-1.99h4.24v-1.16h-5.55v-2.08h5.55v-1.04
				h-4.24v-2.02h4.24v-0.95h-5.19v-2.11h5.19v-1.7h2.49v1.7h5.69v2.11h-5.69v0.95h4.8v3.06h1.4v2.08h-1.4v3.15h-4.8v1.31H728v2.11
				h-4.96V103.24z M723.04,92.49h2.31v-1.04h-2.31V92.49z M723.04,95.73h2.31v-1.16h-2.31V95.73z"/>
		</g>
		<g>
			<path d="M745.57,99.13c-0.27-0.63-0.82-1.59-1.36-2.49v9.2h-2.61v-8.16c-0.75,1.74-1.59,3.35-2.47,4.49
				c-0.25-0.77-0.84-1.88-1.25-2.56c1.27-1.45,2.54-3.88,3.35-6.07h-3.06v-2.52h3.42v-2.56c-0.88,0.14-1.72,0.27-2.56,0.36
				c-0.09-0.61-0.43-1.5-0.72-2.08c2.58-0.41,5.42-1.09,7.3-1.86l1.52,2.2c-0.88,0.34-1.88,0.61-2.92,0.84v3.1h2.99v2.52h-2.99v0.18
				c0.66,0.63,2.52,2.76,2.95,3.29L745.57,99.13z M756.74,100.11v5.71h-2.65v-5.23l-6.84,1.18l-0.43-2.56l7.27-1.25V84.68h2.65V97.5
				l2.24-0.39l0.43,2.52L756.74,100.11z M751.05,96.96c-0.7-1-2.29-2.45-3.6-3.47l1.72-1.54c1.29,0.91,2.97,2.31,3.72,3.29
				L751.05,96.96z M751.64,90.98c-0.63-0.97-2.11-2.42-3.38-3.4l1.77-1.54c1.22,0.93,2.81,2.27,3.49,3.26L751.64,90.98z"/>
		</g>
		<g>
			<path d="M776.17,96.78c-0.79,0.23-1.61,0.45-2.42,0.66v5.42c0,1.31-0.25,1.95-1.02,2.38c-0.75,0.41-1.84,0.48-3.44,0.48
				c-0.09-0.68-0.43-1.74-0.75-2.45c0.88,0.02,1.81,0.02,2.11,0.02c0.32,0,0.43-0.11,0.43-0.45v-4.67l-2.2,0.54l-0.7-2.56
				c0.84-0.18,1.81-0.38,2.9-0.66v-4.01h-2.61v-2.49h2.61V84.7h2.67v4.28h2.22v2.49h-2.22v3.35l2.08-0.52L776.17,96.78z
				 M788.72,93.72c-0.86,3.13-2.31,5.62-4.24,7.52c1.5,1.04,3.24,1.79,5.26,2.29c-0.57,0.54-1.34,1.63-1.72,2.33
				c-2.2-0.66-4.06-1.61-5.64-2.85c-1.77,1.22-3.76,2.13-5.98,2.79c-0.29-0.73-0.93-1.86-1.43-2.45c1.99-0.48,3.83-1.2,5.42-2.22
				c-1.31-1.52-2.38-3.31-3.22-5.39l0.68-0.2h-1.18v-2.42h4.46v-2.72h-4.87v-2.49h4.87v-3.24h2.67v3.24h5.08v2.49h-5.08v2.72h2.72
				l0.48-0.11L788.72,93.72z M779.79,95.53c0.63,1.5,1.54,2.85,2.67,4.01c1.18-1.11,2.18-2.47,2.86-4.01H779.79z"/>
		</g>
	</g>
</g>
<g>
	<g>
		<g>
			<path d="M273.72,413.18c0.11,0.05,0.17,0.1,0.17,0.16c0,0.12-0.1,0.22-0.29,0.29c-0.32,0.71-0.62,1.33-0.9,1.85v8.17h-1.09v-6.39
				c-0.3,0.44-0.63,0.9-1,1.36l-0.8-0.82c0.66-0.78,1.2-1.56,1.67-2.36c0.43-0.73,0.85-1.63,1.28-2.72L273.72,413.18z
				 M280.76,415.15v1h-3.09v2.42h2.71v1h-2.71v2.56h3.33v1h-7.79v-1h3.38v-2.56h-2.71v-1h2.71v-2.42h-3.04v-1H280.76z M278.2,414.1
				l-0.9,0.8c-0.5-0.51-0.98-0.92-1.47-1.24l0.8-0.75C277.17,413.24,277.69,413.64,278.2,414.1z"/>
		</g>
		<g>
			<path d="M299.2,412.76c0.18,0.02,0.28,0.07,0.28,0.16c0,0.06-0.06,0.16-0.18,0.28v0.57h4.22v0.9h-1.99l-0.5,1.52h2.26v6.27
				c0,0.54-0.26,0.88-0.77,1.05c-0.4,0.12-0.79,0.19-1.18,0.19l-0.41-1.05h-3.15v0.43h-1v-3.28h4.17v2.81l0.85-0.03
				c0.26-0.01,0.39-0.16,0.39-0.45v-4.98h-2.14v1.08c0,0.29,0.11,0.44,0.33,0.44h0.39c0.1,0,0.18-0.04,0.23-0.11
				c0.05-0.05,0.1-0.26,0.15-0.61l0.95,0.28c-0.08,0.53-0.22,0.88-0.39,1.02c-0.18,0.18-0.41,0.27-0.71,0.27h-0.8
				c-0.73,0-1.09-0.26-1.09-0.77v-1.6h-0.85c-0.05,0.46-0.15,0.83-0.28,1.12c-0.19,0.4-0.43,0.72-0.68,0.96
				c-0.27,0.24-0.63,0.48-1.08,0.67l-0.72-0.56v4.32h-1.09v-7.46h2.26c-0.12-0.54-0.26-1.05-0.4-1.52h-2.09v-0.9h4.03v-1.09
				L299.2,412.76z M296.4,418.66c0.27-0.19,0.48-0.44,0.64-0.73c0.11-0.22,0.19-0.48,0.24-0.79h-1.79v1.98
				C295.9,418.98,296.2,418.83,296.4,418.66z M299.93,416.18l0.49-1.52h-3.1c0.16,0.53,0.28,1.05,0.38,1.52H299.93z M299.96,421.74
				v-1.03h-2.17v1.03H299.96z"/>
		</g>
		<g>
			<path d="M316.88,423.6l-0.83-0.23l2.43-9.64l0.8,0.24L316.88,423.6z"/>
		</g>
		<g>
			<path d="M336.98,413.24v3.9h-2.89c-0.02,0.41-0.06,0.79-0.1,1.13h3.37c0,2.04-0.1,3.33-0.28,3.85c-0.11,0.51-0.35,0.88-0.72,1.07
				c-0.39,0.19-1.06,0.3-1.99,0.3l-0.52-1.09c1,0,1.59-0.05,1.79-0.17c0.17-0.07,0.32-0.28,0.43-0.61c0.13-0.32,0.22-1.09,0.24-2.36
				h-2.46c-0.12,0.68-0.28,1.28-0.45,1.81c-0.32,0.92-0.79,1.74-1.45,2.47l-0.96-0.67c0.64-0.67,1.12-1.42,1.42-2.25
				c0.3-0.79,0.51-1.96,0.63-3.49h-1.29v-3.9H336.98z M335.93,414.24h-3.14v1.91h3.14V414.24z M339.26,414.52
				c0.18,0.01,0.28,0.06,0.28,0.15c0,0.06-0.07,0.15-0.19,0.24v5.93h-1.05v-6.4L339.26,414.52z M341.75,413.05
				c0.13,0.03,0.21,0.07,0.21,0.15c0,0.1-0.1,0.22-0.29,0.34v8.69c0,0.47-0.16,0.83-0.47,1.06c-0.27,0.24-0.92,0.37-1.99,0.37
				l-0.42-1.09h1.15c0.4,0,0.62-0.17,0.64-0.52v-9.12L341.75,413.05z"/>
		</g>
		<g>
			<path d="M359.21,420.51v-1.14l1,0.08c0.18,0.01,0.28,0.06,0.28,0.16c0,0.06-0.07,0.16-0.19,0.28v0.62h3.85v1h-3.85v0.95h4.9v1
				h-10.88v-1h4.9v-0.95h-3.76v-1H359.21z M359.49,412.96v3.51h-1.94v0.62h1.94v0.8h-1.94v0.68c0.66-0.06,1.31-0.13,1.94-0.21v0.85
				c-0.94,0.15-2.41,0.32-4.41,0.52c-0.08,0.14-0.17,0.2-0.24,0.2c-0.07,0-0.11-0.05-0.11-0.16l-0.22-0.98
				c0.69-0.02,1.37-0.07,2.04-0.13v-0.77h-1.86v-0.8h1.86v-0.62h-1.94v-3.51H359.49z M356.55,414.33v-0.62h-0.95v0.62H356.55z
				 M356.55,415.05h-0.95v0.66h0.95V415.05z M357.54,414.33h0.95v-0.62h-0.95V414.33z M358.49,415.05h-0.95v0.66h0.95V415.05z
				 M364.14,413.05l0.51,0.34c0.07,0.05,0.11,0.1,0.11,0.15c0,0.1-0.08,0.18-0.24,0.28l-1.75,1.63c0.07,0.08,0.16,0.16,0.23,0.22
				h1.33l0.24-0.09c0.09,0,0.17,0.04,0.24,0.09l0.51,0.34c0.06,0.05,0.1,0.1,0.1,0.15c0,0.1-0.09,0.18-0.23,0.28l-1.09,1.57
				l-0.82-0.29l0.72-1.18h-1.33v2.17c0,0.41-0.12,0.71-0.34,0.9c-0.18,0.19-0.64,0.29-1.37,0.29l-0.43-1.05h0.69
				c0.24,0,0.38-0.11,0.4-0.33v-1.99h-1.9v-0.86h1.82c-0.29-0.27-0.58-0.52-0.88-0.75l0.71-0.57c0.27,0.17,0.52,0.37,0.77,0.57
				l0.9-1h-3.09v-0.85h3.71l0.23-0.1C363.98,412.96,364.07,413,364.14,413.05z"/>
		</g>
		<g>
			<path d="M377.78,423.6l-0.83-0.23l2.43-9.64l0.8,0.24L377.78,423.6z"/>
		</g>
		<g>
			<path d="M394.37,417.28l-0.72,0.77c-0.57-0.52-1.19-1-1.85-1.42l0.75-0.77C393.26,416.3,393.87,416.78,394.37,417.28z
				 M395.17,419.99c-0.64,1.12-1.32,2.16-2.04,3.14c0,0.28-0.1,0.42-0.28,0.42l-0.96-0.8c0.97-1.07,1.83-2.27,2.61-3.61
				L395.17,419.99z M395.17,414.06l-0.72,0.75c-0.58-0.46-1.22-0.89-1.9-1.28l0.77-0.77C394.05,413.18,394.66,413.61,395.17,414.06z
				 M397.9,415.53c0.04-0.78,0.06-1.71,0.06-2.81l1.11,0.13c0.15,0.01,0.23,0.05,0.23,0.11c0,0.06-0.1,0.16-0.29,0.28
				c-0.01,0.86-0.03,1.63-0.05,2.28h3.51v1.05h-3.27c0.29,1.4,0.71,2.51,1.25,3.34c0.51,0.92,1.4,1.87,2.64,2.83l-1.05,0.8
				c-0.74-0.78-1.35-1.47-1.83-2.13c-0.52-0.76-0.92-1.52-1.2-2.27c-0.12-0.27-0.23-0.57-0.33-0.91c-0.02,0.1-0.04,0.17-0.05,0.23
				c-0.24,0.96-0.58,1.8-1.02,2.52c0.62,0.45,1.22,0.96,1.79,1.52l-0.86,0.75c-0.52-0.56-1.03-1.03-1.52-1.42
				c-0.51,0.63-1.12,1.2-1.8,1.71l-0.95-0.8c0.97-0.58,1.76-1.31,2.37-2.2c0.51-0.75,0.86-1.69,1.07-2.82
				c0.05-0.3,0.1-0.69,0.14-1.15h-2.97v-1.05H397.9z"/>
		</g>
		<g>
			<path d="M419.77,413.72v3.55c0.58-0.67,1.02-1.37,1.33-2.1c0.23-0.51,0.45-1.35,0.67-2.49l1.18,0.19
				c0.13,0.05,0.21,0.11,0.21,0.19c0,0.1-0.12,0.19-0.34,0.28c-0.1,0.39-0.18,0.74-0.26,1.05h3.63v1.05h-0.72
				c-0.02,1.65-0.17,2.89-0.42,3.71c-0.19,0.74-0.48,1.41-0.86,1.99c0.55,0.58,1.24,1.14,2.09,1.7l-0.85,0.91
				c-0.78-0.57-1.41-1.14-1.92-1.73c-0.62,0.66-1.45,1.24-2.49,1.76l-1-1c1.11-0.36,1.94-0.83,2.5-1.41
				c0.1-0.09,0.19-0.17,0.27-0.27c-0.11-0.15-0.21-0.3-0.28-0.46c-0.51-0.85-0.88-2.05-1.09-3.63c-0.23,0.37-0.49,0.72-0.78,1.08
				l-0.86-0.73v0.58h-3.18v3.71c0,0.32,0.12,0.47,0.39,0.47h1.75c0.17,0,0.29-0.07,0.39-0.23c0.07-0.12,0.16-0.57,0.23-1.34
				l1.09,0.33c-0.11,0.92-0.28,1.52-0.51,1.79c-0.24,0.29-0.55,0.45-0.91,0.45h-2.28c-0.83,0-1.23-0.3-1.23-0.9v-5.28h3.17v-2.24
				h-3.32v-1H419.77z M422.34,416.71c0.16,1.47,0.51,2.61,1.06,3.43c0.01,0.03,0.03,0.05,0.04,0.06c0.12-0.22,0.23-0.46,0.33-0.7
				c0.38-0.9,0.58-2.26,0.62-4.06h-2.15c-0.06,0.16-0.12,0.29-0.17,0.41c-0.15,0.32-0.3,0.63-0.5,0.95L422.34,416.71z"/>
		</g>
		<g>
			<path d="M438.69,423.6l-0.83-0.23l2.43-9.64l0.8,0.24L438.69,423.6z"/>
		</g>
		<g>
			<path d="M455.76,413.13c0.11,0.06,0.17,0.11,0.17,0.16c0,0.1-0.06,0.17-0.18,0.24l-1.31,1.63c0.24,0.18,0.49,0.36,0.73,0.53
				l0.82-1.26l0.78,0.51c0.07,0.05,0.12,0.12,0.12,0.21c0,0.07-0.09,0.11-0.23,0.13l-2.01,2.89c0.46-0.05,0.92-0.11,1.37-0.18
				c-0.1-0.24-0.21-0.49-0.32-0.72l0.74-0.15c1.01-1.39,1.76-2.86,2.25-4.41l1.05,0.24c0.15,0.02,0.23,0.07,0.23,0.15
				c0,0.11-0.11,0.21-0.33,0.28c-0.19,0.5-0.4,0.99-0.62,1.46v0.11h1.69l0.83-1.9l0.94,0.19c0.17,0.03,0.26,0.09,0.26,0.18
				c0,0.1-0.1,0.18-0.29,0.28l-0.58,1.24h1.92v0.95h-2.04v1.42h1.8v0.9h-1.8v1.43h1.8v0.9h-1.8v1.42h2.04v0.95h-4.75v0.72h-1.05
				v-6.84c-0.2,0.32-0.38,0.61-0.57,0.9l-0.68-0.35c0.32,0.66,0.53,1.29,0.68,1.87l-0.9,0.19c-0.06-0.19-0.12-0.4-0.18-0.61
				c-0.18,0.04-0.38,0.07-0.57,0.1v4.74h-1.05v-4.56c-0.44,0.07-0.91,0.16-1.43,0.23c-0.07,0.13-0.16,0.19-0.23,0.19
				c-0.07,0-0.11-0.05-0.11-0.16l-0.22-0.98c0.27-0.02,0.52-0.05,0.78-0.07l1.18-1.83c-0.66-0.52-1.26-0.97-1.82-1.36l0.52-0.67
				c0.12,0.07,0.23,0.15,0.33,0.21l1.29-1.92L455.76,413.13z M454.42,420.15c0.08,0.01,0.13,0.05,0.13,0.12
				c0,0.1-0.07,0.19-0.19,0.29c-0.17,0.97-0.39,1.81-0.66,2.52l-0.96-0.33c0.17-0.34,0.3-0.71,0.42-1.12
				c0.15-0.51,0.26-1.09,0.34-1.74L454.42,420.15z M457.64,422.65l-0.95,0.18c-0.19-1-0.44-1.91-0.72-2.75l0.95-0.19
				C457.25,420.85,457.5,421.77,457.64,422.65z M460.73,415.9h-1.71v1.42h1.71V415.9z M460.73,418.22h-1.71v1.43h1.71V418.22z
				 M460.73,421.98v-1.42h-1.71v1.42H460.73z"/>
		</g>
		<g>
			<path d="M479.56,413.28c0.11,0.05,0.17,0.1,0.17,0.16c0,0.12-0.1,0.22-0.28,0.28c-0.31,0.79-0.6,1.47-0.86,2.05v7.88h-1.05v-5.93
				c-0.26,0.41-0.52,0.84-0.8,1.28l-0.8-0.8c0.58-0.83,1.08-1.66,1.49-2.5c0.39-0.77,0.77-1.73,1.15-2.87L479.56,413.28z
				 M485.76,413.34v3.8h-2.42v1.05h3.37v0.95h-2.95c0.47,0.71,0.94,1.25,1.39,1.65c0.51,0.44,1.17,0.89,1.99,1.34l-0.9,0.95
				c-0.75-0.51-1.4-1.07-1.91-1.68c-0.37-0.41-0.69-0.86-0.99-1.36v3.61h-1.05v-3.48c-0.31,0.49-0.61,0.89-0.87,1.23
				c-0.41,0.53-1.01,1.08-1.79,1.63l-0.85-0.95c0.73-0.35,1.34-0.78,1.82-1.29c0.37-0.34,0.79-0.9,1.29-1.65h-2.88v-0.95h3.28v-1.05
				h-2.37v-3.8H485.76z M484.66,414.29h-3.65v1.9h3.65V414.29z"/>
		</g>
	</g>
</g>
<g>
	<path d="M353.28,339.99l6.46,18.98h0.08l6.11-18.98h8.54v27.6h-5.68v-19.56h-0.08l-6.76,19.56h-4.68l-6.76-19.37h-0.08v19.37h-5.68
		v-27.6H353.28z"/>
	<path d="M378.98,353.75c0.08-1.29,0.4-2.36,0.97-3.21c0.57-0.85,1.29-1.53,2.16-2.05c0.88-0.51,1.86-0.88,2.96-1.1
		s2.2-0.33,3.31-0.33c1,0,2.02,0.07,3.05,0.21c1.03,0.14,1.97,0.42,2.82,0.83c0.85,0.41,1.55,0.99,2.09,1.72
		c0.54,0.73,0.81,1.71,0.81,2.92v10.4c0,0.9,0.05,1.76,0.16,2.59c0.1,0.82,0.28,1.44,0.54,1.86h-5.57c-0.1-0.31-0.19-0.62-0.25-0.95
		c-0.06-0.32-0.11-0.65-0.13-0.99c-0.88,0.9-1.91,1.53-3.09,1.89c-1.18,0.36-2.4,0.54-3.63,0.54c-0.95,0-1.84-0.12-2.67-0.35
		c-0.83-0.23-1.55-0.59-2.16-1.08c-0.62-0.49-1.1-1.11-1.45-1.86c-0.35-0.75-0.52-1.64-0.52-2.67c0-1.13,0.2-2.07,0.6-2.8
		c0.4-0.73,0.91-1.32,1.55-1.76c0.63-0.44,1.35-0.77,2.16-0.99c0.81-0.22,1.63-0.39,2.45-0.52c0.82-0.13,1.64-0.23,2.44-0.31
		c0.8-0.08,1.51-0.19,2.13-0.35c0.62-0.15,1.11-0.38,1.47-0.68c0.36-0.3,0.53-0.73,0.5-1.29c0-0.59-0.1-1.06-0.29-1.41
		c-0.19-0.35-0.45-0.62-0.77-0.81c-0.32-0.19-0.69-0.32-1.12-0.39c-0.42-0.06-0.88-0.1-1.37-0.1c-1.08,0-1.93,0.23-2.55,0.7
		c-0.62,0.46-0.98,1.24-1.08,2.32H378.98z M391.66,357.81c-0.23,0.21-0.52,0.37-0.87,0.48c-0.35,0.12-0.72,0.21-1.12,0.29
		c-0.4,0.08-0.82,0.14-1.26,0.19c-0.44,0.05-0.88,0.12-1.31,0.19c-0.41,0.08-0.82,0.18-1.22,0.31c-0.4,0.13-0.75,0.3-1.04,0.52
		c-0.3,0.22-0.54,0.5-0.72,0.83c-0.18,0.34-0.27,0.76-0.27,1.28c0,0.49,0.09,0.9,0.27,1.24c0.18,0.34,0.43,0.6,0.74,0.79
		c0.31,0.19,0.67,0.33,1.08,0.41c0.41,0.08,0.84,0.12,1.27,0.12c1.08,0,1.92-0.18,2.51-0.54c0.59-0.36,1.03-0.79,1.31-1.29
		c0.28-0.5,0.46-1.01,0.52-1.53s0.1-0.93,0.1-1.24V357.81z"/>
	<path d="M406.02,362.62c0.25,0.43,0.56,0.77,0.95,1.04c0.39,0.27,0.83,0.47,1.33,0.6c0.5,0.13,1.02,0.19,1.57,0.19
		c0.39,0,0.79-0.05,1.22-0.14c0.43-0.09,0.81-0.23,1.16-0.43s0.64-0.45,0.87-0.77c0.23-0.32,0.35-0.73,0.35-1.22
		c0-0.82-0.55-1.44-1.64-1.86c-1.1-0.41-2.62-0.82-4.58-1.24c-0.8-0.18-1.58-0.39-2.34-0.64s-1.44-0.57-2.03-0.97
		c-0.59-0.4-1.07-0.9-1.43-1.51c-0.36-0.61-0.54-1.35-0.54-2.22c0-1.29,0.25-2.35,0.75-3.17c0.5-0.83,1.17-1.47,1.99-1.95
		c0.82-0.48,1.75-0.81,2.78-1c1.03-0.19,2.09-0.29,3.17-0.29c1.08,0,2.13,0.1,3.15,0.31c1.02,0.21,1.93,0.55,2.73,1.04
		c0.8,0.49,1.46,1.14,1.99,1.95c0.53,0.81,0.84,1.84,0.95,3.07h-5.22c-0.08-1.06-0.48-1.77-1.2-2.15c-0.72-0.37-1.57-0.56-2.55-0.56
		c-0.31,0-0.64,0.02-1,0.06c-0.36,0.04-0.69,0.12-0.99,0.25c-0.3,0.13-0.55,0.32-0.75,0.56s-0.31,0.57-0.31,0.99
		c0,0.49,0.18,0.89,0.54,1.2c0.36,0.31,0.83,0.56,1.41,0.75c0.58,0.19,1.24,0.37,1.99,0.52c0.75,0.15,1.51,0.32,2.28,0.5
		c0.8,0.18,1.58,0.4,2.34,0.66c0.76,0.26,1.44,0.6,2.03,1.03c0.59,0.42,1.07,0.95,1.43,1.58c0.36,0.63,0.54,1.41,0.54,2.34
		c0,1.31-0.27,2.42-0.79,3.3c-0.53,0.89-1.22,1.6-2.07,2.15c-0.85,0.54-1.82,0.92-2.92,1.14c-1.09,0.22-2.21,0.33-3.34,0.33
		c-1.16,0-2.29-0.12-3.4-0.35c-1.11-0.23-2.09-0.62-2.96-1.16c-0.86-0.54-1.57-1.26-2.13-2.15c-0.55-0.89-0.86-2-0.91-3.34h5.22
		C405.65,361.68,405.78,362.19,406.02,362.62z"/>
	<path d="M421.93,353.75c0.08-1.29,0.4-2.36,0.97-3.21c0.57-0.85,1.29-1.53,2.16-2.05c0.88-0.51,1.86-0.88,2.96-1.1
		s2.2-0.33,3.31-0.33c1,0,2.02,0.07,3.05,0.21c1.03,0.14,1.97,0.42,2.82,0.83c0.85,0.41,1.55,0.99,2.09,1.72
		c0.54,0.73,0.81,1.71,0.81,2.92v10.4c0,0.9,0.05,1.76,0.16,2.59c0.1,0.82,0.28,1.44,0.54,1.86h-5.57c-0.1-0.31-0.19-0.62-0.25-0.95
		c-0.06-0.32-0.11-0.65-0.13-0.99c-0.88,0.9-1.91,1.53-3.09,1.89c-1.18,0.36-2.4,0.54-3.63,0.54c-0.95,0-1.84-0.12-2.67-0.35
		c-0.83-0.23-1.55-0.59-2.16-1.08c-0.62-0.49-1.1-1.11-1.45-1.86c-0.35-0.75-0.52-1.64-0.52-2.67c0-1.13,0.2-2.07,0.6-2.8
		c0.4-0.73,0.91-1.32,1.55-1.76c0.63-0.44,1.35-0.77,2.16-0.99c0.81-0.22,1.63-0.39,2.45-0.52c0.82-0.13,1.64-0.23,2.44-0.31
		c0.8-0.08,1.51-0.19,2.13-0.35c0.62-0.15,1.11-0.38,1.47-0.68c0.36-0.3,0.53-0.73,0.5-1.29c0-0.59-0.1-1.06-0.29-1.41
		c-0.19-0.35-0.45-0.62-0.77-0.81c-0.32-0.19-0.69-0.32-1.12-0.39c-0.42-0.06-0.88-0.1-1.37-0.1c-1.08,0-1.93,0.23-2.55,0.7
		c-0.62,0.46-0.98,1.24-1.08,2.32H421.93z M434.61,357.81c-0.23,0.21-0.52,0.37-0.87,0.48c-0.35,0.12-0.72,0.21-1.12,0.29
		c-0.4,0.08-0.82,0.14-1.26,0.19c-0.44,0.05-0.88,0.12-1.31,0.19c-0.41,0.08-0.82,0.18-1.22,0.31c-0.4,0.13-0.75,0.3-1.04,0.52
		c-0.3,0.22-0.54,0.5-0.72,0.83c-0.18,0.34-0.27,0.76-0.27,1.28c0,0.49,0.09,0.9,0.27,1.24c0.18,0.34,0.43,0.6,0.74,0.79
		c0.31,0.19,0.67,0.33,1.08,0.41c0.41,0.08,0.84,0.12,1.27,0.12c1.08,0,1.92-0.18,2.51-0.54c0.59-0.36,1.03-0.79,1.31-1.29
		c0.28-0.5,0.46-1.01,0.52-1.53s0.1-0.93,0.1-1.24V357.81z"/>
	<path d="M458.53,365.03c-0.64,1.08-1.49,1.86-2.53,2.34c-1.04,0.48-2.22,0.71-3.54,0.71c-1.49,0-2.81-0.29-3.94-0.87
		c-1.13-0.58-2.07-1.37-2.8-2.36c-0.73-0.99-1.29-2.13-1.66-3.42c-0.37-1.29-0.56-2.63-0.56-4.02c0-1.34,0.19-2.63,0.56-3.88
		c0.37-1.25,0.93-2.35,1.66-3.31c0.73-0.95,1.66-1.72,2.76-2.3c1.11-0.58,2.4-0.87,3.86-0.87c1.19,0,2.31,0.25,3.38,0.75
		c1.07,0.5,1.91,1.24,2.53,2.22h0.08v-10.05h5.49v27.6h-5.22v-2.55H458.53z M458.3,355.16c-0.15-0.76-0.42-1.43-0.79-2.01
		c-0.37-0.58-0.86-1.05-1.45-1.41c-0.59-0.36-1.34-0.54-2.24-0.54c-0.9,0-1.66,0.18-2.28,0.54c-0.62,0.36-1.11,0.84-1.49,1.43
		c-0.37,0.59-0.64,1.27-0.81,2.03c-0.17,0.76-0.25,1.55-0.25,2.38c0,0.77,0.09,1.55,0.27,2.32c0.18,0.77,0.47,1.46,0.87,2.07
		c0.4,0.61,0.9,1.1,1.51,1.47c0.6,0.37,1.33,0.56,2.18,0.56c0.9,0,1.66-0.18,2.26-0.54c0.6-0.36,1.09-0.84,1.45-1.45
		c0.36-0.6,0.62-1.29,0.77-2.07c0.15-0.77,0.23-1.57,0.23-2.4C458.53,356.71,458.45,355.92,458.3,355.16z"/>
	<path d="M467.73,353.75c0.08-1.29,0.4-2.36,0.97-3.21c0.57-0.85,1.29-1.53,2.16-2.05c0.88-0.51,1.86-0.88,2.96-1.1
		s2.2-0.33,3.31-0.33c1,0,2.02,0.07,3.05,0.21c1.03,0.14,1.97,0.42,2.82,0.83c0.85,0.41,1.55,0.99,2.09,1.72
		c0.54,0.73,0.81,1.71,0.81,2.92v10.4c0,0.9,0.05,1.76,0.16,2.59c0.1,0.82,0.28,1.44,0.54,1.86h-5.57c-0.1-0.31-0.19-0.62-0.25-0.95
		c-0.06-0.32-0.11-0.65-0.13-0.99c-0.88,0.9-1.91,1.53-3.09,1.89c-1.18,0.36-2.4,0.54-3.63,0.54c-0.95,0-1.84-0.12-2.67-0.35
		c-0.83-0.23-1.55-0.59-2.16-1.08c-0.62-0.49-1.1-1.11-1.45-1.86c-0.35-0.75-0.52-1.64-0.52-2.67c0-1.13,0.2-2.07,0.6-2.8
		c0.4-0.73,0.91-1.32,1.55-1.76c0.63-0.44,1.35-0.77,2.16-0.99c0.81-0.22,1.63-0.39,2.45-0.52c0.82-0.13,1.64-0.23,2.44-0.31
		c0.8-0.08,1.51-0.19,2.13-0.35c0.62-0.15,1.11-0.38,1.47-0.68c0.36-0.3,0.53-0.73,0.5-1.29c0-0.59-0.1-1.06-0.29-1.41
		c-0.19-0.35-0.45-0.62-0.77-0.81c-0.32-0.19-0.69-0.32-1.12-0.39c-0.42-0.06-0.88-0.1-1.37-0.1c-1.08,0-1.93,0.23-2.55,0.7
		c-0.62,0.46-0.98,1.24-1.08,2.32H467.73z M480.41,357.81c-0.23,0.21-0.52,0.37-0.87,0.48c-0.35,0.12-0.72,0.21-1.12,0.29
		c-0.4,0.08-0.82,0.14-1.26,0.19c-0.44,0.05-0.88,0.12-1.31,0.19c-0.41,0.08-0.82,0.18-1.22,0.31c-0.4,0.13-0.75,0.3-1.04,0.52
		c-0.3,0.22-0.54,0.5-0.72,0.83c-0.18,0.34-0.27,0.76-0.27,1.28c0,0.49,0.09,0.9,0.27,1.24c0.18,0.34,0.43,0.6,0.74,0.79
		c0.31,0.19,0.67,0.33,1.08,0.41c0.41,0.08,0.84,0.12,1.27,0.12c1.08,0,1.92-0.18,2.51-0.54c0.59-0.36,1.03-0.79,1.31-1.29
		c0.28-0.5,0.46-1.01,0.52-1.53s0.1-0.93,0.1-1.24V357.81z"/>
</g>
<g>
	<g>
		<g>
			<path d="M350.23,384.19c-0.84,3.63-2.67,6.35-4.8,7.78c-0.35-0.44-1.17-1.25-1.68-1.56c1.65-0.98,3.03-2.7,3.84-4.77h-3.4v-1.96
				h4.28l0.37-0.09L350.23,384.19z M359.73,383c-1.31,1.19-2.93,2.51-4.26,3.4c1.23,1.68,2.82,2.98,4.87,3.79
				c-0.49,0.4-1.14,1.26-1.46,1.82c-2.54-1.14-4.35-3.02-5.66-5.42v4.01c0,1.14-0.23,1.7-0.98,2.05c-0.72,0.33-1.79,0.35-3.26,0.35
				c-0.09-0.6-0.42-1.53-0.7-2.09c0.88,0.05,1.96,0.05,2.28,0.03c0.32-0.02,0.42-0.1,0.42-0.38v-8.36h-4.38v-2h6.5
				c-1.49-0.67-3.52-1.35-5.14-1.77l1.03-1.7c2.03,0.44,4.96,1.37,6.45,2.14l-1.12,1.95c-0.3-0.18-0.68-0.37-1.1-0.56v1.46
				c0.33,1.1,0.75,2.14,1.24,3.09c1.19-0.95,2.51-2.17,3.35-3.23L359.73,383z"/>
		</g>
		<g>
			<path d="M370.52,377.35c-0.44,1.19-0.98,2.42-1.61,3.59v12.1h-2.07v-8.84c-0.33,0.46-0.68,0.86-1.02,1.23
				c-0.19-0.49-0.77-1.63-1.12-2.14c1.54-1.58,3.02-4.05,3.86-6.56L370.52,377.35z M381.25,390.49v2h-11.66v-2h4.82v-2.1h-3.86
				v-1.98h3.86v-1.54h2.12v1.54h3.96v1.98h-3.96v2.1H381.25z M374.41,380.56h-3.51v-1.95h3.51v-1.95h2.12v1.95h3.61v1.95h-3.61v1.82
				h4.4v1.96H370.1v-1.96h4.31V380.56z"/>
		</g>
		<g>
			<path d="M391.46,385.89c-0.56,0.18-1.12,0.35-1.68,0.51v4.44c0,0.96-0.16,1.49-0.68,1.82c-0.54,0.33-1.28,0.4-2.44,0.39
				c-0.05-0.51-0.28-1.37-0.53-1.93c0.63,0.04,1.25,0.04,1.46,0.02c0.21,0,0.3-0.07,0.3-0.3v-3.88c-0.58,0.18-1.16,0.33-1.67,0.47
				l-0.46-2c0.6-0.12,1.33-0.32,2.12-0.51v-3.03h-1.84v-1.91h1.84v-3.3h1.89v3.3h1.6v1.91h-1.6v2.52l1.42-0.4L391.46,385.89z
				 M397.57,391.03c0.47,0.05,0.96,0.07,1.47,0.07c0.54,0,2.63,0,3.35-0.04c-0.26,0.44-0.51,1.28-0.58,1.79h-2.91
				c-2.42,0-4.31-0.42-5.65-2.07c-0.4,0.93-0.91,1.72-1.54,2.33c-0.32-0.32-1.14-0.88-1.58-1.14c1.26-1.1,1.89-2.91,2.16-4.96
				l1.89,0.25c-0.09,0.56-0.17,1.1-0.32,1.63c0.46,0.79,1.05,1.3,1.77,1.63v-3.75h-3.28v-1.54h3.28v-0.89h-4.29v-1.61h4.29v-0.81
				h-3.28v-1.56h3.28v-0.74h-4.01v-1.63h4.01v-1.31h1.93v1.31h4.4v1.63h-4.4v0.74h3.72v2.37h1.09v1.61h-1.09v2.44h-3.72v1.02h3.84
				v1.63h-3.84V391.03z M397.57,382.72h1.79v-0.81h-1.79V382.72z M397.57,385.23h1.79v-0.89h-1.79V385.23z"/>
		</g>
		<g>
			<path d="M413.76,385.38c-0.49-0.44-1.47-1.16-2.26-1.7c-0.63,0.89-1.65,1.79-3.23,2.52c-0.28-0.42-0.86-1.07-1.32-1.4
				c1.79-0.7,2.68-1.56,3.12-2.44h-2.91v-1.63h1.17c-0.42-0.26-0.98-0.58-1.33-0.75c0.89-0.84,1.58-2.12,1.93-3.42l1.84,0.39
				c-0.1,0.33-0.21,0.68-0.35,1.03h4.35v1.61h-2.28v0.79c0,0.12,0,0.23-0.02,0.35h2.7v1.63h-2.89c0.74,0.39,2.49,1.39,2.95,1.68
				L413.76,385.38z M410.5,380.74c0.02-0.14,0.02-0.26,0.02-0.39v-0.75h-0.88c-0.25,0.42-0.53,0.81-0.81,1.14H410.5z M409.5,385.65
				h11.43v7.38h-2.14v-0.56h-7.24v0.58h-2.05V385.65z M411.55,387.28v0.98h7.24v-0.98H411.55z M418.79,390.8v-1.03h-7.24v1.03
				H418.79z M422.44,377.95v6.65h-6.66v-6.65H422.44z M420.37,379.79h-2.67v2.96h2.67V379.79z"/>
		</g>
		<g>
			<path d="M435.73,391.12c0,0.86-0.16,1.3-0.74,1.58c-0.56,0.26-1.35,0.3-2.42,0.3c-0.09-0.49-0.37-1.17-0.63-1.63
				c0.63,0.04,1.31,0.04,1.53,0.04c0.23,0,0.3-0.07,0.3-0.3v-1.79c-0.88,0.63-1.75,1.23-2.54,1.74l-0.44-1.23
				c-0.19,1.19-0.58,2.38-1.25,3.3c-0.3-0.4-1.09-1.16-1.46-1.4c0.93-1.37,1-3.3,1-4.82v-3.94h6.64V391.12z M434.75,377.97
				c0.74,1.26,1.67,2.98,2.09,4.03l-1.82,0.74c-0.11-0.32-0.26-0.68-0.44-1.1c-4.44,0.44-5.15,0.54-5.66,0.75
				c-0.11-0.4-0.44-1.35-0.65-1.88c0.32-0.07,0.61-0.32,0.96-0.7s1.42-1.74,2.07-3.12l2.1,0.6c-0.6,1.02-1.38,2.03-2.16,2.91
				l2.56-0.19c-0.26-0.51-0.51-1-0.74-1.42L434.75,377.97z M431.02,386.91c0,0.67-0.04,1.46-0.12,2.24
				c0.79-0.35,1.82-0.88,2.88-1.44v-0.58l-0.84,0.82c-0.44-0.46-1.24-1.14-1.91-1.68V386.91z M431.02,384.7v1.25l0.88-0.75
				c0.6,0.42,1.35,1.03,1.88,1.49v-1.98H431.02z M439.68,384.4c-2.1,0-2.67-0.77-2.67-2.72v-4.98h2.07v2.07h4.31v1.79h-4.31v1.16
				c0,0.65,0.11,0.89,0.67,0.89h2.56c0.49,0,1.23-0.05,1.61-0.14c0.04,0.54,0.12,1.3,0.19,1.77c-0.37,0.12-1.1,0.16-1.77,0.16
				H439.68z M441.89,391.1c0.6,0,0.72-0.3,0.81-1.91c0.42,0.32,1.26,0.63,1.81,0.75c-0.21,2.3-0.75,2.98-2.42,2.98h-2.49
				c-2.07,0-2.58-0.61-2.58-2.52v-5.5h2.07v1.75h4.44v1.84h-4.44v1.91c0,0.61,0.12,0.7,0.82,0.7H441.89z"/>
		</g>
		<g>
			<path d="M451.45,383.31h-1.91v-3.95h6.63v-0.7h-5.84v-1.37h13.75v1.37h-5.87v0.7h6.77v3.95h-2.02l-0.37,1.25
				c-0.93-0.33-2.73-0.75-4.05-0.96l0.4-1.17c1.25,0.14,2.98,0.51,3.94,0.82v-2.51h-0.95l0.63,0.89c-0.93,0.39-2.21,0.67-3.12,0.84
				l-0.65-0.98c0.68-0.16,1.67-0.47,2.4-0.75h-3v3.65h-2.03v-3.65h-3.35c0.95,0.17,2.07,0.47,2.74,0.72l-0.56,1.12
				c-0.7-0.28-2.02-0.65-3.02-0.86l0.49-0.98h-0.95v2.4c1.07-0.12,2.54-0.33,4.05-0.56l0.07,1.19c-1.32,0.3-2.61,0.6-3.72,0.84
				L451.45,383.31z M462.63,391.22c0.89,0,1.05-0.26,1.17-1.74c0.4,0.28,1.19,0.54,1.74,0.65c-0.25,2.1-0.82,2.67-2.73,2.67h-3.68
				c-2.38,0-3.07-0.49-3.07-2.31v-0.05h-2.91v0.75h-2v-6.36h12.15v5.61h-5.24v0.05c0,0.63,0.21,0.74,1.26,0.74H462.63z
				 M453.15,386.22v0.79h2.91v-0.79H453.15z M456.06,389.03v-0.79h-2.91v0.79H456.06z M461.23,386.22h-3.17v0.79h3.17V386.22z
				 M461.23,389.03v-0.79h-3.17v0.79H461.23z"/>
		</g>
		<g>
			<path d="M475.22,386.93c-0.18-0.47-0.49-1.17-0.82-1.86v7.96h-1.89v-6.73c-0.47,1.4-1.02,2.68-1.61,3.59
				c-0.21-0.6-0.67-1.54-1-2.1c1.05-1.37,1.98-3.84,2.49-5.93h-2.14v-1.93h2.26v-3.26h1.89v3.26h1.72v1.93h-1.72v0.56
				c0.49,0.67,1.75,2.63,2.03,3.12L475.22,386.93z M486.23,385.8c0,0-0.02,0.47-0.04,0.7c-0.1,2.79-0.23,4.1-0.6,4.56
				c-0.3,0.37-0.56,0.51-0.98,0.6c-0.35,0.07-0.91,0.1-1.54,0.09c-0.02-0.61-0.19-1.4-0.46-1.91c0.42,0.03,0.77,0.05,0.96,0.05
				c0.21,0,0.32-0.05,0.44-0.19c0.14-0.19,0.23-0.77,0.3-2.19h-2.12v5.5h-1.96v-3.65c-1,1.28-2.26,2.37-3.58,3.03
				c-0.3-0.46-0.89-1.16-1.3-1.54c1.6-0.68,3.1-1.95,4.12-3.35h-2.91c0.23-1.28,0.47-3.23,0.6-4.79h3.07v-1.49h-3.63v-1.72h1.98
				c-0.25-0.68-0.67-1.49-1.07-2.14l1.63-0.65c0.56,0.75,1.09,1.81,1.32,2.51l-0.63,0.28h2.28c0.44-0.84,0.93-1.98,1.17-2.82
				l2.02,0.54c-0.39,0.79-0.81,1.6-1.19,2.28h1.7v4.93h-3.61v1.37H486.23z M478.8,384.44c-0.05,0.47-0.11,0.93-0.17,1.37h1.61v-1.37
				H478.8z M482.2,382.72h1.72v-1.49h-1.72V382.72z"/>
		</g>
	</g>
</g>
<g>
	<path d="M657.1,355.27l6.46,18.98h0.08l6.11-18.98h8.54v27.6h-5.68v-19.56h-0.08l-6.76,19.56h-4.68l-6.76-19.37h-0.08v19.37h-5.68
		v-27.6H657.1z"/>
	<path d="M682.81,369.03c0.08-1.29,0.4-2.36,0.97-3.21c0.57-0.85,1.29-1.53,2.16-2.05c0.88-0.51,1.86-0.88,2.96-1.1
		c1.09-0.22,2.2-0.33,3.31-0.33c1,0,2.02,0.07,3.05,0.21c1.03,0.14,1.97,0.42,2.82,0.83s1.55,0.99,2.09,1.72s0.81,1.71,0.81,2.92
		v10.4c0,0.9,0.05,1.76,0.16,2.59c0.1,0.82,0.28,1.44,0.54,1.86h-5.57c-0.1-0.31-0.19-0.62-0.25-0.95
		c-0.06-0.32-0.11-0.65-0.13-0.99c-0.88,0.9-1.91,1.53-3.09,1.89c-1.18,0.36-2.4,0.54-3.63,0.54c-0.95,0-1.84-0.12-2.67-0.35
		c-0.83-0.23-1.55-0.59-2.16-1.08c-0.62-0.49-1.1-1.11-1.45-1.86c-0.35-0.75-0.52-1.64-0.52-2.67c0-1.13,0.2-2.07,0.6-2.8
		s0.91-1.32,1.55-1.76c0.63-0.44,1.35-0.77,2.16-0.99c0.81-0.22,1.63-0.39,2.45-0.52c0.82-0.13,1.64-0.23,2.44-0.31
		c0.8-0.08,1.51-0.19,2.13-0.35c0.62-0.15,1.11-0.38,1.47-0.68c0.36-0.3,0.53-0.73,0.5-1.29c0-0.59-0.1-1.06-0.29-1.41
		c-0.19-0.35-0.45-0.62-0.77-0.81c-0.32-0.19-0.69-0.32-1.12-0.39c-0.42-0.06-0.88-0.1-1.37-0.1c-1.08,0-1.93,0.23-2.55,0.7
		c-0.62,0.46-0.98,1.24-1.08,2.32H682.81z M695.49,373.09c-0.23,0.21-0.52,0.37-0.87,0.48c-0.35,0.12-0.72,0.21-1.12,0.29
		c-0.4,0.08-0.82,0.14-1.26,0.19c-0.44,0.05-0.88,0.12-1.31,0.19c-0.41,0.08-0.82,0.18-1.22,0.31c-0.4,0.13-0.75,0.3-1.04,0.52
		c-0.3,0.22-0.54,0.5-0.72,0.83c-0.18,0.34-0.27,0.76-0.27,1.28c0,0.49,0.09,0.9,0.27,1.24c0.18,0.34,0.43,0.6,0.74,0.79
		c0.31,0.19,0.67,0.33,1.08,0.41c0.41,0.08,0.84,0.12,1.27,0.12c1.08,0,1.92-0.18,2.51-0.54c0.59-0.36,1.03-0.79,1.31-1.29
		c0.28-0.5,0.46-1.01,0.52-1.53c0.06-0.52,0.1-0.93,0.1-1.24V373.09z"/>
	<path d="M709.84,377.9c0.25,0.43,0.56,0.77,0.95,1.04c0.39,0.27,0.83,0.47,1.33,0.6c0.5,0.13,1.02,0.19,1.57,0.19
		c0.39,0,0.79-0.05,1.22-0.14c0.43-0.09,0.81-0.23,1.16-0.43c0.35-0.19,0.64-0.45,0.87-0.77c0.23-0.32,0.35-0.73,0.35-1.22
		c0-0.82-0.55-1.44-1.64-1.86c-1.1-0.41-2.62-0.82-4.58-1.24c-0.8-0.18-1.58-0.39-2.34-0.64s-1.44-0.57-2.03-0.97
		c-0.59-0.4-1.07-0.9-1.43-1.51c-0.36-0.61-0.54-1.35-0.54-2.22c0-1.29,0.25-2.35,0.75-3.17c0.5-0.83,1.17-1.47,1.99-1.95
		c0.82-0.48,1.75-0.81,2.78-1c1.03-0.19,2.09-0.29,3.17-0.29c1.08,0,2.13,0.1,3.15,0.31c1.02,0.21,1.93,0.55,2.73,1.04
		c0.8,0.49,1.46,1.14,1.99,1.95c0.53,0.81,0.84,1.84,0.95,3.07h-5.22c-0.08-1.06-0.48-1.77-1.2-2.15c-0.72-0.37-1.57-0.56-2.55-0.56
		c-0.31,0-0.64,0.02-1,0.06c-0.36,0.04-0.69,0.12-0.99,0.25c-0.3,0.13-0.55,0.32-0.75,0.56s-0.31,0.57-0.31,0.99
		c0,0.49,0.18,0.89,0.54,1.2c0.36,0.31,0.83,0.56,1.41,0.75c0.58,0.19,1.24,0.37,1.99,0.52c0.75,0.15,1.51,0.32,2.28,0.5
		c0.8,0.18,1.58,0.4,2.34,0.66c0.76,0.26,1.44,0.6,2.03,1.03c0.59,0.42,1.07,0.95,1.43,1.58s0.54,1.41,0.54,2.34
		c0,1.31-0.27,2.42-0.79,3.3c-0.53,0.89-1.22,1.6-2.07,2.15c-0.85,0.54-1.82,0.92-2.92,1.14c-1.09,0.22-2.21,0.33-3.34,0.33
		c-1.16,0-2.29-0.12-3.4-0.35c-1.11-0.23-2.09-0.62-2.96-1.16c-0.86-0.54-1.57-1.26-2.13-2.15c-0.55-0.89-0.86-2-0.91-3.34h5.22
		C709.48,376.97,709.6,377.48,709.84,377.9z"/>
	<path d="M725.75,369.03c0.08-1.29,0.4-2.36,0.97-3.21c0.57-0.85,1.29-1.53,2.16-2.05c0.88-0.51,1.86-0.88,2.96-1.1
		c1.09-0.22,2.2-0.33,3.31-0.33c1,0,2.02,0.07,3.05,0.21c1.03,0.14,1.97,0.42,2.82,0.83s1.55,0.99,2.09,1.72s0.81,1.71,0.81,2.92
		v10.4c0,0.9,0.05,1.76,0.16,2.59c0.1,0.82,0.28,1.44,0.54,1.86h-5.57c-0.1-0.31-0.19-0.62-0.25-0.95
		c-0.06-0.32-0.11-0.65-0.13-0.99c-0.88,0.9-1.91,1.53-3.09,1.89c-1.18,0.36-2.4,0.54-3.63,0.54c-0.95,0-1.84-0.12-2.67-0.35
		c-0.83-0.23-1.55-0.59-2.16-1.08c-0.62-0.49-1.1-1.11-1.45-1.86c-0.35-0.75-0.52-1.64-0.52-2.67c0-1.13,0.2-2.07,0.6-2.8
		s0.91-1.32,1.55-1.76c0.63-0.44,1.35-0.77,2.16-0.99c0.81-0.22,1.63-0.39,2.45-0.52c0.82-0.13,1.64-0.23,2.44-0.31
		c0.8-0.08,1.51-0.19,2.13-0.35c0.62-0.15,1.11-0.38,1.47-0.68c0.36-0.3,0.53-0.73,0.5-1.29c0-0.59-0.1-1.06-0.29-1.41
		c-0.19-0.35-0.45-0.62-0.77-0.81c-0.32-0.19-0.69-0.32-1.12-0.39c-0.42-0.06-0.88-0.1-1.37-0.1c-1.08,0-1.93,0.23-2.55,0.7
		c-0.62,0.46-0.98,1.24-1.08,2.32H725.75z M738.43,373.09c-0.23,0.21-0.52,0.37-0.87,0.48c-0.35,0.12-0.72,0.21-1.12,0.29
		c-0.4,0.08-0.82,0.14-1.26,0.19c-0.44,0.05-0.88,0.12-1.31,0.19c-0.41,0.08-0.82,0.18-1.22,0.31c-0.4,0.13-0.75,0.3-1.04,0.52
		c-0.3,0.22-0.54,0.5-0.72,0.83c-0.18,0.34-0.27,0.76-0.27,1.28c0,0.49,0.09,0.9,0.27,1.24c0.18,0.34,0.43,0.6,0.74,0.79
		c0.31,0.19,0.67,0.33,1.08,0.41c0.41,0.08,0.84,0.12,1.27,0.12c1.08,0,1.92-0.18,2.51-0.54c0.59-0.36,1.03-0.79,1.31-1.29
		c0.28-0.5,0.46-1.01,0.52-1.53c0.06-0.52,0.1-0.93,0.1-1.24V373.09z"/>
	<path d="M762.35,380.32c-0.64,1.08-1.49,1.86-2.53,2.34c-1.04,0.48-2.22,0.71-3.54,0.71c-1.49,0-2.81-0.29-3.94-0.87
		c-1.13-0.58-2.07-1.37-2.8-2.36c-0.73-0.99-1.29-2.13-1.66-3.42c-0.37-1.29-0.56-2.63-0.56-4.02c0-1.34,0.19-2.63,0.56-3.88
		c0.37-1.25,0.93-2.35,1.66-3.31c0.73-0.95,1.66-1.72,2.76-2.3c1.11-0.58,2.4-0.87,3.86-0.87c1.19,0,2.31,0.25,3.38,0.75
		c1.07,0.5,1.91,1.24,2.53,2.22h0.08v-10.05h5.49v27.6h-5.22v-2.55H762.35z M762.12,370.44c-0.15-0.76-0.42-1.43-0.79-2.01
		c-0.37-0.58-0.86-1.05-1.45-1.41c-0.59-0.36-1.34-0.54-2.24-0.54c-0.9,0-1.66,0.18-2.28,0.54c-0.62,0.36-1.11,0.84-1.49,1.43
		c-0.37,0.59-0.64,1.27-0.81,2.03c-0.17,0.76-0.25,1.55-0.25,2.38c0,0.77,0.09,1.55,0.27,2.32c0.18,0.77,0.47,1.46,0.87,2.07
		c0.4,0.61,0.9,1.1,1.51,1.47c0.6,0.37,1.33,0.56,2.18,0.56c0.9,0,1.66-0.18,2.26-0.54c0.6-0.36,1.09-0.84,1.45-1.45
		c0.36-0.6,0.62-1.29,0.77-2.07c0.15-0.77,0.23-1.57,0.23-2.4C762.35,371.99,762.28,371.2,762.12,370.44z"/>
	<path d="M771.55,369.03c0.08-1.29,0.4-2.36,0.97-3.21c0.57-0.85,1.29-1.53,2.16-2.05c0.88-0.51,1.86-0.88,2.96-1.1
		c1.09-0.22,2.2-0.33,3.31-0.33c1,0,2.02,0.07,3.05,0.21c1.03,0.14,1.97,0.42,2.82,0.83s1.55,0.99,2.09,1.72s0.81,1.71,0.81,2.92
		v10.4c0,0.9,0.05,1.76,0.16,2.59c0.1,0.82,0.28,1.44,0.54,1.86h-5.57c-0.1-0.31-0.19-0.62-0.25-0.95
		c-0.06-0.32-0.11-0.65-0.13-0.99c-0.88,0.9-1.91,1.53-3.09,1.89c-1.18,0.36-2.4,0.54-3.63,0.54c-0.95,0-1.84-0.12-2.67-0.35
		c-0.83-0.23-1.55-0.59-2.16-1.08c-0.62-0.49-1.1-1.11-1.45-1.86c-0.35-0.75-0.52-1.64-0.52-2.67c0-1.13,0.2-2.07,0.6-2.8
		s0.91-1.32,1.55-1.76c0.63-0.44,1.35-0.77,2.16-0.99c0.81-0.22,1.63-0.39,2.45-0.52c0.82-0.13,1.64-0.23,2.44-0.31
		c0.8-0.08,1.51-0.19,2.13-0.35c0.62-0.15,1.11-0.38,1.47-0.68c0.36-0.3,0.53-0.73,0.5-1.29c0-0.59-0.1-1.06-0.29-1.41
		c-0.19-0.35-0.45-0.62-0.77-0.81c-0.32-0.19-0.69-0.32-1.12-0.39c-0.42-0.06-0.88-0.1-1.37-0.1c-1.08,0-1.93,0.23-2.55,0.7
		c-0.62,0.46-0.98,1.24-1.08,2.32H771.55z M784.23,373.09c-0.23,0.21-0.52,0.37-0.87,0.48c-0.35,0.12-0.72,0.21-1.12,0.29
		c-0.4,0.08-0.82,0.14-1.26,0.19c-0.44,0.05-0.88,0.12-1.31,0.19c-0.41,0.08-0.82,0.18-1.22,0.31c-0.4,0.13-0.75,0.3-1.04,0.52
		c-0.3,0.22-0.54,0.5-0.72,0.83c-0.18,0.34-0.27,0.76-0.27,1.28c0,0.49,0.09,0.9,0.27,1.24c0.18,0.34,0.43,0.6,0.74,0.79
		c0.31,0.19,0.67,0.33,1.08,0.41c0.41,0.08,0.84,0.12,1.27,0.12c1.08,0,1.92-0.18,2.51-0.54c0.59-0.36,1.03-0.79,1.31-1.29
		c0.28-0.5,0.46-1.01,0.52-1.53c0.06-0.52,0.1-0.93,0.1-1.24V373.09z"/>
</g>
<g>
	<path class="st0" d="M635.82,408.7h-9.94h-29.93c-12.31,0-22.28-9.98-22.28-22.28v-42.05h44.17c9.94,0,18,8.06,18,18V408.7z"/>
	<path class="st1" d="M573.66,378.38c6.05,0,11.63-0.02,17.21,0.04c0.55,0.01,1.26,0.5,1.59,0.86c3.84,4.2,7.63,8.42,11.43,12.64
		c0.23,0.25,0.48,0.5,0.85,0.89c2.65-2.61,5.18-5.09,7.71-7.58c1.97-1.94,3.9-3.88,5.92-5.8c0.35-0.33,1.04-0.76,1.59-0.76
		c5.09-0.06,10.19-0.03,15.85-0.03c-10.46,9.81-20.62,19.33-30.92,28.98C594.48,397.87,584.2,388.24,573.66,378.38z"/>
	<path class="st1" d="M635.82,373.82c-6.05,0-11.63,0.02-17.21-0.04c-0.55-0.01-1.26-0.5-1.59-0.86c-3.84-4.2-7.63-8.42-11.43-12.64
		c-0.23-0.25-0.48-0.5-0.85-0.89c-2.65,2.61-5.18,5.09-7.71,7.58c-1.97,1.94-3.9,3.88-5.92,5.8c-0.35,0.33-1.04,0.76-1.59,0.76
		c-5.09,0.06-10.19,0.03-15.85,0.03c10.46-9.81,20.62-19.33,30.92-28.98C615,354.33,625.28,363.96,635.82,373.82z"/>
</g>
<g>
	<g>
		<g>
			<path d="M654.05,399.47c-0.84,3.63-2.67,6.35-4.8,7.78c-0.35-0.44-1.17-1.25-1.68-1.56c1.65-0.98,3.03-2.7,3.84-4.77H648v-1.96
				h4.28l0.37-0.09L654.05,399.47z M663.55,398.28c-1.32,1.19-2.93,2.51-4.26,3.4c1.23,1.68,2.82,2.98,4.87,3.79
				c-0.49,0.4-1.14,1.26-1.46,1.82c-2.54-1.14-4.35-3.02-5.66-5.42v4.01c0,1.14-0.23,1.7-0.98,2.05c-0.72,0.33-1.79,0.35-3.26,0.35
				c-0.09-0.6-0.42-1.53-0.7-2.09c0.88,0.05,1.96,0.05,2.28,0.03c0.32-0.02,0.42-0.1,0.42-0.38v-8.36h-4.38v-2h6.5
				c-1.49-0.67-3.52-1.35-5.14-1.77l1.03-1.7c2.03,0.44,4.96,1.37,6.45,2.14l-1.12,1.95c-0.3-0.18-0.68-0.37-1.1-0.56V397
				c0.33,1.1,0.75,2.14,1.25,3.09c1.19-0.95,2.51-2.17,3.35-3.23L663.55,398.28z"/>
		</g>
		<g>
			<path d="M674.34,392.64c-0.44,1.19-0.98,2.42-1.61,3.59v12.1h-2.07v-8.84c-0.33,0.46-0.68,0.86-1.02,1.23
				c-0.19-0.49-0.77-1.63-1.12-2.14c1.54-1.58,3.02-4.05,3.86-6.56L674.34,392.64z M685.07,405.77v2h-11.66v-2h4.82v-2.1h-3.86
				v-1.98h3.86v-1.54h2.12v1.54h3.96v1.98h-3.96v2.1H685.07z M678.23,395.85h-3.51v-1.95h3.51v-1.95h2.12v1.95h3.61v1.95h-3.61v1.82
				h4.4v1.96h-10.83v-1.96h4.31V395.85z"/>
		</g>
		<g>
			<path d="M695.28,401.18c-0.56,0.18-1.12,0.35-1.68,0.51v4.44c0,0.96-0.16,1.49-0.68,1.82c-0.54,0.33-1.28,0.4-2.44,0.39
				c-0.05-0.51-0.28-1.37-0.53-1.93c0.63,0.04,1.25,0.04,1.46,0.02c0.21,0,0.3-0.07,0.3-0.3v-3.88c-0.58,0.18-1.16,0.33-1.67,0.47
				l-0.46-2c0.6-0.12,1.33-0.32,2.12-0.51v-3.03h-1.84v-1.91h1.84v-3.3h1.89v3.3h1.6v1.91h-1.6v2.52l1.42-0.4L695.28,401.18z
				 M701.4,406.31c0.47,0.05,0.96,0.07,1.47,0.07c0.54,0,2.63,0,3.35-0.04c-0.26,0.44-0.51,1.28-0.58,1.79h-2.91
				c-2.42,0-4.31-0.42-5.65-2.07c-0.4,0.93-0.91,1.72-1.54,2.33c-0.32-0.32-1.14-0.88-1.58-1.14c1.26-1.1,1.89-2.91,2.16-4.96
				l1.89,0.25c-0.09,0.56-0.17,1.1-0.32,1.63c0.46,0.79,1.05,1.3,1.77,1.63v-3.75h-3.28v-1.54h3.28v-0.89h-4.29V398h4.29v-0.81
				h-3.28v-1.56h3.28v-0.74h-4.01v-1.63h4.01v-1.31h1.93v1.31h4.4v1.63h-4.4v0.74h3.72V398h1.09v1.61h-1.09v2.44h-3.72v1.02h3.84
				v1.63h-3.84V406.31z M701.4,398h1.79v-0.81h-1.79V398z M701.4,400.51h1.79v-0.89h-1.79V400.51z"/>
		</g>
		<g>
			<path d="M717.58,400.67c-0.49-0.44-1.47-1.16-2.26-1.7c-0.63,0.89-1.65,1.79-3.23,2.52c-0.28-0.42-0.86-1.07-1.32-1.4
				c1.79-0.7,2.68-1.56,3.12-2.44h-2.91v-1.63h1.17c-0.42-0.26-0.98-0.58-1.33-0.75c0.89-0.84,1.58-2.12,1.93-3.42l1.84,0.39
				c-0.1,0.33-0.21,0.68-0.35,1.03h4.35v1.61h-2.28v0.79c0,0.12,0,0.23-0.02,0.35h2.7v1.63h-2.89c0.74,0.39,2.49,1.39,2.95,1.68
				L717.58,400.67z M714.32,396.02c0.02-0.14,0.02-0.26,0.02-0.39v-0.75h-0.88c-0.25,0.42-0.53,0.81-0.81,1.14H714.32z
				 M713.32,400.93h11.43v7.38h-2.14v-0.56h-7.24v0.58h-2.05V400.93z M715.37,402.56v0.98h7.24v-0.98H715.37z M722.62,406.08v-1.03
				h-7.24v1.03H722.62z M726.26,393.23v6.65h-6.66v-6.65H726.26z M724.19,395.07h-2.67v2.96h2.67V395.07z"/>
		</g>
		<g>
			<path d="M739.55,406.4c0,0.86-0.16,1.3-0.74,1.58c-0.56,0.26-1.35,0.3-2.42,0.3c-0.09-0.49-0.37-1.17-0.63-1.63
				c0.63,0.04,1.31,0.04,1.53,0.04c0.23,0,0.3-0.07,0.3-0.3v-1.79c-0.88,0.63-1.75,1.23-2.54,1.74l-0.44-1.23
				c-0.19,1.19-0.58,2.38-1.25,3.3c-0.3-0.4-1.09-1.16-1.46-1.4c0.93-1.37,1-3.3,1-4.82v-3.94h6.64V406.4z M738.57,393.25
				c0.74,1.26,1.67,2.98,2.09,4.03l-1.82,0.74c-0.11-0.32-0.26-0.68-0.44-1.1c-4.44,0.44-5.15,0.54-5.66,0.75
				c-0.11-0.4-0.44-1.35-0.65-1.88c0.32-0.07,0.61-0.32,0.96-0.7s1.42-1.74,2.07-3.12l2.1,0.6c-0.6,1.02-1.38,2.03-2.16,2.91
				l2.56-0.19c-0.26-0.51-0.51-1-0.74-1.42L738.57,393.25z M734.84,402.19c0,0.67-0.04,1.46-0.12,2.24
				c0.79-0.35,1.82-0.88,2.88-1.44v-0.58l-0.84,0.82c-0.44-0.46-1.24-1.14-1.91-1.68V402.19z M734.84,399.98v1.25l0.88-0.75
				c0.6,0.42,1.35,1.03,1.88,1.49v-1.98H734.84z M743.5,399.68c-2.1,0-2.67-0.77-2.67-2.72v-4.98h2.07v2.07h4.31v1.79h-4.31V397
				c0,0.65,0.11,0.89,0.67,0.89h2.56c0.49,0,1.23-0.05,1.61-0.14c0.04,0.54,0.12,1.3,0.19,1.77c-0.37,0.12-1.1,0.16-1.77,0.16H743.5
				z M745.71,406.38c0.6,0,0.72-0.3,0.81-1.91c0.42,0.32,1.26,0.63,1.81,0.75c-0.21,2.3-0.75,2.98-2.42,2.98h-2.49
				c-2.07,0-2.58-0.61-2.58-2.52v-5.5h2.07v1.75h4.44v1.84h-4.44v1.91c0,0.61,0.12,0.7,0.82,0.7H745.71z"/>
		</g>
		<g>
			<path d="M755.27,398.6h-1.91v-3.95h6.63v-0.7h-5.84v-1.37h13.75v1.37h-5.87v0.7h6.77v3.95h-2.02l-0.37,1.25
				c-0.93-0.33-2.73-0.75-4.05-0.96l0.4-1.17c1.25,0.14,2.98,0.51,3.94,0.82v-2.51h-0.95l0.63,0.89c-0.93,0.39-2.21,0.67-3.12,0.84
				l-0.65-0.98c0.68-0.16,1.67-0.47,2.4-0.75h-3v3.65h-2.03v-3.65h-3.35c0.95,0.17,2.07,0.47,2.74,0.72l-0.56,1.12
				c-0.7-0.28-2.02-0.65-3.02-0.86l0.49-0.98h-0.95v2.4c1.07-0.12,2.54-0.33,4.05-0.56l0.07,1.19c-1.32,0.3-2.61,0.6-3.72,0.84
				L755.27,398.6z M766.45,406.51c0.89,0,1.05-0.26,1.17-1.74c0.4,0.28,1.19,0.54,1.74,0.65c-0.25,2.1-0.82,2.67-2.73,2.67h-3.68
				c-2.38,0-3.07-0.49-3.07-2.31v-0.05h-2.91v0.75h-2v-6.36h12.15v5.61h-5.24v0.05c0,0.63,0.21,0.74,1.26,0.74H766.45z
				 M756.97,401.51v0.79h2.91v-0.79H756.97z M759.88,404.31v-0.79h-2.91v0.79H759.88z M765.05,401.51h-3.17v0.79h3.17V401.51z
				 M765.05,404.31v-0.79h-3.17v0.79H765.05z"/>
		</g>
		<g>
			<path d="M779.05,402.21c-0.18-0.47-0.49-1.17-0.82-1.86v7.96h-1.89v-6.73c-0.47,1.4-1.02,2.68-1.61,3.59
				c-0.21-0.6-0.67-1.54-1-2.1c1.05-1.37,1.98-3.84,2.49-5.93h-2.14v-1.93h2.26v-3.26h1.89v3.26h1.72v1.93h-1.72v0.56
				c0.49,0.67,1.75,2.63,2.03,3.12L779.05,402.21z M790.06,401.09c0,0-0.02,0.47-0.04,0.7c-0.1,2.79-0.23,4.1-0.6,4.56
				c-0.3,0.37-0.56,0.51-0.98,0.6c-0.35,0.07-0.91,0.1-1.54,0.09c-0.02-0.61-0.19-1.4-0.46-1.91c0.42,0.03,0.77,0.05,0.96,0.05
				c0.21,0,0.32-0.05,0.44-0.19c0.14-0.19,0.23-0.77,0.3-2.19h-2.12v5.5h-1.96v-3.65c-1,1.28-2.26,2.37-3.58,3.03
				c-0.3-0.46-0.89-1.16-1.3-1.54c1.6-0.68,3.1-1.95,4.12-3.35h-2.91c0.23-1.28,0.47-3.23,0.6-4.79h3.07v-1.49h-3.63v-1.72h1.98
				c-0.25-0.68-0.67-1.49-1.07-2.14l1.63-0.65c0.56,0.75,1.09,1.81,1.32,2.51l-0.63,0.28h2.28c0.44-0.84,0.93-1.98,1.17-2.82
				l2.02,0.54c-0.39,0.79-0.81,1.6-1.19,2.28h1.7v4.93h-3.61v1.37H790.06z M782.62,399.72c-0.05,0.47-0.11,0.93-0.17,1.37h1.61
				v-1.37H782.62z M786.02,398h1.72v-1.49h-1.72V398z"/>
		</g>
	</g>
</g>
<g>
	<g>
		<path d="M9.63,92.34l6.76,19.89h0.08l6.4-19.89h8.95v28.92h-5.95v-20.49h-0.08l-7.09,20.49h-4.9l-7.09-20.29H6.63v20.29H0.68
			V92.34H9.63z"/>
		<path d="M36.56,106.76c0.08-1.35,0.42-2.47,1.01-3.36c0.59-0.89,1.35-1.61,2.27-2.15c0.92-0.54,1.95-0.92,3.1-1.15
			c1.15-0.23,2.3-0.34,3.46-0.34c1.05,0,2.12,0.08,3.2,0.22c1.08,0.15,2.07,0.44,2.96,0.87c0.89,0.43,1.62,1.03,2.19,1.8
			c0.57,0.77,0.85,1.79,0.85,3.06v10.9c0,0.95,0.05,1.85,0.16,2.71c0.11,0.86,0.3,1.51,0.57,1.94H50.5
			c-0.11-0.32-0.2-0.65-0.26-0.99c-0.07-0.34-0.12-0.68-0.14-1.03c-0.92,0.95-2,1.61-3.24,1.98c-1.24,0.38-2.51,0.57-3.81,0.57
			c-1,0-1.93-0.12-2.79-0.36c-0.86-0.24-1.62-0.62-2.27-1.13c-0.65-0.51-1.15-1.16-1.52-1.94c-0.36-0.78-0.55-1.71-0.55-2.79
			c0-1.19,0.21-2.17,0.63-2.94c0.42-0.77,0.96-1.38,1.62-1.84c0.66-0.46,1.42-0.8,2.27-1.03c0.85-0.23,1.71-0.41,2.57-0.55
			c0.86-0.14,1.71-0.24,2.55-0.32c0.84-0.08,1.58-0.2,2.23-0.36c0.65-0.16,1.16-0.4,1.54-0.71c0.38-0.31,0.55-0.76,0.53-1.36
			c0-0.62-0.1-1.11-0.3-1.48c-0.2-0.36-0.47-0.65-0.81-0.85c-0.34-0.2-0.73-0.34-1.17-0.4c-0.45-0.07-0.93-0.1-1.44-0.1
			c-1.13,0-2.03,0.24-2.67,0.73c-0.65,0.49-1.03,1.3-1.13,2.43H36.56z M49.85,111.01c-0.24,0.22-0.55,0.38-0.91,0.51
			s-0.76,0.22-1.17,0.3c-0.42,0.08-0.86,0.15-1.32,0.2c-0.46,0.05-0.92,0.12-1.38,0.2c-0.43,0.08-0.86,0.19-1.28,0.32
			c-0.42,0.14-0.78,0.32-1.09,0.55c-0.31,0.23-0.56,0.52-0.75,0.87c-0.19,0.35-0.28,0.8-0.28,1.34c0,0.51,0.09,0.95,0.28,1.3
			c0.19,0.35,0.45,0.63,0.77,0.83c0.32,0.2,0.7,0.34,1.13,0.43c0.43,0.08,0.88,0.12,1.34,0.12c1.13,0,2.01-0.19,2.63-0.57
			c0.62-0.38,1.08-0.83,1.38-1.36c0.3-0.53,0.48-1.06,0.55-1.6c0.07-0.54,0.1-0.97,0.1-1.3V111.01z"/>
		<path d="M64.89,116.05c0.26,0.45,0.59,0.81,0.99,1.09c0.41,0.28,0.87,0.49,1.4,0.63c0.53,0.14,1.07,0.2,1.64,0.2
			c0.41,0,0.83-0.05,1.28-0.14c0.45-0.09,0.85-0.24,1.22-0.45c0.36-0.2,0.67-0.47,0.91-0.81c0.24-0.34,0.36-0.76,0.36-1.28
			c0-0.86-0.57-1.51-1.72-1.94c-1.15-0.43-2.75-0.86-4.8-1.3c-0.84-0.19-1.65-0.41-2.45-0.67c-0.8-0.26-1.51-0.59-2.13-1.01
			c-0.62-0.42-1.12-0.95-1.5-1.58c-0.38-0.63-0.57-1.41-0.57-2.33c0-1.35,0.26-2.46,0.79-3.32c0.53-0.86,1.22-1.55,2.09-2.05
			c0.86-0.5,1.84-0.85,2.92-1.05c1.08-0.2,2.19-0.3,3.32-0.3c1.13,0,2.23,0.11,3.3,0.32c1.07,0.22,2.02,0.58,2.86,1.09
			c0.84,0.51,1.53,1.19,2.09,2.05c0.55,0.85,0.88,1.92,0.99,3.22h-5.47c-0.08-1.11-0.5-1.86-1.26-2.25
			c-0.76-0.39-1.65-0.59-2.67-0.59c-0.32,0-0.68,0.02-1.05,0.06c-0.38,0.04-0.72,0.13-1.03,0.26c-0.31,0.14-0.57,0.33-0.79,0.59
			c-0.22,0.26-0.32,0.6-0.32,1.03c0,0.51,0.19,0.93,0.57,1.26c0.38,0.32,0.87,0.59,1.48,0.79c0.61,0.2,1.3,0.38,2.09,0.55
			c0.78,0.16,1.58,0.34,2.39,0.53c0.84,0.19,1.65,0.42,2.45,0.69c0.8,0.27,1.5,0.63,2.13,1.07c0.62,0.45,1.12,1,1.5,1.66
			s0.57,1.48,0.57,2.45c0,1.38-0.28,2.53-0.83,3.46c-0.55,0.93-1.28,1.68-2.17,2.25c-0.89,0.57-1.91,0.97-3.06,1.19
			c-1.15,0.23-2.32,0.34-3.5,0.34c-1.22,0-2.4-0.12-3.56-0.36c-1.16-0.24-2.19-0.65-3.1-1.22c-0.91-0.57-1.65-1.32-2.23-2.25
			c-0.58-0.93-0.9-2.1-0.95-3.5h5.47C64.51,115.07,64.64,115.61,64.89,116.05z"/>
		<path d="M81.56,106.76c0.08-1.35,0.42-2.47,1.01-3.36c0.59-0.89,1.35-1.61,2.27-2.15c0.92-0.54,1.95-0.92,3.1-1.15
			c1.15-0.23,2.3-0.34,3.46-0.34c1.05,0,2.12,0.08,3.2,0.22c1.08,0.15,2.07,0.44,2.96,0.87c0.89,0.43,1.62,1.03,2.19,1.8
			c0.57,0.77,0.85,1.79,0.85,3.06v10.9c0,0.95,0.05,1.85,0.16,2.71c0.11,0.86,0.3,1.51,0.57,1.94h-5.83
			c-0.11-0.32-0.2-0.65-0.26-0.99c-0.07-0.34-0.12-0.68-0.14-1.03c-0.92,0.95-2,1.61-3.24,1.98c-1.24,0.38-2.51,0.57-3.81,0.57
			c-1,0-1.93-0.12-2.79-0.36c-0.86-0.24-1.62-0.62-2.27-1.13c-0.65-0.51-1.15-1.16-1.52-1.94c-0.36-0.78-0.55-1.71-0.55-2.79
			c0-1.19,0.21-2.17,0.63-2.94c0.42-0.77,0.96-1.38,1.62-1.84c0.66-0.46,1.42-0.8,2.27-1.03c0.85-0.23,1.71-0.41,2.57-0.55
			c0.86-0.14,1.71-0.24,2.55-0.32c0.84-0.08,1.58-0.2,2.23-0.36c0.65-0.16,1.16-0.4,1.54-0.71c0.38-0.31,0.55-0.76,0.53-1.36
			c0-0.62-0.1-1.11-0.3-1.48c-0.2-0.36-0.47-0.65-0.81-0.85c-0.34-0.2-0.73-0.34-1.17-0.4c-0.45-0.07-0.93-0.1-1.44-0.1
			c-1.13,0-2.03,0.24-2.67,0.73c-0.65,0.49-1.03,1.3-1.13,2.43H81.56z M94.85,111.01c-0.24,0.22-0.55,0.38-0.91,0.51
			c-0.36,0.12-0.76,0.22-1.17,0.3c-0.42,0.08-0.86,0.15-1.32,0.2c-0.46,0.05-0.92,0.12-1.38,0.2c-0.43,0.08-0.86,0.19-1.28,0.32
			c-0.42,0.14-0.78,0.32-1.09,0.55c-0.31,0.23-0.56,0.52-0.75,0.87c-0.19,0.35-0.28,0.8-0.28,1.34c0,0.51,0.09,0.95,0.28,1.3
			c0.19,0.35,0.45,0.63,0.77,0.83c0.32,0.2,0.7,0.34,1.13,0.43c0.43,0.08,0.88,0.12,1.34,0.12c1.13,0,2.01-0.19,2.63-0.57
			c0.62-0.38,1.08-0.83,1.38-1.36c0.3-0.53,0.48-1.06,0.55-1.6c0.07-0.54,0.1-0.97,0.1-1.3V111.01z"/>
		<path d="M119.92,118.58c-0.68,1.13-1.56,1.95-2.65,2.45s-2.33,0.75-3.71,0.75c-1.57,0-2.94-0.3-4.13-0.91
			c-1.19-0.61-2.17-1.43-2.94-2.47c-0.77-1.04-1.35-2.23-1.74-3.58c-0.39-1.35-0.59-2.75-0.59-4.21c0-1.4,0.2-2.76,0.59-4.07
			c0.39-1.31,0.97-2.46,1.74-3.46c0.77-1,1.73-1.8,2.9-2.41c1.16-0.61,2.51-0.91,4.05-0.91c1.24,0,2.42,0.26,3.54,0.79
			c1.12,0.53,2.01,1.3,2.65,2.33h0.08V92.34h5.75v28.92H120v-2.67H119.92z M119.67,108.23c-0.16-0.8-0.44-1.5-0.83-2.11
			c-0.39-0.61-0.9-1.1-1.52-1.48c-0.62-0.38-1.4-0.57-2.35-0.57c-0.95,0-1.74,0.19-2.39,0.57c-0.65,0.38-1.17,0.88-1.56,1.5
			c-0.39,0.62-0.68,1.33-0.85,2.13c-0.18,0.8-0.26,1.63-0.26,2.49c0,0.81,0.09,1.62,0.28,2.43c0.19,0.81,0.49,1.53,0.91,2.17
			c0.42,0.63,0.94,1.15,1.58,1.54c0.63,0.39,1.4,0.59,2.29,0.59c0.94,0,1.73-0.19,2.37-0.57c0.63-0.38,1.14-0.88,1.52-1.52
			c0.38-0.63,0.65-1.36,0.81-2.17c0.16-0.81,0.24-1.65,0.24-2.51C119.92,109.86,119.84,109.03,119.67,108.23z"/>
		<path d="M129.56,106.76c0.08-1.35,0.42-2.47,1.01-3.36c0.59-0.89,1.35-1.61,2.27-2.15c0.92-0.54,1.95-0.92,3.1-1.15
			c1.15-0.23,2.3-0.34,3.46-0.34c1.05,0,2.12,0.08,3.2,0.22c1.08,0.15,2.07,0.44,2.96,0.87c0.89,0.43,1.62,1.03,2.19,1.8
			c0.57,0.77,0.85,1.79,0.85,3.06v10.9c0,0.95,0.05,1.85,0.16,2.71c0.11,0.86,0.3,1.51,0.57,1.94h-5.83
			c-0.11-0.32-0.2-0.65-0.26-0.99c-0.07-0.34-0.12-0.68-0.14-1.03c-0.92,0.95-2,1.61-3.24,1.98c-1.24,0.38-2.51,0.57-3.81,0.57
			c-1,0-1.93-0.12-2.79-0.36c-0.86-0.24-1.62-0.62-2.27-1.13c-0.65-0.51-1.15-1.16-1.52-1.94c-0.36-0.78-0.55-1.71-0.55-2.79
			c0-1.19,0.21-2.17,0.63-2.94c0.42-0.77,0.96-1.38,1.62-1.84c0.66-0.46,1.42-0.8,2.27-1.03c0.85-0.23,1.71-0.41,2.57-0.55
			c0.86-0.14,1.71-0.24,2.55-0.32c0.84-0.08,1.58-0.2,2.23-0.36c0.65-0.16,1.16-0.4,1.54-0.71c0.38-0.31,0.55-0.76,0.53-1.36
			c0-0.62-0.1-1.11-0.3-1.48c-0.2-0.36-0.47-0.65-0.81-0.85c-0.34-0.2-0.73-0.34-1.17-0.4c-0.45-0.07-0.93-0.1-1.44-0.1
			c-1.13,0-2.03,0.24-2.67,0.73c-0.65,0.49-1.03,1.3-1.13,2.43H129.56z M142.84,111.01c-0.24,0.22-0.55,0.38-0.91,0.51
			c-0.36,0.12-0.76,0.22-1.17,0.3c-0.42,0.08-0.86,0.15-1.32,0.2c-0.46,0.05-0.92,0.12-1.38,0.2c-0.43,0.08-0.86,0.19-1.28,0.32
			c-0.42,0.14-0.78,0.32-1.09,0.55c-0.31,0.23-0.56,0.52-0.75,0.87c-0.19,0.35-0.28,0.8-0.28,1.34c0,0.51,0.09,0.95,0.28,1.3
			c0.19,0.35,0.45,0.63,0.77,0.83c0.32,0.2,0.7,0.34,1.13,0.43c0.43,0.08,0.88,0.12,1.34,0.12c1.13,0,2.01-0.19,2.63-0.57
			c0.62-0.38,1.08-0.83,1.38-1.36c0.3-0.53,0.48-1.06,0.55-1.6c0.07-0.54,0.1-0.97,0.1-1.3V111.01z"/>
	</g>
	<g>
		<g>
			<g>
				<path d="M19.54,138.59c-0.96,4.15-3.05,7.26-5.49,8.9c-0.4-0.5-1.34-1.42-1.92-1.78c1.88-1.12,3.47-3.09,4.39-5.45h-3.89v-2.25
					h4.89l0.42-0.1L19.54,138.59z M30.41,137.22c-1.5,1.36-3.35,2.87-4.87,3.89c1.4,1.92,3.23,3.41,5.57,4.33
					c-0.56,0.46-1.3,1.44-1.66,2.08c-2.91-1.3-4.97-3.45-6.48-6.19v4.59c0,1.3-0.26,1.94-1.12,2.35c-0.82,0.38-2.04,0.4-3.73,0.4
					c-0.1-0.68-0.48-1.74-0.8-2.39c1,0.06,2.25,0.06,2.61,0.04c0.36-0.02,0.48-0.12,0.48-0.44v-9.56h-5.01v-2.29h7.44
					c-1.7-0.76-4.03-1.54-5.87-2.02l1.18-1.94c2.33,0.5,5.67,1.56,7.38,2.45l-1.28,2.23c-0.34-0.2-0.78-0.42-1.26-0.64v1.66
					c0.38,1.26,0.86,2.45,1.42,3.53c1.36-1.08,2.87-2.49,3.83-3.69L30.41,137.22z"/>
			</g>
			<g>
				<path d="M45.34,130.77c-0.5,1.36-1.12,2.77-1.84,4.11v13.83h-2.37v-10.1c-0.38,0.52-0.78,0.98-1.16,1.4
					c-0.22-0.56-0.88-1.86-1.28-2.45c1.76-1.8,3.45-4.63,4.41-7.5L45.34,130.77z M57.61,145.79v2.28H44.28v-2.28h5.51v-2.41h-4.41
					v-2.26h4.41v-1.76h2.43v1.76h4.53v2.26h-4.53v2.41H57.61z M49.79,134.44h-4.01v-2.23h4.01v-2.23h2.43v2.23h4.13v2.23h-4.13v2.08
					h5.03v2.25H44.86v-2.25h4.93V134.44z"/>
			</g>
			<g>
				<path d="M71.88,140.53c-0.64,0.2-1.28,0.4-1.92,0.58v5.07c0,1.1-0.18,1.7-0.78,2.08c-0.62,0.38-1.46,0.46-2.79,0.44
					c-0.06-0.58-0.32-1.56-0.6-2.21c0.72,0.04,1.42,0.04,1.66,0.02c0.24,0,0.34-0.08,0.34-0.34v-4.43c-0.66,0.2-1.32,0.38-1.9,0.54
					l-0.52-2.29c0.68-0.14,1.52-0.36,2.43-0.58v-3.47h-2.1v-2.19h2.1v-3.77h2.16v3.77h1.82v2.19h-1.82v2.89l1.62-0.46L71.88,140.53z
					 M78.88,146.41c0.54,0.06,1.1,0.08,1.68,0.08c0.62,0,3.01,0,3.83-0.04c-0.3,0.5-0.58,1.46-0.66,2.04H80.4
					c-2.77,0-4.93-0.48-6.45-2.37c-0.46,1.06-1.04,1.96-1.76,2.67c-0.36-0.36-1.3-1-1.8-1.3c1.44-1.26,2.17-3.33,2.47-5.67
					l2.16,0.28c-0.1,0.64-0.2,1.26-0.36,1.86c0.52,0.9,1.2,1.48,2.02,1.86v-4.29h-3.75v-1.76h3.75v-1.02h-4.91v-1.84h4.91v-0.92
					h-3.75v-1.78h3.75v-0.84h-4.59v-1.86h4.59v-1.5h2.21v1.5h5.03v1.86h-5.03v0.84h4.25v2.71h1.24v1.84h-1.24v2.79h-4.25v1.16h4.39
					v1.86h-4.39V146.41z M78.88,136.9h2.04v-0.92h-2.04V136.9z M78.88,139.77h2.04v-1.02h-2.04V139.77z"/>
			</g>
			<g>
				<path d="M98.81,142.78c-0.24-0.56-0.72-1.4-1.2-2.21v8.14H95.3v-7.22c-0.66,1.54-1.4,2.97-2.19,3.97
					c-0.22-0.68-0.74-1.66-1.1-2.27c1.12-1.28,2.25-3.43,2.97-5.37h-2.71v-2.23h3.03v-2.26c-0.78,0.12-1.52,0.24-2.27,0.32
					c-0.08-0.54-0.38-1.32-0.64-1.84c2.29-0.36,4.79-0.96,6.46-1.64l1.34,1.94c-0.78,0.3-1.66,0.54-2.59,0.74v2.75h2.65v2.23H97.6
					v0.16c0.58,0.56,2.23,2.45,2.61,2.91L98.81,142.78z M108.69,143.64v5.05h-2.35v-4.63l-6.05,1.04l-0.38-2.27l6.43-1.1v-11.75
					h2.35v11.35l1.98-0.34l0.38,2.23L108.69,143.64z M103.66,140.85c-0.62-0.88-2.02-2.17-3.19-3.07l1.52-1.36
					c1.14,0.8,2.63,2.05,3.29,2.91L103.66,140.85z M104.18,135.56c-0.56-0.86-1.86-2.15-2.99-3.01l1.56-1.36
					c1.08,0.82,2.49,2,3.09,2.89L104.18,135.56z"/>
			</g>
			<g>
				<path d="M125.87,140.69c-0.7,0.2-1.42,0.4-2.15,0.58v4.79c0,1.16-0.22,1.72-0.9,2.11c-0.66,0.36-1.62,0.42-3.05,0.42
					c-0.08-0.6-0.38-1.54-0.66-2.17c0.78,0.02,1.6,0.02,1.86,0.02c0.28,0,0.38-0.1,0.38-0.4v-4.13l-1.94,0.48l-0.62-2.27
					c0.74-0.16,1.6-0.34,2.57-0.58V136h-2.31v-2.21h2.31v-3.79h2.37v3.79h1.96V136h-1.96v2.97l1.84-0.46L125.87,140.69z
					 M136.97,137.99c-0.76,2.77-2.05,4.97-3.75,6.66c1.32,0.92,2.87,1.58,4.65,2.02c-0.5,0.48-1.18,1.44-1.52,2.07
					c-1.94-0.58-3.59-1.42-4.99-2.53c-1.56,1.08-3.33,1.88-5.29,2.47c-0.26-0.64-0.82-1.64-1.26-2.17c1.76-0.42,3.39-1.06,4.79-1.96
					c-1.16-1.34-2.1-2.93-2.85-4.77l0.6-0.18h-1.04v-2.15h3.95v-2.41h-4.31v-2.21h4.31v-2.87h2.37v2.87h4.49v2.21h-4.49v2.41h2.41
					l0.42-0.1L136.97,137.99z M129.08,139.59c0.56,1.32,1.36,2.53,2.37,3.55c1.04-0.98,1.92-2.19,2.53-3.55H129.08z"/>
			</g>
		</g>
	</g>
	<g>
		<path class="st0" d="M113.79,80.38h-12.41H64.02c-15.36,0-27.81-12.45-27.81-27.81V0.08h55.12c12.4,0,22.46,10.06,22.46,22.46
			V80.38z"/>
		<path class="st1" d="M36.21,42.54c7.55,0,14.52-0.03,21.48,0.05c0.68,0.01,1.57,0.62,1.99,1.08c4.8,5.24,9.52,10.51,14.26,15.78
			c0.29,0.32,0.6,0.63,1.06,1.12c3.31-3.25,6.47-6.36,9.63-9.46c2.46-2.42,4.87-4.85,7.39-7.24c0.44-0.42,1.3-0.94,1.98-0.95
			c6.36-0.07,12.72-0.04,19.78-0.04C100.73,55.11,88.05,66.99,75.2,79.04C62.19,66.86,49.36,54.86,36.21,42.54z"/>
		<path class="st1" d="M113.79,36.85c-7.55,0-14.52,0.03-21.48-0.05c-0.68-0.01-1.57-0.62-1.99-1.08
			c-4.8-5.24-9.52-10.51-14.26-15.78c-0.29-0.32-0.6-0.63-1.06-1.12c-3.31,3.25-6.47,6.36-9.63,9.46c-2.46,2.42-4.87,4.85-7.39,7.24
			c-0.44,0.42-1.3,0.94-1.98,0.95c-6.36,0.07-12.72,0.04-19.78,0.04C49.27,24.29,61.95,12.41,74.8,0.36
			C87.81,12.53,100.64,24.54,113.79,36.85z"/>
	</g>
</g>
<g>
	<path class="st0" d="M331.77,393.68h-9.94H291.9c-12.31,0-22.28-9.98-22.28-22.28v-42.05h44.17c9.94,0,18,8.06,18,18V393.68z"/>
	<path class="st1" d="M269.61,363.36c6.05,0,11.63-0.02,17.21,0.04c0.55,0.01,1.26,0.5,1.59,0.86c3.84,4.2,7.63,8.42,11.43,12.64
		c0.23,0.25,0.48,0.5,0.85,0.89c2.65-2.61,5.18-5.09,7.71-7.58c1.97-1.94,3.9-3.88,5.92-5.8c0.35-0.33,1.04-0.76,1.59-0.76
		c5.09-0.06,10.19-0.03,15.85-0.03c-10.46,9.81-20.62,19.33-30.92,28.98C290.43,382.85,280.15,373.23,269.61,363.36z"/>
	<path class="st1" d="M331.77,358.8c-6.05,0-11.63,0.02-17.21-0.04c-0.55-0.01-1.26-0.5-1.59-0.86c-3.84-4.2-7.63-8.42-11.43-12.64
		c-0.23-0.25-0.48-0.5-0.85-0.89c-2.65,2.61-5.18,5.09-7.71,7.58c-1.97,1.94-3.9,3.88-5.92,5.8c-0.35,0.33-1.04,0.76-1.59,0.76
		c-5.09,0.06-10.19,0.03-15.85,0.03c10.46-9.81,20.62-19.33,30.92-28.98C310.96,339.31,321.24,348.94,331.77,358.8z"/>
</g>
<g>
	<path class="st0" d="M331.77,90.21h-9.94H291.9c-12.31,0-22.28-9.98-22.28-22.28V25.88h44.17c9.94,0,18,8.06,18,18V90.21z"/>
	<path class="st1" d="M269.61,59.9c6.05,0,11.63-0.02,17.21,0.04c0.55,0.01,1.26,0.5,1.59,0.86c3.84,4.2,7.63,8.42,11.43,12.64
		c0.23,0.25,0.48,0.5,0.85,0.89c2.65-2.61,5.18-5.09,7.71-7.58c1.97-1.94,3.9-3.88,5.92-5.8c0.35-0.33,1.04-0.76,1.59-0.76
		c5.09-0.06,10.19-0.03,15.85-0.03c-10.46,9.81-20.62,19.33-30.92,28.98C290.43,79.38,280.15,69.76,269.61,59.9z"/>
	<path class="st1" d="M331.77,55.34c-6.05,0-11.63,0.02-17.21-0.04c-0.55-0.01-1.26-0.5-1.59-0.86c-3.84-4.2-7.63-8.42-11.43-12.64
		c-0.23-0.25-0.48-0.5-0.85-0.89c-2.65,2.61-5.18,5.09-7.71,7.58c-1.97,1.94-3.9,3.88-5.92,5.8c-0.35,0.33-1.04,0.76-1.59,0.76
		c-5.09,0.06-10.19,0.03-15.85,0.03c10.46-9.81,20.62-19.33,30.92-28.98C310.96,35.85,321.24,45.47,331.77,55.34z"/>
</g>
<g>
	<path class="st0" d="M635.82,105.23h-9.94h-29.93c-12.31,0-22.28-9.98-22.28-22.28V40.89h44.17c9.94,0,18,8.06,18,18V105.23z"/>
	<path class="st1" d="M573.66,74.91c6.05,0,11.63-0.02,17.21,0.04c0.55,0.01,1.26,0.5,1.59,0.86c3.84,4.2,7.63,8.42,11.43,12.64
		c0.23,0.25,0.48,0.5,0.85,0.89c2.65-2.61,5.18-5.09,7.71-7.58c1.97-1.94,3.9-3.88,5.92-5.8c0.35-0.33,1.04-0.76,1.59-0.76
		c5.09-0.06,10.19-0.03,15.85-0.03c-10.46,9.81-20.62,19.33-30.92,28.98C594.48,94.4,584.2,84.78,573.66,74.91z"/>
	<path class="st1" d="M635.82,70.36c-6.05,0-11.63,0.02-17.21-0.04c-0.55-0.01-1.26-0.5-1.59-0.86c-3.84-4.2-7.63-8.42-11.43-12.64
		c-0.23-0.25-0.48-0.5-0.85-0.89c-2.65,2.61-5.18,5.09-7.71,7.58c-1.97,1.94-3.9,3.88-5.92,5.8c-0.35,0.33-1.04,0.76-1.59,0.76
		c-5.09,0.06-10.19,0.03-15.85,0.03c10.46-9.81,20.62-19.33,30.92-28.98C615,50.87,625.28,60.49,635.82,70.36z"/>
</g>
</svg>
