<?xml version="1.0" encoding="utf-8"?>
<!-- Generator: Adobe Illustrator 16.0.0, SVG Export Plug-In . SVG Version: 6.00 Build 0)  -->
<!DOCTYPE svg PUBLIC "-//W3C//DTD SVG 1.1//EN" "http://www.w3.org/Graphics/SVG/1.1/DTD/svg11.dtd">
<svg version="1.1" id="圖層_1" xmlns="http://www.w3.org/2000/svg" xmlns:xlink="http://www.w3.org/1999/xlink" x="0px" y="0px"
	 width="71px" height="71px" viewBox="0 0 71 71" enable-background="new 0 0 71 71" xml:space="preserve">
<g>
	<g>
		<path fill="#FFA300" d="M9.074,61.642c1.283,0,2.156,0.194,2.617,0.583c0.463,0.388,0.547,0.993,0.258,1.815
			c-0.291,0.827-0.803,1.433-1.535,1.818c-0.732,0.386-1.744,0.579-3.029,0.579H5.627l-0.65,1.846
			c-0.117,0.334-0.145,0.541-0.082,0.62s0.252,0.119,0.566,0.119h0.52l-0.43,1.221H0.047l0.43-1.221h0.459
			c0.318,0,0.539-0.04,0.658-0.119c0.117-0.079,0.236-0.286,0.354-0.62l1.656-4.694c0.117-0.334,0.145-0.54,0.084-0.617
			c-0.063-0.077-0.254-0.115-0.578-0.115H2.65l0.428-1.215H9.074z M6.016,65.373h0.6c0.629,0,1.109-0.098,1.439-0.291
			c0.332-0.194,0.576-0.521,0.738-0.98c0.154-0.434,0.137-0.741-0.049-0.92s-0.588-0.27-1.209-0.27H6.883L6.016,65.373z"/>
		<path fill="#FFA300" d="M19.486,61.642l-0.428,1.215h-0.445c-0.328,0-0.553,0.041-0.674,0.122c-0.119,0.081-0.236,0.285-0.35,0.61
			l-1.656,4.694c-0.115,0.33-0.141,0.536-0.078,0.617c0.066,0.082,0.26,0.122,0.584,0.122h0.445l-0.43,1.221h-5.438l0.43-1.221H11.9
			c0.318,0,0.541-0.041,0.66-0.122c0.123-0.082,0.242-0.287,0.359-0.617l1.654-4.694c0.115-0.325,0.141-0.529,0.078-0.61
			s-0.256-0.122-0.578-0.122h-0.453l0.428-1.215H19.486z"/>
		<path fill="#FFA300" d="M25.186,61.642l1.326,5.791l1.357-3.844c0.121-0.346,0.146-0.555,0.076-0.626
			c-0.07-0.071-0.26-0.106-0.572-0.106h-0.52l0.43-1.215h4.02l-0.428,1.215h-0.326c-0.32,0-0.539,0.039-0.656,0.115
			c-0.119,0.078-0.236,0.283-0.354,0.617l-2.346,6.654h-3.135l-1.381-6.166l-1.484,4.206c-0.117,0.334-0.145,0.541-0.082,0.62
			c0.064,0.079,0.256,0.119,0.574,0.119h0.406l-0.43,1.221h-4.033l0.43-1.221h0.447c0.322,0,0.547-0.041,0.668-0.122
			c0.123-0.082,0.24-0.287,0.357-0.617l1.654-4.694c0.115-0.325,0.141-0.529,0.078-0.61s-0.256-0.122-0.586-0.122h-0.445
			l0.428-1.215H25.186z"/>
		<path fill="#FFA300" d="M35.824,63.589c0.117-0.334,0.146-0.54,0.084-0.617c-0.061-0.077-0.256-0.115-0.578-0.115h-0.512
			l0.428-1.215h5.463l-0.428,1.215h-0.426c-0.301,0-0.512,0.033-0.627,0.1c-0.117,0.067-0.23,0.257-0.34,0.57l-0.023,0.063
			l-1.328,3.769c-0.225,0.634-0.455,1.12-0.693,1.458c-0.238,0.338-0.539,0.626-0.904,0.864c-0.416,0.275-0.887,0.481-1.412,0.616
			c-0.525,0.136-1.107,0.204-1.752,0.204c-1.012,0-1.752-0.228-2.223-0.683c-0.469-0.455-0.578-1.039-0.326-1.752
			c0.191-0.542,0.514-0.982,0.969-1.317c0.457-0.336,0.955-0.504,1.496-0.504c0.404,0,0.686,0.107,0.846,0.322
			c0.158,0.215,0.174,0.504,0.047,0.867c-0.121,0.342-0.324,0.618-0.611,0.829s-0.604,0.316-0.951,0.316
			c-0.057,0-0.115-0.003-0.176-0.01c-0.061-0.006-0.123-0.016-0.189-0.028c0.037,0.208,0.127,0.365,0.273,0.469
			c0.145,0.104,0.342,0.157,0.59,0.157c0.502,0,0.895-0.128,1.182-0.385c0.285-0.256,0.564-0.773,0.84-1.549L35.824,63.589z"/>
		<path fill="#FFA300" d="M47.32,61.642l-0.426,1.215h-0.447c-0.328,0-0.553,0.041-0.672,0.122s-0.236,0.285-0.352,0.61
			l-1.654,4.694c-0.117,0.33-0.143,0.536-0.078,0.617s0.258,0.122,0.584,0.122h0.445l-0.432,1.221h-5.438l0.43-1.221h0.455
			c0.318,0,0.539-0.041,0.66-0.122c0.123-0.082,0.242-0.287,0.357-0.617l1.654-4.694c0.115-0.325,0.141-0.529,0.08-0.61
			c-0.063-0.081-0.256-0.122-0.58-0.122h-0.453l0.43-1.215H47.32z"/>
		<path fill="#FFA300" d="M49.916,70.243l0.432-1.221h0.412c0.346,0,0.564-0.018,0.654-0.053c0.09-0.035,0.152-0.104,0.188-0.204
			c0.023-0.067,0.041-0.13,0.051-0.19c0.01-0.061,0.016-0.12,0.02-0.179v-0.92h-2.465l-0.574,0.82
			c-0.094,0.125-0.16,0.223-0.205,0.294c-0.041,0.071-0.074,0.136-0.094,0.194c-0.025,0.075,0.008,0.133,0.105,0.175
			c0.096,0.042,0.246,0.063,0.449,0.063h0.453l-0.43,1.221h-4.088l0.432-1.221h0.34c0.229,0,0.447-0.069,0.654-0.207
			c0.205-0.137,0.422-0.363,0.646-0.676l4.693-6.498h3.309l-0.139,6.473c-0.004,0.426,0.039,0.683,0.127,0.773
			s0.266,0.135,0.531,0.135h0.48l-0.432,1.221H49.916z M51.672,66.243l0.086-2.604l-1.695,2.604H51.672z"/>
	</g>
	<polygon fill="none" points="48.51,0.5 40.363,35.522 20.342,35.522 14.877,57.812 22.965,57.812 26,43.501 47.037,43.501 
		57.025,0.5 48.564,0.5 	"/>
	<polygon fill="#FAB52C" points="57.025,0.5 47.037,43.501 26,43.501 22.965,57.812 57.783,57.812 70.953,0.5 	"/>
	<polygon fill="#0EA29B" points="14.877,57.812 20.342,35.522 40.363,35.522 48.51,0.5 14.035,0.5 13.979,0.5 0.225,57.812 
		14.83,57.812 	"/>
</g>
</svg>
