<svg enable-background="new 0 0 105 120" viewBox="0 0 105 120" xmlns="http://www.w3.org/2000/svg"><g fill="#565757"><path d="m133.87 22.74c0-15.06-1.07-16.69-7.39-17.37l-2.68-.27c-.64-.54-.43-2.98.21-3.39 6.21.27 9.86.41 14.36.41 4.29 0 7.93-.14 12.21-.41.64.41.86 2.85.21 3.39l-1.61.27c-6.32 1.09-6.54 2.98-6.54 17.37v50.33c0 10.72-.43 20.08-2.46 26.32-3.54 10.85-11.14 19.54-21.11 19.54-1.29 0-4.61-.13-4.61-2.85 0-2.31 1.61-6.24 3.86-6.24 1.29 0 2.57.27 3.96.81 1.5.54 3 .95 4.5.95 2.25 0 3.54-1.63 4.29-3.53 2.46-6.38 2.79-26.73 2.79-34.05v-51.28z"/><path d="m142.38 45.96c0 3.32.21 3.43 5.36 3.43h30.64c5.14 0 5.36-.11 5.36-3.43v-12.32c0-11.25-.21-28.61-6.54-29.25l-2.04-.21c-.64-.43-.43-2.36.21-2.68 4.93.21 8.57 4.64 12.96 4.64 4.18 0 7.82-4.43 12.64-4.64.64.32.86 2.25.21 2.68l-2.25.21c-6.21.64-6.43 18-6.43 29.25v38.57c0 11.25.21 21.75 6.43 22.5l2.57.32c.64.43.43 2.36-.21 2.68-5.14-.21-8.94-3.54-13.12-3.54-4.39 0-8.1 3.32-12.81 3.54-.64-.32-.86-2.04-.21-2.68l2.04-.32c6.54-1.07 6.54-11.25 6.54-22.5v-15.1c0-3.21-.21-3.43-5.36-3.43h-30.64c-5.14 0-5.36.21-5.36 3.43"/><path d="m146.23 116.11c0 .49-.06.95-.18 1.38s-.3.82-.55 1.16c-.24.35-.55.64-.92.89s-.79.45-1.28.58c-.28.08-.58.13-.91.17-.33.03-.68.05-1.06.05h-1.9v-8.4h1.92c.38 0 .73.02 1.06.05s.63.09.91.17c.49.14.92.33 1.28.58.37.25.67.54.91.88s.42.72.54 1.14c.12.41.18.86.18 1.35zm-1.01 0c0-.81-.18-1.46-.53-1.97-.36-.5-.87-.86-1.53-1.07-.25-.08-.54-.13-.85-.16s-.67-.04-1.06-.04h-.78v6.55h.78c.39 0 .75-.01 1.06-.04s.6-.08.85-.16c.67-.21 1.18-.58 1.53-1.1.35-.53.53-1.2.53-2.01z"/><path d="m154.06 119.42h3.65v.92h-4.51v-8.4h4.32v.92h-3.45v2.71h3.07v.92h-3.07v2.93z"/><path d="m166.24 114.17c0 .25.05.45.15.61s.23.29.4.4c.17.1.37.19.59.26s.46.13.7.19c.33.08.65.17.96.26.31.1.6.23.84.4.25.17.45.39.6.66s.23.62.23 1.05c0 .44-.08.81-.25 1.13s-.39.58-.68.78-.64.35-1.03.45-.83.15-1.31.15c-.22 0-.44-.01-.67-.04s-.45-.06-.65-.11c-.21-.05-.39-.1-.56-.16s-.3-.12-.4-.18v-.94c.15.08.32.14.51.21.19.06.38.12.58.16s.4.08.61.1c.21.03.4.04.58.04.29 0 .57-.03.84-.08s.5-.13.7-.25.36-.28.48-.48.18-.46.18-.76c0-.25-.05-.46-.15-.62s-.24-.3-.41-.4c-.17-.11-.37-.19-.59-.26s-.46-.13-.71-.19c-.33-.08-.65-.16-.96-.25s-.59-.22-.83-.39-.44-.38-.59-.65c-.15-.26-.22-.6-.22-1.01 0-.43.08-.79.23-1.1.16-.31.37-.56.63-.76.27-.2.57-.35.92-.45s.72-.14 1.11-.14c.45 0 .87.04 1.25.13.39.09.74.2 1.06.34v.95c-.35-.15-.71-.27-1.08-.36s-.77-.14-1.19-.14c-.32 0-.59.03-.83.1-.23.07-.43.17-.58.3s-.27.28-.35.46c-.07.16-.11.36-.11.59z"/><path d="m177.66 120.34v-8.4h1.02v8.4z"/><path d="m191.46 116.95h-1.91v-.92h2.94v4.06c-.09.05-.22.09-.39.14s-.36.09-.58.14c-.22.04-.45.08-.7.1-.25.03-.49.04-.74.04-.72 0-1.36-.1-1.91-.3s-1.01-.48-1.38-.83c-.37-.36-.66-.8-.85-1.31s-.29-1.09-.29-1.72c0-.69.11-1.31.32-1.87s.52-1.04.92-1.44.88-.7 1.45-.92 1.19-.32 1.87-.32c.18 0 .37.01.55.02s.36.04.53.06c.17.03.32.06.46.1s.26.08.36.12v.9c-.25-.08-.54-.15-.87-.21s-.65-.08-.98-.08c-.48 0-.93.07-1.37.22s-.82.36-1.15.66c-.33.29-.59.66-.79 1.1s-.3.96-.3 1.55c0 .58.08 1.08.24 1.51.16.42.39.77.69 1.05s.66.48 1.09.61.9.2 1.42.2c.24 0 .48-.01.72-.04s.44-.06.63-.11v-2.51z"/><path d="m204.01 116.63c.51.74 1.02 1.5 1.53 2.29h.04c-.05-.82-.08-1.65-.08-2.5v-4.47h1.03v8.4h-1.02l-3.3-4.68c-.57-.82-1.08-1.58-1.53-2.29h-.04c.05.77.08 1.66.08 2.68v4.29h-1.02v-8.4h1.02z"/><path d="m45.93 40.92v-.53c.78 0 1.32-.21 1.62-.65.3-.43.45-1.18.45-2.25v-11.38c0-1.09-.15-1.85-.45-2.28-.3-.42-.84-.64-1.62-.64v-.53h8.44c3.12 0 5.62.89 7.49 2.66s2.8 4.03 2.8 6.77c0 2.69-.89 4.83-2.66 6.43s-4.24 2.4-7.4 2.4zm7.95-17.55h-3.47v13.47c0 1.3.16 2.19.47 2.66.31.48.93.72 1.87.72h1.88c2.24 0 4.01-.72 5.29-2.17 1.29-1.45 1.93-3.42 1.93-5.92 0-2.65-.7-4.78-2.11-6.37-1.41-1.6-3.36-2.39-5.86-2.39z"/><path d="m71.01 31.29h.27v2.19h-.27c-.1-.38-.21-.62-.35-.72s-.44-.15-.91-.15h-2.23v3.22c0 .23.05.38.15.48.1.09.27.14.51.14h1.57c.56 0 .95-.03 1.17-.09.21-.06.4-.17.54-.34.15-.16.31-.44.48-.81h.27l-.41 1.68h-6.48v-.26c.4 0 .68-.1.81-.31.14-.21.21-.58.21-1.1v-5.63c0-.55-.07-.92-.21-1.13-.14-.2-.41-.31-.81-.31v-.26h6.48v1.5h-.17c-.09-.43-.22-.71-.4-.86-.17-.14-.54-.21-1.12-.21h-2.59v3.85h2.52c.34 0 .58-.06.7-.18s.21-.35.27-.7z"/><path d="m78.12 27.75h.25v2.11h-.27c-.06-.58-.27-1.04-.63-1.37s-.81-.49-1.36-.49c-.49 0-.88.12-1.17.37-.3.25-.45.57-.45.98 0 .38.12.73.37 1.04s.78.71 1.6 1.2c.95.57 1.59 1.06 1.92 1.49s.49.91.49 1.46c0 .71-.25 1.31-.75 1.81s-1.1.75-1.81.75c-.41 0-.93-.11-1.56-.34-.26-.09-.43-.14-.5-.14-.15 0-.26.12-.35.35h-.27v-2.43h.27c.01.67.22 1.21.66 1.61.43.4.93.61 1.51.61.55 0 .98-.15 1.31-.44s.49-.68.49-1.17c0-.36-.13-.71-.4-1.05-.27-.33-.84-.76-1.7-1.29-.7-.43-1.17-.77-1.4-1.03-.24-.25-.41-.53-.52-.82-.11-.3-.17-.63-.17-.99 0-.69.23-1.25.68-1.68s1.04-.64 1.77-.64c.4 0 .83.08 1.3.24.22.07.37.11.46.11.07 0 .12-.02.15-.05.02-.02.05-.09.08-.2z"/><path d="m82.99 27.88v.26c-.38 0-.65.11-.8.31-.15.21-.22.59-.22 1.12v5.61c0 .54.07.91.22 1.12s.41.31.8.31v.26h-3.24v-.26c.4 0 .66-.1.81-.31.14-.21.21-.58.21-1.12v-5.61c0-.55-.07-.93-.21-1.13s-.41-.3-.81-.3v-.26z"/><path d="m93.25 32.99v.26c-.4 0-.68.09-.86.27-.17.18-.26.49-.26.94v2.42c-.21.06-.6.11-1.18.15-.58.05-1.02.07-1.34.07-1.66 0-2.96-.41-3.89-1.23s-1.39-1.9-1.39-3.24c0-.94.2-1.78.61-2.53s.97-1.35 1.7-1.79 1.5-.66 2.32-.66c.49 0 1.03.09 1.6.26.37.11.65.16.84.16.26 0 .43-.1.51-.3h.28v2.65h-.25c-.1-.74-.44-1.33-1-1.77s-1.23-.66-1.98-.66c-.95 0-1.73.38-2.34 1.14s-.91 1.74-.91 2.94c0 1.32.35 2.42 1.06 3.28.7.87 1.59 1.3 2.65 1.3 1.01 0 1.51-.32 1.51-.96v-.98c0-.55-.07-.94-.22-1.16s-.4-.33-.77-.33h-.35v-.26h3.66z"/><path d="m100.89 28.15v-.26h2.72v.26c-.43 0-.74.1-.91.31s-.25.58-.25 1.11v7.32h-.28l-6.38-7.83v6.32c0 .45.09.76.27.96.18.19.49.29.91.29v.26h-2.73v-.26c.44 0 .73-.11.88-.34s.23-.63.23-1.2v-5.27c0-.57-.1-.98-.31-1.23s-.55-.4-1.02-.44v-.26h2.31l5.65 7.01v-5.26c0-.55-.08-.94-.23-1.15-.16-.23-.44-.34-.86-.34z"/><path d="m39.67 33.45h-19.84v18.85c0 3.81.62 6.45 1.86 7.92s3.48 2.21 6.72 2.21v1.85h-27.01v-1.85c3.24 0 5.47-.73 6.69-2.2s1.82-4.11 1.82-7.92v-39.79c0-3.84-.6-6.5-1.79-7.97s-3.43-2.2-6.72-2.2v-1.85h51.52v11.31h-1.73c-.81-3.37-1.88-5.58-3.2-6.63s-4.33-1.58-9.02-1.58h-19.14v26.69h19.59c2.65 0 4.61-.57 5.89-1.71s2.11-3.09 2.5-5.84h2.05v17.94h-2.06c-.25-4.82-2.96-7.23-8.13-7.23z"/><path d="m48.69 30.99v1.85c-2.72 0-4.61.74-5.68 2.23s-1.6 4.13-1.6 7.94v58.88c0 5.51-1.46 9.82-4.38 12.94s-6.75 4.68-11.5 4.68c-4.6 0-8.1-1.9-10.49-5.71l1.58-1.09c1.45 1.92 3.37 2.88 5.76 2.88 3.12 0 5.66-1.38 7.64-4.13s2.96-6.61 2.96-11.58v-56.87c0-3.84-.53-6.5-1.58-7.96-1.05-1.47-2.97-2.2-5.76-2.2v-1.85h23.05z"/><path d="m100 34.23-84.96 79.56" stroke="#565757" stroke-miterlimit="10" stroke-width="1.0898"/></g></svg>