<?xml version="1.0" encoding="utf-8"?>
<!-- Generator: Adobe Illustrator 25.0.1, SVG Export Plug-In . SVG Version: 6.00 Build 0)  -->
<svg version="1.1" xmlns="http://www.w3.org/2000/svg" xmlns:xlink="http://www.w3.org/1999/xlink" x="0px" y="0px"
	 viewBox="0 0 176 55" style="enable-background:new 0 0 176 55;" xml:space="preserve">
<style type="text/css">
	.st0{fill:#EFEFEF;}
	.st1{fill:#3E3A39;}
	.st2{display:none;fill:none;stroke:#E4007F;stroke-width:0.5;stroke-miterlimit:10;}
	.st3{fill:#FFFFFF;}
	.st4{fill:#B5B5B6;}
</style>
<g id="底色">
	<rect x="-1828.1" y="-62.6" class="st0" width="1758.2" height="745.7"/>
	<rect x="-1828.1" y="310.3" class="st1" width="1758.2" height="372.9"/>
</g>
<g id="圖層_1">
	<rect x="-1581.2" y="173.2" class="st2" width="41.7" height="57.7"/>
	<rect x="-1532" y="173.2" class="st2" width="41.7" height="57.7"/>
	<rect x="-1481.9" y="173.2" class="st2" width="41.7" height="57.7"/>
	<rect x="-1424.2" y="173.2" class="st2" width="41.7" height="57.7"/>
	<rect x="-1368.4" y="173.2" class="st2" width="41.7" height="57.7"/>
	<rect x="-1314.5" y="173.2" class="st2" width="41.7" height="57.7"/>
	<rect x="-1258" y="173.2" class="st2" width="41.7" height="57.7"/>
	<rect x="-1581.2" y="82.7" class="st2" width="41.7" height="57.7"/>
	<rect x="-1527.4" y="82.7" class="st2" width="41.7" height="57.7"/>
	<rect x="-1473.5" y="82.7" class="st2" width="41.7" height="57.7"/>
	<rect x="-1365.8" y="82.7" class="st2" width="41.7" height="57.7"/>
	<rect x="-1311.9" y="82.7" class="st2" width="41.7" height="57.7"/>
	<rect x="-1258" y="82.7" class="st2" width="41.7" height="57.7"/>
	<rect x="-1419.6" y="82.7" class="st2" width="41.7" height="57.7"/>
	<g>
		<path d="M-1522.6,129.6c-8.5-2-10.6-3.6-10.6-7v-0.1c0-2.9,2.7-5.3,7.3-5.3c4.1,0,9.9,2.4,13.9,5.3l0.3-9
			c-3.4-2.3-8.7-3.3-14.1-3.3c-8.8,0-15.2,5.3-15.2,12.9v0.1c0,8.2,5.3,11,14.8,13.3c8.3,1.9,10.1,3.6,10.1,6.8v0.1
			c0,3.4-3.1,5.6-7.9,5.6c-5.5,0-11.3-3-17.4-6.9v9.9c4.7,3.1,12,4,17.2,4c9.4,0,15.9-5,15.9-13.3v-0.1
			C-1508.3,135.3-1513.2,131.9-1522.6,129.6z"/>
		<polygon points="-1267.5,131.7 -1248.8,110.9 -1259.6,110.9 -1274,128.2 -1278.1,128.2 -1278.1,110.9 -1278.2,110.9 
			-1278.2,110.9 -1286,110.9 -1286,110.9 -1286.8,110.9 -1286.8,155.4 -1286,155.4 -1286,155.5 -1278.2,155.5 -1278.2,155.4 
			-1278.1,155.4 -1278.1,135.2 -1273.7,135.2 -1258.7,155.5 -1248,155.5 		"/>
		<polygon points="-1467.2,135.3 -1467.2,128.3 -1480.8,128.3 -1480.8,110.9 -1481.2,110.9 -1489.1,110.9 -1489.6,110.9 
			-1489.6,128.2 -1503.2,128.2 -1503.2,135.3 -1489.6,135.3 -1489.6,155.4 -1489.1,155.4 -1481.2,155.4 -1480.8,155.4 
			-1480.8,135.3 		"/>
		<polygon points="-1434,128.2 -1441.7,110.6 -1449,110.6 -1456.7,128.2 -1459.7,135.2 -1468.6,155.5 -1458.3,155.5 -1445.9,121.1 
			-1445,121.1 -1432.6,155.5 -1422.1,155.5 -1431,135.2 		"/>
		<path d="M-1380.1,123.1c0-6.7-5.4-12.2-12.2-12.2h-24.4v0v44.5v0h7.8v0h0.9v-20.2h8.8l12.7,20.2h10.6l-14.4-20.4
			C-1384.5,134-1380.1,129.1-1380.1,123.1z M-1393.4,128.3h-14.6v-10.5h15.7c2.9,0,5.2,2.4,5.2,5.2c0,2.9-2.4,5.2-5.2,5.2
			L-1393.4,128.3z"/>
		<polygon points="-1351.6,110.9 -1351.9,110.9 -1359.8,110.9 -1360.3,110.9 -1360.3,128.2 -1374,128.2 -1374,135.2 -1360.3,135.2 
			-1360.3,155.4 -1359.8,155.4 -1351.9,155.4 -1351.6,155.4 -1351.6,135.3 -1337.9,135.3 -1337.9,128.3 -1351.6,128.3 		"/>
		<polygon points="-1320.8,135.2 -1299.4,135.2 -1299.4,128.2 -1299.4,128.2 -1320.8,128.2 -1320.8,117.9 -1296.5,117.9 
			-1296.5,110.9 -1329.5,110.9 -1329.5,110.9 -1329.5,128.2 -1329.5,135.2 -1329.5,155.4 -1329.5,155.5 -1296.2,155.5 
			-1296.2,148.5 -1320.8,148.5 		"/>
	</g>
	<g>
		<g>
			<g>
				<path class="st3" d="M-503.3,200.3c-37,0-67.1-30.1-67.1-67.1c0-37,30.1-67.1,67.1-67.1s67.1,30.1,67.1,67.1
					C-436.2,170.2-466.3,200.3-503.3,200.3z M-503.3,67.5c-36.2,0-65.7,29.5-65.7,65.7c0,36.2,29.5,65.7,65.7,65.7
					s65.7-29.5,65.7-65.7C-437.6,97-467.1,67.5-503.3,67.5z"/>
			</g>
			<g>
				<g>
					<path class="st3" d="M-357.3,175.2c-0.4,0-0.7-0.3-0.7-0.7V91.8c0-0.4,0.3-0.7,0.7-0.7c0.4,0,0.7,0.3,0.7,0.7v82.7
						C-356.5,174.9-356.9,175.2-357.3,175.2z"/>
				</g>
				<g>
					<path class="st3" d="M-649.3,175.2c-0.4,0-0.7-0.3-0.7-0.7V91.8c0-0.4,0.3-0.7,0.7-0.7c0.4,0,0.7,0.3,0.7,0.7v82.7
						C-648.6,174.9-648.9,175.2-649.3,175.2z"/>
				</g>
			</g>
		</g>
		<g>
			<path d="M-590.7,121.7c-5.8-1.4-7.2-2.4-7.2-4.8v-0.1c0-2,1.8-3.6,5-3.6c2.8,0,6.7,1.6,9.5,3.7l0.2-6.2c-2.3-1.6-6-2.2-9.6-2.2
				c-6,0-10.4,3.6-10.4,8.8v0.1c0,5.6,3.7,7.5,10.1,9.1c5.7,1.3,6.9,2.5,6.9,4.7v0.1c0,2.3-2.1,3.8-5.4,3.8c-3.8,0-7.7-2.1-11.9-4.7
				v6.8c3.2,2.1,8.2,2.7,11.8,2.7c6.4,0,10.9-3.4,10.9-9.1v-0.1C-580.9,125.6-584.2,123.3-590.7,121.7z"/>
			<polygon points="-416.4,123.2 -403.6,109 -411,109 -420.9,120.8 -423.7,120.8 -423.7,109 -423.7,109 -423.7,109 -429.1,109 
				-429.1,109 -429.6,109 -429.6,139.4 -429.1,139.4 -429.1,139.4 -423.7,139.4 -423.7,139.4 -423.7,139.4 -423.7,125.6 
				-420.6,125.6 -410.4,139.4 -403.1,139.4 			"/>
			<polygon points="-552.8,125.6 -552.8,120.8 -562.1,120.8 -562.1,109 -562.4,109 -567.8,109 -568.1,109 -568.1,120.8 
				-577.4,120.8 -577.4,125.6 -568.1,125.6 -568.1,139.4 -567.8,139.4 -562.4,139.4 -562.1,139.4 -562.1,125.6 			"/>
			<polygon points="-530.1,120.8 -535.4,108.7 -540.4,108.7 -545.6,120.8 -547.7,125.6 -553.7,139.4 -546.5,139.4 -538.3,115.9 
				-537.7,115.9 -529.2,139.4 -522,139.4 -528,125.6 			"/>
			<path d="M-493.3,117.3c0-4.6-3.7-8.3-8.3-8.3h-16.6v0v30.4v0h5.3v0h0.6v-13.8h6l8.7,13.8h7.3l-9.8-14
				C-496.3,124.8-493.3,121.4-493.3,117.3z M-502.4,120.8h-9.9v-7.2h10.7c2,0,3.6,1.6,3.6,3.6c0,2-1.6,3.6-3.6,3.6L-502.4,120.8z"/>
			<polygon points="-473.8,109 -474.1,109 -479.5,109 -479.8,109 -479.8,120.8 -489.1,120.8 -489.1,125.6 -479.8,125.6 
				-479.8,139.4 -479.5,139.4 -474.1,139.4 -473.8,139.4 -473.8,125.6 -464.5,125.6 -464.5,120.8 -473.8,120.8 			"/>
			<polygon points="-452.8,125.6 -438.2,125.6 -438.2,120.8 -438.2,120.8 -452.8,120.8 -452.8,113.7 -436.2,113.7 -436.2,109 
				-458.8,109 -458.8,109 -458.8,120.8 -458.8,125.6 -458.8,139.4 -458.8,139.4 -436,139.4 -436,134.6 -452.8,134.6 			"/>
		</g>
		<g>
			<g>
				<path d="M-568.9,170.4c2.1-1.6,3.4-3.9,4-7h6.4v4.8c0,0.3-0.2,0.5-0.6,0.5c-1.6,0-1.4,0-1.9,0l0.6,1.6c1.9,0,1.9-0.1,2.5-0.3
					c0.1,0,0.2-0.1,0.3-0.1c0.4-0.3,0.6-0.8,0.6-1.7v-16.7h-9.1v7.6c0,0.9,0,1.7-0.1,2.5c-0.3,3.4-1.6,6-3.9,7.7L-568.9,170.4z
					 M-558.5,161.9h-6.1c0.1-0.8,0.1-1.7,0.1-2.8v-1h6V161.9z M-558.5,156.6h-6V153h6V156.6z"/>
				<path d="M-575.1,151.4v14.3h7v-14.3H-575.1z M-569.5,164.3h-4v-6.2h4V164.3z M-569.5,156.6h-4V153h4V156.6z"/>
			</g>
			<path d="M-533.3,163.6c1.5-1.3,2.2-2.1,3.1-3.9c0.1-0.2,0.3-0.7,0.4-0.9l1.8,0c-0.2,0.4-0.9,1.6-1.3,2.4h4.3v-2.4h1.6v2.4h6.3
				v1.4h-6.3v2h6.3v1.3h-6.3v2.3h7.6v1.4h-16.9v-1.4h7.6v-2.3h-6v-1.3h6v-2h-5.3c-0.7,0.9-1.5,1.7-2.2,2.4L-533.3,163.6z
				 M-517,151.4v7.6h-14.3v-7.6H-517z M-518.6,154.6v-1.9h-11.1v1.9H-518.6z M-518.6,157.7v-1.9h-11.1v1.9H-518.6z"/>
			<path d="M-450.4,168.8c1.1,0,1.2,0,1.5,0c0.2-0.1,0.3-0.2,0.4-0.4v-6.1c-0.9,0.3-1.8,0.6-2.6,0.9l-0.4-1.6
				c0.3-0.1,0.8-0.3,1.6-0.5c0.6-0.2,1.1-0.4,1.4-0.5v-5.2h-2.7V154h2.7v-3.1h1.5v3.1h2.2v1.5h-2.2v4.7c0.2-0.1,0.9-0.3,1.6-0.6
				l0.3,1.4l-1.9,0.7v6.7c0,0.8-0.2,1.3-0.6,1.5c0,0-0.1,0-0.1,0.1c-0.5,0.2-0.7,0.3-2,0.3L-450.4,168.8z M-437.5,168.2h6v1.5h-13.3
				v-1.5h5.7v-4.5h-4.7v-1.5h11.2v1.5h-5V168.2z M-444.5,159.8c1.6-0.4,2.6-1.2,3.1-2.2c0.4-0.7,0.6-1.9,0.7-3.4h-2v2.3h-1.4v-3.7
				h5.1v-1.9h1.5v1.9h5.5v3.5h-1.5v-2.1h-2.2v4.2c0,0.3,0.1,0.5,0.2,0.5c0.1,0,0.2,0,0.3,0h2.8l-0.5,1.4h-2.4
				c-0.9,0-1.4-0.2-1.6-0.6c-0.1-0.3-0.2-0.7-0.2-1.3v-4.2h-2c-0.1,2.1-0.5,3.6-1.1,4.6c-0.7,1-1.8,1.7-3.4,2.2L-444.5,159.8z"/>
			<g>
				<path d="M-483.9,160.9v-5.7h-6.8v3h-1.5V154h8.2v-1.3h-5.7v-1.2h13v1.2h-5.8v1.3h8.4v4.2h-1.5v-3h-6.9v5.7H-483.9z M-475.9,170
					h-5c-1.4,0-2.3-0.2-2.7-0.6c-0.3-0.3-0.4-0.8-0.4-1.5v-0.7h-4.8l0,0h-1.5v-6.4h14.6v6.4h-6.7v0.7c0,0.4,0.1,0.7,0.4,0.8
					c0.2,0.1,0.6,0.1,1.2,0.1h5.4L-475.9,170z M-489.5,159.5v-1h5.9v1H-489.5z M-483.6,156.3v1h-5.9v-1H-483.6z M-483.9,163.5V162
					h-4.8v4h4.8v-1.5 M-482.4,164.6v1.5h5.1v-4h-5.1v1.5 M-482.4,156.3h5.8v1h-5.8V156.3z M-482.4,159.5v-1h5.8v1H-482.4z"/>
				<rect x="-487.6" y="163.5" width="3.7" height="1.1"/>
				<rect x="-482.4" y="163.5" width="4" height="1.1"/>
			</g>
		</g>
	</g>
	<g>
		<g>
			<path d="M11.7,12c-5.1-1.2-6.3-2.1-6.3-4.2V7.8C5.4,6,7,4.6,9.7,4.6c2.4,0,5.9,1.4,8.3,3.2l0.2-5.4c-2-1.4-5.2-2-8.4-2
				c-5.3,0-9.1,3.2-9.1,7.7v0.1c0,4.9,3.2,6.6,8.8,7.9c4.9,1.1,6,2.2,6,4.1v0.1c0,2-1.8,3.3-4.7,3.3c-3.3,0-6.8-1.8-10.4-4.1v5.9
				c2.8,1.9,7.1,2.4,10.3,2.4c5.6,0,9.5-3,9.5-7.9v-0.1C20.3,15.4,17.3,13.4,11.7,12z"/>
			<polygon points="163.9,13.3 175,0.9 168.6,0.9 160,11.2 157.5,11.2 157.5,0.9 157.5,0.9 157.5,0.9 152.8,0.9 152.8,0.9 
				152.3,0.9 152.3,27.4 152.8,27.4 152.8,27.5 157.5,27.5 157.5,27.4 157.5,27.4 157.5,15.4 160.2,15.4 169.1,27.5 175.5,27.5 			
				"/>
			<polygon points="44.8,15.4 44.8,11.3 36.6,11.3 36.6,0.9 36.4,0.9 31.7,0.9 31.5,0.9 31.5,11.2 23.3,11.2 23.3,15.4 31.5,15.4 
				31.5,27.4 31.7,27.4 36.4,27.4 36.6,27.4 36.6,15.4 			"/>
			<polygon points="64.6,11.2 60,0.7 55.7,0.7 51.1,11.2 49.2,15.4 44,27.5 50.2,27.5 57.5,7 58,7 65.4,27.5 71.7,27.5 66.4,15.4 
							"/>
			<path d="M96.7,8.1c0-4-3.2-7.2-7.2-7.2H74.9v0v26.6v0h4.7v0h0.5V15.4h5.3L93,27.5h6.3l-8.6-12.2C94.1,14.7,96.7,11.7,96.7,8.1z
				 M88.8,11.3h-8.7V5h9.3c1.7,0,3.1,1.4,3.1,3.1c0,1.7-1.4,3.1-3.1,3.1L88.8,11.3z"/>
			<polygon points="113.7,0.9 113.5,0.9 108.8,0.9 108.5,0.9 108.5,11.2 100.4,11.2 100.4,15.4 108.5,15.4 108.5,27.4 108.8,27.4 
				113.5,27.4 113.7,27.4 113.7,15.4 121.9,15.4 121.9,11.3 113.7,11.3 			"/>
			<polygon points="132.1,15.4 144.9,15.4 144.9,11.2 144.9,11.2 132.1,11.2 132.1,5.1 146.6,5.1 146.6,0.9 126.9,0.9 126.9,0.9 
				126.9,11.2 126.9,15.4 126.9,27.4 126.9,27.5 146.8,27.5 146.8,23.3 132.1,23.3 			"/>
		</g>
		<g>
			<g>
				<path d="M30.8,54.5c1.8-1.4,3-3.4,3.5-6.1h5.6v4.1c0,0.3-0.2,0.4-0.5,0.5c-1.4,0-1.2,0-1.6,0l0.5,1.4c1.6,0,1.6-0.1,2.2-0.3
					c0.1,0,0.1-0.1,0.2-0.1c0.4-0.2,0.6-0.7,0.6-1.5V38h-8v6.7c0,0.8,0,1.5-0.1,2.2c-0.3,3-1.4,5.2-3.4,6.8L30.8,54.5z M39.8,47.1
					h-5.4c0.1-0.7,0.1-1.5,0.1-2.5v-0.9h5.3V47.1z M39.8,42.5h-5.3v-3.2h5.3V42.5z"/>
				<path d="M25.3,38v12.5h6.1V38H25.3z M30.2,49.2h-3.5v-5.4h3.5V49.2z M30.2,42.5h-3.5v-3.2h3.5V42.5z"/>
			</g>
			<path d="M61.8,48.6c1.3-1.2,1.9-1.9,2.7-3.4c0.1-0.2,0.3-0.6,0.4-0.8l1.6,0c-0.1,0.3-0.8,1.4-1.2,2.1h3.8v-2.1h1.4v2.1h5.5v1.2
				h-5.5v1.8H76v1.1h-5.5v2h6.7v1.2H62.5v-1.2h6.6v-2h-5.3v-1.1h5.3v-1.8h-4.6c-0.6,0.8-1.3,1.5-1.9,2.1L61.8,48.6z M76.1,37.9v6.6
				H63.6v-6.6H76.1z M74.6,40.7v-1.6H65v1.6H74.6z M74.6,43.5v-1.7H65v1.7H74.6z"/>
			<path d="M134.2,53.1c0.9,0,1.1,0,1.3,0c0.2-0.1,0.3-0.2,0.3-0.3v-5.3c-0.8,0.3-1.5,0.6-2.3,0.8l-0.3-1.4c0.3-0.1,0.7-0.2,1.4-0.4
				c0.5-0.2,1-0.3,1.2-0.4v-4.5h-2.4v-1.3h2.4v-2.7h1.3v2.7h2v1.3h-2v4.1c0.2-0.1,0.8-0.3,1.4-0.5l0.2,1.3l-1.7,0.6v5.8
				c0,0.7-0.2,1.1-0.6,1.3c0,0-0.1,0-0.1,0.1c-0.4,0.2-0.6,0.3-1.7,0.2L134.2,53.1z M145.5,52.6h5.2v1.3h-11.6v-1.3h5v-3.9H140v-1.3
				h9.7v1.3h-4.3V52.6z M139.3,45.2c1.4-0.4,2.3-1,2.7-1.9c0.3-0.6,0.5-1.6,0.6-3h-1.7v2h-1.2v-3.2h4.5v-1.7h1.3v1.7h4.8v3h-1.3
				v-1.8H147V44c0,0.3,0.1,0.4,0.2,0.4c0.1,0,0.2,0,0.3,0h2.4l-0.4,1.2h-2.1c-0.8,0-1.3-0.2-1.4-0.5c-0.1-0.2-0.2-0.6-0.2-1.1v-3.7
				h-1.8c-0.1,1.8-0.4,3.2-1,4c-0.6,0.9-1.6,1.5-2.9,1.9L139.3,45.2z"/>
			<g>
				<path d="M105,46.2v-5h-5.9v2.6h-1.3v-3.6h7.2v-1.2H100V38h11.3v1.1h-5v1.2h7.3v3.6h-1.3v-2.6h-6v5H105z M112,54.2h-4.3
					c-1.2,0-2-0.2-2.3-0.5c-0.2-0.3-0.3-0.7-0.3-1.3v-0.6h-4.2l0,0h-1.3v-5.6h12.7v5.6h-5.8v0.6c0,0.4,0.1,0.6,0.3,0.7
					c0.2,0.1,0.6,0.1,1,0.1h4.7L112,54.2z M100,45v-0.9h5.1V45H100z M105.2,42.2v0.9H100v-0.9H105.2z M104.9,48.5v-1.3h-4.2v3.5h4.2
					v-1.3 M106.3,49.4v1.3h4.5v-3.5h-4.5v1.3 M106.3,42.2h5.1v0.9h-5.1V42.2z M106.3,45v-0.9h5.1V45H106.3z"/>
				<rect x="101.7" y="48.5" width="3.2" height="1"/>
				<rect x="106.3" y="48.5" width="3.5" height="1"/>
			</g>
		</g>
	</g>
	<g>
		<path class="st3" d="M-1522.6,500.5c-8.5-2-10.6-3.6-10.6-7v-0.1c0-2.9,2.7-5.3,7.3-5.3c4.1,0,9.9,2.4,13.9,5.3l0.3-9
			c-3.4-2.3-8.7-3.3-14.1-3.3c-8.8,0-15.2,5.3-15.2,12.9v0.1c0,8.2,5.3,11,14.8,13.3c8.3,1.9,10.1,3.6,10.1,6.8v0.1
			c0,3.4-3.1,5.6-7.9,5.6c-5.5,0-11.3-3-17.4-6.9v9.9c4.7,3.1,12,4,17.2,4c9.4,0,15.9-5,15.9-13.3v-0.1
			C-1508.3,506.2-1513.2,502.8-1522.6,500.5z"/>
		<polygon class="st3" points="-1267.5,502.6 -1248.8,481.8 -1259.6,481.8 -1274,499.2 -1278.1,499.2 -1278.1,481.8 -1278.2,481.8 
			-1278.2,481.8 -1286,481.8 -1286,481.8 -1286.8,481.8 -1286.8,526.4 -1286,526.4 -1286,526.4 -1278.2,526.4 -1278.2,526.4 
			-1278.1,526.4 -1278.1,506.1 -1273.7,506.1 -1258.7,526.4 -1248,526.4 		"/>
		<polygon class="st3" points="-1467.2,506.2 -1467.2,499.2 -1480.8,499.2 -1480.8,481.8 -1481.2,481.8 -1489.1,481.8 
			-1489.6,481.8 -1489.6,499.1 -1503.2,499.1 -1503.2,506.2 -1489.6,506.2 -1489.6,526.4 -1489.1,526.4 -1481.2,526.4 
			-1480.8,526.4 -1480.8,506.2 		"/>
		<polygon class="st3" points="-1434,499.2 -1441.7,481.5 -1449,481.5 -1456.7,499.2 -1459.7,506.1 -1468.6,526.4 -1458.3,526.4 
			-1445.9,492 -1445,492 -1432.6,526.4 -1422.1,526.4 -1431,506.1 		"/>
		<path class="st3" d="M-1380.1,494c0-6.7-5.4-12.2-12.2-12.2h-24.4v0v44.5v0h7.8v0h0.9v-20.2h8.8l12.7,20.2h10.6l-14.4-20.4
			C-1384.5,505-1380.1,500-1380.1,494z M-1393.4,499.2h-14.6v-10.5h15.7c2.9,0,5.2,2.4,5.2,5.2c0,2.9-2.4,5.2-5.2,5.2L-1393.4,499.2
			z"/>
		<polygon class="st3" points="-1351.6,481.8 -1351.9,481.8 -1359.8,481.8 -1360.3,481.8 -1360.3,499.1 -1374,499.1 -1374,506.1 
			-1360.3,506.1 -1360.3,526.4 -1359.8,526.4 -1351.9,526.4 -1351.6,526.4 -1351.6,506.2 -1337.9,506.2 -1337.9,499.2 
			-1351.6,499.2 		"/>
		<polygon class="st3" points="-1320.8,506.1 -1299.4,506.1 -1299.4,499.2 -1299.4,499.1 -1320.8,499.1 -1320.8,488.8 
			-1296.5,488.8 -1296.5,481.8 -1329.5,481.8 -1329.5,481.8 -1329.5,499.2 -1329.5,506.1 -1329.5,526.4 -1329.5,526.4 
			-1296.2,526.4 -1296.2,519.4 -1320.8,519.4 		"/>
	</g>
	<g>
		<g>
			<g>
				<path class="st4" d="M-503.3,571.2c-37,0-67.1-30.1-67.1-67.1c0-37,30.1-67.1,67.1-67.1s67.1,30.1,67.1,67.1
					C-436.2,541.1-466.3,571.2-503.3,571.2z M-503.3,438.4c-36.2,0-65.7,29.5-65.7,65.7c0,36.2,29.5,65.7,65.7,65.7
					s65.7-29.5,65.7-65.7C-437.6,467.9-467.1,438.4-503.3,438.4z"/>
			</g>
			<g>
				<g>
					<path class="st4" d="M-357.3,546.2c-0.4,0-0.7-0.3-0.7-0.7v-82.7c0-0.4,0.3-0.7,0.7-0.7c0.4,0,0.7,0.3,0.7,0.7v82.7
						C-356.5,545.8-356.9,546.2-357.3,546.2z"/>
				</g>
				<g>
					<path class="st4" d="M-649.3,546.2c-0.4,0-0.7-0.3-0.7-0.7v-82.7c0-0.4,0.3-0.7,0.7-0.7c0.4,0,0.7,0.3,0.7,0.7v82.7
						C-648.6,545.8-648.9,546.2-649.3,546.2z"/>
				</g>
			</g>
		</g>
		<g>
			<path class="st3" d="M-590.7,492.7c-5.8-1.4-7.2-2.4-7.2-4.8v-0.1c0-2,1.8-3.6,5-3.6c2.8,0,6.7,1.6,9.5,3.7l0.2-6.2
				c-2.3-1.6-6-2.2-9.6-2.2c-6,0-10.4,3.6-10.4,8.8v0.1c0,5.6,3.7,7.5,10.1,9.1c5.7,1.3,6.9,2.5,6.9,4.7v0.1c0,2.3-2.1,3.8-5.4,3.8
				c-3.8,0-7.7-2.1-11.9-4.7v6.8c3.2,2.1,8.2,2.7,11.8,2.7c6.4,0,10.9-3.4,10.9-9.1v-0.1C-580.9,496.5-584.2,494.2-590.7,492.7z"/>
			<polygon class="st3" points="-416.4,494.1 -403.6,479.9 -411,479.9 -420.9,491.7 -423.7,491.7 -423.7,479.9 -423.7,479.9 
				-423.7,479.9 -429.1,479.9 -429.1,479.9 -429.6,479.9 -429.6,510.3 -429.1,510.3 -429.1,510.3 -423.7,510.3 -423.7,510.3 
				-423.7,510.3 -423.7,496.5 -420.6,496.5 -410.4,510.3 -403.1,510.3 			"/>
			<polygon class="st3" points="-552.8,496.5 -552.8,491.8 -562.1,491.8 -562.1,479.9 -562.4,479.9 -567.8,479.9 -568.1,479.9 
				-568.1,491.7 -577.4,491.7 -577.4,496.5 -568.1,496.5 -568.1,510.3 -567.8,510.3 -562.4,510.3 -562.1,510.3 -562.1,496.5 			"/>
			<polygon class="st3" points="-530.1,491.7 -535.4,479.7 -540.4,479.7 -545.6,491.7 -547.7,496.5 -553.7,510.3 -546.5,510.3 
				-538.3,486.9 -537.7,486.9 -529.2,510.3 -522,510.3 -528,496.5 			"/>
			<path class="st3" d="M-493.3,488.2c0-4.6-3.7-8.3-8.3-8.3h-16.6v0v30.4v0h5.3v0h0.6v-13.8h6l8.7,13.8h7.3l-9.8-14
				C-496.3,495.7-493.3,492.3-493.3,488.2z M-502.4,491.8h-9.9v-7.2h10.7c2,0,3.6,1.6,3.6,3.6c0,2-1.6,3.6-3.6,3.6L-502.4,491.8z"/>
			<polygon class="st3" points="-473.8,479.9 -474.1,479.9 -479.5,479.9 -479.8,479.9 -479.8,491.7 -489.1,491.7 -489.1,496.5 
				-479.8,496.5 -479.8,510.3 -479.5,510.3 -474.1,510.3 -473.8,510.3 -473.8,496.5 -464.5,496.5 -464.5,491.8 -473.8,491.8 			"/>
			<polygon class="st3" points="-452.8,496.5 -438.2,496.5 -438.2,491.7 -438.2,491.7 -452.8,491.7 -452.8,484.7 -436.2,484.7 
				-436.2,479.9 -458.8,479.9 -458.8,479.9 -458.8,491.7 -458.8,496.5 -458.8,510.3 -458.8,510.3 -436,510.3 -436,505.5 
				-452.8,505.5 			"/>
		</g>
		<g>
			<g>
				<path class="st3" d="M-568.9,541.3c2.1-1.6,3.4-3.9,4-7h6.4v4.8c0,0.3-0.2,0.5-0.6,0.5c-1.6,0-1.4,0-1.9,0l0.6,1.6
					c1.9,0,1.9-0.1,2.5-0.3c0.1,0,0.2-0.1,0.3-0.1c0.4-0.3,0.6-0.8,0.6-1.7v-16.7h-9.1v7.6c0,0.9,0,1.7-0.1,2.5
					c-0.3,3.4-1.6,6-3.9,7.7L-568.9,541.3z M-558.5,532.8h-6.1c0.1-0.8,0.1-1.7,0.1-2.8v-1h6V532.8z M-558.5,527.6h-6v-3.7h6V527.6z
					"/>
				<path class="st3" d="M-575.1,522.4v14.3h7v-14.3H-575.1z M-569.5,535.2h-4V529h4V535.2z M-569.5,527.6h-4v-3.7h4V527.6z"/>
			</g>
			<path class="st3" d="M-533.3,534.5c1.5-1.3,2.2-2.1,3.1-3.9c0.1-0.2,0.3-0.7,0.4-0.9l1.8,0c-0.2,0.4-0.9,1.6-1.3,2.4h4.3v-2.4
				h1.6v2.4h6.3v1.4h-6.3v2h6.3v1.3h-6.3v2.3h7.6v1.4h-16.9v-1.4h7.6v-2.3h-6v-1.3h6v-2h-5.3c-0.7,0.9-1.5,1.7-2.2,2.4L-533.3,534.5
				z M-517,522.3v7.6h-14.3v-7.6H-517z M-518.6,525.5v-1.9h-11.1v1.9H-518.6z M-518.6,528.6v-1.9h-11.1v1.9H-518.6z"/>
			<path class="st3" d="M-450.4,539.7c1.1,0,1.2,0,1.5,0c0.2-0.1,0.3-0.2,0.4-0.4v-6.1c-0.9,0.3-1.8,0.6-2.6,0.9l-0.4-1.6
				c0.3-0.1,0.8-0.3,1.6-0.5c0.6-0.2,1.1-0.4,1.4-0.5v-5.2h-2.7v-1.5h2.7v-3.1h1.5v3.1h2.2v1.5h-2.2v4.7c0.2-0.1,0.9-0.3,1.6-0.6
				l0.3,1.4l-1.9,0.7v6.7c0,0.8-0.2,1.3-0.6,1.5c0,0-0.1,0-0.1,0.1c-0.5,0.2-0.7,0.3-2,0.3L-450.4,539.7z M-437.5,539.1h6v1.5h-13.3
				v-1.5h5.7v-4.5h-4.7v-1.5h11.2v1.5h-5V539.1z M-444.5,530.7c1.6-0.4,2.6-1.2,3.1-2.2c0.4-0.7,0.6-1.9,0.7-3.4h-2v2.3h-1.4v-3.7
				h5.1v-1.9h1.5v1.9h5.5v3.5h-1.5v-2.1h-2.2v4.2c0,0.3,0.1,0.5,0.2,0.5c0.1,0,0.2,0,0.3,0h2.8l-0.5,1.4h-2.4
				c-0.9,0-1.4-0.2-1.6-0.6c-0.1-0.3-0.2-0.7-0.2-1.3v-4.2h-2c-0.1,2.1-0.5,3.6-1.1,4.6c-0.7,1-1.8,1.7-3.4,2.2L-444.5,530.7z"/>
			<g>
				<path class="st3" d="M-483.9,531.8v-5.7h-6.8v3h-1.5v-4.2h8.2v-1.3h-5.7v-1.2h13v1.2h-5.8v1.3h8.4v4.2h-1.5v-3h-6.9v5.7H-483.9z
					 M-475.9,541h-5c-1.4,0-2.3-0.2-2.7-0.6c-0.3-0.3-0.4-0.8-0.4-1.5v-0.7h-4.8l0,0h-1.5v-6.4h14.6v6.4h-6.7v0.7
					c0,0.4,0.1,0.7,0.4,0.8c0.2,0.1,0.6,0.1,1.2,0.1h5.4L-475.9,541z M-489.5,530.5v-1h5.9v1H-489.5z M-483.6,527.2v1h-5.9v-1
					H-483.6z M-483.9,534.4v-1.5h-4.8v4h4.8v-1.5 M-482.4,535.5v1.5h5.1v-4h-5.1v1.5 M-482.4,527.2h5.8v1h-5.8V527.2z M-482.4,530.5
					v-1h5.8v1H-482.4z"/>
				<rect x="-487.6" y="534.4" class="st3" width="3.7" height="1.1"/>
				<rect x="-482.4" y="534.4" class="st3" width="4" height="1.1"/>
			</g>
		</g>
	</g>
	<g>
		<g>
			<path class="st3" d="M-1076.9,478.2c-8.5-2-10.6-3.6-10.6-7V471c0-2.9,2.7-5.3,7.3-5.3c4.1,0,9.9,2.4,13.9,5.3l0.3-9
				c-3.4-2.3-8.7-3.3-14.1-3.3c-8.8,0-15.2,5.3-15.2,12.9v0.1c0,8.2,5.3,11,14.8,13.3c8.3,1.9,10.1,3.6,10.1,6.8v0.1
				c0,3.4-3.1,5.6-7.9,5.6c-5.5,0-11.3-3-17.4-6.9v9.9c4.7,3.1,12,4,17.2,4c9.4,0,15.9-5,15.9-13.3v-0.1
				C-1062.6,483.8-1067.5,480.5-1076.9,478.2z"/>
			<polygon class="st3" points="-821.8,480.3 -803.1,459.5 -813.9,459.5 -828.3,476.8 -832.4,476.8 -832.4,459.5 -832.5,459.5 
				-832.5,459.5 -840.3,459.5 -840.3,459.5 -841.1,459.5 -841.1,504 -840.3,504 -840.3,504 -832.5,504 -832.5,504 -832.4,504 
				-832.4,483.8 -827.9,483.8 -813,504 -802.3,504 			"/>
			<polygon class="st3" points="-1021.4,483.8 -1021.4,476.9 -1035.1,476.9 -1035.1,459.5 -1035.5,459.5 -1043.4,459.5 
				-1043.8,459.5 -1043.8,476.8 -1057.5,476.8 -1057.5,483.8 -1043.8,483.8 -1043.8,504 -1043.4,504 -1035.5,504 -1035.1,504 
				-1035.1,483.8 			"/>
			<polygon class="st3" points="-988.3,476.8 -996,459.1 -1003.3,459.1 -1011,476.8 -1014,483.8 -1022.9,504 -1012.3,504 
				-1000.2,469.7 -999.3,469.7 -986.9,504 -976.4,504 -985.2,483.8 			"/>
			<path class="st3" d="M-934.4,471.6c0-6.7-5.4-12.2-12.2-12.2h-24.4v0V504v0h7.8v0h0.9v-20.2h8.8l12.7,20.2h10.6l-14.4-20.4
				C-938.8,482.6-934.4,477.6-934.4,471.6z M-947.7,476.9h-14.6v-10.5h15.7c2.9,0,5.2,2.4,5.2,5.2c0,2.9-2.4,5.2-5.2,5.2
				L-947.7,476.9z"/>
			<polygon class="st3" points="-905.9,459.5 -906.2,459.5 -914.1,459.5 -914.6,459.5 -914.6,476.8 -928.2,476.8 -928.2,483.8 
				-914.6,483.8 -914.6,504 -914.1,504 -906.2,504 -905.9,504 -905.9,483.8 -892.2,483.8 -892.2,476.9 -905.9,476.9 			"/>
			<polygon class="st3" points="-875.1,483.8 -853.7,483.8 -853.7,476.8 -853.7,476.8 -875.1,476.8 -875.1,466.5 -850.8,466.5 
				-850.8,459.5 -883.8,459.5 -883.8,459.5 -883.8,476.8 -883.8,483.8 -883.8,504 -883.8,504 -850.5,504 -850.5,497 -875.1,497 			
				"/>
		</g>
		<g>
			<g>
				<path class="st3" d="M-1045,549.4c3.1-2.3,5-5.8,5.9-10.3h9.3v7c0,0.4-0.3,0.7-0.8,0.8c-2.3,0-2,0-2.7,0l0.9,2.3
					c2.7,0,2.7-0.2,3.6-0.5c0.1,0,0.2-0.1,0.4-0.2c0.6-0.4,0.9-1.2,0.9-2.4v-24.4h-13.4v11.2c0,1.4,0,2.6-0.2,3.6
					c-0.5,5-2.3,8.8-5.7,11.3L-1045,549.4z M-1029.8,537h-9c0.1-1.1,0.2-2.5,0.2-4.1v-1.4h8.8V537z M-1029.8,529.3h-8.8v-5.4h8.8
					V529.3z"/>
				<path class="st3" d="M-1054.1,521.6v21h10.3v-21H-1054.1z M-1046,540.4h-5.9v-9h5.9V540.4z M-1046,529.3h-5.9v-5.4h5.9V529.3z"
					/>
			</g>
			<path class="st3" d="M-993,539.4c2.1-2,3.2-3.1,4.6-5.7c0.2-0.3,0.5-1,0.6-1.3l2.7,0c-0.2,0.5-1.3,2.4-2,3.5h6.3v-3.5h2.4v3.5
				h9.3v2h-9.3v3h9.2v1.9h-9.2v3.4h11.2v2.1h-24.7v-2.1h11.1v-3.4h-8.8V541h8.8v-3h-7.8c-1.1,1.3-2.2,2.5-3.2,3.5L-993,539.4z
				 M-969,521.6v11.1H-990v-11.1H-969z M-971.4,526.2v-2.7h-16.2v2.7H-971.4z M-971.4,530.8V528h-16.2v2.8H-971.4z"/>
			<path class="st3" d="M-871.5,547c1.5,0,1.8,0,2.2,0c0.3-0.1,0.5-0.3,0.5-0.6v-9c-1.3,0.5-2.6,0.9-3.8,1.4l-0.6-2.3
				c0.5-0.1,1.2-0.4,2.3-0.7c0.9-0.3,1.6-0.5,2.1-0.7v-7.6h-4v-2.1h4v-4.6h2.2v4.6h3.3v2.1h-3.3v6.9c0.3-0.1,1.4-0.5,2.4-0.8
				l0.4,2.1l-2.8,1v9.8c0,1.2-0.3,1.9-0.9,2.2c-0.1,0-0.1,0.1-0.2,0.1c-0.7,0.3-1,0.4-2.9,0.4L-871.5,547z M-852.7,546.1h8.8v2.1
				h-19.4v-2.1h8.4v-6.6h-6.8v-2.2h16.3v2.2h-7.3V546.1z M-862.9,533.8c2.3-0.7,3.8-1.7,4.6-3.2c0.5-1.1,0.9-2.8,1-5h-2.9v3.4h-2.1
				v-5.4h7.5v-2.8h2.2v2.8h8v5.1h-2.2v-3.1h-3.3v6.2c0,0.4,0.1,0.7,0.3,0.7c0.1,0,0.3,0,0.5,0h4.1l-0.8,2h-3.6
				c-1.3,0-2.1-0.3-2.4-0.9c-0.2-0.4-0.3-1-0.3-1.9v-6.2h-3c-0.2,3.1-0.7,5.3-1.6,6.7c-1,1.4-2.6,2.5-4.9,3.2L-862.9,533.8z"/>
			<g>
				<path class="st3" d="M-920.5,535.5v-8.4h-9.9v4.4h-2.1v-6.1h12v-1.9h-8.3v-1.8h19v1.8h-8.4v1.9h12.3v6.1h-2.2v-4.4h-10.1v8.4
					H-920.5z M-908.8,548.9h-7.3c-2.1,0-3.4-0.3-3.9-0.9c-0.4-0.5-0.6-1.2-0.6-2.3v-1h-7l0,0h-2.3v-9.3h21.3v9.3h-9.8v1
					c0,0.6,0.2,1,0.6,1.1c0.3,0.1,0.9,0.2,1.8,0.2h7.9L-908.8,548.9z M-928.8,533.5V532h8.6v1.5H-928.8z M-920.2,528.8v1.5h-8.6
					v-1.5H-920.2z M-920.6,539.3v-2.2h-7v5.9h7v-2.1 M-918.4,540.9v2.1h7.5v-5.9h-7.5v2.2 M-918.4,528.8h8.6v1.5h-8.6V528.8z
					 M-918.4,533.5V532h8.6v1.5H-918.4z"/>
				<rect x="-926.1" y="539.3" class="st3" width="5.4" height="1.6"/>
				<rect x="-918.4" y="539.3" class="st3" width="5.8" height="1.6"/>
			</g>
		</g>
	</g>
</g>
</svg>
