<?xml version="1.0" encoding="utf-8"?>
<!-- Generator: Adobe Illustrator 16.0.0, SVG Export Plug-In . SVG Version: 6.00 Build 0)  -->
<!DOCTYPE svg PUBLIC "-//W3C//DTD SVG 1.1//EN" "http://www.w3.org/Graphics/SVG/1.1/DTD/svg11.dtd">
<svg version="1.1" id="圖層_1" xmlns="http://www.w3.org/2000/svg" xmlns:xlink="http://www.w3.org/1999/xlink" x="0px" y="0px"
	 width="165px" height="70px" viewBox="0 0 165 70" enable-background="new 0 0 165 70" xml:space="preserve">
<g>
	<path fill="#4E4948" d="M123.469,41.922c-0.496,0-0.766-0.447-0.365-1.167c0.192-0.348,0.42-0.756,0.434-1.464v-0.053h0.32
		l0.01,0.04c0,0,0.102,0.268,0.127,0.464h4.022v-1.528l1.562,0.142l-0.004,0.045c-0.018,0.249-0.229,0.331-0.609,0.389v0.953h3.975
		l0.546-0.441l1.063,1.037l-0.041,0.032c-0.11,0.098-0.268,0.115-0.511,0.128c-0.29,0.401-0.848,0.99-1.299,1.307l-0.025,0.019
		l-0.233-0.126l0.018-0.042c0.151-0.338,0.354-0.91,0.482-1.359h-8.864C124.264,41.125,124.175,41.922,123.469,41.922
		 M126.208,42.392c0.634,0.594,1.336,1.07,2.262,1.562c0.752-0.584,1.425-1.234,1.909-1.88h-3.803L126.208,42.392z M125.943,46.286
		l5.141-0.003l0.154-0.198c-1-0.376-1.919-0.795-2.676-1.279c-0.859,0.538-1.792,0.989-2.841,1.388L125.943,46.286z M131.178,46.833
		h-5.372v2.261h5.372V46.833z M124.894,50.354v-3.865c-0.824,0.264-1.648,0.487-2.455,0.666l-0.047,0.008l-0.088-0.338l0.047-0.012
		c2.152-0.589,4.015-1.399,5.518-2.437c-0.766-0.524-1.435-1.086-1.988-1.697c-0.93,0.778-1.674,1.188-2.633,1.583l-0.037,0.016
		l-0.185-0.26l0.051-0.026c1.594-0.863,3.074-2.479,3.705-3.632l0.018-0.032l1.42,0.305l-0.016,0.052
		c-0.074,0.219-0.402,0.241-0.541,0.241h-0.026c-0.057,0.076-0.29,0.36-0.514,0.596h3.42l0.626-0.384l0.965,0.924l-0.035,0.035
		c-0.123,0.126-0.274,0.167-0.603,0.17c-0.596,0.75-1.369,1.459-2.242,2.074c1.878,0.917,3.945,1.36,5.335,1.58l0.045,0.009
		l-0.02,0.242l-0.041,0.002c-0.34,0.035-0.591,0.267-0.705,0.649l-0.014,0.045l-0.045-0.012c-0.428-0.092-0.861-0.202-1.287-0.333
		l0.079,0.056l-0.034,0.044c-0.08,0.096-0.253,0.185-0.455,0.239v3.08c0,0.065-0.284,0.335-0.885,0.335h-0.049v-0.631h-5.372v0.375
		c0,0.119-0.302,0.333-0.735,0.333H124.894z"/>
	<path fill="#4E4948" d="M139.871,50.354V44.41c-0.57,1.338-1.334,2.528-2.277,3.543l-0.031,0.035l-0.262-0.246l0.024-0.034
		c1.377-1.911,2.075-4.305,2.417-5.996h-2.186l-0.112-0.553h2.427v-2.881l1.479,0.125v0.048c-0.016,0.226-0.162,0.325-0.557,0.365
		v2.343h0.739l0.583-0.768l1.044,0.765l2.397-0.009V38.29l1.487,0.14l-0.008,0.053c-0.033,0.208-0.183,0.305-0.554,0.346v2.319
		h1.293l0.61-0.798l1.191,1.016l-0.02,0.039c-0.13,0.216-0.301,0.294-0.647,0.294h-2.298c0.535,2.086,1.781,4.314,3.117,5.563
		l0.021,0.02l-0.036,0.188l-0.027,0.005c-0.308,0.102-0.679,0.336-0.796,0.706l-0.026,0.091l-0.059-0.075
		c-0.967-1.256-1.805-3.152-2.323-5.258v6.996c0,0.077-0.15,0.369-0.875,0.369h-0.051v-6.64c-0.799,1.87-1.972,3.439-3.492,4.668
		l-0.033,0.026l-0.264-0.244l0.038-0.037c1.562-1.563,2.766-3.824,3.392-6.377h-2.225v-0.132c-0.136,0.095-0.35,0.146-0.451,0.146
		h-1.729v1.567c1.915,0.729,2.063,1.66,2.063,1.931c0,0.334-0.201,0.577-0.475,0.577c-0.139,0-0.278-0.065-0.393-0.183
		c-0.166-0.653-0.718-1.447-1.196-1.962v6.338c0,0.098-0.159,0.374-0.873,0.374H139.871z"/>
	<path fill="#4E4948" d="M154.799,40.341c-0.135,0-0.257-0.043-0.375-0.138c-0.214-0.546-0.817-1.245-1.389-1.611l-0.043-0.025
		l0.119-0.197l0.031,0.004c1.584,0.243,2.145,0.916,2.145,1.416C155.287,40.101,155.075,40.341,154.799,40.341 M154.144,43.527
		c-0.122,0-0.251-0.05-0.367-0.139c-0.187-0.522-0.716-1.149-1.249-1.48l-0.036-0.023l0.101-0.199l0.033,0.002
		c1.468,0.195,1.993,0.8,1.993,1.3C154.618,43.285,154.402,43.527,154.144,43.527 M156.9,49.784l-0.11-0.548h3.275v-1.529h-2.286
		l-0.109-0.552h2.396v-1.407l1.507,0.123l-0.004,0.049c-0.012,0.246-0.208,0.326-0.591,0.389v0.847h1.202l0.583-0.754l1.17,0.972
		l-0.021,0.037c-0.114,0.218-0.289,0.297-0.649,0.297h-2.284v1.529h1.849l0.623-0.797l1.191,1.012l-0.02,0.035
		c-0.116,0.221-0.284,0.298-0.636,0.298H156.9z M153.963,50.34c-0.259,0-0.424-0.258-0.453-0.703c0.07-0.501,0.106-0.95,0.106-1.309
		c0-1.255-0.25-1.333-0.872-1.395l-0.045-0.004v-0.377h0.048c0.419,0,0.564-0.015,0.564-0.015l0.057-0.005v0.017
		c0.095-0.002,0.122-0.03,0.214-0.241c0.065-0.107,0.277-0.574,2.422-5.674l0.016-0.041l0.343,0.091l-0.02,0.049
		c-0.188,0.566-0.439,1.301-0.69,2.046c-0.469,1.386-0.957,2.819-1.075,3.228c-0.122,0.42-0.192,0.825-0.192,1.108
		c0.008,0.235,0.064,0.468,0.134,0.74c0.094,0.381,0.202,0.813,0.202,1.376C154.721,50.148,154.307,50.34,153.963,50.34
		 M162.749,39.416h-5.102v1.447h5.102V39.416z M155.419,50.179l0.02-0.04c1.197-2.305,1.301-5.075,1.301-7.719v-4.008l1.036,0.457
		l4.868-0.006l0.402-0.521l1.194,0.848l-0.037,0.037c-0.076,0.089-0.28,0.209-0.556,0.268v2.048c0,0.062-0.274,0.309-0.85,0.309
		h-0.049v-0.439h-5.102v1.116h5.165l0.596-0.771l1.197,0.974l-0.023,0.037c-0.112,0.216-0.309,0.309-0.649,0.309h-3.212
		c-0.301,0.428-0.646,0.852-0.974,1.262c-0.149,0.182-0.298,0.364-0.434,0.537c0.914-0.002,2.043-0.016,3.216-0.024
		c-0.319-0.395-0.735-0.769-1.149-1.034l-0.043-0.028l0.139-0.198l0.031,0.008c1.817,0.404,2.463,1.268,2.463,1.88
		c0,0.341-0.188,0.578-0.463,0.578c-0.101,0-0.21-0.041-0.336-0.123c-0.094-0.241-0.21-0.484-0.358-0.723
		c-1.072,0.161-2.518,0.34-4.411,0.55c-0.087,0.151-0.22,0.245-0.369,0.255l-0.037,0.008l-0.416-1.163h0.074
		c0.266,0.014,0.634,0.016,1.063,0.016c0.103-0.212,0.22-0.428,0.33-0.647c0.2-0.383,0.406-0.774,0.567-1.151h-1.967
		c-0.029,2.553-0.286,5.191-1.905,7.243l-0.027,0.035L155.419,50.179z"/>
	<rect x="108.263" y="30.999" fill="#9D2224" width="3.391" height="19.355"/>
	<path fill="#9D2224" d="M10.522,33.905c1.869,0,3.563,0.756,4.792,1.981l2.392-2.393c-1.836-1.841-4.376-2.978-7.184-2.978
		c-5.613,0-10.163,4.546-10.163,10.159s4.55,10.16,10.163,10.16c2.808,0,5.348-1.133,7.184-2.973l-2.392-2.397
		c-1.229,1.226-2.923,1.983-4.792,1.983c-3.742,0-6.773-3.031-6.773-6.773C3.749,36.937,6.78,33.905,10.522,33.905"/>
	<path fill="#9D2224" d="M88.927,42.426c0.282-1.908,1.746-3.503,3.747-3.854c2.002-0.357,3.923,0.643,4.839,2.337L88.927,42.426z
		 M101.098,41.751c-0.742-4.208-4.758-7.02-8.969-6.274c-4.211,0.738-7.022,4.753-6.282,8.965c0.745,4.211,4.758,7.021,8.972,6.276
		c1.843-0.319,3.424-1.277,4.547-2.602l-3.237-1.273c-0.538,0.386-1.162,0.657-1.856,0.779c-2.001,0.354-3.922-0.646-4.839-2.339
		l11.782-2.078C101.223,42.725,101.184,42.238,101.098,41.751"/>
	<rect x="19.409" y="30.999" fill="#9D2224" width="3.39" height="19.355"/>
	<rect x="102.216" y="30.999" fill="#9D2224" width="3.387" height="19.355"/>
	<path fill="#9D2224" d="M46.46,47.692c-2.537,0-4.596-2.057-4.596-4.597c0-2.539,2.059-4.596,4.596-4.596
		c2.539,0,4.598,2.057,4.598,4.596C51.058,45.636,48.999,47.692,46.46,47.692 M27.31,42.425c0.281-1.907,1.747-3.501,3.746-3.853
		c1.999-0.355,3.923,0.643,4.84,2.337L27.31,42.425z M50.815,36.696c-1.243-0.847-2.736-1.342-4.355-1.342
		c-3.373,0-6.245,2.163-7.304,5.175c-1.23-3.513-4.86-5.724-8.647-5.053c-4.21,0.738-7.022,4.753-6.28,8.967
		c0.743,4.207,4.761,7.021,8.973,6.274c1.841-0.322,3.422-1.278,4.548-2.6l-3.238-1.275c-0.536,0.387-1.165,0.657-1.858,0.779
		c-2.002,0.354-3.919-0.644-4.84-2.339l10.911-1.923c0.14,4.151,3.552,7.478,7.736,7.478c1.619,0,3.112-0.495,4.355-1.341v0.857
		h3.387V35.839h-3.387V36.696z"/>
	<path fill="#9D2224" d="M83.31,31l-2.559,13.169L77.326,31h-2.732l-3.427,13.169L68.61,31h-3.763l1.073,5.073
		c-2.127,0.156-3.889,0.902-5.255,2.093V35.84h-3.393v10.896v3.618h3.393v-5.713c0-3.383,2.669-5.184,5.921-5.415l2.353,11.128
		h3.766l3.255-12.143l3.253,12.143h3.778L87.088,31H83.31z"/>
	<path fill="#4E4948" d="M62.508,19.457l-0.997,2.038c0.311,0.273,0.55,0.563,0.716,0.874c0.167,0.317,0.25,0.619,0.25,0.903
		c-0.009,0.519-0.309,0.777-0.903,0.777c-0.15,0-0.341-0.03-0.571-0.094l-0.05-0.301c0.247,0.079,0.454,0.118,0.621,0.118
		c0.394,0,0.595-0.167,0.604-0.501c0-0.252-0.07-0.513-0.208-0.785c-0.142-0.292-0.397-0.598-0.765-0.915l0.877-1.839h-1.43v5.347
		H60.35v-5.623H62.508z M57.582,24.182h1.632v-1.28h-1.632V24.182z M59.516,22.626v2.228h-0.302v-0.395h-1.632v0.551h-0.3v-2.384
		H59.516z M57.582,20.536c0.209,0.343,0.402,0.736,0.578,1.18h0.458c0.104-0.167,0.198-0.345,0.282-0.534
		c0.109-0.229,0.196-0.459,0.264-0.689l0.275,0.095c-0.058,0.213-0.145,0.438-0.257,0.671c-0.075,0.176-0.155,0.327-0.238,0.458
		h1.122v0.282h-3.313v-0.282h1.086c-0.134-0.355-0.286-0.696-0.459-1.023L57.582,20.536z M56.937,20.06h3.03v0.274h-3.03V20.06z
		 M58.16,19.162c0.213,0.192,0.389,0.407,0.527,0.646l-0.252,0.175c-0.122-0.234-0.286-0.459-0.495-0.678L58.16,19.162z
		 M51.524,20.692c0.229,0.218,0.44,0.468,0.634,0.748h0.872c0.23-0.235,0.432-0.484,0.603-0.748l0.277,0.095
		c-0.151,0.234-0.327,0.452-0.528,0.653h1.833v0.25h-2.492v0.503h1.989v0.25h-1.989v0.553h2.661v0.251h-2.435
		c0.576,0.452,1.465,0.873,2.661,1.262l-0.227,0.276c-1.172-0.432-2.058-0.906-2.661-1.425v1.72h-0.302v-1.677
		c-0.263,0.218-0.59,0.434-0.978,0.646c-0.603,0.314-1.173,0.551-1.708,0.709l-0.118-0.276c0.493-0.134,1.014-0.329,1.562-0.589
		c0.432-0.218,0.782-0.434,1.055-0.646h-2.447v-0.251h2.635v-0.553h-1.933v-0.25h1.933V21.69h-2.46v-0.25h1.846
		c-0.146-0.21-0.318-0.411-0.515-0.604L51.524,20.692z M51.87,19.162h0.275v1.229h0.885v-1.229h0.275v1.229h2.134v0.245h-5.704
		v-0.245h2.135V19.162z M54.531,19.306l0.249,0.151c-0.199,0.297-0.458,0.572-0.777,0.827l-0.251-0.2
		C54.083,19.841,54.342,19.582,54.531,19.306 M50.59,19.306c0.329,0.251,0.609,0.53,0.834,0.836l-0.251,0.168
		c-0.195-0.296-0.465-0.581-0.803-0.853L50.59,19.306z M45.687,23.68h1.706v-0.602h-1.706V23.68z M45.687,22.827h1.706v-0.584
		h-1.706V22.827z M45.687,21.296h1.606v-0.659h-1.606V21.296z M43.828,21.296h1.551v-0.659h-1.551V21.296z M42.692,19.689h2.687
		v-0.527h0.308v0.527h2.653v0.25h-2.653v0.452h1.906v1.155h-1.906v0.451h2.002v0.829h0.783v0.251h-0.783v1.13h-0.296v-0.276h-1.706
		v0.527c0,0.367-0.221,0.551-0.66,0.551c-0.255,0-0.497-0.035-0.727-0.106l-0.026-0.326c0.256,0.088,0.507,0.132,0.753,0.132
		c0.235,0,0.353-0.111,0.353-0.332v-0.445h-2.078V23.68h2.078v-0.602h-2.806v-0.251h2.806v-0.584h-2.078v-0.245h2.078v-0.451h-1.858
		v-1.155h1.858v-0.452h-2.687V19.689z M39.564,21.138h1.858v0.252h-0.621v3.019c0,0.385-0.145,0.576-0.434,0.576
		c-0.209,0-0.407-0.026-0.596-0.081l-0.025-0.302c0.209,0.072,0.416,0.107,0.621,0.107c0.104,0,0.156-0.111,0.156-0.332V21.39h-0.96
		V21.138z M39.747,19.689h1.449v0.25h-1.449V19.689z M38.284,23.881v-0.702h-0.776l-0.146,0.702H38.284z M37.588,22.167h1.556
		v-0.596h-1.556V22.167z M37.313,21.32h2.108v1.099h-0.86v0.508h0.979v0.252h-0.979v0.702h1.187v0.244h-1.187v0.937h-0.276v-0.937
		h-1.248l0.22-1.198h1.028v-0.508h-0.972V21.32z M38.052,20.637h1.012v-0.603h-0.822C38.182,20.243,38.12,20.444,38.052,20.637
		 M37.313,19.783h0.715c0.051-0.192,0.097-0.386,0.139-0.577h0.276c-0.043,0.2-0.087,0.394-0.139,0.577h1.036v0.854h0.526v0.251
		h-2.805v-0.251h0.709c0.07-0.201,0.136-0.401,0.194-0.603h-0.652V19.783z M36.811,20.611l0.201,0.157
		c-0.127,0.301-0.285,0.603-0.479,0.903v3.408h-0.274v-3.007c-0.201,0.263-0.395,0.486-0.578,0.672l-0.176-0.227
		c0.238-0.234,0.489-0.537,0.754-0.909C36.487,21.27,36.671,20.938,36.811,20.611 M36.811,19.23l0.201,0.158
		c-0.139,0.283-0.325,0.572-0.56,0.865c-0.259,0.322-0.508,0.585-0.746,0.79l-0.182-0.23c0.237-0.194,0.484-0.444,0.739-0.754
		C36.49,19.779,36.671,19.503,36.811,19.23 M32.452,22.123c0.214,0.347,0.381,0.731,0.503,1.149l-0.276,0.081
		c-0.104-0.418-0.265-0.797-0.478-1.136L32.452,22.123z M32.02,21.44h1.33v-1.2h0.276v1.2h0.728v0.25h-0.728v2.792
		c0,0.336-0.176,0.502-0.527,0.502c-0.239,0-0.463-0.035-0.672-0.104l-0.024-0.303c0.229,0.088,0.462,0.132,0.696,0.132
		c0.167,0,0.251-0.1,0.251-0.301V21.69h-1.33V21.44z M32.02,24.208l0.025,0.251c-0.774,0.208-1.634,0.384-2.58,0.525l-0.05-0.275
		C30.452,24.567,31.321,24.399,32.02,24.208 M31.273,23.379l0.243,0.075c-0.07,0.293-0.188,0.591-0.351,0.896l-0.226-0.118
		C31.095,23.932,31.205,23.646,31.273,23.379 M30.162,23.403c0.167,0.28,0.312,0.588,0.433,0.923l-0.276,0.107
		c-0.097-0.331-0.213-0.626-0.351-0.887L30.162,23.403z M30.087,22.996h1.381v-0.697h-1.381V22.996z M29.811,22.048h1.933v1.198
		h-1.933V22.048z M29.56,20.637h1.055v-0.421h0.275v0.421h1.105v0.251H30.89v0.526h0.854v0.252h-2.026v-0.252h0.897v-0.526H29.56
		V20.637z M31.323,19.181c0.191,0.188,0.366,0.397,0.521,0.628h2.466v0.251h-5.001v2.046c0,0.573-0.057,1.126-0.169,1.662
		c-0.097,0.432-0.247,0.868-0.451,1.313l-0.233-0.151c0.227-0.519,0.379-0.979,0.458-1.382c0.079-0.476,0.12-0.954,0.12-1.436
		v-2.303h2.422c-0.113-0.167-0.241-0.325-0.383-0.471L31.323,19.181z M22.215,24.156h4.117v-4.173h-4.117V24.156z M26.688,19.663
		v5.297h-0.356v-0.478h-4.117v0.478h-0.346v-5.297H26.688z M14.368,20.719h1.656c-0.255,0.556-0.587,1.075-0.997,1.556h1.022
		c-0.116,0.581-0.312,1.115-0.583,1.601c0.438,0.26,0.837,0.428,1.192,0.508c0.405,0.113,1.075,0.169,2.008,0.169
		c0.644,0,1.162-0.015,1.55-0.043l-0.043,0.294c-0.402,0.033-0.904,0.051-1.507,0.051c-0.982,0-1.688-0.061-2.114-0.182
		c-0.385-0.109-0.795-0.291-1.229-0.547c-0.252,0.398-0.545,0.716-0.88,0.955l-0.145-0.227c0.306-0.222,0.595-0.556,0.866-1.004
		c0.247-0.427,0.425-0.871,0.534-1.331h-0.892c-0.066,0.072-0.13,0.138-0.189,0.201l-0.226-0.145c0.516-0.54,0.92-1.075,1.212-1.606
		h-1.236V20.719z M14.921,19.256c0.251,0.306,0.462,0.64,0.633,1.004l-0.25,0.182c-0.151-0.359-0.354-0.702-0.608-1.028
		L14.921,19.256z M18.134,19.206c0.218,0.242,0.401,0.51,0.552,0.803l-0.251,0.183c-0.125-0.294-0.301-0.569-0.526-0.829
		L18.134,19.206z M18.215,20.561h-1.229v0.829h1.229V20.561z M18.215,21.641h-1.229v0.829h1.229V21.641z M16.985,23.522h1.229V22.72
		h-1.229V23.522z M17.078,19.206l0.277,0.075c-0.126,0.352-0.249,0.663-0.37,0.935v0.068h2.955v0.276h-1.449v0.829h1.224v0.251
		h-1.224v0.829h1.224v0.25h-1.224v0.803h1.605V23.8h-3.111v0.356h-0.277v-3.395c-0.179,0.314-0.371,0.606-0.576,0.879l-0.207-0.146
		c0.25-0.342,0.469-0.693,0.652-1.054C16.796,20.017,16.963,19.604,17.078,19.206 M12.478,19.281h0.275v5.799h-0.275V19.281z
		 M11.016,19.588h0.274v5.146h-0.274V19.588z M11.8,20.912c0.184,0.582,0.307,1.168,0.37,1.757l-0.277,0.076
		c-0.063-0.624-0.179-1.207-0.351-1.751L11.8,20.912z M10.394,21.02c0.172,0.535,0.287,1.079,0.346,1.63l-0.276,0.07
		c-0.06-0.582-0.165-1.125-0.32-1.632L10.394,21.02z M9.66,19.338h0.275v3.037c0,0.573-0.115,1.098-0.345,1.574
		c-0.205,0.428-0.474,0.781-0.804,1.061l-0.226-0.181c0.376-0.349,0.656-0.735,0.841-1.161c0.171-0.419,0.258-0.85,0.258-1.293
		V19.338z M9.063,21.02l0.275,0.068c-0.083,0.561-0.219,1.132-0.408,1.713l-0.25-0.132C8.856,22.093,8.983,21.542,9.063,21.02
		 M8.311,22.123l0.226,0.151c-0.23,0.896-0.573,1.79-1.029,2.686L7.25,24.785C7.706,23.969,8.06,23.082,8.311,22.123 M7.375,20.719
		c0.382,0.237,0.725,0.522,1.029,0.854l-0.169,0.226c-0.322-0.348-0.656-0.643-1.005-0.886L7.375,20.719z M7.683,19.389
		c0.386,0.229,0.736,0.505,1.055,0.827l-0.176,0.226c-0.33-0.335-0.676-0.618-1.035-0.854L7.683,19.389z M4.404,21.088h0.302
		c-0.008,0.268-0.025,0.525-0.051,0.771c0.126,0.711,0.292,1.275,0.502,1.688c0.21,0.453,0.525,0.865,0.947,1.238l-0.2,0.25
		c-0.419-0.389-0.722-0.79-0.91-1.205c-0.167-0.322-0.313-0.759-0.438-1.312c-0.06,0.344-0.144,0.666-0.251,0.974
		c-0.256,0.682-0.609,1.204-1.062,1.569l-0.119-0.259c0.394-0.347,0.703-0.841,0.929-1.481C4.266,22.703,4.384,21.959,4.404,21.088
		 M4.103,19.206l0.252,0.05c-0.043,0.402-0.108,0.77-0.201,1.104h1.726c-0.075,0.503-0.224,0.997-0.445,1.486L5.157,21.69
		c0.168-0.338,0.285-0.697,0.352-1.079H4.078c-0.004,0.017-0.008,0.035-0.013,0.057c-0.142,0.401-0.314,0.762-0.515,1.08l-0.2-0.176
		c0.213-0.351,0.379-0.709,0.495-1.073C3.971,20.102,4.057,19.67,4.103,19.206 M2.691,23.522h0.477v-1.329H2.691V23.522z
		 M2.44,21.94h0.978v1.833H2.44V21.94z M1.393,23.522h0.47v-1.329h-0.47V23.522z M1.141,21.94h0.974v1.833H1.141V21.94z
		 M1.744,21.245h1.053v-0.804H1.744V21.245z M1.493,20.191H3.05v1.305H1.493V20.191z M3.601,19.507v0.25H0.809v4.594h2.435v0.251
		H0.809v0.479H0.532v-5.573H3.601z"/>
</g>
</svg>
